<svg width="1464" height="1098" viewBox="0 0 1464 1098" fill="none" xmlns="http://www.w3.org/2000/svg">
<rect width="1464" height="1098" fill="#D8E0E3"/>
<mask id="mask0" mask-type="alpha" maskUnits="userSpaceOnUse" x="0" y="0" width="1464" height="1098">
<rect width="1464" height="1098" fill="#D8E0E3"/>
</mask>
<g mask="url(#mask0)">
<path d="M1094.5 723.54C680.477 747.377 859.989 1269.16 1216.95 1448.44C901.176 1448.44 172.02 1150.99 172.02 787.274C172.02 423.553 206.98 64.9648 522.748 64.9648C838.522 64.9648 1094.5 359.819 1094.5 723.54Z" fill="#0AB7E0"/>
<path d="M1787 -122.381C1787 299.199 1551.82 453.84 1298.55 453.84C1045.28 453.84 839.971 112.081 839.971 -309.499C839.971 -731.08 1075.14 -885.72 1328.42 -885.72C1581.68 -885.72 1787 -543.962 1787 -122.381Z" fill="#E16197"/>
<path d="M864.616 -980.844C1443.52 -922.939 1661.04 -173.682 1620.26 236.114C1579.48 645.91 1346.71 181.688 767.806 123.783C188.905 65.8772 284.651 -72.8104 325.433 -482.606C-86.0318 -395.578 285.716 -1038.76 864.616 -980.844Z" fill="#46539D"/>
<path d="M1111.75 -364.484C1319.09 -343.793 1159.29 152.725 1139.66 349.378C1120.05 546.03 1042.02 326.647 834.674 305.956C627.333 285.26 336.346 202.738 355.961 6.09087C375.577 -190.561 904.405 -385.175 1111.75 -364.484Z" fill="#46539D"/>
<path d="M1558.76 311.154C1774.15 699.485 1549.41 1275.85 1294.33 1418.24C1039.25 1560.62 678.275 1137.31 497.395 813.524C316.519 489.734 655.113 -190.964 1058.51 -90.6648C1269.02 -38.3207 1453.57 121.511 1558.76 311.154Z" fill="#487AAD"/>
<path opacity="0.1" d="M1538.97 870.853C1550.67 1138.39 1455.89 1328.17 1300.83 1414.77C1145.77 1501.37 919.699 1260.9 816.393 1046.99C596.015 590.664 892.376 -17.4073 1215.15 228.655C1413.19 379.629 1528.09 621.64 1538.97 870.853Z" fill="#487AAD"/>
<path d="M1747.81 740.332C1759.49 1007.93 1633.83 1270.57 1509.79 1284.37C1338.68 1303.38 1290.73 1094.39 1285.71 922.15C1280.56 745.312 1419.47 289.161 1509.79 684.954C1576.52 977.361 1736.92 491.065 1747.81 740.332Z" fill="#46539D"/>
<path d="M1192.41 782.285C1030.68 1094.03 348.661 1485 -290.971 1327.66C-930.603 1170.33 -0.65239 1087.44 -0.65239 723.983C-0.65239 360.523 204.683 65.8799 519.956 65.8799C655.539 65.8799 780.068 120.322 877.99 211.343C1080.5 340.762 1292.24 589.868 1192.41 782.285Z" fill="#3F92B2"/>
<path d="M186.327 860.874C-178.273 953.155 -711.004 919.448 -611.969 641.791C-448.197 182.651 -51.9054 -124.389 438.286 -62.5468C631.157 -38.2185 815.72 112.835 907.63 253.321C1119 576.409 742.647 720.064 186.327 860.874Z" fill="#37ABB7"/>
<path d="M70.8752 -345.704C434.061 -277.651 930.49 17.7097 716.07 451.523C597.167 692.086 65.0277 894.843 -119.345 812.493C-424.96 675.989 -514.955 -455.472 70.8752 -345.704Z" fill="#3F92B2"/>
<path d="M335.011 559.535C119.641 867.115 -566.911 1060.66 -862.883 853.418C-1158.86 646.172 -952.178 116.619 -736.808 -190.961C-521.442 -498.537 -236.223 -671.491 59.7544 -464.246C355.727 -257.003 550.378 251.959 335.011 559.535Z" fill="#487AAD"/>
<path d="M38.2237 610.262C-236.078 866.053 -891.107 972.57 -1092.46 756.646C-1293.81 540.722 -1193.1 20.7038 -918.796 -235.087C-644.498 -490.874 -118.717 -555.072 82.6356 -339.148C283.988 -123.224 312.522 354.475 38.2237 610.262Z" fill="#46539D"/>
</g>
</svg>
