<?xml version="1.0" encoding="utf-8"?>
<!-- Generator: Adobe Illustrator 25.1.0, SVG Export Plug-In . SVG Version: 6.00 Build 0)  -->
<svg version="1.1" id="Layer_1" xmlns="http://www.w3.org/2000/svg" xmlns:xlink="http://www.w3.org/1999/xlink" x="0px" y="0px"
	 viewBox="0 0 500.2 500.2" style="enable-background:new 0 0 500.2 500.2;" xml:space="preserve">
<style type="text/css">
	.st0{fill:#FFFFFF;}
	.st1{opacity:0.6;}
	.st2{fill:#5C98D1;}
	.st3{fill:#0064B1;}
	.st4{fill:none;}
	.st5{fill:#CCDE91;}
	.st6{fill:#B0D056;}
	.st7{fill:#CD97C4;}
	.st8{fill:#B15EA5;}
	.st9{fill:#EF96B0;}
	.st10{fill:#E56489;}
	.st11{fill:#5BC6CF;}
	.st12{fill:#00AB8E;}
	.st13{fill:#EA84B5;}
	.st14{fill:#CE2F92;}
	.st15{fill:#F08680;}
	.st16{fill:#CA3A46;}
	.st17{fill:#B6D779;}
	.st18{fill:#65BA46;}
	.st19{fill:#48C3CA;}
	.st20{fill:#00A59C;}
	.st21{fill:#23C2F1;}
	.st22{fill:#009FDF;}
	.st23{fill:#DFB9B5;}
	.st24{fill:#D77561;}
	.st25{fill:#5697D1;}
	.st26{fill:#1962AE;}
	.st27{fill:#F5D77E;}
	.st28{fill:#DC9E3F;}
	.st29{fill:#F3A47F;}
	.st30{fill:#D65E32;}
	.st31{fill:#C0C9D5;}
	.st32{fill:#77D0F6;}
	.st33{fill:#0084B9;}
	.st34{opacity:0.7;}
	.st35{fill:#46549D;}
	.st36{fill:#487BAE;}
	.st37{fill:#363E3E;}
	.st38{fill:#4BB970;}
	.st39{fill:#00A04E;}
</style>
<g class="st34">
	<path class="st35" d="M328.9,415.4v-19.4h0H120.8v-107h191.7h0V211h0H120.8V104.2H328V52.4V40V12.4C303.5,4.4,277.3,0,250.1,0
		C112,0,0,112,0,250.1s112,250.1,250.1,250.1c27.5,0,54-4.5,78.8-12.7V460V415.4z"/>
	<path class="st35" d="M500.2,250.1c0-101.6-60.6-189.1-147.6-228.2v28.9c0,0,0,0,0,0v53.3v24.6H328H145.4v57.5h167.1h24.6V211v78.1
		v24.6h-24.6H145.4v57.7h183.5h24.6v24.6v19.4v33.5v29C440.1,438.6,500.2,351.4,500.2,250.1z"/>
</g>
<g>
	<path class="st35" d="M120.8,396.1v-107h191.7V211H120.8V104.2H328V40C303.8,31,277.5,26,250.1,26C126.4,26,26,126.4,26,250.1
		c0,123.8,100.3,224.1,224.1,224.1c27.7,0,54.3-5,78.8-14.2v-63.9H120.8z"/>
	<path class="st35" d="M474.2,250.1c0-86.8-49.4-162-121.5-199.3v53.3v24.6H328H145.4v57.5h167.1h24.6V211v78.1v24.6h-24.6H145.4
		v57.7h183.5h24.6v24.6v52.9C425.2,411.6,474.2,336.6,474.2,250.1z"/>
</g>
</svg>
