<svg xmlns="http://www.w3.org/2000/svg" viewBox="0 0 500.23 500.23"><defs><style>.a{opacity:0.7;}.b{fill:#fff;}</style></defs><g class="a"><path class="b" d="M328.87,415.43V396.07H120.76v-107H312.48V211H120.76V104.16H328V12.39A249.87,249.87,0,0,0,250.12,0C112,0,0,112,0,250.12S112,500.23,250.12,500.23a249.76,249.76,0,0,0,78.75-12.66V415.43Z"/><path class="b" d="M500.23,250.12c0-101.62-60.59-189.07-147.62-228.22V50.83l.05,0v78H145.4v57.54H337.11V313.69H145.4v57.75H353.51V477.92C440.05,438.58,500.23,351.38,500.23,250.12Z"/></g><path class="b" d="M120.76,396.07v-107H312.48V211H120.76V104.16H328V40A223.77,223.77,0,0,0,250.12,26C126.36,26,26,126.36,26,250.12S126.36,474.2,250.12,474.2A223.53,223.53,0,0,0,328.87,460V396.07Z"/><path class="b" d="M474.2,250.12A224.06,224.06,0,0,0,352.66,50.85v78H145.4v57.54H337.11V313.69H145.4v57.75H353.51v77.49A224,224,0,0,0,474.2,250.12Z"/></svg>