<svg xmlns="http://www.w3.org/2000/svg" fill-rule="evenodd" stroke-linejoin="round" stroke-miterlimit="1.414" clip-rule="evenodd" viewBox="0 0 50 50" fill="#FFF"><path d="M42.769 6.233l.088.232.085.232.083.231.079.23.076.23.074.23.07.228.068.228.066.226.063.226.06.224.058.223.055.222.053.221.05.219.048.218.046.216.043.215.041.212.039.211.037.21.035.207.033.205.031.204.029.201.026.199.026.196.023.195.021.191.02.19.018.186.016.185.015.181.013.178.012.176.01.173.009.17.008.166.006.164.005.16.003.157.003.153.001.15v.147l-.001.143-.002.139-.003.136-.004.131-.005.128-.005.124-.007.12-.007.115-.008.112-.008.107-.01.103-.009.098-.011.094-.011.089-.011.085-.011.08-.013.075-.012.071-.013.065.109.118.106.12.106.12.104.12.102.122.102.122.1.123.098.124.097.125.096.126.094.127.093.127.091.128.09.13.088.13.087.131.085.132.084.133.082.135.081.135.079.136.078.137.076.138.074.14.073.14.071.141.07.143.068.143.066.145.064.146.063.147.062.149.059.149.058.151.056.151.054.153.053.155.051.155.049.157.047.158.046.16.044.16.041.162.041.164.038.164.036.166.035.168.032.168.031.171.029.171.027.173.025.175.023.176.021.177.019.179.018.181.015.182.013.183.011.185.01.186.007.189.005.189.003.192.001.193-.001.209-.002.208-.003.207-.005.205-.006.203-.007.202-.009.2-.01.199-.011.197-.013.195-.013.194-.016.192-.016.191-.017.189-.019.188-.02.186-.022.185-.022.183-.024.182-.024.18-.027.179-.027.177-.028.175-.03.175-.03.172-.032.172-.033.17-.034.168-.035.167-.036.165-.037.164-.039.163-.039.161-.041.16-.041.158-.043.157-.043.156-.045.154-.046.153-.046.152-.048.15-.049.148-.049.148-.051.146-.051.145-.053.143-.053.142-.054.141-.055.139-.057.138-.057.137-.058.135-.058.134-.06.133-.061.132-.061.13-.062.129-.063.128-.064.126-.065.125-.065.124-.067.123-.067.122-.068.12-.068.119-.07.118-.07.117-.071.115-.071.114-.073.114-.073.111-.073.111-.075.11-.075.108-.076.107-.076.106-.077.105-.078.104-.079.103-.079.101-.079.101-.081.099-.08.098-.082.097-.082.096-.083.095-.083.094-.084.093-.084.091-.085.091-.085.089-.086.089-.086.087-.087.087-.087.085-.088.084-.089.084-.088.082-.09.081-.089.081-.09.079-.091.078-.091.077-.091.077-.092.075-.092.075-.092.073-.093.073-.094.071-.093.071-.094.069-.094.069-.095.068-.095.067-.095.066-.095.065-.096.064-.096.063-.096.063-.097.061-.097.061-.097.06-.097.059-.098.058-.097.057-.098.056-.098.056-.099.055-.098.054-.099.053-.098.052-.099.052-.099.05-.099.05-.199.098-.199.094-.2.091-.199.089-.2.085-.2.082-.2.08-.2.077-.199.074-.2.071-.199.069-.199.066-.198.064-.198.061-.197.059-.197.056-.196.054-.195.052-.195.049-.193.047-.192.045-.191.043-.191.041-.188.039-.188.037-.186.035-.184.034-.184.031-.181.03-.18.028-.178.026-.176.025-.174.023-.172.022-.17.02-.168.019-.166.017-.164.017-.161.015-.158.013-.157.013-.153.012-.151.01-.148.01-.146.008-.282.014-.269.012-.258.008-.243.006-.23.004-.215.002-.201.001h-.184l-1.815.002L25 45l-2.518-.003-1.815-.002h-.184l-.201-.001-.215-.002-.23-.004-.243-.006-.258-.008-.269-.012-.282-.014-.146-.008-.148-.01-.151-.01-.153-.012-.157-.013-.158-.013-.161-.015-.164-.017-.166-.017-.168-.019-.17-.02-.172-.022-.174-.023-.176-.025-.178-.026-.18-.028-.181-.03-.184-.031-.184-.034-.186-.035-.188-.037-.188-.039-.191-.041-.191-.043-.192-.045-.193-.047-.195-.049-.195-.052-.196-.054-.197-.056-.197-.059-.198-.061-.198-.064-.199-.066-.199-.069-.2-.071-.199-.074-.2-.077-.2-.08-.2-.082-.2-.085-.199-.089-.2-.091-.199-.094-.199-.098-.099-.05-.099-.05-.099-.052-.098-.052-.099-.053-.098-.054-.099-.055-.098-.056-.098-.056-.097-.057-.098-.058-.097-.059-.097-.06-.097-.061-.097-.061-.096-.063-.096-.063-.096-.064-.095-.065-.095-.066-.095-.067-.095-.068-.094-.069-.094-.069-.093-.071-.094-.071-.093-.073-.092-.073-.092-.075-.092-.075-.091-.077-.091-.077-.091-.078-.09-.079-.089-.081-.09-.081-.088-.082-.089-.084-.088-.084-.087-.085-.087-.087-.086-.087-.086-.089-.085-.089-.085-.091-.084-.091-.084-.093-.083-.094-.083-.095-.082-.096-.082-.097-.08-.098-.081-.099-.079-.101-.079-.101-.079-.103-.078-.104-.077-.105-.076-.106-.076-.107-.075-.108-.075-.11-.073-.111-.073-.111-.073-.114-.071-.114-.071-.115-.07-.117-.07-.118-.068-.119-.068-.12-.067-.122-.067-.123-.065-.124-.065-.125-.064-.126-.063-.128-.062-.129-.061-.13-.061-.132-.06-.133-.058-.134-.058-.135-.057-.137-.057-.138-.055-.139-.054-.141-.053-.142-.053-.143-.051-.145-.051-.146-.049-.148-.049-.148-.048-.15-.046-.152-.046-.153-.045-.154-.043-.156-.043-.157-.041-.158-.041-.16-.039-.161-.039-.163-.037-.164-.036-.165-.035-.167-.034-.168-.033-.17-.032-.172-.03-.172-.03-.175-.028-.175-.027-.177-.027-.179-.024-.18-.024-.182-.022-.183-.022-.185-.02-.186-.019-.188-.017-.189-.016-.191-.016-.192-.013-.194-.013-.195-.011-.197-.01-.199-.009-.2-.007-.202-.006-.203-.005-.205-.003-.207-.002-.208L2 26.742l.001-.193.003-.192.005-.189.007-.189.01-.186.011-.185.013-.183.015-.182.018-.181.019-.179.021-.177.023-.176.025-.175.027-.173.029-.171.031-.171.032-.168.035-.168.036-.166.038-.164.041-.164.041-.162.044-.16.046-.16.047-.158.049-.157.051-.155.053-.155.054-.153.056-.151.058-.151.059-.15.062-.148.063-.147.064-.146.066-.145.068-.143.07-.143.071-.141.073-.14.074-.14.076-.138.078-.137.079-.136.081-.135.082-.135.084-.133.085-.132.087-.131.088-.13.09-.13.091-.128.093-.127.094-.127.096-.126.097-.125.098-.124.1-.123.102-.122.102-.122.104-.12.106-.12.106-.12.109-.118-.014-.071-.013-.075-.013-.079-.013-.085-.012-.088-.011-.093-.011-.097-.01-.102-.01-.105-.009-.11-.008-.113-.008-.118-.007-.122-.006-.125-.005-.129-.004-.133-.003-.136-.002-.14-.001-.143v-.147l.001-.15.003-.154.003-.157.005-.16.007-.163.007-.166.009-.169.011-.171.011-.175.014-.178.015-.18.017-.183.018-.185.02-.188.022-.19.023-.193.026-.195.027-.197.029-.2.031-.201.033-.204.035-.205.038-.208.039-.209.042-.211.043-.213.046-.215.049-.216.05-.217.054-.219.055-.221.058-.222.061-.223.063-.224.065-.225.069-.227.071-.227.073-.228.077-.229.079-.23.082-.231.085-.232.088-.231L7.323 6l.052.007.065.009.09.015.116.02.139.026.164.033.188.041.102.024.109.025.114.028.12.031.125.032.131.036.136.037.142.041.148.043.152.046.158.05.164.052.168.055.174.058.179.062.183.065.189.068.194.072.199.076.204.079.208.083.213.087.218.091.223.095.227.099.232.103.236.108.241.112.245.116.25.121.254.126.258.13.262.135.266.14.271.145.275.15.278.155.283.161.287.165.29.171.294.177.298.182.302.188.305.193.154.099.155.101.156.102.157.103.157.105.159.106.159.108.16.11.138-.037.143-.036.149-.034.154-.033.159-.032.164-.031.169-.029.173-.029.178-.027.181-.026.186-.025.19-.024.193-.022.197-.022.2-.02.203-.019.206-.018.209-.017.211-.016.214-.014.216-.014.218-.012.219-.011.222-.01.222-.009.224-.007.225-.006.226-.006.227-.004.228-.003.227-.001.228-.001.228.001.227.001.228.003.227.004.226.006.225.006.224.007.223.009.221.01.22.011.217.012.216.014.214.014.211.016.209.017.206.018.203.019.2.02.197.022.193.022.19.024.186.025.182.026.177.028.174.028.168.03.164.031.159.032.154.033.149.034.143.035.137.037.161-.109.159-.108.158-.107.158-.105.157-.103.155-.102.155-.1.154-.099.306-.194.301-.187.298-.183.295-.176.29-.171.287-.166.282-.16.279-.156.275-.15.27-.145.267-.14.262-.135.258-.13.254-.126.25-.12.245-.117.241-.112.236-.107.232-.104.227-.099.223-.095.218-.091.213-.087.208-.083.204-.079.199-.076.194-.072.189-.068.184-.065.179-.062.173-.058.169-.055.163-.052.158-.05.153-.046.147-.043.142-.041.137-.037.131-.036.125-.032.12-.031.114-.028.108-.025.103-.024.187-.041.164-.033.14-.026.116-.02.09-.015.065-.009.052-.007.091.233zM16.343 24.854l-.222.004-.219.006-.217.009-.215.011-.107.007-.106.007-.105.009-.105.009-.104.01-.104.01-.103.012-.103.012-.102.013-.101.014-.101.015-.1.015-.099.017-.099.018-.099.018-.097.02-.097.02-.097.022-.095.022-.095.024-.095.024-.094.026-.093.026-.092.028-.092.029-.091.03-.091.031-.089.033-.089.033-.089.035-.088.036-.087.037-.086.039-.086.039-.085.041-.084.042-.083.044-.083.045-.082.046-.082.048-.08.049-.08.05-.079.052-.079.053-.077.055-.077.056-.077.058-.075.059-.075.06-.074.063-.073.063-.072.065-.085.08-.084.08-.083.081-.081.081-.079.081-.078.082-.076.083-.075.083-.073.083-.072.084-.07.084-.069.085-.067.085-.066.086-.064.086-.063.087-.061.087-.06.087-.059.088-.057.089-.055.088-.055.09-.052.089-.052.09-.05.091-.048.09-.048.092-.046.091-.044.092-.043.093-.042.092-.04.093-.039.094-.038.094-.036.094-.035.095-.034.094-.033.096-.031.095-.029.096-.029.097-.027.096-.026.097-.025.097-.023.098-.022.098-.021.098-.02.098-.018.099-.017.099-.016.1-.015.099-.013.1-.013.101-.011.1-.01.101-.008.101-.008.101-.006.102-.005.101-.004.102-.003.103-.002.102v.103l.001.213.004.211.007.208.009.204.012.202.015.2.017.196.02.194.023.191.025.189.027.185.031.183.032.181.035.178.038.175.04.172.021.086.022.084.022.084.023.084.024.083.024.082.025.081.025.081.026.081.026.079.027.079.028.079.028.077.029.078.03.076.03.076.03.076.032.074.031.075.033.073.033.073.033.072.034.072.035.071.035.071.036.07.037.07.037.068.037.069.038.067.039.068.039.066.04.066.04.066.041.064.041.065.042.064.043.063.043.062.044.063.044.061.044.061.046.061.045.059.047.06.046.059.096.116.097.114.099.111.102.11.103.108.106.106.107.103.11.102.111.099.114.098.115.096.118.093.119.092.121.09.123.088.125.086.127.085.129.082.131.081.132.079.134.077.136.075.138.074.139.072.142.07.143.069.144.066.147.066.148.063.15.062.151.061.153.059.155.057.156.056.158.054.159.053.161.051.163.05.164.048.165.047.167.046.169.044.17.043.171.042.173.04.174.039.176.037.177.037.178.035.18.034.181.032.183.032.183.03.186.029.186.028.187.027.189.026.19.024.192.024.192.022.194.022.195.02.196.02.197.018.198.018.2.017.2.015.202.015.202.014.204.013.205.013.205.011.207.011.208.009.208.009.21.009.211.007.423.013.428.011.431.008.434.005.437.003L25 43h.141l.44-.001.437-.003.434-.005.43-.008.427-.011.422-.013.21-.007.209-.009.208-.009.207-.009.206-.011.205-.011.204-.013.203-.013.202-.014.2-.015.2-.015.198-.017.198-.018.196-.018.195-.02.193-.02.193-.022.191-.022.19-.024.189-.024.188-.026.186-.027.185-.028.184-.029.183-.03.181-.032.179-.032.179-.034.177-.035.175-.037.175-.037.172-.039.172-.04.17-.042.168-.043.167-.044.166-.046.164-.047.162-.048.161-.05.159-.051.158-.053.156-.054.155-.056.153-.057.151-.059.15-.061.148-.062.147-.063.144-.066.144-.066.141-.069.139-.07.138-.072.136-.074.135-.075.132-.077.131-.079.129-.081.127-.082.126-.085.123-.086.122-.088.119-.09.118-.092.116-.093.114-.096.112-.098.11-.099.108-.102.106-.103.104-.106.102-.108.1-.11.098-.111.096-.114.093-.116.092-.119.09-.12.044-.061.043-.061.043-.063.042-.062.042-.063.042-.064.04-.065.041-.064.039-.066.039-.066.039-.066.038-.068.038-.067.037-.069.036-.068.036-.07.035-.07.035-.071.034-.071.033-.072.033-.072.033-.073.032-.073.031-.075.031-.074.03-.076.029-.076.029-.076.029-.078.028-.077.027-.079.027-.079.026-.079.025-.081.025-.081.024-.081.047-.165.044-.168.042-.17.04-.172.037-.175.035-.178.032-.181.029-.183.028-.185.024-.189.022-.191.02-.194.017-.196.014-.2.012-.202.01-.204.006-.208.004-.211.001-.213v-.103l-.002-.102-.003-.103-.004-.102-.005-.101-.006-.102-.008-.101-.008-.101-.01-.101-.011-.1-.013-.101-.013-.1-.015-.099-.016-.1-.017-.099-.018-.099-.02-.098-.021-.098-.022-.098-.023-.098-.025-.097-.026-.097-.027-.096-.029-.097-.029-.096-.031-.095-.033-.096-.034-.094-.035-.095-.036-.094-.038-.094-.039-.094-.04-.093-.042-.092-.043-.093-.044-.092-.046-.091-.048-.092-.048-.09-.05-.091-.052-.09-.052-.089-.055-.09-.055-.088-.057-.089-.059-.088-.06-.087-.061-.087-.063-.087-.064-.086-.066-.086-.067-.085-.069-.085-.07-.084-.072-.084-.073-.083-.075-.083-.076-.083-.078-.082-.079-.081-.081-.081-.083-.081-.084-.08-.085-.08-.072-.065-.073-.063-.074-.063-.075-.06-.075-.059-.076-.058-.077-.056-.078-.055-.078-.053-.08-.052-.079-.05-.081-.049-.081-.048-.082-.046-.083-.045-.084-.043-.084-.043-.085-.041-.085-.039-.087-.039-.087-.037-.088-.036-.088-.035-.089-.033-.09-.032-.09-.032-.091-.03-.092-.029-.093-.027-.093-.027-.094-.026-.094-.024-.095-.024-.096-.022-.096-.022-.097-.02-.098-.02-.098-.018-.099-.018-.099-.016-.1-.016-.101-.015-.102-.014-.101-.013-.103-.012-.103-.012-.104-.01-.104-.01-.105-.009-.105-.008-.107-.008-.106-.007-.215-.011-.217-.009-.22-.006-.221-.003-.224-.002-.225.001-.228.003-.23.005-.232.007-.234.008-.236.01-.237.011-.24.013-.241.014-.243.014-.245.016-.495.033-1.011.071-.514.036-.521.034-.262.016-.264.016-.265.015-.266.013-.268.013-.269.011-.27.01-.271.009-.273.007-.273.005-.275.003-.276.001h-.141l-.276-.001-.275-.003-.273-.005-.273-.007-.271-.009-.27-.01-.269-.011-.268-.013-.266-.013-.265-.015-.264-.016-.262-.016-.521-.035-.514-.035-1.01-.071-.495-.033-.245-.016-.243-.015-.242-.013-.239-.013-.238-.011-.236-.01-.234-.008-.231-.007-.23-.005-.228-.003-.226-.001-.223.001zm16.689 3.921l.083.005.083.007.082.01.082.013.081.016.08.018.08.021.079.024.078.027.077.029.077.031.076.034.075.037.074.039.074.041.072.044.071.046.071.049.07.051.068.053.068.055.066.057.066.06.064.062.063.063.062.066.061.068.059.07.059.071.057.074.055.075.055.077.053.079.052.081.05.083.049.084.048.085.046.088.044.089.043.09.042.092.04.094.038.095.037.096.035.098.033.099.032.1.03.101.028.103.026.104.025.105.023.106.021.108.019.108.017.109.015.111.014.111.011.112.009.113.008.114.005.114.003.116.001.116-.001.116-.003.116-.005.114-.008.114-.009.113-.011.112-.014.112-.015.11-.017.109-.019.109-.021.107-.023.106-.025.105-.026.104-.028.103-.03.102-.032.1-.033.099-.036.098-.036.096-.039.095-.039.093-.042.092-.043.091-.045.089-.046.087-.047.086-.049.084-.05.083-.052.081-.053.079-.055.077-.056.075-.057.074-.058.071-.059.07-.061.068-.062.066-.063.064-.065.061-.065.06-.066.057-.068.055-.068.054-.07.05-.071.049-.071.046-.072.044-.074.041-.074.04-.075.036-.076.034-.077.032-.077.029-.078.026-.079.024-.08.021-.08.019-.081.015-.082.013-.082.01-.083.008-.083.004-.084.001-.084-.001-.083-.004-.083-.008-.082-.01-.082-.013-.081-.015-.08-.019-.08-.021-.079-.024-.078-.026-.078-.029-.077-.032-.076-.034-.075-.036-.074-.04-.073-.041-.073-.044-.071-.046-.071-.049-.069-.05-.069-.054-.068-.055-.066-.057-.065-.06-.065-.061-.063-.064-.062-.066-.061-.068-.059-.07-.059-.071-.057-.074-.056-.075-.054-.077-.053-.079-.052-.081-.05-.083-.049-.084-.048-.086-.046-.087-.045-.089-.043-.091-.041-.092-.04-.093-.039-.095-.036-.096-.035-.098-.034-.099-.031-.1-.03-.102-.029-.103-.026-.104-.025-.105-.023-.106-.021-.107-.019-.109-.017-.109-.015-.11-.014-.112-.011-.112-.009-.113-.008-.114-.005-.114-.003-.116-.001-.116.001-.116.003-.116.005-.114.008-.114.009-.113.011-.112.014-.111.015-.111.017-.109.019-.108.021-.108.023-.106.025-.105.026-.104.029-.103.03-.101.031-.1.034-.099.035-.098.036-.096.039-.095.04-.094.041-.092.043-.09.045-.089.046-.088.048-.085.049-.084.05-.083.052-.081.053-.079.054-.077.056-.075.057-.074.059-.071.059-.07.061-.068.062-.066.063-.063.065-.062.065-.06.066-.057.068-.055.069-.053.069-.051.071-.049.071-.046.073-.044.073-.041.074-.039.075-.037.076-.034.077-.031.078-.029.078-.027.079-.024.08-.021.08-.018.081-.016.082-.013.082-.01.083-.007.083-.005.084-.001.084.001zm-15.896 0l.083.005.083.007.082.01.082.013.081.016.08.018.08.021.079.024.078.027.078.029.077.031.076.034.075.037.074.039.073.041.073.044.071.046.071.049.07.051.068.053.068.055.066.057.066.06.064.062.063.063.062.066.061.068.059.07.059.071.057.074.056.075.054.077.053.079.052.081.05.083.049.084.048.085.046.088.045.089.043.09.041.092.04.094.038.095.037.096.035.098.034.099.031.1.03.101.029.103.026.104.025.105.022.106.021.108.02.108.017.109.015.111.013.111.012.112.009.113.007.114.006.114.003.116.001.116-.001.116-.003.116-.005.114-.008.114-.009.113-.011.112-.014.112-.015.11-.017.109-.019.109-.021.107-.023.106-.025.105-.026.104-.028.103-.03.102-.032.1-.033.099-.036.098-.036.096-.039.095-.04.093-.041.092-.043.091-.045.089-.046.087-.047.086-.049.084-.051.083-.051.081-.054.079-.054.077-.056.075-.057.074-.058.071-.06.07-.061.068-.062.066-.063.064-.064.061-.066.06-.066.057-.068.055-.068.054-.07.05-.07.049-.072.046-.072.044-.074.041-.074.04-.075.036-.076.034-.077.032-.077.029-.079.026-.079.024-.079.021-.081.019-.081.015-.082.013-.082.01-.083.008-.083.004-.084.001-.084-.001-.083-.004-.083-.008-.082-.01-.082-.013-.081-.015-.08-.019-.08-.021-.079-.024-.078-.026-.077-.029-.077-.032-.076-.034-.075-.036-.074-.04-.073-.041-.073-.044-.071-.046-.071-.049-.07-.05-.068-.054-.068-.055-.066-.057-.065-.06-.065-.061-.063-.064-.062-.066-.061-.068-.059-.07-.058-.071-.057-.074-.056-.075-.055-.077-.053-.079-.052-.081-.05-.083-.049-.084-.047-.086-.046-.087-.045-.089-.043-.091-.042-.092-.039-.093-.039-.095-.036-.096-.036-.098-.033-.099-.032-.1-.03-.102-.028-.103-.026-.104-.025-.105-.023-.106-.021-.107-.019-.109-.017-.109-.015-.11-.014-.112-.011-.112-.009-.113-.008-.114-.005-.114-.003-.116-.001-.116.001-.116.003-.116.005-.114.008-.114.009-.113.011-.112.014-.111.015-.111.017-.109.019-.108.021-.108.023-.106.025-.105.026-.104.028-.103.03-.101.032-.1.033-.099.036-.098.036-.096.039-.095.039-.094.042-.092.043-.09.045-.089.046-.088.047-.085.049-.084.05-.083.052-.081.053-.079.055-.077.056-.075.057-.074.058-.071.059-.07.061-.068.062-.066.063-.063.065-.062.065-.06.066-.057.068-.055.068-.053.07-.051.071-.049.071-.046.073-.044.073-.041.074-.039.075-.037.076-.034.077-.031.077-.029.078-.027.079-.024.08-.021.08-.018.081-.016.082-.013.082-.01.083-.007.083-.005.084-.001.084.001zM8.588 8.428l-.063.209-.061.207-.058.206-.055.205-.054.204-.051.203-.049.202-.046.2-.045.2-.042.197-.041.196-.038.195-.036.193-.035.191-.032.189-.031.188-.028.186-.027.183-.025.182-.024.179-.021.178-.02.175-.019.172-.016.17-.016.168-.013.165-.013.163-.011.159-.009.157-.008.154-.007.151-.006.148-.004.145-.004.142-.002.138-.001.135v.132l.001.128.002.124.003.121.003.117.005.112.005.109.006.104.006.1.007.096.007.091.008.086.009.082.008.076.009.07.009.065.008.059.009.053.008.045.2 1.04-.778.853-.094.105-.093.105-.091.106-.09.107-.089.107-.087.107-.085.108-.085.108-.083.109-.081.11-.08.11-.078.11-.078.111-.075.112-.075.112-.073.113-.071.114-.07.114-.069.115-.067.116-.066.116-.064.117-.063.118-.062.119-.06.119-.059.121-.057.121-.056.122-.054.123-.054.125-.051.125-.05.125-.049.128-.048.128-.046.129-.044.13-.043.132-.042.133-.04.134-.038.135-.037.136-.036.138-.034.139-.033.14-.031.142-.029.143-.028.145-.027.146-.025.148-.023.149-.021.151-.02.152-.019.154-.017.156-.015.157-.013.159-.011.161-.01.162-.008.164-.007.166-.004.168-.003.169-.001.174.001.194.002.195.003.193.004.192.006.19.007.188.008.187.009.184.01.183.012.182.013.18.014.178.015.176.016.175.018.173.018.172.02.17.02.168.022.167.023.165.024.164.024.162.026.16.027.159.028.157.029.156.03.154.031.153.031.151.033.15.034.148.034.147.036.145.036.144.038.142.038.141.039.139.04.138.041.137.041.135.043.134.043.132.044.131.045.129.045.129.047.126.047.126.048.124.049.123.049.121.05.121.051.118.052.118.052.116.053.115.053.114.055.113.055.111.055.11.056.109.057.108.058.107.058.105.059.104.059.103.06.102.061.101.061.1.062.098.062.098.063.096.064.096.064.094.064.093.065.092.066.091.066.09.067.089.007.009-.005-.014-.037-.094-.035-.095-.035-.095-.034-.095-.033-.097-.032-.097-.031-.097-.031-.098-.03-.099-.029-.099-.028-.1-.028-.1-.026-.101-.026-.101-.026-.106-.047-.202-.045-.207-.042-.21-.038-.212L6.342 35l-.032-.216-.029-.219-.026-.221-.023-.223-.02-.225-.016-.227-.014-.23-.011-.232-.007-.234-.005-.237-.002-.238.001-.126.002-.125.004-.125.005-.125.006-.124.008-.125.009-.125.011-.125.012-.124.014-.125.015-.124.017-.124.018-.124.02-.124.021-.124.023-.124.025-.123.026-.124.028-.123.029-.123.032-.122.032-.123.035-.121.036-.122.037-.122.04-.121.041-.12.043-.121.044-.12.046-.119.048-.119.05-.119.051-.118.053-.118.054-.117.057-.117.058-.116.06-.115.061-.115.064-.115.065-.114.066-.113.069-.113.07-.111.072-.111.074-.111.075-.11.076-.109.079-.108.081-.108.082-.107.083-.106.086-.105.087-.105.088-.104.091-.103.092-.102.094-.101.095-.1.097-.1.098-.099.1-.098.102-.097.106-.098.096-.087.1-.087.1-.084.102-.083.102-.08.104-.078.104-.077.106-.074.107-.072.107-.07.108-.069.109-.066.11-.064.11-.063.111-.06.112-.058.112-.056.114-.055.113-.053.115-.05.113-.049.115-.047.116-.046.115-.043.116-.042.117-.04.117-.039.117-.036.117-.036.117-.033.118-.032.118-.031.118-.029.119-.028.118-.026.118-.026.119-.023.12-.023.119-.021.118-.02.12-.019.12-.017.12-.017.119-.015.12-.014.12-.014.12-.012.12-.011.121-.011.121-.009.12-.009.124-.007.239-.013.242-.01.243-.007.243-.004.245-.001.244.001.245.003.246.005.246.008.247.008.247.011.249.012.248.013.25.014.249.015.252.016.502.034 1.012.071.51.035.514.034.255.016.258.015.257.014.258.014.259.012.258.011.259.01.26.008.259.006.26.005.261.003.264.001h.133l.264-.001.261-.003.26-.005.259-.006.26-.008.259-.01.258-.011.259-.012.258-.013.258-.015.257-.015.255-.016.514-.034.51-.035 1.013-.071.501-.034.252-.016.25-.015.249-.014.249-.013.248-.012.248-.01.247-.009.246-.007.246-.006.244-.003.245-.001.244.002.244.004.242.006.243.01.238.013.125.008.12.008.12.01.121.01.121.011.119.013.12.013.121.014.119.016.12.016.119.018.12.018.119.02.119.021.119.023.119.024.119.025.118.026.119.028.118.029.118.031.117.032.118.034.117.035.117.037.117.038.116.04.116.042.116.044.115.045.115.047.115.049.114.051.113.052.113.055.112.056.112.059.111.06.111.062.109.064.109.066.109.069.107.07.106.072.106.075.104.076.104.078.103.081.101.082.101.084.099.087.096.087.106.098.102.097.1.098.098.099.097.1.095.1.094.101.092.103.091.102.088.104.087.105.086.105.083.106.082.107.081.108.079.108.076.109.075.11.074.111.072.111.07.111.069.113.066.113.065.114.064.115.061.115.06.115.058.116.057.117.054.117.053.118.052.118.049.119.048.119.046.119.044.12.043.121.041.12.04.121.037.122.036.122.035.121.032.123.032.122.029.123.028.123.026.124.025.123.023.124.021.124.02.124.018.124.017.124.015.124.014.125.012.124.011.125.009.125.008.125.006.124.005.125.004.125.002.125.001.126-.002.238-.004.236-.008.233-.01.232-.014.229-.016.227-.02.225-.022.223-.026.22-.028.218-.032.216-.034.214-.038.211-.041.21-.044.207-.047.205-.05.203-.053.201-.055.194-.031.103-.03.097-.031.098-.031.097-.033.096-.033.096-.034.095-.035.094-.031.082.047-.062.066-.09.066-.091.065-.092.064-.093.064-.094.064-.096.063-.096.062-.098.062-.098.061-.1.061-.101.06-.101.059-.103.059-.105.058-.105.058-.107.057-.108.056-.109.055-.11.055-.111.055-.113.053-.114.053-.115.052-.116.052-.118.051-.118.05-.121.05-.121.048-.123.048-.124.047-.126.047-.126.045-.129.045-.129.044-.131.043-.132.043-.134.041-.135.041-.137.04-.138.039-.139.038-.141.038-.142.036-.144.036-.145.034-.147.034-.148.033-.15.031-.151.031-.153.03-.154.029-.156.028-.157.027-.159.026-.16.024-.162.024-.164.023-.165.022-.167.02-.168.02-.17.018-.172.018-.173.016-.175.015-.176.014-.178.013-.18.012-.182.01-.183.009-.184.008-.187.007-.188.006-.19.004-.192.003-.193.002-.195.001-.194-.001-.174-.003-.169-.004-.168-.007-.166-.008-.164-.01-.162-.011-.161-.013-.159-.015-.157-.017-.156-.019-.154-.019-.152-.022-.151-.023-.149-.025-.148-.027-.146-.028-.145-.029-.143-.031-.142-.033-.14-.034-.139-.036-.138-.037-.136-.038-.135-.04-.134-.042-.133-.043-.132-.044-.13-.046-.129-.048-.128-.049-.128-.05-.125-.051-.125-.054-.125-.054-.123-.056-.122-.057-.121-.059-.121-.06-.119-.062-.119-.063-.118-.064-.117-.066-.116-.067-.116-.069-.115-.07-.114-.071-.114-.073-.113-.075-.112-.075-.112-.078-.111-.078-.11-.08-.11-.081-.11-.083-.109-.085-.108-.085-.108-.087-.107-.089-.107-.09-.107-.091-.106-.093-.105-.094-.105-.779-.854.2-1.034.007-.038.007-.047.008-.054.008-.061.008-.067.008-.072.008-.079.008-.083.007-.089.006-.094.007-.098.005-.103.005-.108.004-.112.004-.116.002-.12.002-.124.001-.128v-.132l-.001-.135-.002-.139-.004-.142-.004-.146-.006-.149-.006-.152-.009-.155-.009-.158-.011-.161-.012-.164-.013-.166-.015-.17-.017-.172-.018-.174-.02-.177-.021-.178-.023-.182-.025-.183-.027-.186-.028-.187-.031-.19-.032-.191-.034-.193-.036-.195-.038-.196-.04-.198-.042-.199-.044-.201-.047-.202-.048-.203-.051-.204-.053-.205-.056-.207-.057-.207-.06-.208-.063-.209-.027-.086-.076.022-.138.042-.143.044-.149.048-.154.05-.159.054-.164.056-.169.06-.174.063-.18.067-.183.07-.189.073-.194.077-.199.081-.203.085-.208.089-.212.092-.218.097-.221.101-.226.105-.231.11-.235.114-.24.118-.243.123-.248.128-.253.132-.256.138-.26.142-.265.147-.268.152-.273.158-.276.163-.281.168-.284.174-.287.179-.294.186-.145.093-.148.096-.149.098-.15.099-.151.1-.152.102-.152.103-.914.625-1.007-.269-.11-.027-.119-.027-.126-.027-.133-.027-.14-.026-.146-.026-.153-.025-.158-.024-.163-.024-.168-.022-.172-.022-.178-.021-.181-.02-.186-.019-.189-.017-.192-.017-.196-.016-.199-.015-.201-.013-.204-.013-.207-.012-.208-.01-.21-.01-.212-.008-.213-.007-.215-.006-.216-.005-.216-.004-.217-.003-.218-.001-.217-.001-.217.001-.218.001-.217.003-.217.004-.215.005-.215.006-.213.007-.212.008-.21.01-.208.01-.207.012-.203.012-.202.014-.199.015-.196.016-.192.016-.189.018-.186.019-.181.02-.177.021-.173.021-.168.023-.163.023-.158.025-.153.025-.146.025-.14.027-.133.026-.126.027-.12.028-.11.027-1.006.268-.914-.624-.153-.104-.151-.101-.151-.101-.15-.099-.149-.097-.148-.096-.145-.093-.294-.186-.288-.18-.284-.173-.28-.168-.277-.163-.272-.158-.269-.152-.264-.147-.261-.143-.256-.137-.252-.132-.248-.128-.244-.123-.239-.118-.235-.114-.231-.11-.226-.105-.221-.101-.218-.097-.212-.092-.208-.089-.203-.085-.199-.081-.193-.077-.189-.074-.184-.069-.18-.067-.174-.063-.169-.06-.164-.056-.159-.054-.154-.05-.148-.048-.143-.044-.139-.042-.077-.023-.027.086zm8.451 22.347h-.014l-.014.001-.013.002-.013.002-.014.003-.014.003-.015.004-.015.004-.016.006-.017.006-.017.007-.019.009-.018.009-.021.011-.021.012-.022.013-.023.015-.023.016-.024.017-.025.02-.026.021-.027.023-.026.024-.028.026-.028.028-.027.03-.029.031-.028.034-.029.035-.029.037-.028.038-.028.041-.029.042-.028.044-.028.046-.028.047-.027.049-.027.051-.026.052-.025.054-.025.055-.024.057-.024.058-.023.06-.022.061-.021.063-.02.063-.019.065-.018.066-.017.068-.016.069-.015.069-.014.071-.013.072-.011.073-.011.074-.009.074-.007.076-.006.076-.005.078-.004.078-.002.078-.001.08.001.08.002.078.004.079.005.077.006.076.007.076.009.075.011.074.011.072.013.072.014.071.015.07.016.069.017.067.018.066.019.065.02.064.021.063.022.061.023.059.024.059.024.057.025.055.025.054.027.052.026.051.027.049.028.047.028.046.028.044.029.042.028.041.029.038.029.038.028.035.028.033.029.031.028.03.028.028.027.026.027.025.026.023.026.021.025.019.025.018.023.016.022.014.022.014.021.012.021.01.019.01.018.008.017.007.018.007.015.005.015.005.016.004.014.003.013.002.013.002.013.002.014.001.014.001h.026l.015-.001.013-.001.014-.002.013-.002.013-.002.014-.004.016-.004.015-.004.016-.006.017-.006.017-.007.019-.008.019-.01.02-.01.022-.013.022-.013.022-.014.023-.016.025-.018.025-.02.026-.021.026-.023.027-.024.027-.026.028-.028.028-.03.028-.032.029-.033.028-.035.029-.037.029-.038.028-.041.029-.042.028-.044.028-.046.028-.048.027-.048.026-.051.027-.053.025-.053.025-.056.024-.057.024-.058.023-.059.022-.062.021-.062.02-.064.019-.065.018-.066.017-.068.016-.068.015-.07.014-.071.013-.072.011-.072.011-.074.009-.075.007-.076.006-.076.005-.077.004-.079.002-.078.001-.08-.001-.079-.002-.079-.004-.078-.005-.077-.006-.077-.008-.075-.009-.075-.01-.074-.011-.073-.013-.072-.014-.07-.015-.07-.016-.069-.017-.067-.018-.066-.019-.065-.021-.064-.021-.063-.022-.061-.022-.059-.024-.059-.024-.056-.025-.056-.026-.054-.026-.052-.027-.05-.027-.05-.027-.047-.028-.045-.028-.044-.029-.043-.028-.04-.029-.039-.029-.037-.028-.035-.029-.033-.028-.032-.028-.029-.028-.028-.027-.027-.027-.024-.026-.023-.026-.021-.025-.019-.025-.018-.022-.016-.024-.015-.022-.013-.021-.012-.02-.011-.019-.009-.019-.008-.017-.008-.017-.006-.016-.005-.016-.005-.014-.004-.014-.003-.014-.003-.014-.002-.013-.001-.014-.002h-.014l-.013-.001-.013.001zm15.896 0h-.014l-.014.002-.013.001-.013.002-.015.003-.014.003-.014.004-.015.005-.017.005-.017.006-.017.008-.019.008-.019.009-.02.011-.021.012-.022.013-.023.015-.023.016-.025.018-.025.019-.026.021-.026.023-.027.024-.027.027-.028.028-.028.029-.028.032-.029.033-.028.035-.029.038-.029.038-.028.04-.029.043-.028.044-.028.045-.027.048-.028.049-.026.05-.026.052-.026.054-.025.056-.024.056-.024.059-.023.059-.022.062-.021.062-.02.064-.019.065-.018.066-.017.067-.016.069-.015.07-.014.07-.013.072-.011.073-.011.074-.009.074-.007.076-.006.076-.005.078-.004.078-.002.078-.001.08.001.08.002.078.004.078.005.078.006.076.007.076.009.075.011.073.011.073.013.072.014.071.015.07.016.068.017.068.018.066.019.065.02.064.022.062.022.061.022.06.024.058.024.057.025.056.026.053.026.053.027.05.027.049.027.048.028.046.028.043.029.043.029.04.028.039.029.037.029.035.028.033.028.032.028.03.028.028.027.026.027.024.027.023.025.021.025.02.025.018.024.016.022.014.022.013.021.013.02.01.02.01.018.008.017.007.018.007.016.005.015.004.015.004.014.004.014.002.013.002.013.002.014.001.014.001h.026l.014-.001.014-.001.013-.002.013-.002.013-.002.014-.003.016-.004.015-.005.015-.005.018-.007.017-.007.018-.008.019-.01.021-.01.021-.012.022-.013.022-.015.024-.016.024-.018.025-.019.026-.021.026-.023.027-.025.027-.026.028-.028.028-.03.029-.031.028-.033.028-.035.029-.038.029-.038.028-.041.029-.042.028-.044.028-.046.028-.047.027-.049.026-.051.027-.052.025-.054.025-.055.024-.057.024-.059.023-.059.022-.061.021-.063.02-.064.019-.065.018-.066.017-.067.016-.069.015-.07.014-.071.013-.072.011-.072.011-.074.009-.075.007-.076.006-.076.005-.077.004-.079.002-.078.001-.08-.001-.08-.002-.079-.004-.078-.004-.077-.007-.077-.007-.075-.009-.075-.011-.073-.011-.073-.013-.072-.013-.071-.015-.07-.016-.068-.018-.068-.018-.066-.019-.065-.02-.063-.021-.063-.022-.061-.023-.06-.023-.058-.025-.057-.025-.055-.025-.054-.026-.052-.027-.051-.027-.049-.028-.047-.028-.046-.028-.044-.028-.042-.029-.04-.028-.039-.029-.037-.029-.035-.028-.034-.029-.031-.027-.03-.028-.028-.028-.026-.026-.024-.026-.023-.026-.021-.026-.02-.024-.017-.023-.016-.023-.015-.022-.013-.021-.012-.02-.011-.019-.009-.019-.009-.017-.007-.017-.006-.016-.006-.015-.004-.015-.004-.014-.003-.014-.003-.013-.002-.013-.002-.014-.001h-.014l-.013-.001-.013.001z"/></svg>