<svg width="1000" height="787" xmlns="http://www.w3.org/2000/svg"><path fill="#000" stroke="#000" d="M1.5 0h206l2 1 1-1H470l-1.5 3q-2.2-.7-1.5 1.5.8 4.3 6.5 3.5l4.5-2V2q-4.1 1.3-3-2h161.5l1 1 1-1h30l4.5 1.5-1 2.5q-3-1.2-2 2.5L655.5 27l-6.5 5.5.5 1.5-1.5.5q2.5 1.5-1 3l-1.5 2.5-2.5.5q2.5 1.5-1 3l-.5 1.5-1.5-.5-5 12.5-2.5-1-.5 2q-2.7-1.1-2 1.5l-2 4q3.8 1.7.5 3.5l-2.5 1.5q.8 2.3-1.5 1.5l.5 1.5q-1.4 4.6 4.5 2.5l5.5 1 1 5q-5.3-1.2-4.5 2h-3l-1 1H620q1.3 3-2.5 2l-3 1-5-1v2l-1.5.5 2.5.5h2l5.5 1.5-1.5.5-3-1-4.5 1.5 1 2.5q-4.5-1.7-3 3.5l2.5.5 7 1 1.5-.5 1 4-1 4 3 1q.8 2.3-1.5 1.5l-2 1-6-3-4 2-3.5-2-1.5 3-1-1h-12l-4 1-4-1q-3 1.5 0 3l14-2 1.5 3-10.5-1q-1.2 2.3-6 1-1.2-2.2-6-1l-1.5.5q1.7-5.8-2-4.5 1.3 3-2.5 2l-7 4-1.5-.5q1 3.8-2 2.5l1-2.5q-2.5-1.5 1-3 1.3-3.7-2.5-2.5l-6-3-3 4q-7.1.7-10.5-1l-1.5-3q-.1 7.4-4 11l-7-1-3.5-2.5q3.8-1.7.5-3.5l-4 1-2.5 2.5q1.1 3.3-1.5 2.5l-8.5 5.5q6.7.3 9.5 4.5h3.5q-1.2 3 2.5 2l1-3 3.5 1.5 1 4-5 3q1.4 2.8 6 1.5l-1 3.5 2.5.5 3-4 3-1 3.5 1-1 5.5-6 8 5.5.5h2l3.5 1 2-7q5.6 1.9 4-3h5v-5.5q-2.5-1.5 1-3-.5-4 2.5-4.5l2 1 .5-3q4.1-1.7 3 2.5l2.5-1.5q2.3-.7 1.5 1.5l-1.5 2.5 2-1 6 2 2-1 2 1 2-1 5.5 2.5-4 2-2 4q2.5 1.5-1 3 .7 3-3 1.5v2.5l-1 3-9 15.5q-4.1-1.7-3 2.5l-9.5 14.5q-2.2-.7-1.5 1.5l-7 5-1.5 2.5q-2.2-.7-1.5 1.5l-4 10q2.3 1.3-.5 2.5l-3.5 2.5-8 16v3.5q-2.7-1.1-2 1.5 2.3 1.3-.5 2.5l-1.5-.5 1 4-2 .5q1.1 2.7-1.5 2l-2.5 3.5-3 10 1 2-5 10V272q-3-1.2-2 2.5l1 2-2 4v2l-1 5.5q-3-1.2-2 2.5l-2 4-1 8-2.5 3.5-2.5-1-3.5 10-8.5 2 1.5 4 4.5 1-2 5.5 1 4-4 7v4.5l-4 2.5q-.7 2.6 2 1.5l1.5-3 .5 2q3-1.2 2 2.5h2l-1.5 3.5-5 2h-2l-2.5 1.5v3l-6.5 12.5-1-6q-4.2 3-2.5 11l-3 1.5v2.5q-3-1.2-2 2.5l-2.5 6.5q-2.2-.7-1.5 1.5 2.5 1.5-1 3l-6 14-3 3-2 9q-5.3 4.4-6 12.5-3.7-1.5-3 1.5l-3 4-1 6-7 12v3l-8.5 18.5q-3-.8-1.5 3h-3v2.5l-6 10v7q-3.6 5.4-4 14v2l-2 4 .5 1.5-1.5-.5 1 4q-2-1.7-4 2l-3 7 1 2-4 2 1 1-3 3-4 13.5q-2.7-1.1-2 1.5l-3 3-6.5 24.5-1-2-1.5 5.5v2l-1 5 .5 1.5q-3.3-1.1-2.5 1.5l1 3-2 2-3 9q1.7 6.3-1 8v22l-1 3h2l-2 6 .5 1.5q-2.2.8-1.5-1.5l-2.5 1.5-2.5-1.5-2-29-2-6v-8l-2-8v-15l-1-1V576l-2-.5v-7l1-4-1.5-4.5-.5 31.5 1 2-1 1v18l1 1v13l1 1 1 24.5q-3.7-1.5-3 1.5l-3.5-2.5-3.5-1q1.3-4.6-1.5-6l-9-5-1.5 4 3 1.5 4 6v8.5l9.5 1 3.5-1 .5-3q4.4 3.1 2.5 12.5h-1l-.5-1.5-1 2-.5-4.5q2.3-1.2-.5-2.5-2.7 1.3-.5 2.5l-.5 2.5-3.5-1.5-.5-3.5-6 5-.5-5-3-1.5q.7-2.6-2-1.5l-1 8-5.5-2-2 2-5.5 1q-2.2-6 4.5-4l-.5-1.5q1.8-5.7-4.5-3.5l-1 1H304v-6h-7.5q-1.7 2.8-8 1l-1.5 1.5q1 3.8-2 2.5 1.8-4.5-3.5-3l-3.5 8 4 1.5 4 9.5h2v5q2.7-1.1 2 1.5l1 5 3 4-1 4v2l1 7 4 4-1 2.5 3 1.5 2 8.5q3-1.2 2 2.5l-2-1-.5-1.5-1.5 3.5 4 6q-.8 6.7 3 9l-1.5-.5-2.5-.5q2.5-1.5-1-3l-2.5-3.5q-2.6.8-1.5-2.5 2.3-1.2-.5-2.5l-2 1-4.5-8.5h2l-1-3.5q-4.1 1.3-3-2l3-1.5-7-.5-.5-3-3.5 2.5q2.2 1.3-.5 2.5l-2.5-1q1.3-3-2.5-2l-4-2-1.5.5-1.5-2.5q-4.5 1-5.5-1.5l2-.5v-2h-5q1.3-4.1-2-3l1 2.5-2 .5-.5-2-3 1v-1q6.2-.8 9-5l5.5-1-2.5-4-1.5.5 1-2-2.5-.5q-2.2-.7-1.5 1.5l.5 1.5-4.5 2-.5-3-3 6-5 1-2.5-1.5 7-.5 2-4.5-2.5-.5-6.5 1q1.3-3-2.5-2l-3 1h-2q-3.7-1.2-2.5 2.5l.5 1.5-2.5-1q1.7-4.1-2.5-3-1.5-3.5-3-1l-3-1-1.5.5-.5-1.5-2.5 1-.5 2-2.5-1q-1.3 3.3 3.5 2l3.5 5-2 .5 1 4.5 6 1 1.5 7 1-2 .5 1.5-1 2.5 3 .5-2.5 1.5-2.5-.5-1-6.5q-4.5-1.7-3 3.5 3.8 1.8.5 3.5l-1.5-4-4 2 .5-3 1.5.5V707q-3.8 1.5-3-1.5l-5.5-7.5-5.5-2q1.1-2.7-1.5-2l-10.5-3-.5-2-1 2-4.5-3.5 2-9-1-1v-9l-2-3.5q15.8 1.5 22-7.5l1-6.5 4.5 1q3-1.5 0-3-5 .5-5.5-3.5l.5-5.5 1.5.5v-6q-3 1-2-4l-4-3q.8-5.7-3.5-6.5l-4-1-5 1-4.5-6.5 3.5-5.5 2.5-1.5 1.5-2.5 5 2h2l9 1q3-3 10-2l5.5-4.5 2.5-7.5q1.4 4 6.5 3v2.5l5.5 5.5 9 2 16-5 4 1 3.5-5.5v-2q1.3-3.7-2.5-2.5l1-2 4-1h2l6 1 4-1 7-5 5-1 2.5-2.5 1-6.5 5.5-1 5-3h6l9.5-6.5q2.5-3.5 1-11l-5-10.5 5-1 1-4.5-.5-1.5 2 1q3.3-4 9.5-4l.5-3 1.5.5 4.5-11.5 2.5-1.5q1.7-8.7-2.5-11.5H348q1.5-3.7-1.5-3l-2-1-7 2-7-9q-5.5-.4-7.5-4.5.9-3-3.5-1.5l-4-2-7 2-5.5 4.5 1 3-2 4 3 1 4 9-2.5 4.5-2.5-1.5-1.5-3.5-4.5-1q-4.2-8.5-12-14.5l-2.5-5.5-.5 4-3 .5 1 2h-1q.7-2.6-2-1.5l-.5 3-2.5-1-2.5 4-5 1q-2.7-2.8-9-2l-2-2q-1.7 2.8-3.5-1.5l-1-4.5-7-4.5q.8-2.2-1.5-1.5l-4-7h-10l-9.5 5.5-1 4.5q3.7-1.4 2 4.5l-1 2.5q-3.3-1.3-2 3.5l-3.5 5.5q-5.1.4-7 4l-3-2q-3 .5-2.5 4.5 3.5.5 3 5l-6 4 1 2-2.5-1.5q-4 .5-4.5-2.5l-1.5-2.5q-2.6-.7-1.5 2h-2.5l-1.5 2.5 1 2.5 6 1q1.5 6.3-2.5 8l-7.5 2.5.5 1.5-6.5-1-1.5-3-7.5-3q1 4.3-2 5.5l2 5.5 3 1.5-1 6.5-3.5 1-2.5-1.5-1.5 3.5-2 1-.5-2-4-1-.5-2-2.5 1.5 1 4-1.5-.5-2.5 1.5 1 3-4 .5q1.3 3-2.5 2l.5 1.5 1.5 2.5 3.5 1-3.5 7q-1.7-2.7-3.5 1.5-.7 7.2 3 10v5l-3 5 7 3q-1.4 2.8-6 1.5-1.2 3 2.5 2l1 3h4.5v2h3q-1.2 3 2.5 2l3-2 5.5 1q-1.2 3 2.5 2v2q3.3-1.1 2.5 1.5l4.5 6.5 1.5-.5 4 8-1 2 .5 1.5-9.5 1-1-4-5 2.5q.7 2.6-2 1.5l-2.5-5-3 1-5.5-4.5q.7-2.6-2-1.5v-2.5l-9-6q.8-2.2-1.5-1.5l-3-1-3.5 2.5.5-1.5-2 1 .5-1.5-1.5-2.5q-3.7 1-2.5-2h-3v-3q-4.1 1.7-3-2.5-3-1.2-2-5.5-3 1.3-2-2.5l-4-3q1.2-4.6-4-2.5v-4.5l-3-1.5-1.5-3q-2.2.8-1.5-1.5l-3.5-3.5-9-3-4 2-4.5-3q1.3 3-2.5 2-2.5 1-1.5 5.5l.5 1.5-3-2-1.5 4-3.5 1-3.5-1-1.5 6-1.5-3-6 2v5h-1.5q-3.2 1.8.5 3.5l1 5.5 3 1.5 1 2-2 .5-1 5h6.5l10.5 3 1 4 5 .5-1 2.5 5 1q-1.5 3.8 1.5 3h2q2.3-.7 1.5 1.5l2 7q-2.6 1.4-2 6l4.5 6.5 1.5.5-1.5.5-1.5-.5q1.1 3.3-1.5 2.5l-1 2 1.5.5-1 2.5-2 .5 4 1-4.5.5-3-3-15-3-4 1-12-3-2 1-1-1H40l1-2.5-2-1q.8 2.6-2.5 1.5-1.1-2.7-4.5-2l-.5-2H24v4q2.7-1.1 2 1.5 2.3 1.3-.5 2.5-3 .9-1.5-3.5l-2 1 1 4-2.5 1.5h-2l-2.5-2.5q.8-2.2-1.5-1.5l-1 3-6 3-2.5-.5.5-1.5-4 2-.5-20 4-2.5 2-4-1-2v-2L5 615q2.7 1.1 2-1.5l1-5 2-2-3-1.5 1-4.5-3.5-4.5-3.5-1v-12.5l-1-1v-537l1-2-1-1v-40L1.5 0zM660 2q-1 4 2 3 1-4-2-3zM132 5q-1 3 2 2 1-3-2-2zm493 2q-1 3 2 2 1-3-2-2zM433 9l-2 2 3 1q1-4-1-3zm-228 8v2l3-1-3-1zm150 1q-1 3 2 2 1-3-2-2zm-69 3v3h3q-1 3 2 2l-1-3-4-2zm317 1q-1 3 2 2 1-3-2-2zm-455 2v2q2 3 3 0l-3-2zm139 3v3l3-1-3-2zm348 2v2l3 1v-1l-3-2zm-106 1q-1 4 2 3 1-4-2-3zm-62 2l-2 2h2v-2zm-218 5l1 2q1-3-1-2zm-73 4v2l2-1-2-1zm412 4q-1 5 3 3 2-4-3-3zm-349 7l-2 2q-1 4 2 3l1-4-1-1zm302 6v2l2-1-2-1zm5 2q-1 3 3 2 1-3-3-2zm-170 2q0 3-3 2l3 6 4-3q1-4-2-3v-2l-1 2-1-2zm178 2l-2 4 3-1q1-4-1-3zm71 0q-1 3 2 2 1-3-2-2zm-458 1q-1 3 2 2 1-3-2-2zm254 2q-1 4 2 3 1-4-2-3zm51 0l2 4 1-2q1-3-3-2zm49 4q-1 3 2 2 1-3-2-2zm-403 1q-1 3 2 2 1-3-2-2zm104 0l1 4 2-1q2-4-3-3zm369 3l-4 1-1 3q-1 2 2 1l1 3 2 1h-1l-1 2q5 2 3-3h5v2h3q2-5 4-1-1 2 2 1l1 1-1-6h2l-7-5-2 1-2-1q-3-1-2 2-3 1-2-2h-2zm-77 1l-3 1-1 4 4 2q3-1 2-6l-2-1zm60 4v3q3-1 0-3zm-123 1q-2 6 3 4 2-6-3-4zm-274 1l-2 3h2v-3zm394 0l-3 2 4 4 1-3-2-1v-2zm-102 2v2q2 3 3 0l-3-2zm58 0q-1 3 2 2 1-3-2-2zm-275 1q-2 3 1 2l-1-2zm299 6l1 2h7v-2h-8zm-269 3v2l4-1-4-1zm260 0l-1 2 7-1v-1l-3 1-3-1zM97 96l1 2q1-3-1-2zm127 2l-2 2 3 1-1-3zm-41 2q-1 3 2 2 1-3-2-2zm415 2v3q4 1 3-1l-3-2zm-321 1q-1 3 2 2 1-3-2-2zm-103 1q-1 3 2 2 1-3-2-2zm96 6q-1 3 2 2 1-3-2-2zm127 2q-2 3 1 2l-1-2zm-335 2q-1 3 3 2 1-3-3-2zm317 1v2l2-1-2-1zm35 0v3q3-1 0-3zm-30 3q-1 3 2 2 1-3-2-2zm68 2q-1 3 2 2 1-3-2-2zm27 1l-2 2q-1 2 2 1v-3zm-201 5q-2 3 1 2l-1-2zm91 4l-2 2h3q1-3-1-2zm-43 1l-2 2h2v-2zm18 0l-2 2h2l1 1q1-4-1-3zm-26 1v2l2-1-2-1zm37 4q-1 3 2 2 1-3-2-2zm-172 4q-1 3 2 2 1-3-2-2zm255 0q-2 3 1 2l-1-2zm-164 1v2l3-1-3-1zm119 0v1h2l-2-1zm135 0l-1 1q-3-1-2 2l4 2q2 1 1-2h2q2-5-4-3zm-42 3q-1 3 2 2 1-3-2-2zm67 1l-1 3q4 4 11 4l1-5-11-2zm-358 1q-1 3 2 2 1-3-2-2zm350 4l-2 2 1 2q-1 2 2 1h2q3 1 2-2l-3 1 1-2-3-2zm-27 1l-4 2-3 4q3 1-1 3l-2-3-11-3v-2l-1 1h-7q-1 4 2 3v3l5 2 5-2 2 6 7 1q3 0 2-4l7-4q3 1 2-1l4-2-2-2v-1l-5-1zm-57 3l-1 4-3 1-3-1-2 3q5 2 7-1l3 1v1q-4-1-3 2l6-1 2 1 1-2 1-2-5 2v-1l-1-1q-3-1-2-6zm14 1q-1 5 3 3 2-4-3-3zm-64 1l-2 2q-1 2 2 1v-3zm3 1v4h-1l-3 5q8 1 12-3l1-3h-2q1 3-1 2h-2q1 2-1 1 1-2-2-3l1-1q1-3-2-2zm-200 10l2 3 3-1q-1-3-5-2zm294 0v2h3l-3-2zm-170 6q-1 3 2 2 1-3-2-2zm-259 7v3l3 1 1-2-4-2zm360 0q-2 3 1 2l-1-2zm-273 1l-4 2v3q3-1 2 2l2 1 3-3q3 1 1-3l-4-2zm267 0q-1 3 2 2 1-3-2-2zm-132 4q-1 4 2 3 1-4-2-3zm30 5q-1 3 2 2 1-3-2-2zm11 1l1 2q1-3-1-2zm-283 7l1 2q1-3-1-2zm266 0q-1 3 3 2 1-3-3-2zm15 0l-1 2 5 2v-1l-4-3zm13 0l-1 2h3l-2-2zm15 0l1 2q1-3-1-2zm35 0q-1 3 2 2 1-3-2-2zm27 1q-1 5 3 3 2-4-3-3zm-65 4q-1 3 2 2 1-3-2-2zm15 7l-2 4q6 2 4-3l-2-1zm-12 1l-2 2h2v-2zm-23 2l-1 1q-3-1-2 2h-2v2l6-2q1-4-1-3zm5 2l1 2q1-3-1-2zm-19 5l-2 2 2 3-2 1h4v-2l-2-4zm167 2q-2 3 1 2l-1-2zm-51 2l-2 2q2 3 3 0t-1-2zm-134 1v3q3-1 0-3zm86 8l-2 3 3 1v-3l-1-1zm-7 3q-1 3 2 2 1-3-2-2zm71 5q-1 3 2 2 1-3-2-2zm-21 8l-2 2 3 1-1-3zm5 14q-1 3 2 2 1-3-2-2zm-103 7q-1 3 2 2 1-3-2-2zm129 2q0 3-3 2l2 4h2l1-2-2-4zm-51 3q-2 3 1 2l-1-2zm21 71q-1 3 3 2 1-3-3-2zm18 9q-1 3 2 2 1-3-2-2zm3 2l-2 2h3q1-3-1-2zm-56 24l-2 2h3l-1-2zm-33 7v2l3-1-3-1zm42 0q-2 3 1 2l-1-2zm-73 3l-3 9h2l1-3 1 3v-4l3 1 3-1 3-1-2-2-2 1-6-3zm23 3l1 4q4 1 3-1h-2q1-4-2-3zm4 0v2l2-1-2-1zm-13 3v3l3 1h1l-1-3h-1l-2-1zm27 1q-1 2 3 1l1 1q1-4-4-2zm-74 87l-2 2h2v-2zm-169 67v4l-1 2h3l1-3-3-3zm1 42l-1 3h1v-3zm-10 7l-2 3 2-1v-2zm-71 7q-1 3 2 2 1-3-2-2zm106 12q-1 4 4 2 1-4-4-2zm169 6q-4 2-3 7h6l-3-1 2-4-2-2zm-105 14l-1 6 8 4h4l5-4v2l4-1-2-2q-4 1-2-3l-2-1-4 1-1-1-4 4-3-1q1-5-2-4zm85 0l-2 2-9-1 1 4v2q-1 2 6 1 2-4 4 0l5-2-2-4-3-2zm-60 5l-2 1-2 4 1 2-1 3-3 1q-3-1-2 2 7 2 11-2 4 2 3-2 0-3-4-3v-1q3 1 2-2h2q-4 0-5-3zm16 3l-6 5 3 1 1-3 8 2h4q-1 3 2 2 1-4-1-3l-2-2q-1-3-2-1l-7-1zm-33 12v4l4 1 4-1v-4h-8zm9 4v1h3l-3-1zm-50 4l-2 2h3q1-3-1-2zm30 0v4h1q1-5-1-4zm-25 6q-2 3 1 2l-1-2zm4 6q-1 3 2 2 1-3-2-2zm5 13q-2 3 1 4h1l-2-4zM822.5 0l2 1h2l5-1 2 1 5-1q1.5 2.5 7 1h2l4-1 3 1 1-1h16l2 1 3-1 3 1 1-1h91l4 1 1-1h23.5l-1 7.5 1 1v64l-1 3 1 1v78l-1 3 1 1v11l-1 3 1 1v270l-1 4 1 3-1 2v59l1 1-1 1v147l-1 1 1 3.5-2 .5 2 .5-.5 2-1.5-.5q-.7 2.3 1.5 1.5v1H995q1.1 2.7-1.5 2l-2.5.5q.8 2.6-2.5 1.5l-3.5 2-.5 2-.5-2.5q4-2 0-4l-.5-2.5-.5 4-5.5-1-9.5 5v2q-2.7-1.1-2 1.5l-3.5 1.5-4.5-2-1.5 4-2-1-1.5.5-2-3-3-2-1.5 2.5-1.5-.5 1-3-2-5.5 4-1.5q-.7-2.2 1.5-1.5l2.5-1q2.1-5.2-2.5-4h-2q-5.2 1.5-3.5-3l8-1 .5 4 6.5-3q1.1-2.7-1.5-2l-4.5-2.5 3-.5 1.5-3q4.6 1.4 2.5-4.5l-.5-1.5 2 1 .5-2.5q-.8-2.6 2.5-1.5l1.5-2.5h-2l.5-1.5-2 1 1-2 4.5-3.5q-.7-2.2 1.5-1.5l4-5q1.3 2.3 2.5-.5-.7-2.2 1.5-1.5l2-3q-4.4-1.5-3.5 1.5l-2.5.5-2-1-3 4q-10.1-2.1-13.5 2.5 2.8 1.8-1.5 3.5-3 .7-1.5-3h-2l-3.5 8-5 1-1.5-.5q-.8 3 3 1.5v2l-5-1q1.1-2.7-1.5-2l-2.5 1 .5 2h2l1.5.5q-1.2 2.8-2.5.5-6.7 2.3-4.5-4.5l-1-2.5-6-1q1.1-2.7-1.5-2l-6.5-4.5-5-7-2-7-5.5-5.5-5.5-2.5.5-1.5-13-2-7 2-4.5 3.5-.5 1.5q-3.7-2-2-4-2.6-.7-1.5 2h-3.5q-5.7 1.3-8.5 5.5.8 2.6-2.5 1.5l-4.5 4.5-3 6.5-4.5 3-3-2-1 1-3-3-2-1-2 3q-6.3 1.8-8-1l-1.5 4-8 6.5-1.5 3.5-1.5-1.5v-5l-2-4 1-2-1-5 2.5-2.5h2q2.3.8 1.5-1.5l-2-3.5-9 1q1.1-2.7-1.5-2h-2l-5.5-2.5-2.5-3.5-2-1h-2l-3-2q-1.7-3.7-9-2l-7 4h-6l-5.5 4.5-1.5 3.5-1-3-2.5 1.5-1-2 3-5.5q2.7 1.1 2-1.5l.5-1.5-8.5 5.5-2 6-1 12-3 4v3l3 6v6l-1 1v12l1 3.5-2.5 1-4-1-2 3-1.5-2.5 4-2q1.1-3.3-1.5-2.5l-3-1-5 2-11-5-.5 3-8 2-.5 2-1-2-3 2-4-3 .5 1.5q.8 2.3-1.5 1.5l.5 1.5v7.5h-4v-7.5l-2-.5-1 12-24 1-.5 2h-8l-1 1H644l-2.5 4H640v-4h-4v8h3.5v1q-6.8-.9-9.5 1-1-3 2-2v-4h-16q2-6-4-4v-4.5l-1.5-1.5q-1.5 3.5-3 1l-4.5 1 1.5 5 3.5-1 .5-3 .5 2.5-1 3.5-16 1v-4h-4q1.6-4.9-4-3v-5h-8v-5l4-1.5V664l-2-.5v-7q-3-1.2-2-5.5h-15.5l-.5-1.5-1.5.5q-3-.8-1.5 3h-4.5l-3.5 1q1.1 2.7-1.5 2l-3.5 2q1.1 2.7-1.5 2l-2 1-2-1-1.5 2.5.5 1.5-6 1-6-3-2 1h-2l-4.5 2.5 1 2.5 2 .5q-.7 2.3-4.5 1.5l-3.5-1.5 2-1-2.5-.5-1.5.5-1-9.5-4 1.5 1 3.5-2.5 1 .5-1.5q.8-2.6-2.5-1.5l-1.5 3-4-1.5q-1.1-3.3 1.5-2.5l2-3-1.5-.5 4-.5q1.1-2.7-1.5-2l-2 1-5.5-2.5-1.5-3.5-8 1-3-2-.5 2-3.5-1-5 1-2-1q-1.5 2.5-3-1-3.4-.9-1.5 4.5l-1 3.5h-4v-1.5l1-2.5-5.5-2H448q1.3-3.3-3.5-2-3.3-2.7-10-2l-2.5 1.5 6 .5-1.5 3-2-1-2.5 1q1.4-3.7-4.5-2l-3.5-1-.5 2-.5-2q-3.7-1.5-3 1.5l-3.5 4.5-3-2-3 4-2-1-1 2-5.5-1 1-4q2.7 1.1 2-1.5l1-2.5q3 1.3 2-2.5h-1l-.5 1.5-.5-4q3.3 1.1 2-3h6q-1 3.8 1.5 5l1.5-5.5h-2l-1-7.5q-3 1.3-2-2.5l2.5-3.5 2.5-1.5-1.5-3.5-1.5.5 2-5.5 3-.5q-3.7-1.7-.5-3.5 2.6.8 1.5-2.5l-.5-1.5h1.5v-5h3v-3.5l3.5-4.5q1.8 2.8 3.5-1.5l-1-5.5q3.3 1.3 2-3.5h1l.5 6.5q2.4-3.1 1.5-9.5l1.5-1.5q2.6.7 1.5-2h2v-6h4v-1.5l-1-2q1.8-4.2 3.5-1.5 2.6.7 1.5-2-4.1 1.3-3-2l2.5 1 .5-2.5-3-1.5.5-2 3 3 1-1q3.8 1.3 2.5-2.5l-1.5.5q-2.6.8-1.5-2.5l1.5-3.5 2 4 1.5-2.5-1-1 3-3q-3.5-1.5-1-3l1-2-.5-1.5 2.5 1q-1 3 2 2l1-10q3 1.3 2-2.5l-1-2.5 3 .5-1 1 1.5 2.5-1.5-.5v1.5h5l2-11 6-1.5-1-3 2.5-4.5 1 2 3.5-5.5-1-3 1.5-2.5.5 5h2v-5q4.5 1.5 3-3h4v-7.5q3.6-1.9 3-6.5 3 1 2-2h3.5l3-8q3.8 1.3 2.5-2.5l3-1.5 1.5-6 3.5 1q-.8-4.5 2-6.5l-1-2 1.5.5q2.3.8 1.5-1.5 2.7-2.3 2-8l4.5-6.5 2.5-1.5 1.5-2.5h1.5v-3h2q-1.5-3.7 1.5-3l3.5-4.5-.5-1.5 4.5-2.5 2.5-6.5q1.3 2.3 2.5-.5l1-5.5q3.8 1.5 3-1.5l4-3 1-3.5q2.7 1.1 2-1.5l1-3.5q2.7 1.1 2-1.5v-2l1.5-2.5.5 3 5-2 .5-2 1.5.5q.3-4.7 3.5-6.5l10.5-4v2q3.8-1.5 3 1.5l8 19v2l2 6v2l2 3 7.5 26.5.5-2.5-1-2h1l1 4-1 2h2l-1 4h1l.5-1.5.5 1.5-1 2h2v2l3 8-1 3 2 6v2l2 6.5q4.1-1.7 3 2.5l5 12h-1l-2.5-5.5-1.5 3.5 3.5 5.5q2.3.8 1.5-1.5h1l2 6h-1l-.5-1.5-1.5 3.5 2 .5 2.5 6 .5-1.5-2-5h1l8 22 19 39q-3.5 1.5-1 3-.7 3.8 1.5 4.5l3-2 3.5 7.5h-1l-2.5-3.5q-4.2-1.3-2.5 3.5l2 3-1 2 5 7.5 2.5 1 2.5-1-2-6-3-1.5h2l.5-1.5 5.5 10.5-4 2q.8 2.3-1.5 1.5l.5 1.5 2 3-2 2q3.5 1.5 1 3l1 2-.5 1.5 3.5 2.5.5 1.5 1.5-.5q-2.2 1.3.5 2.5l4 3q4.8-1.3 6 1l6.5-4 2-5.5v-4l-2-4.5h-2q1.1-2.7-1.5-2l-2.5-.5-1-4.5q-3 1.3-2-2.5l-2.5-1.5q-2.2.8-1.5 4.5l1 3h-1l-19-33-13-28-3-10-2-2 1-2.5-2-.5 1-3-3-1 1-1-3-3-5-19-5-13 1-3-2-2-2-7v-5l-2-2v-3l-5-12-3-16-4-9-2-13-2-3v-6l-4-12-1-21 1-6.5h2v-6h3.5l2.5-5.5-1.5-2.5-2.5 4-2-.5 2-2V340q-2.7-1.1-2 1.5h-1q.8-2.2-1.5-1.5l-1 1-3.5-3.5-2-10 1-3v-7l2-7 3.5-4.5q2.6.8 1.5-2.5l4-7-1-3h1q-.7 2.6 2 1.5l-1-2.5h2l2.5-3.5 3.5-2.5q-.7-2.6 2-1.5v-3l4-2v-5.5l1-5.5 2.5 1 3-7q5.7 1.8 3.5-4.5 1.3-2.7 2.5-.5 3 .9 1.5-3.5l1-3.5 3-1.5q-.8-2.6 2.5-1.5l-.5-1.5 1-3.5 4-1.5 3-8.5 2-.5-.5-1.5 3.5 1v-3q2.7 1.1 2-1.5l5-4 1.5-2.5h1.5v-4h1.5l2.5 1.5v-2l4.5-5.5 2.5 1.5 4.5-7.5 2.5-1.5q-.5-4 2.5-4.5l2.5 1-1-2.5 2.5-3.5q2.6.8 1.5-2.5l1-2.5q3.7 1.5 3-1.5 2.8-1.2 2.5-5.5l1.5.5q-1.5-4.4 1.5-3.5l1.5.5 3-10.5 4-1 5-8q3 1 2-2h3v-1.5l1.5-3.5 2.5 1v-2q2.7 1.1 2-1.5l1-2.5 4-1q-1.7-4.1 2.5-3l3.5-3.5 1-6.5 2.5-1q.5 3.5 5 3l2.5-2.5q-1.4-7.4 2-10l-3.5-4.5-2 1v-1l1.5-.5-3-.5v-2q-2.7 1.1-2-1.5l2.5-6.5q3.3 1.1 2.5-1.5l5-4 1.5-2.5q2.6.7 1.5-2l-4.5 1-1.5-.5-.5 1.5-4-1-3.5 6q-2.7-1.1-2 1.5l.5 1.5-2-1-2 3 1.5.5-1 4.5-2 .5 3.5 2.5 1-2 2.5 1 3.5 8q2.6-.7 1.5 2-3.8-1-5 1.5l.5 1.5-1.5-3-4.5 1-4-3-5.5 4.5 3 .5q-1.5 4.5 3 3l.5-2 2 3q2.3-.7 1.5 1.5l-3.5 4.5q-1.2-2.2-2.5.5l-1.5 3.5-1.5-4q-3.7-1.3-2 4.5l-1.5 3.5-2-1-3.5 2.5-1.5 4.5-1-3-3 4-4.5 1q1.1 2.7-1.5 2l-2.5-1-2.5 5-1-2-2 3-1-1-3 3-5 1-1.5-3-5.5 2-.5-2q4.3 1 5.5-2l.5 2q2.7 1.1 2-1.5v-2l5-11.5q3 1.3 2-2.5l1.5-2.5 1.5.5v-3q3 1 2-4l2-3-.5-1.5 1.5 4q2.7 1.1 2-1.5h1l.5 1.5q.3-5.7 4-8l8.5-3 1-3.5-2-.5q1.5-3.7-1.5-3l-3 2-2.5-.5q.7-3-3-1.5v-2.5l-.5-1.5 2 1 1.5-1.5-1.5-2.5 4.5-1-1-3.5 1-2.5q4.1 1.7 3-2.5l2.5-3.5h3q.7-3.8 6-3l2 1 6.5-3 1.5-3q1.3 2.3 2.5-.5l-2.5-3.5-6.5-3.5 6-12.5q2.7 1.1 2-1.5l1.5-1.5 6-1q1.3 2.3 2.5-.5-1.1-3.3 1.5-2.5l2 1 3-2 3.5 1 1.5-3q3.8 1 2.5-2l-2.5 1-.5-2.5 3-1-4-.5-1-2.5 2.5-6.5 3.5 1q-.1-4.9 3.5-7 2.3.8 1.5-1.5l4-7 1-8.5h4q-1.7 5.2 2 4-.6-5.3 3.5-8l-.5 1.5 1.5 3.5 2-4h2.5q-2.1-5.2 2.5-4l6-5h2.5q-1.5-3.7 1.5-3l3.5 1V6h6.5l4.5-1q-1.3-3.3 3.5-2V1l4-1zM862 5l-1 3h1V5zm-45 3q-2 3 1 2l-1-2zm119 6l-1 4 3 1q4-2 1-3 1-4-3-2zm-60 2l1 2q1-3-1-2zm11 6v3q4 1 3-1l-3-2zm-85 2q-1 3 2 2 1-3-2-2zm124 4l-2 2q-1 3 2 4h3v-5l-3-1zM787 41q-2 3 1 2l-1-2zm147 4v4h-4q1-3-2-2v2l-3-2-2 1 2 4q-3 1-2-3h-4q-1 3 2 2v3h6v-2l6-1q1 3-2 2v1q4 1 3-2l3-1q2-1 1 2h1v-3h2v-4h-1l-6-1zm-116 1l-2 2h2v-2zm125 1v2l3-1-3-1zm-135 3v2l2-1-2-1zm109 0l-8 5 2 3 3-1-2-1 1-2 5 3 1 1-2-4 1-3-1-1zm-114 1l-2 2 2 1v-3zm-8 1v2q-1 2-2 0l-1 2-3 1-1-3q-3-1-2 2l-1-1-2 5-3-1-4 3 1 3v1q2-1 1 2v1l3-1 4 4q-1 3 2 2h2l3-1h5l4 3 2-1q8-1 11 3 2-1 1 2 3 1 2-1l-4-3-1-2q2-4 8-3l6-4 3-2q3-1 0-3l-4 2v2l-5-3-4 1-9-5 1-3-2-1-2 1 2 4q-1 3-6 2v-4l-1 4-3 1-2-3 3-3-1-1 1-2q1-3-2-2zm-27 1q-5 1-4 7 1 3 5 2l1-4 1-1-3-4zm153 1l-1 3h1v-3zm13 13q-1 3 3 2 1-3-3-2zm-181 1l-1 2 3 1 2-1-4-2zm29 3v3l2-1q1-3-2-2zm-44 1v1h2l-2-1zm2 9l1 1q1 3-2 2l1 4 4 2q3-1 2 2l-4 3v1q5 1 6-2l3 2-1-2 2-4q-1-3 2-2h2q3 1 2-1l1-2-4 1-6-1-2-2q-2-3-7-2zm31 2l-2 1v2l-1 4h-6l-8 2-3 5 1 3q4 1 3-2l8 2q2 1 1-2l6-4 3 1q3-1 2-6l-1-3 2-2-5-1zm160 1q-1 3 2 2 1-3-2-2zm-145 4l-1 1q-4-1-3 2h-3q-1 3 2 2l2 5 5 1h2q3 1 2-2l11-1v-4l-2 3-1-3h-1q-8-1-7 2h-3l3-2-3-2q1-4-3-2zm-9 1l-1 2h3l-2-2zm165 5q-1 3 2 2 1-3-2-2zm22 3v2l2-1-2-1zm-152 9l-2 2q-1 2 3 1 1-4-1-3zm20 1l1 4 2-1q2-4-3-3zm-122 4v2q-1 2 2 1 2-4-2-3zm234 2q-1 3 3 2 1-3-3-2zm-233 3l-2 2h2v-2zm12 4v2l3 1-1-1q1-3-2-2zm-1 3l-2 2h2q1 2 2 0l-2-2zm106 5q-3 2 0 3l2-1-2-2zm80 40l-2 2q-1 4 3 2l-1-4zm11 2l-2 2h3l-1-2zm-69 9l1 2q1-3-1-2zm-15 6l-4 1-2 3q-2 1 1 2l1-2h2l4-2-2-2zm97 9l-2 2h2v-2zm-213 1l1 3-2 6-3 1q-4-1-3 2l3-1 3 2 1 9 2-1 1 8v-2l2-2-1-3 3 2-1-1q1-3-3-2l1-8q6 1 8-2l-1-2-7-1-2-4q1-5-2-4zm80 0q-5 2-2 4 1 2-2 1v3q4 1 3-1 1-3 3-1l2-3q0-3-4-3zm-111 1q-3 4 1 3l-1-3zm262 2q-2 3 1 2l-1-2zm-26 4v1h2l-2-1zm-140 2l1 2 4-1-5-1zm97 4q-1 3 2 2 1-3-2-2zm72 0q-1 3 2 2 1-3-2-2zm8 1q-1 5 3 6l3-1 1-3q-2-4-7-2zm-188 5l1 2q1-3-1-2zm-38 1l-2 3 3-2-1-1zm-64 3q-1 3 2 2 1-3-2-2zm40 5l2 4q2-1 0-2 1-3-2-2zm-2 1l-2 2q1 4-1 3v-2l-3 1q-3-1-2 2l2-1q2-1 1 2h4q2-1 0-2l1-2v-3zm187 2q-1 3 2 2 1-3-2-2zm-179 1v2h3l-3-2zm41 2l-3 4-5 2-1 3 5 1 2 5h4l6-5 1-2-1-3-3-1-2-2-3-2zm-58 3l-1 1q-3-1-2 3 4 1 3-2h4q1-4-4-2zm-44 13l1 4q2-1 0-2 1-3-1-2zm18 0q-3 1-1 3v1l-1-2-4 1 1 2 4 2q3 1 1-3h2l-1-1 2-1q1-3-3-2zm-15 1l-1 3h3q1-4-2-3zm40 0v1h2l-2-1zm-45 3l1 2q1-3-1-2zm-5 4v3q0 3 5 2v-1h-2v-4h-3zm331 16q-1 3 2 2 1-3-2-2zm-346 7l-2 2 2 3 2-3-2-2zm229 2v3l4 1q2-6-4-4zm77 13l-2 2 1 2 3-1q1-4-2-3zm-162 11l-2 2q-1 2 2 1v-3zm-104 2q-1 4 2 3 1-4-2-3zm163 14l-2 2 2 3q5 2 3-3l-3-2zm-242 6q-1 3 2 2 1-3-2-2zm9 12q-3 2 0 3 3-1 0-3zm180 0q-1 3 2 2 1-3-2-2zm-177 6q-1 3 2 2 1-3-2-2zm3 6q-1 3 2 2 1-3-2-2zm-26 57l-2 2h2v-2zm5 4v3l4 2v-3l-4-2zm-23 3q-3 4 1 3l-1-3zm290 2l-1 3 1 2q-1 3 2 2l1-3-1-2q1-3-2-2zm-272 5v2q2 3 3 0 1-4-3-2zm12 1l-2 3 4 1-2-4zm-9 12v3l3-1q1-3-3-2zm-41 1q-2 3 1 2l-1-2zm82 9l1 2q1-3-1-2zm-36 2q-3 1-1 3-1 2 2 1l-1-4zm5 0v5l3 1-1-4q1-3-2-2zm7 2l-2 2h2v-2zm-21 4l-1 3 2 4q-1 3 3 1l1-6q-1-3-5-2zm21 9v4l3 1 1-3-4-2zm-8 6q-1 3 2 2 1 2 2 0l-4-2zm15 9l-2 2q-1 3 2 4l3-1-1-3-2-2zm-12 10l-2 5 3 3 3-1-4-7zm5 1l-2 3 3 1q-1 4 2 5t1-3h2l-1-2q1-3-2-2v3l-1-3-2-2zm13 0l2 4h2l-1-2-3-2zm-1 6l-2 2 1 2 5-1 1-2-2-1v2l-3-2zm-4 10v3l4 2q2-7-4-5zm14 0l-2 3 2-1v-2zm-5 4q-1 6 4 9v3q3-1 2 3 3 1 2-3h2l-8-10q1-3-2-2zm2 15l3 8q-1 3 3 1v-4l-2-4-4-1zm10 2q-2 3 1 2l-1-2zm280 1v2l-1-1-4 1q-5-2-4 3l-2-2-2 2q-6-2-4 4l5 1 1-3 5 1q4 1 6-2l8 1q2-1 0-2v-2h-4v-1l-4-2zm-281 5l-2 2 1 4 3-1q2 1 1-2l-3-3zm36 27q-2 5 2 4 2-5-2-4zm10 10v7h2v-6l-2-1zm-229 2l-3 3 2 4 1-5v-2zm193 5l2 5q5 2 3-3-1-3-5-2zm12 12l-3 7 3 1q3 1 4-1l-2-6-2-1zm24 0l-2 2 1 4 3 1v-5l-2-2zm83 19l-2 2h2v-2zm59 2l-7 3 3 1v4h4v2h3l-1-2q-1-4 4-2l1-3-2 1-2-1q-3 1-2-3h-1zm-10 7l-2 2h5q1-3-3-2zm173 9l-3 3h4q1-4-1-3zm-563 3q-2 3 1 2l-1-2zm133 4q-3 5 1 4l1-2-2-2zm384 4q-2 5 2 4 2-5-2-4zm-385 5q1 3-3 2-3 1-2 5 4 1 2-4h3v2q6 1 8-2v-3h-8zm-121 1l-3 2h4q1-3-1-2zm23 0v3l4 1 1-2h-3q1-3-2-2zm479 0l-1 3h2l1-2-2-1zm-450 1v1h2l-2-1zm-63 1v3l3-1q1-4-3-2zm125 0l-1 3h1v-3zm-55 2l-2 2q-2 5 3 4 2-1 1-5l-2-1zm47 0l-2 2q-1 2 2 1v-3zm-113 1v3h8v-3h-8zm13 0v1h3l-3-1zm139 0v3q-1 3 2 2l1-2-3-3zm-116 1v2h4v2h1v-4h-5zm44 2l1 3-1 2h2l-2 3 1 5 3-5-2-5q1-4-2-3zm-88 2v3l2-1q1-3-2-2zm101 0l-1 4q3 1 2 4l9 1 3-4 3 1 1-2-2-2q-2 3-3-1l-4 2q2 4-2 3v-1l-3-5-1 2-2-2zm-5 2l-1 3 1 3h1q-1-3 2-2l1 2v-3l-4-3zm-103 1v3q3-1 0-3zm119 5v2l2-1-2-1zm52 0v8h2v-7l-2-1zm380 0q-1 3 2 2 1-3-2-2zm-426 6l-2 2h3l-1-2zm462 0l-1 2-3 1h3l1 1 2-3-2-1zm-411 5q-3 7 2 5l-2-5zm402 4q-1 3 2 2 1-3-2-2zm-393 1v2q2 3 3 0t-3-2zm46 4q-2 5 3 4l-1-1 6-1v-2h-8zm-23 3v1h7l-7-1zM762 1h10v5.5L768.5 8l-3-1-3.5 1-2.5 6h-3q-1.9 3.6-6.5 3 1.3 3-2.5 2l-3 1-3-1-3 1 .5-1.5V16h5v-2.5l1.5.5 6.5-4.5 1.5-2.5 2.5-1.5.5-1.5 2 1 3.5-2V1zm-16 16v2l2-1-2-1zM775.5 18l.5 2.5-2-1 1.5-1.5zM736 22q3-1 2 2-3 1-2-2zM721.5 39h2.5q-1.1 2.7 1.5 2l2 1 1.5-.5-1 4 3 .5-1 2.5.5 1.5q-6.4.1-8.5 4.5.8 2.3-1.5 1.5l-8.5 7.5q-1.5 4.4 1.5 3.5l4 1 3.5-1-1 3.5.5 1.5-10 1-4-2-2.5 1v2.5l-6.5 7.5-3-1q-2 2.8-6.5 2l-3.5 5-5.5-2.5q6.2-4.3 8.5-12.5 1.4 3.3 6.5 2l1-4q2.7 1.1 2-1.5l-1-3 2.5-3.5 2.5-1.5 1-3.5q5.3.6 8-3.5l-3-1 1-3.5q7.5-.7 11-6.5-.5-4 2.5-4.5zM664.5 47q3-.8 1.5 3-3.7-1.5-3 1.5h-1q-1.5-4.4 1.5-3.5l1-1zM732 47l3 1.5-3 .5v-2zM739.5 54q2.6-.8 1.5 2.5v2l-.5 1.5-5.5-1 1.5-4 3-1zM667.5 57l.5 2.5h-1l.5-2.5zM649.5 60l.5 3q-2.7 1.1-2-1.5l1.5-1.5zM664.5 60l1.5.5-2 1 2 1-3 .5 1.5-3z"/><path fill="#000" stroke="#000" d="M744 60q3-1 2 2-3 1-2-2zM650.5 65l5.5 2.5 2 4-2-1-.5-1.5-.5 3-2.5 1-1.5-.5 1 5.5-4 2.5 2.5.5 2.5-1q1.1 2.7-1.5 2-2.7 1.3-.5 2.5V86h-2q1.1 2.7-1.5 2-1.2-3-5.5-2l-.5 3-5.5-3 2-5 3-1.5-2-5 2.5-.5 4.5-2 4.5-7zM800 67l3 .5-2.5 1.5-.5-2zM636.5 68q3 1.5 0 3l-3.5-.5 3.5-2.5zM634.5 72l2.5.5-2.5.5v-1zM588 77q3-1 2 2-3 1-2-2zM683.5 92q3.3-1.1 2.5 1.5l-5 4 1 3q-2.5 1.5 1 3l-1.5 1.5-2-1-3.5 2-4.5 6-1.5.5 2.5 3.5-5.5 2.5 2 3-2.5-1.5-6 4-4 1-1-3-2 1 1.5-2.5 3.5-4.5 5.5-1.5q-3.5-1.5-1-3 1.3-3.7-2.5-2.5l-1.5 3q-2.7-1.1-2 1.5l-1 2.5-4.5 1q-2.7-1.2-.5-2.5v-2l4.5-4.5 2.5-1.5q-.5-4 2.5-4.5l9-1q5.3-6.2 14-9zM628.5 103q2.3-.7 1.5 1.5l3.5 1.5 2.5-1v2q-3.7-1.5-3 1.5l-1.5-.5q-2.6-.7-1.5 2l2 .5-4 3v2.5q-3-1.2-2 2.5l6 2.5.5 3 .5-4 4.5 1 1.5-.5-2.5 3.5 1.5.5-3 .5q1.7 4.1-2.5 3l-2 1v-2q-4.7.8-6.5-1.5 2.3-1.2-.5-2.5l-.5 3h-8.5l-.5-1.5.5-2.5q2.3.8 1.5-1.5l4-8.5 2-.5-2-1 2-.5q-1.1-2.7 1.5-2v-2q4.5.5 5-3zM600.5 111h2l2.5.5-3 .5q1.1 2.7-1.5 2l-2.5-1.5 2.5-1.5zM536.5 118l2.5 1.5-3.5.5 1-2zM559.5 118l2.5 1.5q.8 2.6-2.5 1.5l-3.5-1.5 3.5-1.5zM530.5 126q4.4-1.5 3.5 1.5-1.3 3.5-6 2.5l2.5-4zM576.5 147l-1 2 1-2zM674.5 161l.5 2-2-.5 1.5-1.5zM665.5 162l.5 5.5-.5 1.5 2.5 1.5q-.7 2.6 2 1.5l1.5-3-.5 1.5q-.8 2.6 2.5 1.5l2.5 1 1-4.5q-2.2-1.2.5-2.5l2.5 1.5q-.7 2.6 2 1.5v2.5q-2.7 1.3-2.5 5.5l-3-2-2.5 1q1 5.7-2.5 8l-1.5-.5-1.5 3.5-2.5-1.5-1 5.5-2 .5.5 1.5-2.5-1 2-4.5-1-2v-2l-1.5-3.5q-3.7 1.3-2.5-2.5l1-3-1.5.5-1.5-.5 2-.5.5-3 1.5.5-1-3h1l.5 1.5 5-8zm-2.5 7l-1 3-2 1h2q1 2 2 0l-1-4zm4 1l-2 6 3 5 2-3q1-3-3-2l1-3-1-3zm1 3q-1 3 2 2 1-3-2-2zm-7 1q-2 3 1 2l-1-2zm10 4q-3 4 1 3l-1-3zM651.5 180l1.5 5.5-1 2 3 4-2 1 3 1.5.5-5 .5 10.5-1.5 2.5-1.5-.5 1 2h-4q.5 4-2.5 4.5l-4.5-1.5 4-1.5v-2q-4.1 1.3-3-2l3-1.5-1-2 1-2-2 1q.8 2.3-1.5 1.5l.5-1.5 2-3 1-2.5q3.3 1.3 2-3.5l-1-3 2.5-4.5zm-3.5 20v3l3-1-3-2zm4 0q0 4 2 1l-2-1z"/><path fill="#000" stroke="#000" d="M660.5 184l.5 1.5-2.5 1.5 2-3zM644.5 191l2.5.5-3.5 1.5 1-2zM641.5 207l1.5.5-2 1q3.5 1.5 1 3l-1 3.5-3.5-1q-1.2 2.3-2.5-.5l3.5-4.5-1.5 2.5q-.8 3 3 1.5-1.2-4.6 1.5-6zM577.5 336l1.5 2.5-1 2 1 2-2.5-1.5q-2.2-.7-1.5 1.5l-1 3 3.5 1.5 1.5-.5v7l-2 4 1 2-1 3.5q-2.7-1.1-2 1.5l-4.5 5.5q-4.2-1.3-2.5 3.5-3.7 1.3-3 5.5-2.7-1.1-2 1.5l-1.5 4.5-1-3-.5 4q-3.7-1.5-3 1.5l-2 4.5q-2.7 1.1-2-1.5h-1q1.3 4.8-2 3.5l-.5-2-3 7-1.5-.5-.5 2.5-1.5-.5-.5 2.5-1-2q-2.5 1.2-1.5 5l-2.5-1-3.5 5.5v3.5l-5 3.5-2 3-2.5 7.5-2-1-6.5 5.5-2.5 3.5-3.5 2.5-2.5 4.5-1.5-.5 1-2.5q3.3 1.3 2-3.5v-2q-1-3.7 2-2.5v-3.5l3-6.5 2.5 1 2.5-1q.3-6.9 4.5-11l2.5-1.5-1-2 4.5-6.5 4 2 .5-4.5 5.5-9.5 2 1 2.5-5.5-1-2.5q2.7 1.1 2-1.5l4.5-8.5h2.5v-4h2q-1.1-2.7 1.5-2l2.5-3.5q-2.2-1.3.5-2.5l1.5-.5-1-1 3-3 1-3.5q2.7 1.1 2-1.5l3-1 3-9.5 2.5 1 4.5-2.5-2-1 1.5-1.5zM534 404l-2 2h2v-2zM504.5 443l.5 2.5h-1l.5-2.5zM617.5 476l1.5 4.5-2-1 .5-3.5zM440 568l2 .5-2 1V568zM156.5 583l1.5 2.5-1 4 2 4-2.5-1.5-6 1 .5-1.5 1-5-1-2.5 5.5-1zM159.5 596q4.5-1 5.5 1.5l-3 2q.7 2.6-2 1.5v-2q-2.7 1.1-2-1.5l1.5-1.5zM64.5 602l1 2q-2.8.7-1-2zM185.5 618q2.6-.7 1.5 2l-3-.5 1.5-1.5zM100.5 646l.5 2-5-.5 4.5-1.5zM399.5 647l1 2-1-2zM45.5 648l2.5.5-2.5.5v-1zM83.5 648l2.5.5-2.5.5v-1zM336.5 648l.5 2.5h-1l.5-2.5zM82 650l2 .5-2 1V650zM448.5 651l6.5.5-4.5 1.5-2-2zM397.5 653l2.5 1q1.4 3.7-4.5 2l2-3zM560 653h8v3l-12-.5 4-.5v-2zM1.5 654l1 4q1.8-2.7 3.5 1.5-.7 2.6 2 1.5v2.5h2l-1 1v7.5H5v1.5l-2 1-.5-5.5-.5 25 4 1 2 9.5-3.5 1.5-2.5-1-.5 2v-53zM16.5 654l1 2q-2.8.7-1-2zM291.5 656q6.5-1 8.5 2.5l-1.5 2.5H296v4h-1.5l-5.5-3.5q-.7-4.7 2.5-5.5zM569.5 656q4.2-1.1 2.5 3-2.7 1.1-2-1.5l-.5-1.5zM445 658l3 1.5q-1.7 4.8 2.5 3.5v1l-3-1h-2q-4.5 1-5.5-1.5l1-2.5 4 1v-2zM312 661l4 .5-4 1.5v-2zM572 661q4.5-1.5 3 3-4.5 1.5-3-3zM402.5 662l2.5.5-2.5.5v-1zM426.5 662l2 1 1.5-.5-1.5 3.5q-3.6-1.1-2-4zM408.5 663l2.5.5-2.5.5v-1zM304 664h3v6h-3v-6zM704 664l8 1q1.4 3.7-4.5 2l-3.5-1v-2zM747 666l2 .5-2 1V666zM464.5 667l1 2q-2.8.7-1-2zM704 668l5 1.5-5 1.5v-3zM397.5 669l1.5 3q-3.5 1.1-1.5-3zM749.5 670l1 2q-2.8.7-1-2zM448.5 671l-.5 1.5-.5 3.5-.5-3.5 1.5-1.5zM400.5 672l.5 1.5-1.5 3.5-.5-2.5 1.5-2.5zM438.5 672q2.3-.7 1.5 1.5l-1.5-1.5zM464 680q4.1-1.3 3 2-4.1 1.3-3-2zM684 680l4 .5-3.5 1.5-.5-2zM747.5 681l.5 2-2-.5 1.5-1.5zM959 683q3-1 2 2-3 1-2-2zM605.5 684q4.6-1.2 2.5 4l-6-1.5 3.5-2.5zM616 686h7.5l.5 1.5 1 2h-1l-.5-1.5H616v-2zM738 686l4.5 1q1.3-2.3 2.5.5l-1.5 4.5-.5-4-5.5 1 .5-1.5V686zM760.5 687q3.8-.7 4.5 1.5l-4.5 1.5v-1l1.5-.5-1.5-1.5zM626 688q3-1.2 2 2.5l-2-1V688zM727.5 688l2.5 1.5-1.5.5-1-2zM746.5 688l.5 2.5h-1l.5-2.5zM231 693q3-1 2 2l-2 .5 6.5 1.5 4-2 4 7 2.5 1.5 3.5 6.5 1.5.5-1 3.5-3.5 1-1.5-3h-4v1.5l1.5-.5q3.4-.9 1.5 4.5-1.5 3-3 0 1.1-3.3-1.5-2.5L231 701.5l.5-1.5q-2.2.8-1.5-1.5l-1-3.5q3 1 2-2zm10 8l-7 3 4 1 4-1 1-2-2-1zM249.5 698l2.5.5q-2.1 3.3-2.5-.5z"/><path fill="#FFF" stroke="#FFF" d="M470 0h4.5q-.7 3 3.5 2v4l-7.5 2-3.5-5 3-1.5V0zM669.5 0L822 .5l-4 1 .5 1.5h-3q1 3-4 2l-1 1H804q1.7 4.1-2.5 3L799 8q1.7 4.1-2.5 3l-4.5 3.5.5 1.5H788q2.1 5.2-2.5 4l-2 4-2-4-2.5 7q-3.7 1.2-2-4h-4l-1 8.5-4 8.5-4 2.5-1 4.5-3.5-1-2.5 6.5 1 2.5 4 .5-3 1 .5 2.5 2.5-1q1.3 3-2.5 2l-1.5 3-3.5-1-4 2-2.5-1-1.5 4-2-1-6.5 2.5-2 3-6 11 8 5 1 2-4 2q.8 2.3-1.5 1.5l-6 3-4-1-3 3q-3.7-.7-4.5 1.5l-1 4.5q-3.7-1.5-3 1.5v2q1.3 3.8-2.5 2.5v1q4.2-1.1 2.5 3l-2.5 1h-2q-3-.8-1.5 3 4.2.7 5.5-3l-.5 1.5 1.5 2.5 3.5-1q-1.5 3.8 1.5 3l-.5 1.5q1.1 3.3-1.5 2.5l-9.5 5.5-1.5 5.5-1-2-.5 2q-3 1.3-2-2.5l-2 1-1 5.5q-3.3-1.3-2 3.5h-2l-1 4.5q-3-1.2-2 2.5l-6 10 1 2.5q-2.7-1.1-2 1.5l1.5-.5 1.5.5-2 1 2.5.5 6-4q1.3 2.3 2.5-.5l.5-1.5 1 2 2.5-5 4 1q-1.1-2.7 1.5-2l4.5-2.5 1.5-2.5 1 3 3-6 3-1 1.5.5 1-7.5q3-1.2 2 2.5l2 1 2.5-4.5q1.7 2.8 3.5-1.5l1-3.5-3-1.5-.5-1.5-.5 2h-3q1.7-4.1-2.5-3l3-4 2-1 5 3 3.5-1 .5 2q1.3-3 5.5-2 1.1-2.7-1.5-2l-3.5-8-2.5-1-1 2-4.5-3.5 1.5.5q3 .9 1.5-3.5l.5-1.5-1.5-.5 4-2.5v-2q2.7 1.1 2-1.5l3.5-4.5 4 1 1-2 2 1 3.5-1q1.1 2.7-1.5 2l-4 5-2.5 1.5q.8 2.6-2.5 1.5l-1.5 1.5-1 6.5q3-1 2 2h2.5l4.5 5.5q-3.4 2.6-2 10l-2.5 2.5q-4.5.5-5-3l-2.5 1-1 6.5-3.5 3.5H728q1.5 3.8-1.5 3l-2.5 1-1 4h-2q1.1 2.7-1.5 2l-1.5-.5-1 4.5h-3v2q-2.7-1.1-2 1.5l-5 6.5-4 1-1 6.5-2.5 4.5-2.5-1-.5 4-1.5-.5v3l-2 3.5q-3.7-1.5-3 1.5l-1 3.5-3 1.5-1 2 1 2.5-2.5 1q-1.2-2.2-2.5.5l-1.5 3.5-2.5 1.5-3.5 6.5q-1.7-3.7-3.5-.5l-3.5 6.5-2.5-.5.5-1.5H663v4h-1.5l-4 5-2.5 1.5q.7 2.6-2 1.5v3h-2.5l-2.5 1v2.5l-4.5 7.5q-3.3-1.1-2.5 1.5l-1 2 .5 1.5q-3.3-1.1-2.5 1.5l-3 1.5-1 7-2.5-1q-2.7 1.4-1.5 6-3.8-1-5 1.5 1 4.5-1.5 5.5l-2.5-1-1 11-4 2v3q-2.7-1.1-2 1.5l-6 5-1 3.5q-2.7 1.1-2-1.5h-1l1 3-4 9.5-4 2.5-3 9q1.8 6.3-1 8l1 3q-1.6 10.1 4.5 12.5l2.5-1.5-1-2 1.5-1.5 3.5 1.5-1.5 1.5-2.5-1.5 1.5 2.5 1.5.5v11l3-1 1 3-2.5 4.5H602v6l-2 .5v5l-1 1v8l1 1v12l4 12v6l2 3 2 13 4 9 3 16 2 3 3 12 2 2v5l4 11v2l.5 3.5 1.5-.5-1 3 3 6 5 19 1.5 1.5 1-2 .5 1.5-1 1 3 3-1 3 2 .5-1 2.5 3 1-1 3 16 36 19.5 33.5.5-2.5-1-4 2.5-1.5 1.5 4q3-1.2 2 2.5l1.5 2.5h3.5v2q2.7-1.1 2 1.5 2.8 1.7 2 7l-2 5.5-6.5 4q-1.2-2.3-6-1l-6.5-5.5-2.5-3.5-1.5-.5v-2l1-2-2-2q4-2 0-4l-2-3 1.5.5q2.3.8 1.5-1.5l4-2-2.5-4.5-.5 3-2.5 1-2.5-1-5-8.5 1-2q-3-1.2-2-5.5 3.8-.7 5 2.5l.5 1.5.5-2.5-3.5-5.5-3 2-2.5-5.5 2-3-3-1h2L642.5 540l-1.5.5 1-2-7.5-15.5-2.5 1 .5-2 1.5.5-.5-2.5-1.5.5 1-2-1.5.5-1.5-.5 2-.5-1.5-6-1.5 2.5 1.5 2.5q-3-.8-1.5 3h-2q1.3-4.1-2-3v-3.5q-4.6-2.7-4-8.5 2.7-1.1 2 1.5 1.5 3 3 0l.5-2.5 1 2 .5-2.5-1.5-2.5-2 3-.5-1.5.5-1.5-2.5-1.5-2-5.5-5 1-1-2.5 2.5-1.5 2.5 1.5q-.7-2.2 1.5-1.5l1.5.5-.5-3.5-3 2 .5-1.5q.8-2.2-1.5-1.5l-1.5.5 1-2.5 2.5 1 .5-3q-3.8 1.5-3-1.5l-3-6 1-2h-2l1-4-2-5 1-3h-1l-.5 1.5-.5-1.5 1-2-4-8 1-2h-2l-5.5-17.5-1.5.5 1-4-2-7-3-4 1-3-3-5v-2l-7-19.5h-3q1.3-3-2.5-2l-10.5 6.5-1.5 4.5-1.5-.5q.8 2.3-1.5 1.5l-3.5 2-.5-3-1.5 2.5v2q.7 2.6-2 1.5v2.5l-1 2.5q-2.7-1.1-2 1.5l-2.5 3.5-2.5 1.5v1.5q-3.7-1.5-3 1.5l-2.5 5.5-1.5-.5v3l-3.5 4.5-3.5 1.5q2.5 1.5-1 3l-1.5 2.5H533v3h-2q1.5 3.8-1.5 3l-3 4-2.5 1.5-3 5v4l-2 5.5-2.5-1-.5 1.5v2l-1 5.5-3.5-1-1.5 6-3 1.5q1.3 3.8-2.5 2.5l-3 8H498q1 3-2 2v2.5q-4.7 3-3 11.5h-4q1.5 4.5-3 3v5h-2l-.5-5-1.5 4.5 1 2-3.5 4.5-1-2-2.5 6.5.5 1.5-5.5 1-2 11-5.5 1-2.5-1-1 10h-2q1.1-2.7-1.5-2l-2.5 3.5 2 2-3 3v2l-.5 1.5-2-4-1.5 6 2.5-1 .5 3-4 1.5-.5 2.5-2.5-1v2q3.8-1.5 3 1.5l1 2-1.5 5.5-1.5-4.5 1.5-2.5-2-1-2.5 3.5 1 2.5h-4v6h-2q1.1 2.7-1.5 2l-1.5 1.5q.9 6.4-1.5 9.5l-1-7-.5 4q-3.3-1.3-2 3.5l1 2-6 4-1 5.5h-3v5h-1.5l.5 1.5q1.1 3.3-1.5 2.5l-1.5 1.5 1.5 2.5q-3.7-1.2-2.5 2.5l-2 3h2l1 3-4 3-1 4.5q3.3-1.3 2 3.5l1.5 4.5 1.5-.5-1.5 5.5q-2.5-1.2-1.5-5h-6q1.3 4.1-2 3v3.5h1l.5-1.5.5 3q-2.7-1.1-2 1.5l-1 2.5q-2.7-1.1-2 1.5l-1 2.5 5.5 1 1-2 2 1 3-4 3 2 3.5-6q3.7-1.5 3 1.5h1q-.8-2.6 2.5-1.5l5.5 1q-1.1 2.7 1.5 2h2l2.5-1.5q.6-2.7-5.5-1.5v-1l7-1 8.5 2 .5 2h7l5.5 2-1 4q5.2 2.1 4-2.5l1-5-1-2.5q-5.2 1.7-4-2h5v4h1.5q1.5 3.5 3 1l6 1 2-1 2.5 1 .5-2q1.7 2.8 7 2l4-1 3 5 5 1 2.5-1q1.3 3.3-3.5 2v1l1.5.5-4 2.5 1.5 4q3.3 1.1 2.5-1.5l4-1.5q-1 3 2 2-2.7-2.6-2-9.5l1.5-2.5-1.5-.5 1-2-1-2.5q3-1.2 2 2.5l2 5q-3.5.5-3 5l1.5-.5 2.5.5v7l1.5 2.5 3-1v1l-1.5.5 6.5 1.5 1-2q-2.2.8-1.5-1.5l-.5-1.5 2.5-1.5-.5-1.5 2 1h2l3-1q2.3 3.8 9 3l2.5-1.5-1-2 2.5-1.5 2 1 2.5-1q-1.1-2.7 1.5-2l3.5-2q-1.2-3 2.5-2l5.5-1q-1.5-3.8 1.5-3l1.5-.5.5 1.5h15l.5 3.5 2 2v7.5h2v-7.5l2-.5v7.5l-2 .5v1.5l-4 1.5v5h8l.5-5 2.5 5h-3v5h4q-1.6 4.9 4 3v4h7.5l1-1h7.5q1.7-4.1-2.5-3l-1.5.5-1-4.5 4.5-1q1.5 2.5 3-1l1.5 1.5q-2.2 6.3 3.5 4.5 1.8-2.7 8-1v1H616v4h15.5l.5 4q-3-1-2 2l10-1.5-4-.5v-8q6 2 4-4h8q1.4 4-5.5 2v2q-4.6-1.2-2.5 4l4-2.5.5-1.5h18l1-1h8.5l.5-2h7l1-1H696l1-12 2 .5v7.5h4v-7.5l-1-1 2-.5-1-2.5 1.5-.5 4 3 2.5-1.5.5 1.5.5-2 8-2 .5-3 13 5 5-2 2.5 1-1 3.5 3.5.5h2q2.6.8 1.5-2.5l-1-1v-12q2.5-1.5 1-7l-2-2-1-7 3-4v-6l3-12 2.5-2.5 8-5 .5 2-3 1.5-2 3-3 4 1.5 2.5 2.5-1.5.5 2.5 5-7 8-1 7-4h7l3.5 2q-1.1 2.7 1.5 2l3 1 3.5 2.5 1.5 2.5 4 1h2q2.6-.7 1.5 2h2.5l6.5-1 2 5-2.5 1q-1.7-2.8-3.5 1.5l1 6-1 3 2 2q-1.2 5.3 1.5 6.5 2.2-6.8 8-10 2.3.8 1.5-1.5l1.5-2.5q1.7 2.8 8 1l2-3 5 4h2l2 1 4.5-3 3-6.5 4.5-4.5q3.3 1.1 2.5-1.5 3.6-5.7 12-5.5-1.1-2.7 1.5-2-1.7 2 2 4l2-3 3-2 9-2 11.5 2.5q-2.2 1.3.5 2.5 7.1.9 9.5 6.5l2 7 6.5 8.5 6.5 3q-1.2 3 2.5 2l3.5 1 1 7 5.5 1 1-2-2-1-1.5.5q-.7-2.2 1.5-1.5l2.5-1q-1.1 2.7 1.5 2l3.5 1v-2q-3.7 1.5-3-1.5l1.5.5 6.5-2.5 2-6.5h2q-1.5 3.7 1.5 3l3-5q3.8-2.7 12-1l2.5-2.5.5-1.5 2 1 2.5-.5q-.9-3 3.5-1.5l4.5-3q1.8 4.5-3.5 3l-4.5 3-1.5 3q-1.2-2.2-2.5.5l-2.5 3.5q-2.2-.7-1.5 1.5l-5 4 3 2-1.5 2.5q-3.3-1.1-2.5 1.5l-.5 2.5H960v5h-2.5l-1.5 3-3 .5 6 2.5q1.1 2.7-1.5 2l-5.5 3.5q1.5 4.4-1.5 3.5l-2.5 1-1.5 3q-3.3-1.1-2.5 1.5l2 6-.5 1.5 2.5-1.5.5-1.5 2.5 4q2.7-1.1 2 1.5l1.5-.5 2 1 1.5-4 6.5 2 1.5-3h2q-1.1-2.7 1.5-2l3-3 7-2 3.5 1 .5-4 2.5 4.5-2 4h1q-.7-2.2 1.5-1.5 1.1-2.7 4.5-2l.5-2h2q2.6.7 1.5-2h3.5v-1q-2.2.8-1.5-1.5h2q.8-2.2-1.5-1.5v-1q2.6.8 1.5-2.5h-1l-2 3-1.5-.5-2.5-.5 3-.5.5-2q1.8 2.7 3.5-1.5l.5-147.5.5 274H.5l-.5-.5v-204h1v12l1.5.5 4.5 3.5 1 4-1 2.5 3 1.5-2 2-1 6.5q-2.7-1.1-2 1.5l2 3-1 2 1 2-4.5 5.5-1.5.5v19l1.5-.5 3-1q1.5 3.5 3 1l5.5-2.5q-2.2-1.2.5-2.5 2.3-.7 1.5 1.5l2.5 2.5h2l2.5-1.5-1-4 .5-2.5 1.5.5V636h8q-1.2 3 2.5 2 1.1 2.8 4.5 2l.5-2q2.8 1.3.5 2.5l.5 1.5h13l2 1 4-1 12 3 3-1 13 3 3 3h4v-1l-3.5-.5 2-.5 1-2.5-2-1 3-1.5 1-3.5-4-6v-3q2.6-1.4 2-6l-2-5.5-2.5-1-2.5 1q1.5-3.7-1.5-3l-3.5-1 1-2.5-5-.5-1-4-10.5-3H60l1-5 2-.5-2.5-3.5q-2.2.8-1.5-1.5l-3-6 3-1.5v-5h1.5q1.1-2.8 4.5-2l1.5 3 1.5-6 4.5 1 2.5-1 1.5-4 2.5 1q-1.2-4.6 1.5-6H83q-1.1-2.7 1.5-2l3 3 1-1 5-1 7 3 3.5 3.5q-.7 2.3 1.5 1.5l1.5 3 3 1.5v4.5q5.2-2.1 4 2.5l4 3q-1 3.8 2 2.5v3.5q2.8 1.1 2 4.5h3v3h3q-1.2 3 2.5 2l1.5 3 2.5 1 4-2 2.5 1 3.5 5 5.5 2.5v2.5q2.7-1.1 2 1.5l5.5 4.5h2l1.5-.5 2 4.5q2.7 1.1 2-1.5l5-2.5 1 4 10-1.5-1-2 1-3-4.5-6.5-1.5.5-4-7.5-3-.5.5-1.5H166l-.5-2h-4l-2-1q-1.1 2.7-4.5 2v-2q-4.1 1.3-3-2h-4.5l-1-3q-3.7 1-2.5-2 4.6 1.3 6-1.5l-7-3q3.9-2.6 3-10-3.7-2.8-3-10l5-3 2-5.5-5-2.5-.5-1.5-1.5.5.5-1.5-2.5-.5 1-2-1-3 1.5.5 2.5 1.5-1 3 3 .5q-1.3-3.3 3.5-2l-.5-1.5 1.5-3.5 2 1 .5-3.5-.5-1.5 2-1 .5 2 4 1 .5 2 3.5-2.5.5-2.5 3 2 2.5-1 1-6.5-3-1.5-2-5.5q3-1.2 2-5.5h2.5l6.5 4.5q-.8 2.6 2.5 1.5l4 1v-2q6.6-.4 9.5-4.5 1.3-6.1-1.5-5.5l-4.5-1-1-3.5 4-1.5q-1.1-2.7 1.5-2l4 5 4 2 .5-1.5q-2.3-1.2.5-2.5l4.5-2.5-3-7 3.5-2.5q2.5 4.5 5-1l5.5-2.5 2-7.5q2.7 1.1 2-1.5l1-5.5q-2.7 1.1-2-1.5l2.5-4.5 8-4h10l4 7q2.3-.7 1.5 1.5l7 4.5q-.1 4.9 3.5 7 1.5-2.5 3 1h5l6 2 5.5-3.5q-.7-2.2 1.5-1.5l1.5.5q-1.1-3.3 1.5-2.5l3.5-1 .5-4 2.5 5.5q7.8 6 12 14.5l6 2.5 1.5 3.5 2.5-1.5q-2.5-1.5 1-3-1.2-6.7-5.5-10.5l-1.5.5 2-4-1-3 5.5-4.5 7-2 7.5 2 3.5 5q7.1.9 9.5 6.5l1.5 3.5 8-2 2.5 1q-1.7 4.1 2.5 3l3.5 1.5q2.3 3.2 1 10l-4 3q.3 7.3-3.5 10.5l-1.5-.5q1.3 3.8-2.5 2.5v2l-3-1-4 3-2-1 .5 1.5-1 4.5-5 1 4 6.5 1 13-4.5 5.5-7 4-5-1-5 3-5.5 1q1.1 6.7-3.5 9-8.3.7-12 6l-7 1-3-1h-2l-5.5 2.5 3 .5-1 3.5 1 2-3.5 4.5-6-1-5 3-11 2-7-2-5.5-5.5q1.3-4.2-3.5-2.5l-3.5-2.5q-.4 6.6-4.5 9.5l-3 2-16 2-4-2-3 1-3-2-3 4-3.5 2.5-1 3 4.5 6.5 6-1 6.5 4.5q-.7 3.8 1.5 4.5l2.5 1.5q-1 5 2 4v6h-2q-1.2 7.3 3.5 8.5l3.5 1.5-3.5 1.5-2.5-1q.4 8.2-5.5 11l-8 3H190l2 3.5 1 13-2 6 2.5 1.5 1.5-.5q-2.2 1.3.5 2.5l1-2 .5 2 12 3q-1.1 2.7 1.5 2l2 1-.5-1.5.5-2.5 3 4 3-1v1l-3.5 1.5 5 8.5h3q-1 3 2 2v2.5q1.5 3 3 0-3-1.2-2-5.5 4.1-1.7 3 2.5l1.5 4.5h2l2.5-1.5-3-.5-2-9-5.5-1-2.5 1.5q2.8-.7 2-5h-1l-1.5 3.5-.5-1.5 2.5-3.5q2.3.8 1.5-1.5-1.4-4.5-7-3.5-1.1-2.7 1.5-2l1.5.5q-.7-2.2 1.5-1.5l1.5-.5.5 1.5h2l3-1q1.1 2.8 4.5 2-1.3 4.1 2 3-1.7-4.1 2.5-3v-1l-1.5-.5 1.5-.5 4 2 3.5-1q-1.2 3 2.5 2l4-1 2.5.5-2 4.5-7 .5 2.5 1.5 6.5-2.5 1.5-4.5.5 3 5-2.5-1-2.5 2.5 1 1.5-.5 3 5.5-7 2.5 2 1-1.5.5-2-1-1 2q3-.8 1.5 3h5v2l-2 .5 7 3 .5 1.5 2-1 5.5 2q-1.1 2.7 1.5 2 1.3 2.3 2.5-.5-2.2-1.3.5-2.5l2-1 .5 3 7 .5-3 1.5v2q3.8-1.5 3 1.5l1 2h-2l4.5 8.5 2-1q2.8 1.3.5 2.5-1.1 3.3 1.5 2.5l4.5 5.5-.5 1.5 2.5-.5q-2.7-2.3-2-8l-4-7 2-4-3.5-8.5q-2.2.8-1.5-1.5l1-1-4-4-1-7v-2l1-4-3-4-1-6.5-2.5 1 .5-1.5v-4l-2-.5v-2.5l-5.5-8.5q-3.3 1.1-2.5-1.5l3.5-6.5h3.5q-1.3 4.1 2 3l1.5-4 15.5-1v6h10.5l5.5-1 1 4.5-5 .5v4h1.5l7-3q1.1 2.8 4.5 2l1-8q2.7-1.1 2 1.5l3 1.5.5 5 6-5 2 5 2.5-.5-1-3q1.5-3 3 0l-1 5h1l.5-1.5 1 2 .5-9.5-2.5-3.5-.5 3-4.5 1-1-1H334v-8.5l-5.5-7.5q-2.6.8-1.5-2.5l2.5-1.5 9.5 6.5q-1.9 5.4 1.5 4.5l5 4 .5-2 3-.5v-9l-1-1v-14l-1-1v-13l-1-1v-18l1-2-1-1v-31h1l1 7-1 1v7.5l2 .5v7l1 1v15l2 8v8l3 15 1 20 1.5 1.5 3-2 .5 2 2-.5v-2l1-5h-2l-1-3h2v-22q2.7-1.7 1-8l5-13-1-2.5 3-.5-1-4 2-3-1-2 1.5-4.5 1 2 6.5-24.5 3-4.5q3 1.3 2-2.5 3.7-2.3 3-9l4-5q-2.7-1.8 1.5-3.5l1.5.5-1-2 5.5-9.5 1.5.5-1-4 4-6-1-4 5-17v-2l5-9V480h3q-1.5-3.8 1.5-3l19.5-45q4.1 1.7 3-2.5l3-7 3-3 2-9 3-3 8-16-1-2.5 3-1.5 1-7.5q3 1.3 2-2.5l3-1.5q-1.7-8 2.5-11l1 6 8-17 2-1h2l5.5-2.5-.5-2.5-1.5.5q1.1-3.3-1.5-2.5l-1.5.5 1-2-2 1q.7 2.6-2 1.5l2.5-4q3.4.9 1.5-4.5l2-2 2-8v-2l1-4.5-6-2.5q-1.1-3.3 1.5-2.5l5-1 3.5-2.5 2-8.5 2.5 1 2.5-3.5 3-14.5q3.3 1.3 2-3.5l2-3-1-3 2-3-1-3.5 2-.5v-12l5-11v-2q.3-8.2 4.5-12.5l3-2-.5-1.5.5-3.5q1.3 2.3 2.5-.5l-1-2.5q3.3 1.3 2-3.5l10.5-18.5 2.5-1.5v-2l3-10.5 3-1.5 2.5-3.5 4.5-2.5q-.7-2.2 1.5-1.5 6.9-6.8 9.5-17 3.8 1.5 3-1.5l10-15V141q3.8 1.5 3-1.5l2-4 2.5-4.5 2.5-.5-6.5-2.5-2 1-2-1h-2l-5 1-2.5-1.5 2-3.5-3.5 2-.5-3q-4.1-1.7-3 2.5l-1.5-.5-3.5 2.5-2 4 1 6.5h-5v3q-5.2-2.1-4 2.5-2.7 1.1-2 4.5l-4.5-2q-1.2 2.3-6 1l.5-1.5 5-7 1-5.5-3.5-1-4.5 2.5-1.5 2.5-2.5-.5 1-3.5q-4.6 1.3-6-1.5l5-3-2.5-5.5-3.5 1.5.5 1.5q-3.7 1-2.5-2h-3.5q-2.8-4.2-9.5-4.5 3.4-5 10-5.5-.7-3.8 2.5-5l4-1 1.5 1.5-1.5 2.5 3 2 7 1q3.9-3.6 4-11l1.5 3q3.5 1.7 10.5 1l3-4 2 2 6.5 1q.8 3.4-2 4.5v2q-.7 2.6 2 1.5l.5-3 2 1q2.4-4.3 8.5-4-1-3 2-2l.5 5q1.2-2.2 6-1 1.3 2.3 6 1 1.5-2.5 7-1l4.5 1-1.5-3-14 2q-3-1.5 0-3l7 1 1-1h12q1.3 2.3 2.5-.5-.7-2.2 1.5-1.5l3 2 5-2 5 3 2.5-1-1.5-3-1.5.5 1-4-1.5-4.5q-1.2 2.2-6 1l-3-2-1.5.5V93q3.8 1.5 3-1.5l-.5-1.5 6.5-1.5-3.5-.5h-2l-2.5-.5 2-1-.5-1.5 7 1 3.5-1 .5-2h7l4.5-1v-2h4v-1.5l-1-3.5-10-1-1-3.5 2-.5 1.5-3 2.5-1.5q-3.5-1.5-1-3l1-4.5q2.7 1.1 2-1.5l1.5.5q2.3.8 1.5-1.5l5.5-11.5 1.5.5 2-3-.5-1.5 3.5-1.5 2-3-.5-1.5 1.5-.5-1-1 5.5-5.5 2.5-1.5 13-19V4q2.7 1.1 2-1.5l.5-1.5q-4 .8-3-1zM762 1v2l-4 2h-2l1 2-1-1-2 1-2 3-6 4h-2v2h-5v4l3-1 5 1-1-1q-1-3 2-2v2q3 1 2-2 5 1 7-3h3l2-6 4-1 3 1 3-1V1h-10zm14 17l-2 2 2 1v-3zm-40 4q-1 3 2 2 1-3-2-2zm-14 17q-3 0-3 5-3 5-11 6-1 3 2 5-3 4-8 3l-1 4-2 1-3 4 1 3q1 2-2 1l-1 4q-5 1-6-2-3 8-9 13l6 2 3-5q4 1 7-2l3 1 6-7v-3l3-1 4 2 10-1-1-1 1-4-3 1-4-1q-4 1-2-3l9-8q2 1 1-1 2-5 9-5l-1-1 1-3h-3l1-4h-1l-2-1q-3 1-2-2h-2zm-57 8l-1 1q-4-1-2 4h1q-1-4 3-2 1-4-1-3zm67 0v2h3l-3-2zm8 7l-3 1-2 4 6 1v-3q1-4-1-3zm-72 3l-1 3h1v-3zm-18 3l-2 2q-1 2 2 1v-3zm94 0q-1 3 2 2 1-3-2-2zm-80 1l-1 2h3l-2-2zm-13 4l-5 7-6 4 1 4-3 1-2 5 6 3v-3q4-1 6 2 2 1 1-2h2v-1q-2-2 1-3 2 1 1-2l-2 1h-3l4-3-1-5h2l2-1 1-4-5-3zm-14 3l-4 3h4q3-1 0-3zm-2 4v1h2l-2-1zm49 20q-9 3-14 9l-9 1q-4 1-3 5l-2 1-5 5v2q-2 1 1 2l4-1 1-2q-1-3 2-2l2-3q3-1 2 3-2 1 1 3l-5 1-4 5-1 2 2-1 1 3 4-1 3-3 1 1 2-3 6-3-3-3 2-1 4-6 4-2 2 1 1-1q-3-2-1-3l-1-3 5-4q1-3-2-2zm-55 11q-1 4-5 3v2q-3-1-2 2l-2 1 2 1h-2l-4 9q1 2-1 1l-1 3 1 1h8l1-3q2 1 0 3 2 2 7 1v2l2-1q4 1 2-3h3l-1-1 1-2-2-2q-5-1-3 4l1 1-2-4-6-2q-1-4 2-3v-2l4-3-2-1q-1-3 2-2l1 1q-1-4 3-2v-2l-2 1-4-1q1-3-1-2zm-28 8l-3 2 4 1-1-3zm2 0v1h2l-2-1zm105 0l2 3v-1l-2-2zm-171 7l-1 2h3l-2-2zm23 0l-4 2 4 1q3 1 2-1l-2-2zm149 0v2l2-1-2-1zm-41 2l1 2q1-3-1-2zm-137 6l-3 4q5 1 6-2 1-4-3-2zm144 35l-2 2h2v-2zm9 0l-2 2h2v-2zm-18 1l-4 6 2 4-1 2-2-1-3-1 1 3-1 3q-1 3 3 2l1 4v2l1 2-2 4 4-1 1-5 3 1 1-1-1-3 3 1q3-2 2-8l3-1 3 2q-1-4 2-5v-3q-3 1-2-1l-2-2v2l-2 5-4-1-2 3q-3 1-2-1h-1q-1 4 3 2l2 4q1 2-2 1v-3l-3 4 1 2-2-1 1-2-3-6h2l1-5-1-1v-7zm12 1l1 2 3-1-4-1zm-16 6l-2 2q-1 2 2 1v-3zm-10 11l-3 5 1 3q1 4-2 3l-1 3 1 2-1 3 3 1h2l4 2 1-2v-11l-1 5-3-1 2-1-3-4 1-2-1-6zm9 4l-2 3 2-1v-2zm-16 7v1h2l-2-1zm0 4l-1 3h2l1-2-2-1zm3 5l-3 1q-1 3 3 2v-3zm4 1l-2 2q-3-1-2 2l-4 2 5 1-1-1 2-3 1 2v-2h2l1-2-2-1zm-11 7l-1 5-3 1 4 1 1-3q3-2-1-4zm-63 128l-2 2h2v-2zm-1 3l-4 3v-1l-2-1-3 10-3 1q1 2-2 1l-1 4-3 3 1 1h-1q-3 1-1 3l-2 3q-3-1-2 2h-2v4h-2l-5 9q1 2-2 1l1 3-2 5-2-1-6 10v4l-4-2-5 7 1 2-2 1q-5 4-5 11l-2 1-3-1 1 3-1-1-3 5v3q-3-1-2 3v2l1 3v-1l4-3 2-3 7-6 2 1 2-7 2-3 5-4v-3l4-6 2 1q-1-4 2-5l1 2v-2h2v-2h2l3-7v2q3 1 2-3h1q-1 2 2 1l2-4q-1-3 3-2l1-4 1 3 1-4q-1-3 2-2-1-4 3-5-2-5 3-4l4-5q-1-3 2-2l1-3-1-2 2-4v-7h-1l-4-1 1-3q-1-3 2-2l2 2-1-2q1-3-1-2zm27 13l-2 2h2v-2zm-97 88v3l2-1q1-3-2-2zm-2 3l-1 3h1v-3zm103 2l-1 3h1v-3zm10 31l-1 4h1v-4zm5 16l-1 3 2 1-1-4zm6 15v5h1l-1-5zm-4 1v2l2 1q1-4-2-3zm-163 23l2 5v-1l1-3-3-1zm-16 27q-2 3 1 2l-1-2zm-6 10v2l2-1-2-1zm-283 15l-6 1 1 3q1 4-2 6h3v-2l4 1 2 2-2-4 1-4-1-3zm509 2l-1 2v1q2-1 1 2l2 1-2-6zm-506 11l-2 2q-1 2 2 1v2q3 1 2-1l3-2q-1-3-5-2zm-95 6q-2 3 1 2l-1-2zm121 16l-2 2h3q1-3-1-2zM24 640v4h2q2-1 0-2 1-3-2-2zm77 6l-5 2h5v-2zm-55 2v1h2l-2-1zm38 0v1h2l-2-1zm253 0l-1 3h1v-3zm-255 2v2l2-1-2-1zm367 1l2 2 4-1-6-1zm-51 2l-2 3q5 2 4-2l-2-1zm162 0v2l-4 1h12v-3h-8zM2 654v53-2l3 1 3-1-2-10-4-1 1-25v6l2-1v-2h4v-7l-1-1v-3q-3 1-2-1-2-5-3-2l-1-4zm15 0q-2 3 1 2l-1-2zm275 2q-4 1-3 6l6 3h1v-4h3l1-2q-2-4-8-3zm278 0v2q-1 2 2 1 2-4-2-3zm-125 2v2l-4-1-1 3 7 2q2-1 1-4l-3-2zm505 2l-1 1q-7-2-5 3 4 1 6-2l-1 2h3q2-5-2-4zm-638 1v2l4-1-4-1zm260 0q-1 5 3 3 2-4-3-3zm-169 1v1h2l-2-1zm24 0q-2 3 2 4l1-3h-1l-2-1zm-18 1v1h2l-2-1zm40 0v1h2l-2-1zm-145 1v6h3v-6h-3zm400 0v2l4 1q5 2 4-2l-8-1zm34 0l1 3 1-2-2-1zm9 2v2l2-1-2-1zm-282 1q-2 3 1 2l-1-2zm239 1v3l5-1-5-2zm-306 1q-3 4 1 3l-1-3zm352 1q-2 3 1 2l-1-2zm-311 2l1 2q1-3-1-2zm9 0l-1 4h1v-4zm-48 2l-1 3h1v-3zm209 3l-1 3h1v-3zm-145 3q-1 3 3 2 1-3-3-2zm220 0l1 2 3-1-4-1zm64 1l-2 2h2v-2zm211 2q-1 3 2 2 1-3-2-2zm-353 1l-4 3 6 1q2-5-2-4zm10 2l1 2h7v-2h-8zm122 0v3l5-1 1 4 1-4q-1-3-2-1l-5-1zm23 1l2 2h2q-1-3-4-2zm-135 1v2l2 1q1-4-2-3zm121 0l-1 3h1v-3zm-516 5q-1 3 2 2 1-3-2-2zm-2 2l1 4q-1 2 2 1l-1 2 11 13q2-1 1 3 2 3 3 0 2-6-1-5l-2 1v-2h4l2 3 3-1 1-3-1-1-4-6-2-2-4-7-4 2-9-2zm21 3q0 4 2 1l-2-1zm7 1v2q-1 2 2 1l-1-1q1-3-1-2zm-3 1v1h2l-2-1zm-32 8q-3 4 1 3l-1-3zm80 12v2l2 1q1-4-2-3zM826.5 0l3.5.5-3.5.5V0zM839.5 0l6.5.5-6.5.5V0zM847.5 0l2.5.5-2.5.5V0zM852.5 0l2.5.5-2.5.5V0zM877.5 0l2.5.5-2.5.5V0zM972.5 0l3.5.5-3.5.5V0zM660 2q3.3-1.1 2 3-3.3 1.1-2-3zM999.5 3l.5 4.5h-1l.5-4.5zM132 5q3-1 2 2-3 1-2-2zM861.5 5l.5 2.5h-1l.5-2.5zM625 7q3-1 2 2-3 1-2-2z"/><path fill="#FFF" stroke="#FFF" d="M816.5 8l1 2q-2.8.7-1-2zM432.5 9q3-.8 1.5 3l-3-1.5 1.5-1.5zM936 14q3.7-1.5 3 1.5 2.7 1.8-1.5 3.5l-2.5-1 1-4zM875.5 16q2.3-.7 1.5 1.5l-1.5-1.5zM205 17l3 .5-3 1.5v-2zM355 18q3-1 2 2-3 1-2-2zM286 21l4 1.5 1 3.5q-3 1-2-2h-3v-3zM603 22q3-1 2 2-3 1-2-2zM887 22l3 1.5q.7 3-3 1.5v-3zM148 24l3 1.5q-1.5 3-3 0V24zM802 24q3-1 2 2-3 1-2-2zM287 27l3 1.5-3 1.5v-3zM925.5 28l3.5 1v5h-3.5q-2.2-.7-1.5-4.5l1.5-1.5zM635 29l3 1.5-.5 1.5-2.5-1v-2zM529 30q3.3-1.1 2 3-3.3 1.1-2-3zM466.5 32l.5 2-2-.5 1.5-1.5zM248.5 37q2.3-.7 1.5 1.5l-1.5-1.5zM176 41l2 .5-2 1V41zM786.5 41l1 2q-2.8.7-1-2zM588 45q4.5-1.5 3 3-4.5 1.5-3-3zM934 45l5.5 1 1.5-.5v4l-2 .5v2.5h-1q.8-2.2-1.5-1.5l-2.5 1q1.3 3.3-3.5 2l-1.5.5 4-1.5q1.3-3-2.5-2l-3.5 1 1 3.5h-1l-.5-1.5H921l-.5 3-1.5-4.5h1l.5 1.5.5-3q-3 1-2-2h4q-1.3 4.1 2 3l-2-4.5 1.5-.5 2 1 3.5-1q-1.2 3.7 4 2v-4zM817.5 46l.5 2-2-.5 1.5-1.5zM943 47l3 .5-3 1.5v-2zM808 50l2 .5-2 1V50z"/><path fill="#FFF" stroke="#FFF" d="M916.5 50l1.5.5-1 3 2 4-1.5-.5-3-1-4 2-1.5-3.5 7.5-4.5zm-3.5 4q-2 3 1 2l-1-2zM802.5 51l.5 2.5-2-1 1.5-1.5zM238.5 52l1.5.5-1 4.5q-3.3 1.3-2-3.5l1.5-1.5z"/><path fill="#FFF" stroke="#FFF" d="M795 52q2.7-1.1 2 1.5l-1 2 1 1-3 3 1.5 3.5 3.5-1 .5-4 .5 4q4.7 1 6-2.5l-2-4 1.5-.5 2.5.5-1 3 8.5 5.5 4-1 4 2 5-3q3 1.5 0 3l-3 2-6 4q-5.5-.5-7.5 2.5l1 2.5 3.5 2 1-2 .5 1.5-1 2.5h-2q1.1-2.7-1.5-2-2.5-4.5-11-3l-2 1-4-3h-5l-3 1h-2q-2.6.8-1.5-2.5h-1l-1.5 2.5-.5-3 2-.5-3.5-2.5-3 1 .5-1.5q.8-2.2-1.5-1.5l.5-1.5-1-3 3.5-2.5 3 1 2-5 1.5.5q-.7-2.2 1.5-1.5l1.5 3 3-1.5.5-1.5q1.2 2.3 2.5-.5V52zm5 15l1 2 2-1-3-1zM767.5 53l3.5 3.5-1 1-1 4.5q-3.8.8-5-2.5-.7-5.7 3.5-6.5zM541 58l2 .5-2 1V58zM546 60q4.1-1.3 3 2-4.1 1.3-3-2zM375.5 62l1 2 1-2 .5 2q3-1.2 2 2.5l-4.5 3.5-2.5-6q2.8 1 2.5-2zM553.5 64q2.6-.8 1.5 2.5l-3 1.5 1.5-4zM625 64q3-1 2 2-3 1-2-2zM167 65q3-1 2 2-3 1-2-2zM421 67q3.3-1.1 2 3-3.3 1.1-2-3zM472 67q3.8-1.5 3 1.5l-1.5 2.5-1.5-4zM934 67q4.1-1.3 3 2-4.1 1.3-3-2zM752.5 68l4.5 1.5-2.5 1.5-2.5-1 .5-2zM867.5 68l-1 2 1-2zM521 71q3-1 2 2-3 1-2-2zM118 72q3-1 2 2-3 1-2-2zM222 72q4.5-1.5 3 3l-2.5 1-.5-4zM737.5 72l2.5.5-2.5.5v-1zM999.5 73l.5 2.5h-1l.5-2.5zM590.5 75h2.5q-1 3 2 2-1.1-2.7 1.5-2l2 1 2-1 7.5 4.5-2 .5 1 5.5-1.5-.5q-2.2.8-1.5-1.5-2.3-3.8-4.5 1.5H597l-.5-2H592q1.8 4.5-3.5 3l1-2 1.5-.5-2-.5-1.5-3q-2.2.8-1.5-1.5l.5-2.5 4-1zm-2.5 2q-1 3 2 2 1-3-2-2zM513.5 76l2.5 1q1 4.7-2.5 6l-3.5-2.5 1-3.5 2.5-1zM573.5 80q3 1.5 0 3v-3zM451 81q4.9-1.6 3 4-4.9 1.6-3-4zM739.5 81q6-1.5 7.5 1.5l1.5 2.5 6 1 4-1-.5 1.5q.8 2.6-2.5 1.5h-2q-2.2-.7-1.5 1.5l-2 4 1.5 2.5 2.5-4 7.5-2h6.5l1-4.5-.5-1.5 7-1-1.5 2.5 1 3q1 5.5-2.5 6.5l-3-1-5.5 3.5q1.1 3.3-1.5 2.5l-7.5-2q1.1 3.3-3 2l-1.5-4-3-2q-1 3-6 2v-1l4.5-3.5q.8-2.6-2.5-1.5l-3.5-2.5-1-3.5q3 1 2-2l-1.5-1zM176.5 82l.5 3-2-.5 1.5-2.5zM570.5 82l.5 2 2 .5-2.5 4.5q1.6-1.7-1.5-3.5l-1-2 2.5-1.5zM469 84l3 1.5q-1.5 3-3 0V84zM527 84q3-1 2 2-3 1-2-2zM565.5 84l2.5 1.5-1.5-.5-1-1zM931 84q3-1 2 2-3 1-2-2zM251.5 85l1 2q-2.8.7-1-2zM567.5 88l1 2-1-2zM785.5 88q4.4-1.5 3.5 1.5 2.3 3.8 9.5 2.5l1.5-.5.5 3.5 2-3 .5 4-11 1q1.3 3-2.5 2h-2l-4.5-1-2.5-5q-2.6.7-1.5-2h-3v-1.5l1.5.5 4.5 1q-1.2-3 2.5-2l1-1zm6.5 4l-3 2h3v-2zM550.5 91h8l.5 2h-7.5l-1-2zM282 94l4 .5-4 1.5v-2zM541.5 94l3 1 3-1v1l-7 1 1-2zM942 94q3-1 2 2-3 1-2-2zM96.5 96q2.3-.7 1.5 1.5L96.5 96zM964 97l2 .5-2 1V97zM223.5 98l1.5 3-3-1.5 1.5-1.5zM183 100q3-1 2 2-3 1-2-2zM598 102l3 1.5q.7 3-3 1.5v-3zM277 103q3-1 2 2-3 1-2-2zM174 104q3-1 2 2-3 1-2-2zM811.5 106q3-.8 1.5 3-3.8 1.5-3-1.5l1.5-1.5zM832 107q4.5-1.5 3 3l-2 .5.5 1.5q-2.5-1.2-1.5-5zM270 110q3-1 2 2-3 1-2-2zM396.5 112l1 2q-2.8.7-1-2zM944 113q4.1-1.3 3 2-4.1 1.3-3-2zM62 114q4.1-1.3 3 2-4.1 1.3-3-2zM379 115l2 .5-2 1V115zM413.5 115q3 1.5 0 3v-3zM384 118q3-1 2 2-3 1-2-2zM452 120q3-1 2 2-3 1-2-2zM723 120q2.7-1.1 2 1.5l.5 1.5-2.5-1.5V120zM478.5 121l.5 3q-2.7 1.1-2-1.5l1.5-1.5zM721.5 123l2.5 1.5q-1.3 2.8-2.5.5l-1.5-.5 1.5-1.5zM511.5 124l1 2-1-2zM277.5 126l1 2q-2.8.7-1-2zM827.5 128l2.5 1.5-2.5 1.5q-3-1.5 0-3zM368.5 130q2.6-.7 1.5 2l-3-.5 1.5-1.5zM325.5 131l.5 2-2-.5 1.5-1.5zM343.5 131q2.6-.8 1.5 2.5l-1.5-.5-1.5-.5 1.5-1.5zM318 132l2 .5-2 1V132zM355 136q3-1 2 2-3 1-2-2zM183 140q3-1 2 2-3 1-2-2zM437.5 140l1 2q-2.8.7-1-2zM274 141l3 .5-3 1.5v-2zM392.5 141l2.5.5-3.5 1.5 1-2zM527.5 141q6.3-1.9 4.5 3h-2q1.1 2.7-1.5 2l-3.5-2.5q-.7-2.2 1.5-1.5l1-1zM486 144q3-1 2 2-3 1-2-2zM553 145l11 2-1 5q-8.4.2-12-5.5h2V145zM195 146q3-1 2 2-3 1-2-2zM544.5 150l3.5 1.5-1 2 3-1q1.3 3.8-2.5 2.5h-2q-2.2.8-1.5-1.5l-1-2 1.5-1.5zM517.5 151l5.5.5-.5 1.5 2.5 1.5-4 2q.8 2.6-2.5 1.5l-6.5 3.5q.5 4-2.5 4.5l-6.5-1-2-6-5.5 2-4.5-2v-3q-3.3 1.1-2-3h6.5l1-1 .5 2 11 3 1.5 3q4.3-1.8 1.5-3.5l2.5-3.5 4-2zM410.5 153l-1 2 1-2zM460.5 154q-.6 4.6 2 6l1.5.5-.5 1.5 5-2-.5 1.5-1.5 2.5-2-1-5.5 1q-1.2-3 2.5-2v-1l-3-1q-1.5 2.5-7 1l2-3 3 1 3.5-1 .5-4zM475 155q4.5-1.5 3 3-4.5 1.5-3-3zM410.5 156l.5 3-2.5 1 .5-1.5 1.5-2.5zM414 157q2.7-1.1 2 1.5l-1 1q3.1 1.7 1.5 3.5 2.3.8 1.5-1.5l1.5.5q2.6.7 1.5-2h2l-1.5 3q-3.9 4-11.5 3l2.5-5h1.5v-4zM214 167q3.8-1 5 1.5l-3.5 1.5-1.5-3zM508 167l3 1.5-3 .5-.5 2-.5-1.5 1-2.5zM907.5 168l1.5 4q-4.1 1.7-3-2.5l1.5-1.5zM413.5 170l1.5 2.5h-1l-.5-2.5zM918.5 170l1 2-2.5-.5 1.5-1.5zM999.5 170l.5 2.5h-1l.5-2.5zM338 173q3-1 2 2-3 1-2-2zM660.5 174l2 3-2.5-1 .5-2zM849.5 179q2.3-.7 1.5 1.5l-1.5-1.5zM79 180l4 1.5-1.5 2.5-2.5-1.5V180zM438.5 180l1 2q-2.8.7-1-2zM165.5 181l4.5 2q1.5 3.8-1.5 3l-3 3-1.5-1.5q.7-2.6-2-1.5v-3l3.5-2zM433 181q3-1 2 2-3 1-2-2zM301 185q3.3-1.1 2 3-3.3 1.1-2-3zM834.5 185l2.5 1.5-4.5 2.5-1.5-.5-1.5 2.5q-2.7-1.2-.5-2.5l1.5-2.5 4-1zM331 190q3-1 2 2-3 1-2-2zM341.5 191q2.3-.7 1.5 1.5l-1.5-1.5zM931.5 194l.5 2-2-.5 1.5-1.5zM719 195q3.3-1.3 2 3.5l2 4.5 6.5 1 1.5 1.5q-2.3 3.5-8 2.5l-1 8q3.7-1.5 3 1.5l.5 1.5-3.5 2.5-.5 2.5-1-8-1.5.5-1-8.5-3.5-2-2.5 1q-1.2-3 2.5-2l3.5-1 2-6.5-1-2.5zm4 22l1 2q1-3-1-2zM798.5 195q4-.5 4.5 2.5l-2.5 3.5q-1.2-2.2-2.5.5.7 3-3 1.5v-3q2.7 1.1 2-1.5-2.8-1.8 1.5-3.5zM687.5 196l1.5 3q-3.5 1.1-1.5-3zM58.5 198q2.3-.7 1.5 1.5l-1.5-1.5zM325 198q4.1-1.3 3 2-4.1 1.3-3-2zM339.5 198l4.5 2.5-.5 1.5-4.5-2 .5-2zM352.5 198l2.5 1.5-3.5 1.5.5-1.5.5-1.5zM367.5 198q2.3-.7 1.5 1.5l-1.5-1.5zM403 198q3-1 2 2-3 1-2-2zM949.5 198l1 2q-2.8.7-1-2zM430 199q4.5-1.5 3 3-4.5 1.5-3-3zM361.5 201l-1 2 1-2zM793.5 202l.5 2 2 .5-1.5.5-1-3zM923.5 202l2.5.5-2.5.5v-1zM365 203q3-1 2 2-3 1-2-2zM784 204l5 .5-4.5 1.5-.5-2zM821.5 204l-1 2 1-2zM897.5 207h2l1.5.5-2.5 1.5-1-2zM346.5 208l1.5.5-2.5 1.5 1-2zM351.5 208l-1 2-1.5-.5 2.5-1.5zM881 208q3-1 2 2-3 1-2-2zM953 208q3-1 2 2-3 1-2-2zM961 209q5.4-1.5 7 1.5l-1 3.5-3.5 1q-3.5-1.3-2.5-6zM379.5 210l2.5 1q1.6 4.9-4 3l1.5-4zM367.5 211l.5 2-2-.5 1.5-1.5zM349.5 212l-2 3 2-3zM344.5 213q3-.8 1.5 3l-3 .5.5 1.5h-2q-2.6.7-1.5-2h2q-1.1-2.7 1.5-2l1-1zM772.5 214q2.3-.7 1.5 1.5l-1.5-1.5zM349.5 215q2.3-.7 1.5 1.5l-1.5-1.5zM734.5 215l1.5.5-3 2 1.5-2.5zM671 218q3-1 2 2-3 1-2-2zM330.5 220l2.5 3.5-.5 2.5-3.5-.5 2-1-2-3 1.5-1.5zM497.5 222l1 2q-2.8.7-1-2zM711 223q2.7-1.1 2 1.5 2.2 1.3-.5 2.5l-1.5-4zM446.5 224q2.3-.7 1.5 1.5-1.5 3-3 0l1.5-1.5zM708.5 224l.5 2.5-1 2q2.2 1.3-.5 2.5H704q1.1-2.7-1.5-2l-1.5.5q-.7-2.2 1.5-1.5l3-1v2q3 .9 1.5-3.5l1.5-1.5zM312.5 225q3 1.5 0 3v-3zM896 226q3-1 2 2-3 1-2-2zM717 227l3 1.5-3 .5v-2zM757.5 229l3.5 1.5 1.5 2.5 3.5 1 1 2.5-1 2.5-6.5 5H756l-2.5-5-4.5-1.5.5-2.5 5.5-2.5 2.5-3.5z"/><path fill="#FFF" stroke="#FFF" d="M699.5 232q5.9-1.7 4.5 2h-4q1.1 3.3-3 2-1.5-3.7 1.5-3l1-1zM398.5 233l1.5.5v2l-.5 1.5-2.5-1 1.5-3zM392 236q3-1 2 2-3 1-2-2zM463 241q3-1 2 2-3 1-2-2zM655.5 245q2.3-.7 1.5 1.5l2 1q-.7-2.6 2-1.5 1.7 4.1-2.5 3l-2.5-.5-.5-3.5zM673.5 245q4.8-1.3 3.5 2l-2 .5.5 1.5H674q1.5 3.7-1.5 3l-3.5-2-1-2.5q4.3.3 5.5-2.5zM698.5 246l2.5.5-2.5.5v-1zM441.5 249l1.5 3-3-1.5 1.5-1.5zM653.5 249q2.3-.7 1.5 1.5l-1.5-1.5zM649 253h3v4h1.5v1q-4 .5-4.5-2.5V253zM631.5 259l1.5 2.5h-1l-.5-2.5zM447 263q3-1 2 2-3 1-2-2zM980 269q3-1 2 2-3 1-2-2zM344 270q3-1 2 2-3 1-2-2zM472.5 272l2.5 3.5-1 2.5h-2l-2-4q2.8 1 2.5-2zM421.5 275l1 2q-2.8.7-1-2zM633.5 276l2.5 1.5-2.5 3.5-1.5-3.5 1.5-1.5zM863 278q6-2 4 4l-4-1.5V278zM939.5 291q3.8-1.2 2.5 2.5l-3 1.5-1-2.5 1.5-1.5zM777.5 302l.5 3q-2.7 1.1-2-1.5l1.5-1.5zM674 304q3.3-1.1 2 3-3.3 1.1-2-3zM836.5 318l3.5 1.5q1.8 5.3-3.5 3.5l-1.5-3.5 1.5-1.5zM595 324q3-1 2 2-3 1-2-2zM784 336q3-1 2 2-3 1-2-2zM607 342q3-1 2 2-3 1-2-2zM443 346q4.1-1.3 3 2-4.1 1.3-3-2zM610 348q2.7-1.1 2 1.5l.5 1.5-2-1-1.5.5 1-2.5zM461 355h2l2 4-3-.5.5-1.5q-2.6.7-1.5-2zM407.5 381l1 2-2.5-.5 1.5-1.5zM427.5 385l1 2-1-2zM375 388l3 .5-3 1.5v-2zM410.5 388l2.5 1.5-1.5-.5-1-1zM416.5 388l1 2q-2.8.7-1-2zM344 391l5.5 3 2-1 2.5 1.5-3.5 1.5-3 1-2.5-1.5 1 5-2-1-.5-2.5-.5 3-2-.5 3-8.5zM373.5 392l.5 1.5-3 4.5q-3.7 1.5-3-1.5l-1-2.5q3-1.2 2 2.5l2-1 2.5-3.5zM357.5 397l2 1 1.5-.5 1 3-1.5.5-2.5-1-.5-3zM384.5 398q5.4-1.9 4.5 1.5l-1.5-.5-4 1 1-2zM339.5 400l2.5 1.5-1.5.5-1-2zM533.5 404l.5 2-2-.5 1.5-1.5zM583.5 405l.5 2-2-.5 1.5-1.5zM589 409l4 1.5-.5 3.5-3.5-2.5V409zM565.5 412l1.5 3q-3.5 1.1-1.5-3zM856 414q2.7-1.1 2 1.5l1 2-1 3.5q-3 1.3-2-2.5l-1-2 1-2.5zM861.5 416l-1 2 1-2zM584 419q3.8-1.5 3 1.5-1.5 3-3 0V419zM595.5 420l2.5 4-4-1.5 1.5-2.5zM587 432q3.7-1.5 3 1.5l-3 1.5v-3zM545.5 433l1 2q-2.8.7-1-2zM627.5 442q2.3-.7 1.5 1.5l-1.5-1.5zM591.5 444l1.5 4q-2.7 1.1-2-1.5-2.2-1.2.5-2.5zM597 444q2.7-1.1 2 1.5l1 4.5-3-1.5V444zM999.5 444l.5 3.5h-1l.5-3.5zM603.5 446l.5 2-2-.5 1.5-1.5zM583 450q3.8-1 5 1.5l-1 6.5q-3.7 1.5-3-1.5l-2-4 1-2.5zM999.5 454l.5 57.5h-1l.5-57.5zM604 459l4 1.5-1.5 3.5-2.5-1v-4zM596 465l4 1.5q-1.2 2.8-2.5.5-2.6.7-1.5-2zM610.5 474l2.5 1.5 1 3-3.5 1.5q-2.2-.7-1.5-4.5l1.5-1.5zM598.5 484l3 4 2-3 2.5 1.5.5 3.5.5-3q2.7-1.1 2 1.5l1 2.5h-2q1.5 3.8-1.5 3-2.5-1.2-1.5-5l-2.5-1-.5 1.5q2.3 1.3-.5 2.5l-3.5-1.5-1-2 1.5-4.5zM310.5 485l.5 2-2-.5 1.5-1.5zM612 501q6.4-2.1 4 5l-4-2.5V501zM623 520l4 1 2 3.5v4.5q-3.8 1.5-3-1.5l-3-7.5zM913 523l4 1.5v1.5h4v1.5q2.3 1.2-.5 2.5l-8-1q-1.4 2.6-6 2l-4.5-1-1.5 3-4.5-1q-2.2-5.6 3.5-4l2-2 2.5 1.5q-1.3-4.2 3.5-2.5l4-1 1.5.5V523zM631.5 528l3.5 2.5q1.1 3.3-1.5 2.5l-2.5 1-1-4.5 1.5-1.5zM636.5 531l1.5 2.5-2-1 .5-1.5zM668 555q3.7-1.2 2 4-3.7 1.2-2-4zM678 565l2 .5v6.5l-2-.5V565zM642 572q3.8-1 5 1.5 1.5 5.3-3 3.5l-2-5zM653.5 584l2.5 1 2 5.5q-.7 2.3-4.5 1.5l-2.5-1.5 2.5-6.5zM677.5 584l2.5 1.5-.5 5.5-2.5-1-1-4.5 1.5-1.5zM142.5 594l.5 2.5h-1l.5-2.5zM132.5 601l.5 1.5-2 1 1.5-2.5zM819.5 605h1.5q-1.5 3.7 1.5 3l2 1 2.5-1-1.5 3q-4.4-1.5-3.5 1.5l1 2.5h-3v-2h-4v-1.5l-.5-2.5-2.5-1.5 6.5-2.5zM62 608q3-1 2 2-3 1-2-2zM809.5 612q4.8-1.3 3.5 2l-5-.5 1.5-1.5zM168 620q5.2-1.7 4 2-5.2 1.7-4-2zM419.5 624l1 2q-2.8.7-1-2zM336.5 626l2.5 1.5-2 4 3 1-6 .5q-1.2-5.5 2.5-7zM552.5 628l2.5 1.5-1 2.5q-3.8 1.2-1.5-4zM937 632q3.7-1.2 2 4-3.7 1.2-2-4zM552 637h8v3q-2.3 2.6-8.5 2v-2H549q1.7 5.2-2 4-1-3.8 1.5-5 4.8 1.3 3.5-2z"/><path fill="#FFF" stroke="#FFF" d="M935.5 637l-1.5 2.5q.8 2.3-1.5 1.5l.5-1.5q-.7-2.2 1.5-1.5l1-1zM430.5 638q2.6-.7 1.5 2l-4-.5 2.5-1.5zM454 638q3-1 2 2h2.5l-1 2-3.5-1.5V638zM482.5 639l2.5.5-2.5.5v-1zM232 640q3.3-1.3 2 3.5l2.5 1.5 4-4 1 1 4-1 2.5 1q-1.5 3.8 1.5 3l2.5 1.5-4 1.5-.5-2-5 4h-4l-7.5-4.5 1-5.5zM316.5 640l3 2 2.5 4-6.5 3-1-3q-1.7 3.5-7.5 2l-1-2.5 1-2-1-2.5 8.5 1 2-2zM420 640q3.7-1.5 3 1.5l-3 1.5v-3zM544.5 640l.5 2.5h-1l.5-2.5zM489.5 642l2.5 1q1 3.8-1.5 5-4.6 1.4-2.5-4.5l1.5-1.5zM536.5 642l.5 3q-2.7 1.1-2-1.5l1.5-1.5zM424 643h8v3h-8v-3zM436.5 643l3.5.5-3.5.5v-1zM575.5 643l3.5 2.5-1 2.5q-3 1.3-2-2.5l-.5-2.5zM256.5 645q1.3 2.8 5.5 2.5l-2 .5q1.3 3-2.5 2v1q4-.5 4.5 2.5 1.3 4.2-3.5 2.5-3.1 3.6-10.5 2-1.1-2.7 1.5-2l3.5-1 1-3.5-2-3 4.5-3.5zM279.5 646l4 6q3-.8 1.5 3-3 1-2-2h-4.5l-7.5-2-1.5 3-2.5-1.5 5.5-4.5h3l4 1-.5-1.5.5-1.5zM415.5 647l2.5 1-1.5 3-1-4zM516.5 648l2.5 1.5.5-1.5 3.5 4.5-.5 1.5q4.2 1.3 2.5-3.5l3.5-1.5q1.5 3.5 3 1l2.5 1.5-1.5 2.5-3-1-1.5 3 2 .5-2 1-.5-1.5-3 1-6.5-1-1.5-4-1 4-.5-2q-2.7-1.1-2 1.5h-1l-1-3 1-2.5 3.5 2 1-4zM408.5 651q3 1.5 0 3v-3zM960 656q3-1 2 2-3 1-2-2zM240 660h8q-2.2 5.6 3.5 4v1l-7-1h-2q-4.6 1.2-2.5-4zM533.5 662l1 2-2.5-.5 1.5-1.5zM198.5 668q2.6-.7 1.5 2l-3-.5 1.5-1.5zM228.5 668q3-.9 1.5 3.5l1 2h-1l-1.5-5.5zM199.5 671l5.5 4.5-2 .5-1.5-3-2-2zM987 671q3-1 2 2-3 1-2-2zM594 672q3.8-1.5 3 1.5-1.5 3-3 0V672zM207.5 678l.5 2q3-1 2 2-2.7 1.1-2-1.5l-.5-2.5zM240.5 701l2.5.5-1 2.5-4.5 1-3.5-1.5 6.5-2.5zM220.5 703l1 2-1-2z"/></svg>