<svg xmlns="http://www.w3.org/2000/svg" width="1000" height="787"><path fill="#5b6092" d="M0 0h1000v787H0z"/><path fill="#364183" d="M459.5 300.5l-117 116-125 87-122 51-104 9-80-34-46-73-7-106 32-128 67-137 96-132 117-117 125-87 122-51 106-9 79 34 46 74 7 105-31 127-68 137z"/><path fill="#a4a7b0" d="M-20.5 698.5l15-22 30-16 43-7 52 2 56 10 53 19 46 24 34 28 19 29 2 27-15 23-31 15-44 8-52-2-55-11-53-18-46-25-33-28-19-29z"/><path fill="#897085" d="M1185.5 551.5l-5 65-46 71-84 70-113 63-132 49-137 30-130 8-108-14-78-35-38-52 4-65 46-72 84-70 114-62 131-49 138-30 129-9 109 14 77 35z"/><path fill="#83afe4" d="M663.5 54.5l-2-7 1-9 5-11 8-11 11-11 12-8 13-6 11-3h9l7 4 3 7-2 8-5 11-8 11-11 11-12 9-12 6-12 3h-9z"/><path fill="#e4d7c0" d="M267.5 718.5h12l11 5 10 10 8 12 5 15 1 16-2 15-5 13-8 9-11 5-11-1-11-5-10-9-8-13-5-15-2-15 2-15 6-13 8-9z"/><path fill="#6e95d9" d="M590.5 324.5l-66 120-64 107-55 82-40 50-23 12-2-25 18-62 37-92 52-113 62-122 66-121 63-106 55-81 41-50 23-13 2 26-18 62-37 90-52 113z"/><path fill="#6882a6" d="M37.5 644.5l18 6 15 8 12 11 6 12v12l-5 10-10 9-15 5-18 2-18-3-18-5-15-9-11-10-6-12-1-12 5-11 11-8 14-5 17-2z"/><path fill="#2e73bc" d="M609.5 125.5l-37 57-35 50-30 38-21 23-11 6v-13l12-29 22-43 30-53 35-58 37-56 35-49 30-38 21-24 11-5v12l-12 29-22 43-30 53z"/><path fill="#99a0b2" d="M271.5 599.5l-31 10-30 4-25-1-19-7-10-12-1-16 9-18 17-19 25-17 29-14 31-10 30-5 25 2 19 7 11 12v16l-8 18-18 19-25 17z"/><path fill="#6e84a8" d="M274.5 709.5l-10 5-20-3-27-11-32-16-34-21-32-23-28-24-19-21-11-18v-11l11-4 20 3 27 10 32 16 34 21 32 24 27 23 20 22 10 17z"/><path fill="#404a8e" d="M1114.5 26.5l16 44-10 60-34 69-56 71-71 67-81 56-81 39-75 19-60-4-41-25-16-45 10-59 34-69 56-71 72-67 80-56 82-39 75-18 60 2z"/><path fill="#80849c" d="M406.5 702.5l27 16 23 19 15 19 7 18-2 16-10 10-19 6-25-1-29-7-29-12-27-16-23-19-16-19-7-18 2-15 11-11 19-5h25l28 7z"/><path fill="#a6abb4" d="M190.5 675.5l-10 7-10 4-9 3-8-1-5-3-2-6 1-7 4-9 7-8 9-9 9-7 10-4 10-3 7 1 5 3 2 6-1 7-4 9-7 8z"/><path fill="#4c67a3" d="M503.5 87.5l39-9 36-4h29l21 4 8 9-3 12-15 14-26 15-33 14-38 12-39 8-36 5h-30l-20-5-9-9 4-12 15-14 25-14 34-14z"/><path fill="#3b4f90" d="M286.5 484.5l-5-15 5-22 15-27 23-29 28-29 32-25 31-19 29-12 22-2 15 6 5 15-6 22-14 27-23 29-29 29-31 25-32 19-28 12-23 2z"/><path fill="#a1959b" d="M940.5 675.5l43 31 36 36 23 35 9 31-5 25-20 16-33 6-42-6-47-17-47-25-44-32-35-35-24-35-9-32 5-25 20-16 33-5 42 6 47 16z"/><path fill="#7c5976" d="M487.5 609.5l8-34 42-40 70-42 92-40 105-35 107-25 100-13h82l56 12 25 25-9 34-41 39-71 43-92 40-105 34-107 25-99 13-82 1-56-13z"/><path fill="#5a507a" d="M624.5 472.5l6-16 28-20 45-23 58-24 66-22 67-17 61-12 50-6 34 2 15 10-7 15-27 21-45 23-59 23-65 22-67 18-62 12-50 5-34-2z"/><path fill="#345b96" d="M249.5 460.5l-2 14-15 18-25 20-35 22-40 20-42 16-39 12-32 5-22-1-12-8 2-14 14-18 25-20 35-22 40-20 42-16 39-12 32-5 23 1z"/><path fill="#d6c9ba" d="M155.5 690.5l5-3 11 1 14 5 17 8 17 11 16 12 14 13 9 11 5 9v7l-6 3-11-1-14-5-16-8-17-11-17-12-13-13-10-11-5-9z"/><path fill="#4375bf" d="M656.5 284.5v11l-10 22-19 31-26 37-32 39-33 38-32 33-27 24-20 14-11 1v-10l10-22 19-31 26-37 32-40 33-38 32-32 27-25 20-13z"/><path fill="#90cbf7" d="M433.5 473.5l2-10 10-26 19-39 24-49 28-53 29-53 27-47 22-37 15-24 7-7-1 10-11 26-18 39-25 49-28 53-28 53-27 48-22 37-16 23z"/><path fill="#686a97" d="M348.5 683.5l-50-15 43-137 50 15z"/><path fill="#d18294" d="M682.5 598.5l4 5 3 6 1 4v4l-2 3-3 1h-4l-5-2-5-3-4-5-4-5-2-5-1-5v-4l2-3 3-1 4 1 4 2 5 3z"/><path fill="#686bbd" d="M747.5 119.5l-29 43-30 37-27 27-22 14-14 1-6-13 3-26 13-36 20-43 25-45 29-43 30-36 27-26 22-15h14l6 13-3 26-13 35-20 42z"/><path fill="#7f8ba5" d="M37.5 822.5l-10 4h-12l-14-4-13-9-13-12-10-15-7-15-3-14 2-12 6-9 10-5h12l14 5 13 8 13 13 10 14 7 15 3 14-2 13z"/><path fill="#ada5a8" d="M935.5 808.5l-20-6-18-8-13-11-8-13-1-12 5-12 11-9 17-7 19-2 21 1 20 6 18 8 13 11 8 13 1 12-5 12-12 9-16 7-19 2z"/><path fill="#5168a2" d="M499.5 180.5l-8-2-6-5-6-7-3-9-2-10 2-9 3-9 6-7 7-5 7-2 8 2 7 5 5 7 4 9 1 10-1 10-4 8-5 8-7 4z"/><path fill="#5170a0" d="M163.5 616.5l-7 3h-8l-8-3-9-6-8-8-5-9-4-10-1-9 2-8 4-6 7-3h8l9 3 8 6 8 8 6 10 3 10 1 9-2 8z"/><path fill="#434fa7" d="M832.5 186.5l-68 50-64 43-53 30-37 15-18-1 3-18 25-32 42-44 57-51 66-53 68-50 64-42 53-30 37-15 18 2-3 16-24 32-43 44-57 51z"/><path fill="#25469c" d="M609.5 9.5l12-15 12-13 12-9 10-4 6 1 4 6-1 11-4 14-8 15-10 16-12 16-12 13-12 9-9 4-7-1-4-6 1-11 4-14 8-16z"/><path fill="#8a9deb" d="M615.5 135.5l8-4 8-2h8l8 3 6 5 4 7 1 8-2 8-4 8-6 6-7 5-9 2h-8l-8-3-5-5-4-7-1-8 1-8 4-8z"/><path fill="#2f3574" d="M297.5 58.5l2-9 10-11 17-11 23-11 26-10 26-6 25-4 21-1 14 3 7 6-2 8-10 11-17 11-23 11-26 10-27 7-25 4-20 1-15-3z"/><path fill="#778ca9" d="M70.5 708.5l4 6 3 6v6l-2 7-4 6-5 4-6 3-7 1-7-2-5-3-4-5-2-7-1-6 2-7 4-6 5-4 7-3h6l7 1z"/><path fill="#26397e" d="M285.5 381.5l23 22 18 23 11 22 4 18-5 13-12 6-18-1-23-8-26-15-25-19-23-22-18-24-11-21-4-18 5-13 12-6 18 1 23 8 26 14z"/><path fill="#9c8693" d="M928.5 655.5l-5 6-14 5-21 2-26-1-29-3-28-5-25-6-20-8-12-8-4-7 5-7 14-4 21-2 27 1 28 3 29 5 25 6 20 8 12 8z"/><path fill="#4a5c9a" d="M303.5 232.5l-4-7 2-11 5-14 10-15 12-14 15-13 14-10 14-6 11-1 7 3 4 7-2 11-5 14-10 15-12 14-15 13-14 10-14 6-11 1z"/><path fill="#2e3273" d="M503.5 65.5l-29 2h-27l-22-4-14-7-6-9 3-11 12-10 20-10 26-8 28-6 30-2h27l21 4 15 7 6 9-3 10-12 11-20 10-26 8z"/><path fill="#3b4481" d="M925.5 223.5l1 20-14 26-28 32-40 33-47 31-50 28-48 19-41 11h-31l-16-10-1-19 14-26 29-32 39-33 48-32 50-27 47-20 42-10 30-1z"/><path fill="#474899" d="M994.5-25.5l1 11-8 15-16 19-22 21-27 20-28 18-27 14-24 8-18 2-9-5-1-11 7-16 16-19 22-21 27-20 28-17 28-14 23-8 18-1z"/><path fill="#8194b0" d="M139.5 668.5l-11-2-9-3-7-6-5-6-1-7 2-7 5-6 8-4 10-3h11l11 2 9 4 7 5 5 6 1 7-2 7-5 6-8 4-10 3z"/><path fill="#2d3170" d="M-28.5 114.5l57-54 56-44 51-29 40-12 24 6 8 24-11 40-28 51-42 59-52 59-58 54-55 44-51 29-40 13-24-7-8-24 11-40 28-52 42-58z"/><path fill="#69638d" d="M568.5 506.5l9 16 1 22-7 24-15 26-21 24-24 20-26 14-25 7-21-1-16-9-9-16-1-22 7-24 15-26 21-24 24-20 26-14 25-7 22 1z"/><path fill="#2e9be1" d="M557.5 214.5l-19 29-17 26-14 20-10 12-5 3v-6l6-15 11-22 15-27 17-29 18-29 17-26 15-20 10-12 5-3v6l-6 14-11 22-15 27z"/><path fill="#3d457f" d="M1009.5 210.5l13 16 7 21v24l-7 24-14 24-19 19-22 13-23 7-22-1-18-9-14-16-7-21 1-24 7-24 14-24 18-19 22-13 24-7 21 1z"/><path fill="#bcb9ba" d="M238.5 590.5l-1-6 1-6 2-5 4-4 4-3 6-1 5 2 5 3 4 4 3 6 1 6-1 6-2 6-4 4-5 2-5 1-5-1-5-3-4-5z"/><path fill="#6d94d5" d="M608.5 407.5l9 36 9 33 6 26 3 17v6l-4-5-6-16-8-26-10-32-11-36-9-36-9-32-6-26-3-17 1-6 3 5 6 16 8 25 10 32z"/><path fill="#664f78" d="M647.5 477.5l12-6 14-1 14 3 14 8 12 12 9 14 5 16 1 15-4 13-8 10-12 6-13 1-15-4-14-8-12-11-9-15-5-15-1-15 4-13z"/><path fill="#a4d4f4" d="M687.5 53.5l-12-10 36-42 12 10z"/><path fill="#585dab" d="M707.5 145.5l-3-11 7-19 14-25 22-29 26-29 28-27 28-21 25-15 19-7 11 3 3 11-6 19-15 24-21 29-26 29-29 27-28 22-24 15-19 7z"/><path fill="#7b7cd9" d="M708.5 87.5l2 4-3 8-5 11-8 13-9 13-11 13-10 11-9 8-7 4h-4l-2-5 2-7 6-11 7-13 10-14 10-12 11-11 9-8 7-4z"/><path fill="#5d78a2" d="M312.5 492.5l-3 20-49-7 3-20z"/><path fill="#677098" d="M322.5 717.5l-12 4-15-1-14-7-14-11-11-15-8-17-4-18 1-16 6-13 9-9 13-5 14 2 15 7 14 11 11 15 8 17 4 17-2 17-5 13z"/><path fill="#305cad" d="M642.5 338.5l-9 13-10 11-8 8-7 4h-4l-2-4 2-8 4-11 6-13 8-13 9-13 10-11 8-8 7-4h4l2 4-2 8-4 10-6 13z"/><path fill="#5680bc" d="M620.5 76.5l11-11 13-8 12-4h10l7 3 5 8v10l-3 12-7 13-10 12-11 11-13 7-11 5h-11l-7-4-5-7v-10l3-12 7-13z"/><path fill="#8f6077" d="M595.5 663.5l3-10 10-10 16-9 20-7 24-5 24-2 22 1 18 4 12 7 5 8-3 10-9 10-16 9-21 7-24 5-23 2-22-1-18-4-12-7z"/><path fill="#45619f" d="M567.5 449.5l-12 10-11 9-10 6-8 2-5-1-1-5 3-8 5-10 9-11 11-12 11-10 11-9 10-6 8-2 5 1 1 5-2 8-6 10-8 11z"/><path fill="#41488a" d="M504.5 200.5l4 20-3 22-10 20-16 17-21 13-24 6h-23l-22-7-17-13-12-18-4-21 3-21 10-20 16-18 21-12 24-6h23l22 7 17 13z"/><path fill="#7586c1" d="M691.5 49.5l1 3-2 7-4 9-7 10-8 10-10 10-8 8-8 6-7 3-3-1-1-3 2-7 4-9 7-10 8-10 9-10 9-8 8-6 6-3z"/><path fill="#28387c" d="M72.5 527.5l-7 1-9-5-11-9-11-14-11-16-8-16-6-17-3-13v-11l4-6h7l9 4 11 10 11 13 11 16 8 17 7 16 2 14v10z"/><path fill="#8c5a70" d="M952.5 496.5l57 9 50 14 40 19 24 20 7 20-11 19-28 15-43 10-52 3-58-3-56-9-51-14-39-18-25-21-7-20 11-19 29-15 42-10 52-3z"/><path fill="#8a5b73" d="M811.5 589.5l7-6 8-4 9-2 8 1 7 3 4 6 2 8v9l-3 8-5 9-7 6-9 4-8 2-8-1-7-3-4-6-3-8 1-9 3-8z"/><path fill="#c5bdb7" d="M173.5 717.5h8l7 2 6 3 4 4 1 4-1 4-4 3-6 3-7 2h-17l-7-2-6-3-4-4-1-4 1-4 4-3 6-3 7-2z"/><path fill="#3f4a8e" d="M315.5 248.5l-9 18-11 14-12 11-13 5-12-1-10-7-7-12-4-16 1-18 5-19 8-18 11-15 12-10 13-5h12l10 7 7 12 4 16-1 19z"/><path fill="#7b6f8f" d="M445.5 609.5l21 3 18 8 15 12 10 16 3 18-3 17-9 17-14 13-18 8-21 3-20-2-18-8-15-12-10-16-3-18 3-18 9-16 14-13 18-8z"/><path fill="#89848c" d="M730.5 728.5l31 1 28 6 22 8 14 11 6 12-5 13-14 11-22 9-28 6-31 2-31-2-28-5-22-9-15-10-5-13 5-12 14-11 22-9 28-6z"/><path fill="#a0cdf4" d="M370.5 649.5v-5l5-16 8-25 11-30 13-34 13-33 12-30 10-24 7-15 3-5v6l-5 16-8 24-11 31-13 33-13 34-12 30-10 24-7 15z"/><path fill="#808b9d" d="M309.5 777.5l17-10 16-7 14-5 9-3 4 2-1 4-6 7-11 9-15 10-17 10-18 10-16 7-14 5-9 3-4-2 1-4 6-7 12-9 15-10z"/><path fill="#b6b6ba" d="M288.5 539.5l11-11 12-8 10-4 9-1 7 2 2 6v9l-5 11-7 12-10 12-12 10-11 8-11 5-9 1-6-2-3-7 1-9 4-11 8-11z"/><path fill="#6b80a6" d="M202.5 515.5l28-45 33 20-27 45z"/><path fill="#303981" d="M901.5 145.5l1-11 11-13 19-14 26-14 30-13 31-9 29-6 24-2 16 3 8 7-1 11-11 13-19 14-26 15-30 12-31 10-29 6-24 1-16-3z"/><path fill="#84adf0" d="M573.5 254.5l4-22 5-20 5-15 6-10 5-3 3 4 3 11v17l-1 20-2 22-4 22-5 20-5 16-6 9-5 3-3-4-3-11v-16l1-20z"/><path fill="#bab8b9" d="M177.5 700.5l-2-1-2-3-1-5v-5l1-6 1-6 2-5 3-4 2-2h3l2 1 2 3 1 4v12l-2 5-2 5-2 4-3 3z"/><path fill="#5453a8" d="M814.5 122.5l-1 9-12 16-21 23-28 26-32 28-34 26-31 22-27 16-18 8h-9l1-9 12-17 20-23 29-26 32-28 34-26 31-22 27-16 18-8z"/><path fill="#486a9b" d="M37.5 643.5l-12-5-10-7-7-9-4-10 1-9 4-8 8-6 11-4 12-1 13 3 12 4 10 8 7 8 4 10-1 9-4 8-8 6-11 4-12 1z"/><path fill="#807e95" d="M721.5 815.5l-12 8-29 3-42-4-52-9-56-14-55-17-50-19-37-19-23-17-6-14 12-8 28-3 42 4 52 9 57 14 55 17 49 19 38 19 23 17z"/><path fill="#495e98" d="M930.5 202.5l-7 5-9 3h-8l-7-2-5-5-3-6-1-7 2-8 4-8 6-6 8-5 8-2 8-1 7 3 6 4 3 6 1 7-2 8-5 8z"/><path fill="#454883" d="M642.5 385.5l8 3 8 7 6 12 5 15 1 17-1 16-3 16-5 12-8 8-8 2-8-2-8-7-6-12-5-15-1-17v-16l4-16 5-12 8-8z"/><path fill="#3a4a8e" d="M562.667 55.692l28.235 45.095-47.985-21.07z"/><path fill="#35367b" d="M218.5 80.5l4 13-4 18-11 22-19 23-23 23-26 20-25 14-24 8-19 1-12-6-4-13 4-18 11-22 19-24 23-22 26-20 26-14 23-8 19-1z"/><path fill="#455e9a" d="M400.5 129.5v-3l4-4 5-4 8-5 8-5 9-4 9-3 7-2h5l2 1v3l-3 4-6 4-8 5-8 5-9 4-9 3-7 2h-5z"/><path fill="#3e5797" d="M228.5 260.5l20-5 19-5 15-2 10-1 3 1-2 3-9 4-14 6-18 6-21 6-20 5-18 5-15 2-10 1-4-1 3-3 8-4 15-6 18-6z"/><path fill="#8fbde9" d="M381.258 618.716l-12.426 93.691-22.185-16.574z"/><path fill="#4a73ab" d="M764.5 109.5v4l-4 7-7 9-9 11-12 12-11 11-11 9-10 7-7 3h-3v-3l3-7 7-9 10-11 11-12 12-11 11-9 9-7 7-4z"/><path fill="#96d1f7" d="M622.5 130.5l1 3-2 7-3 11-5 13-6 14-6 14-6 12-5 10-5 6-2 1-1-3 2-7 3-10 4-13 6-14 7-14 6-13 5-9 4-6z"/><path fill="#617fa7" d="M90.5 603.5l-7 5-8 3-7 2-7-2-4-3-3-5v-7l2-7 5-7 6-6 8-5 8-4 7-1 7 1 4 4 3 5v6l-3 8-4 7z"/><path fill="#64638c" d="M245.5 603.5l3 3 2 4 1 5-1 4-2 4-4 3-4 1-4 1-5-2-3-2-3-3-2-4-1-5 1-4 2-4 4-3 4-1 4-1 5 2z"/><path fill="#6a5477" d="M1014.5 401.5l-7 8-25 12-40 13-51 14-57 14-57 12-53 8-41 5h-28l-10-4 7-8 25-11 40-14 51-14 57-14 57-12 53-8 42-5h27z"/><path fill="#5e7aa4" d="M247.5 682.5l6 4 5 4 3 6 1 6-1 7-3 5-5 4-6 3h-7l-6-1-7-4-5-4-3-6-1-6 1-6 3-6 5-4 6-2 7-1z"/><path fill="#25367d" d="M223.5 283.5l9 1 13 8 14 15 15 21 14 24 12 25 9 25 4 20v15l-5 7h-9l-12-8-14-15-15-21-15-25-12-25-8-24-5-21 1-14z"/><path fill="#4e70a1" d="M94.5 575.5l104-63 7 12-104 63z"/><path fill="#6d5b80" d="M598.5 565.5l-16 15-18 12-16 6-14 1-11-5-6-11-1-14 4-17 10-18 13-18 16-15 17-11 17-6 14-1 11 5 6 10 1 14-5 17-9 19z"/><path fill="#9698ab" d="M101.5 710.5l2 4-1 7-4 10-6 11-8 11-9 11-9 9-8 6-7 3h-4l-2-4 1-8 4-9 6-11 8-12 9-11 9-9 8-6 6-3z"/><path fill="#905b6f" d="M787.5 550.5l2 8-2 11-7 13-10 13-14 13-15 10-16 8-14 4h-11l-7-5-3-8 2-10 7-13 11-14 14-12 15-11 15-8 14-4 11 1z"/><path fill="#bfbab6" d="M178.29 731.944l-70.16-31.282 17.41-40.178z"/><path fill="#5f719c" d="M215.5 651.5l8-7 9-5 9-2 8 1 6 4 3 6 1 8-2 9-4 8-7 9-8 6-9 5-8 2-8-1-6-4-4-6-1-8 2-8 5-9z"/><path fill="#8b7480" d="M935.5 683.5l-6-4-4-3-4-3-1-3v-2l1-2h4l4 1 6 2 5 3 6 4 4 3 4 3 1 3v2l-1 2h-4l-4-1-6-2z"/><path fill="#282a69" d="M161.5 36.5l-3 8-13 9-20 10-27 10-30 8-31 7-28 4-21 1-16-3-6-5 3-7 13-9 19-10 27-10 30-9 30-6 28-4 23-1 15 2z"/><path fill="#5264a8" d="M786.5 71.5l3-3 12-4 17-4 23-4 25-4 25-4 23-2 18-1h12l4 1-3 3-11 4-18 4-23 4-25 4-25 4-23 2-18 2-12-1z"/><path fill="#536faa" d="M817.5 86.5l-5 6-6 5-6 2-5 1-5-2-4-3-2-6v-7l2-7 4-7 5-6 5-4 6-3 6-1 5 2 3 4 2 5v7l-2 7z"/><path fill="#876580" d="M652.5 686.5l-7 11-15 8-20 5h-25l-25-5-25-8-21-12-16-13-9-15-1-13 7-12 15-8 20-5 25 1 25 4 25 8 21 12 16 14 9 14z"/><path fill="#6070a6" d="M456.5 579.5l-10 16-11 14-9 10-9 6h-5l-3-5 1-10 4-14 6-15 9-17 10-16 11-14 10-10 8-6h6l2 5v10l-4 13-7 16z"/><path fill="#c8bdb4" d="M-13.32 722.85l56.37 17.025-32.145-27.37z"/><path fill="#8a6475" d="M968.5 680.5l-12-2-10-5-8-8-5-10-2-11 2-11 6-10 9-7 10-5 12-1 12 2 10 5 8 8 5 10 2 11-2 11-6 10-9 7-10 5z"/><path fill="#7d8dad" d="M154.5 577.5l-3-5-2-6v-6l2-5 4-5 5-3 5-2 6-1 6 2 4 3 4 5 1 6v5l-2 6-4 5-5 3-5 2-6 1-6-2z"/><path fill="#46459e" d="M846.5 85.5l-1 6-6 9-12 12-16 13-18 13-20 12-18 9-16 7-11 2-5-2v-6l7-10 11-11 16-14 19-13 19-12 19-9 15-6 11-2z"/><path fill="#364caa" d="M1011.5 31.5l-2 10-14 17-24 22-32 25-36 26-38 25-35 20-29 14-20 7-10-2 2-9 14-17 24-22 31-25 37-26 37-25 35-20 30-14 20-7z"/><path fill="#3475c9" d="M495.318 322.769l-64.148 78.013-15.005 99.449z"/><path fill="#425da4" d="M765.5 193.5l3-5 8-5 12-4 16-3 17-1h18l15 1 13 3 8 4 3 5-2 5-8 5-13 4-15 3-18 1h-17l-16-1-13-3-8-5z"/><path fill="#676c93" d="M187.5 606.5l35 1v10l-35-1z"/><path fill="#6e68c3" d="M493.5 446.5l1-5 4-10 9-14 11-17 13-19 14-18 13-16 11-13 8-7 4-2v5l-5 9-8 15-12 17-13 19-14 18-13 16-11 13-8 7z"/><path fill="#a9a3c3" d="M637.5 521.5l11 26h-2l-11-25z"/><path fill="#4069a0" d="M822.5 60.5l1-4 7-9 11-11 14-15 16-15 17-13 16-13 13-9 9-6h4l-1 4-6 8-11 12-14 13-17 15-17 15-15 13-13 9-10 5z"/><path fill="#7e90aa" d="M107.975 671.695l-39.95 52.084 4.813-64.215z"/><path fill="#3f4b8d" d="M426.5 135.5l6-1 5-1 5 1 4 2 2 3v4l-1 4-3 4-4 3-5 3-5 1-6 1-4-1-4-2-2-3-1-4 1-4 3-4 4-3z"/><path fill="#52598c" d="M548.5 509.5l-5-5-2-9 1-11 3-13 6-13 7-12 9-10 9-7 8-3 7 1 5 5 2 8-1 12-3 13-6 13-8 12-8 10-9 7-9 3z"/><path fill="#56b8f3" d="M503.5 307.5v-4l3-8 6-13 8-16 9-18 10-17 9-15 8-12 6-7 3-2v4l-3 8-6 13-8 16-10 18-9 17-10 15-8 12-5 7z"/><path fill="#2f3274" d="M986.5 235.5h-6l-6-3-4-3-3-5-1-5 1-5 3-4 4-3 6-3h13l5 3 5 3 3 5 1 5-1 5-3 4-5 3-6 3z"/><path fill="#9b9eac" d="M114.5 735.5l13-1 12 2 9 3 7 5 3 6-1 7-5 7-9 6-11 4-13 3-12 1-12-2-10-3-7-5-3-6 1-7 5-7 9-6 11-4z"/><path fill="#3467b8" d="M515.5 244.5v6l-4 15-8 23-12 28-14 30-15 30-14 27-12 21-9 12-5 4v-6l4-15 9-23 12-27 13-31 15-30 14-27 12-20 9-13z"/><path fill="#7d90e2" d="M486.5 395.5l5 2 4 5 2 6 2 8v9l-2 8-3 7-4 6-4 4-5 1-5-2-4-5-3-6-1-8v-8l2-9 3-7 4-6 4-4z"/><path fill="#66aeeb" d="M581.956 318.855l14.234 21.89-11.38 47.281z"/><path fill="#936c79" d="M690.5 708.5l-4-9-1-9 3-10 5-9 9-8 9-5 11-3 10 1 9 3 7 7 4 8v10l-2 10-6 9-8 7-10 6-10 2h-10l-9-4z"/><path fill="#0c81c5" d="M621.373 56.821l42.545-18.36L694.91-15.5z"/><path fill="#3c447f" d="M253.5 76.5l-31 3-29-1-23-3-15-7-6-8 4-10 13-10 21-10 27-7 31-6 31-3 29 1 23 4 15 6 6 8-3 10-14 10-21 10-27 7z"/><path fill="#766abc" d="M729.5 212.5l-10 5-6-12 10-5z"/><path fill="#a7a9b5" d="M195.5 588.5l3 2 1 4 1 4-1 4-3 4-3 3-3 2-4 1h-4l-4-2-2-3-2-4v-4l1-4 2-4 3-3 4-2 4-1 4 1z"/><path fill="#434c80" d="M671.5 397.5l8-12 29-17 47-21 61-21 68-21 69-17 63-13 51-7h34l13 7-8 12-29 17-47 21-61 21-68 21-69 17-63 13-51 7h-34z"/><path fill="#656790" d="M244.5 649.5l-8 1-8-1-7-2-5-3-2-5v-5l3-6 5-5 6-4 9-3 8-1 8 1 7 2 5 3 2 5v5l-3 6-5 5-6 4z"/><path fill="#125dae" d="M624.5 48.5l25-36 8 5-25 36z"/><path fill="#3f478b" d="M292.5 300.5l-4-9 1-13 6-15 11-15 14-14 17-11 16-8 16-4 13 1 9 6 4 10-1 13-7 14-11 16-14 13-16 12-17 8-15 3-13-1z"/><path fill="#5292cb" d="M669.5 98.5l-1 2-5 1-6 1h-18l-10-1-8-2-6-2-5-2-1-2 2-2 4-1 7-1h8l10 1 9 1 8 2 7 1 4 3z"/><path fill="#93919a" d="M1084.5 696.5l-4 6-13 6-20 5-26 4-28 2-29 1-26-1-21-3-13-4-5-6 4-5 13-6 20-5 26-4 29-2 28-1 26 1 21 3 13 4z"/><path fill="#f0dfc2" d="M294.5 763.5l-3 14-4 13-6 10-6 6-6 2-5-3-4-8-2-11-1-13 1-15 3-15 4-13 6-10 6-6 6-2 5 4 4 7 3 11 1 14z"/><path fill="#414383" d="M99.5 28.5l-4 6-12 5-16 1h-20l-21-4-21-6-18-7-14-9-8-8-2-7 5-7 11-4 17-2 18 1 22 4 21 5 18 7 14 8 9 9z"/><path fill="#8292e0" d="M453.394 494.36L582.1 316.816l-79.418 38.351z"/><path fill="#5e7aa2" d="M57.5 655.5l-17-1-16-2-12-2-8-3-3-3 3-3 8-2 13-2 15-1h18l17 1 16 2 12 2 8 3 3 3-3 3-8 2-13 2-15 1z"/><path fill="#546ca4" d="M338.5 205.5l-1-6v-5l1-5 3-4 4-3h4l5 1 4 2 4 4 3 5 1 6v5l-1 5-3 4-4 3h-4l-5-1-4-2-4-4z"/><path fill="#3e4d91" d="M512.5 205.5l-13 14-12 12-11 9-8 4h-5l-1-5 3-9 6-12 10-15 12-15 13-14 12-12 11-9 8-4h5l1 5-3 9-6 12-10 15z"/><path fill="#9e6c7f" d="M654.5 603.5l-2-30 12-1 2 30z"/><path fill="#9b8996" d="M897.5 608.5l5 5 3 6 1 8-1 9-3 8-6 7-6 5-7 3h-8l-6-2-6-5-3-6-1-8 1-8 4-8 5-7 6-6 8-2 7-1z"/><path fill="#686892" d="M484.5 588.5l2 7-2 8-4 8-8 9-10 8-11 6-10 4-10 1-8-1-6-4-2-7 2-8 5-9 7-8 10-8 11-6 11-4 9-2 8 2z"/><path fill="#464981" d="M344.5 502.5l-21-12 23-39 21 12z"/><path fill="#2b5793" d="M36.5 611.5h-6l-6-3-5-5-4-7-3-8-2-9v-8l3-7 3-6 5-2h6l6 2 5 5 5 7 3 9 1 9v8l-2 7-4 5z"/><path fill="#282c6e" d="M389.5 15.5l1 6v7l-2 6-4 4-5 4-6 1-6-1-6-2-5-5-3-5-1-6v-7l2-6 4-4 5-4 6-1 6 1 5 2 5 5z"/><path fill="#3f4789" d="M376.5 232.5l30-3 28 3 24 8 17 14 9 17-1 20-10 19-18 18-25 14-28 9-30 3-28-3-24-8-17-14-9-17 1-20 10-19 18-18 25-14z"/><path fill="#2d367d" d="M180.5 199.5l-8-21-6-19-3-16-1-11 3-5 6 1 8 7 10 14 10 17 9 20 9 21 6 19 3 16v11l-2 5-6-1-8-8-10-13-10-17z"/><path fill="#30397e" d="M71.5 447.5l-19 3-21-6-21-14-17-20-14-26-8-27-2-28 4-24 11-19 16-11 18-4 21 6 21 14 18 20 14 26 8 28 2 27-4 24-11 19z"/><path fill="#2f7ac7" d="M553.5 381.5l5-8 6-6 6-5 5-2 4 1 3 3 1 6-1 7-2 9-5 8-5 8-6 7-6 5-5 2-4-1-3-3-1-6 1-7 3-9z"/><path fill="#3575b7" d="M609.497 104.825l-9.32-18.885 48.135-30.576z"/><path fill="#7f7fc0" d="M705.834 44.835l-50.221 32.457 10.644 21.395z"/><path fill="#5db0ea" d="M569.986 191.685l30.734-58.99 31.098-7.069z"/><path fill="#935f72" d="M921.5 633.5l-1-11 8-12 15-14 20-14 23-12 25-10 23-6 20-2 15 3 7 7 1 10-8 13-15 14-20 13-23 13-25 9-23 6-20 2-15-3z"/><path fill="#433d8f" d="M1007.5-2.5l-2 4-8 6-12 7-16 5-19 5-18 3-17 1-14-1-9-3-4-4 2-5 7-6 13-6 16-5 18-4 19-3 17-2 13 1 10 3z"/><path fill="#4f4d7c" d="M684.5 410.5l9-6 28-9 44-10 56-13 62-12 62-11 56-9 45-5 29-2 11 2-9 5-28 9-44 11-56 12-62 12-62 11-57 9-44 5-30 2z"/><path fill="#49619c" d="M383.5 399.5l-14 2h-13l-11-1-7-3-3-4 2-5 5-5 10-5 12-4 14-4 14-1 12-1 11 2 7 3 3 4-1 5-6 5-9 5-13 4z"/><path fill="#a99399" d="M909.5 672.5l-5 6-7 4-9 2-10-1-10-3-9-6-8-6-5-8-1-8 1-7 4-6 7-4 9-2 10 1 11 3 9 5 7 7 5 8 2 8z"/><path fill="#6c78cc" d="M623.5 266.5l-34-22 38-60 34 22z"/><path fill="#7488d3" d="M698.5 46.5l33-39 7 6-34 39z"/><path fill="#33387e" d="M355.5 73.5l-1 11-11 15-20 15-26 16-31 14-32 12-30 7-25 3-18-3-9-7 2-11 11-14 19-16 27-16 31-14 32-11 30-8 25-2 18 2z"/><path fill="#aeadb6" d="M199.5 601.5l-1-4 1-6 4-5 5-6 8-5 7-4 8-3h7l5 1 3 2 1 4-1 6-4 5-6 6-7 5-7 4-8 3-7 1-5-1z"/><path fill="#a2d4f5" d="M700.519-4.484L752.74-15.5l-72.926 66.907z"/><path fill="#516fab" d="M556.5 82.5l30 39-48 37-30-38z"/><path fill="#8062a4" d="M472.5 12.5h-2l-1-2-2-2-1-4-1-4-1-3v-3l1-3 1-2 2-1h1l2 2 2 2 1 4 1 4 1 3-1 3v3l-1 2z"/><path fill="#8694b0" d="M245.5 534.5l-8 4-7 4-7 1h-5l-3-2-1-4 1-5 4-6 5-6 7-6 8-4 8-4 6-1h6l3 2 1 4-2 5-3 6-6 6z"/><path fill="#6f82a4" d="M1.5 627.5h-2l-2-3-3-4-1-5-1-6v-6l1-5 1-5 2-2 3-2 2 1 2 3 3 4 1 5 1 6v6l-1 5-1 4-2 3z"/><path fill="#493d9d" d="M898.5 58.5l3 11-15 3-3-11z"/><path fill="#47548f" d="M413.5 465.5l-6 5-6 4-6 1h-6l-4-2-3-5v-5l1-7 4-6 5-6 6-5 6-4 6-1h6l4 2 3 5v5l-1 7-4 6z"/><path fill="#383a7c" d="M557.5 11.5l12-6 10-5 9-2 6-1h2l-1 2-4 3-8 6-10 6-11 6-12 5-10 5-9 3-6 2h-2l1-3 4-4 8-5 10-6z"/><path fill="#c2eefb" d="M353.5 699.5l7-23 4 1-6 24z"/><path fill="#917980" d="M720.5 705.5l11-1h11l9 3 6 4 3 5-1 7-4 6-7 6-9 4-11 4-11 1-11-1-8-2-7-4-3-6 1-6 4-6 7-6 9-5z"/><path fill="#4c62a8" d="M161.5 191.5l-3-6 12-7 3 6z"/><path fill="#85718c" d="M522.5 681.5l20 11 17 12 13 13 6 11-1 10-7 6-12 2-18-1-20-5-21-9-20-11-17-12-12-13-7-11 1-9 7-7 13-2 17 1 20 6z"/><path fill="#5c709c" d="M254.5 687.5l-4-11-2-10v-9l3-6 4-5h6l7 2 7 5 7 8 5 10 4 10 2 10v9l-2 7-5 4-6 1-6-3-8-5-6-8z"/><path fill="#2f428a" d="M632.5 416.5l-28-17 52-84 27 16z"/><path fill="#5475b8" d="M410.5 467.5l11 4-44 133-11-3z"/><path fill="#756abc" d="M798.656 1.01l-59.34 53.028.673-66.32z"/><path fill="#88758c" d="M812.5 625.5l-2 2-5 1h-7l-9-2-9-2-9-3-8-4-6-4-4-4v-3l2-2 5-1h7l9 2 9 2 9 3 8 4 6 4 4 4z"/><path fill="#2d3f82" d="M224.5 469.5l-10 6-10 4-10 1-8-1-5-4-2-7v-8l4-8 7-9 9-8 10-6 10-4 10-2 8 2 5 4 3 6-1 9-4 8-7 9z"/><path fill="#7a9cef" d="M553.5 269.5l6-13 6-11 6-9 6-5 3-1 2 3v7l-2 11-3 13-6 13-6 14-6 11-7 9-5 5-4 1-2-4v-7l2-10 4-13z"/><path fill="#395dbb" d="M599.897 393.047l9.958-41.253 4.24 73.803z"/><path fill="#71799a" d="M334.5 686.5l3 5 2 7-1 8-3 7-6 7-6 6-7 4-8 2-6-1-6-2-3-6-2-6 1-8 3-7 5-8 7-5 7-4 7-2h7z"/><path fill="#8a88e7" d="M648.5 167.5l-8 10-8 8-8 6-6 3-5-1-1-4v-7l4-9 5-10 8-11 8-10 8-8 8-6 6-3 4 1 2 4-1 7-3 9-6 10z"/><path fill="#9bc3f1" d="M586.5 305.5l5 27-6 1-4-27z"/><path fill="#2c4389" d="M227.539 236.52l-7.076 32.367 25.033 22.255z"/><path fill="#7786e3" d="M605.5 239.5l-3 8-2 7-3 5-2 4h-3l-1-1-1-4 1-7 1-7 1-8 3-8 2-8 3-5 2-3 3-1 1 2 1 4-1 6-1 7z"/><path fill="#5c6baf" d="M744.5 59.5l8 8 7 9 4 8 1 7-1 5-5 3-7 1-9-3-10-4-9-7-9-8-7-8-4-8-1-7 2-5 5-3 7-1 9 2 9 5z"/><path fill="#2c3c82" d="M199.5 301.5l18 8 16 10 11 12 5 12v11l-6 9-12 7-16 3-18-1-19-4-19-8-15-10-11-12-5-12v-11l6-10 12-6 16-3 18 1z"/><path fill="#404689" d="M405.5 196.5l-23 6-12-43 24-6z"/><path fill="#5b6fa4" d="M517.5 80.5l-5 8-5-4 5-8z"/><path fill="#938393" d="M800.5 673.5l-8 9-9 7-9 4-7 1-5-1-3-5 1-8 2-9 6-9 7-10 8-9 9-7 9-4 7-1 5 1 3 5v7l-3 9-6 10z"/><path fill="#3f649c" d="M134.5 455.5l35 3-4 36-35-4z"/><path fill="#7f71cf" d="M600.5 287.5l7 5-11 17-8-5z"/><path fill="#7f536f" d="M791.5 605.5l-4-6-2-7 1-8 3-8 5-7 7-6 7-4 8-1 8 1 6 4 4 5 2 8-1 8-3 7-5 8-7 5-7 4-8 1-8-1z"/><path fill="#5875a2" d="M194.915 662.271l44.305 37.183-48.356-9.427z"/><path fill="#657ac7" d="M459.5 520.5l-12 23-12 20-10 15-8 10-4 2v-4l4-12 8-17 10-21 12-23 12-22 12-20 10-16 8-9 4-3v5l-4 11-8 17-10 21z"/><path fill="#637fa6" d="M107.5 598.5l5 54-25 2-5-53z"/><path fill="#83889b" d="M315.5 766.5l5-7 16-6 24-3 29-2 32 2 33 4 29 6 22 7 15 9 4 8-6 7-15 6-24 4-29 1-33-1-32-4-29-6-23-8-14-8z"/><path fill="#255593" d="M99.5 560.5l-8-8-6-8-4-7-2-5 1-4 3-1 6 1 7 4 9 6 8 7 8 7 6 8 4 7 2 6-1 3-3 1-6-1-7-4-9-5z"/><path fill="#272969" d="M156.5 68.5l-2 9-9 9-15 8-18 7-22 5-21 2-20-1-16-3-11-6-5-8 2-8 9-9 14-9 19-6 21-5 22-2 20 1 16 3 11 6z"/></svg>