<svg xmlns="http://www.w3.org/2000/svg" width="1000" height="787"><path d="M0 0h1000v787H0z"/><path fill="#FFF" d="M595.5 490.5l189 15 171 35 134 54 86 65 29 71-31 71-88 62-137 48-172 30-190 7-189-14-171-36-135-53-86-65-27-72 30-70 88-62 137-49 172-29z"/><path fill="#FFF" d="M592.5 324.5l-58 106-57 93-50 71-37 42-23 10-4-24 13-55 31-81 44-100 54-108 58-105 57-93 50-71 38-42 22-10 5 24-14 55-31 81-44 99z"/><path d="M730.5 441.5l103-16 96-5 78 7 53 19 23 28-10 35-41 39-69 38-89 34-101 26-104 17-95 5-78-8-53-18-23-29 9-35 41-38 69-38 89-34zM-103.5 533.5l-52-78-13-111 28-135 66-145 96-140 118-123 129-94 127-54 112-10 86 35 51 77 13 112-28 133-66 145-96 142-119 123-129 93-127 55-110 10zM624.5 248.5l-5-13 3-25 12-37 19-43 24-46 28-44 28-38 25-27 21-16 14-1 5 13-3 25-12 36-19 43-24 46-28 44-28 38-25 28-21 16z"/><path d="M767.5 114.5l79-64 81-48 75-26 60-4 41 20 17 42-8 60-33 72-55 76-70 75-79 64-81 48-75 27-60 4-41-20-17-42 8-61 33-72 55-76z"/><path fill="#FFF" d="M346.5 522.5v14l-10 17-18 16-24 15-29 12-30 7-29 3-24-2-17-7-9-12v-14l10-17 18-16 24-15 29-12 30-7 28-3 24 2 18 7z"/><path d="M370.5 599.5l-22 39-22 33-20 25-16 15-11 2-4-10 3-21 9-31 15-37 20-40 21-39 22-33 20-25 16-15 11-2 4 10-3 21-9 31-15 37z"/><path fill="#FFF" d="M1014.5 806.5l-18 14-29 4-38-6-43-16-43-23-40-29-32-32-22-32-9-28 4-22 18-14 30-4 37 7 43 15 44 24 39 29 33 32 21 31 9 29zM185.5 788.5l-36-14-30-17-22-19-12-19-1-18 10-14 21-9 29-4 35 3 37 8 35 14 30 17 23 19 12 20 1 17-11 14-21 10-29 3-35-3z"/><path d="M572.5 86.5l11 16 3 21-4 24-12 24-18 23-21 19-24 12-24 5-21-2-17-10-10-16-4-21 5-24 11-24 18-23 22-18 24-13 23-5 22 2zM874.5 442.5l-74 22-68 15-55 8-38-1-16-10 8-17 29-23 49-26 64-28 73-26 73-21 68-16 56-7 37 1 16 9-7 17-30 23-49 27-64 27zM1015.5 532.5l18 30 12 31 3 30-6 24-14 18-20 8-25-1-28-10-27-20-24-25-18-30-12-31-3-30 6-24 14-18 20-8 25 1 28 10 27 19zM313.5 711.5l-93 6-6-110 92-5zM365.5 476.5l-30 9-28 4-24-1-18-6-9-10v-14l9-16 17-17 24-16 29-13 30-9 28-4 24 1 18 6 9 10v14l-9 17-17 16-25 16z"/><path fill="#FFF" d="M274.5 733.5l14 2 11 5 9 7 6 8 1 9-3 8-7 7-10 5-12 3h-14l-13-3-12-5-9-7-5-8-1-8 3-9 6-7 11-5 12-2z"/><path d="M611.5 594.5l43 2 39 9 32 15 20 20 8 22-6 23-19 21-30 17-39 12-42 5-43-2-39-9-32-15-20-19-8-23 6-22 19-21 30-18 39-11zM694.5 165.5l-2-12 7-20 16-28 23-33 29-34 30-32 30-26 26-20 19-9h12l2 12-7 20-16 27-24 33-28 34-30 32-30 27-26 20-20 10z"/><path fill="#FFF" d="M-73.5 752.5l8-15 19-12 30-9 35-4 41 1 39 5 36 11 28 13 17 16 5 16-8 15-19 12-30 9-36 4-41-1-39-5-35-11-28-13-17-16zM380.5 657.5l-8 19-7 16-7 12-5 8-4 2-1-4v-9l3-14 5-17 6-19 8-18 7-17 7-12 5-8 4-2 2 4-1 9-3 14-5 18z"/><path d="M391.5 407.5l-33-6-30-19-24-31-16-39-5-43 4-43 15-40 23-31 30-20 33-7 33 6 30 19 24 31 16 39 6 43-5 43-15 40-23 31-30 20zM45.5 535.5l32-31 32-25 30-16 25-6 16 6 8 16-3 25-13 31-21 35-28 35-32 31-32 25-30 16-24 6-16-6-7-16 2-25 13-31 20-35z"/><path fill="#FFF" d="M576.5 254.5l-24 36-23 31-19 24-15 15-8 3-1-9 6-19 14-28 18-35 22-36 24-36 23-32 19-24 15-14 8-3 1 9-7 19-13 28-18 34z"/><path d="M14.5 67.5l54-73 54-62 49-46 40-23h26l10 24-7 46-23 62-37 73-48 78-53 73-54 63-48 45-40 24h-26l-11-24 7-46 23-63 38-74zM833.5 438.5l-5 18-24 23-42 26-56 28-62 25-65 20-60 15-49 6-34-2-15-11 5-17 25-24 42-26 55-27 63-25 64-21 60-14 49-7 34 2zM477.5 305.5l2-13 15-31 26-48 34-58 40-64 40-64 38-55 32-43 22-27 10-8-2 13-15 31-25 48-34 57-40 64-41 64-38 56-31 44-22 27zM371.5 197.5l-6 10-7 7-8 5-8 2-8-2-6-4-3-8-2-9 1-10 4-11 6-9 7-8 8-5 8-2 7 2 6 5 4 7 1 9-1 11z"/><path fill="#FFF" d="M182.5 645.5l14 10 12 11 8 10 4 9-1 6-5 4h-10l-13-3-14-6-16-8-14-10-12-10-8-10-4-9 1-7 5-3 10-1 13 3 15 6z"/><path d="M521.5 408.5l34-41 32-35 28-27 20-14 12-2v11l-9 23-20 34-26 40-32 42-34 41-33 35-27 27-21 15-11 2-1-12 10-23 19-33 27-40zM465.5 387.5l-19 43-18 39-16 31-11 19-6 6v-9l6-21 12-32 15-40 18-44 20-44 18-39 15-30 12-19 5-6v8l-5 21-12 33-15 40zM585.5 74.5l-5-7-1-11 3-15 6-17 10-17 12-14 13-13 12-8 11-3 9 2 5 7 1 11-3 14-7 17-10 16-11 16-13 12-13 9-11 3z"/><path d="M792.5 130.5l69-50 65-42 53-30 37-15 17 1-4 15-26 31-44 42-59 50-67 52-69 50-65 42-53 30-37 16-17-1 4-16 26-31 44-42 59-50zM241.5 662.5l3 6 1 8-2 7-5 7-5 5-8 3-7 1-8-2-6-4-5-5-3-7v-8l2-7 4-6 6-5 7-3 7-1 8 1 6 4zM844.5 228.5l69-17 64-9h53l37 10 18 18-5 25-25 29-44 30-58 29-66 24-69 17-64 9h-53l-37-10-18-18 4-25 26-29 43-30 58-29z"/><path d="M929.5 172.5l-3 4-9 5-14 6-19 6-20 6-21 4-20 3-15 1-10-1-4-3 2-4 9-5 14-6 19-6 21-6 21-4 19-3 15-1 11 1zM615.5 129.5h-20l-19-2-15-5-10-8-4-9 2-9 9-9 13-8 18-6 20-4h20l19 2 15 5 10 8 4 9-2 9-8 9-14 8-18 6z"/><path fill="#FFF" d="M498.441 321.752l-104.373 247.87 87.753-111.258z"/><path d="M137.5 619.5l-5-9-3-10v-9l2-7 5-5 6-2 8 1 8 3 8 6 6 9 5 9 3 10v9l-2 7-5 5-6 2-8-1-8-3-8-6z"/><path fill="#FFF" d="M515.5 268.5l-1-5 4-11 8-17 11-21 13-22 14-22 13-19 11-15 8-9 4-2v5l-4 11-7 17-11 21-13 22-14 22-13 19-11 15-8 9z"/><path d="M84.5 652.5l5 14v14l-5 14-9 13-12 9-14 5h-15l-14-4-13-8-8-11-4-14v-15l4-14 8-12 12-9 15-5 15-1 14 4 12 8zM76.5 568.5l9-2 11 2 10 6 10 10 7 11 6 14 2 13-2 12-4 9-7 7-9 2-11-2-10-6-10-10-7-12-6-13-2-13 2-12 4-9zM423.5 114.5l7-10 12-6 14-3 15 2 16 5 15 8 11 11 8 12 3 12-2 12-7 9-12 7-14 2-15-1-16-5-15-8-11-11-8-12-3-13zM469.5-15.5l39 2 35 7 28 9 18 12 7 13-7 14-18 11-28 10-36 6-39 2-39-3-36-6-28-10-18-12-6-14 6-13 18-12 29-8 35-6z"/><path fill="#FFF" d="M658.5 582.5l2-1 4 1 5 4 5 5 6 5 4 7 3 6 2 6 1 4-2 2-2 1-4-1-5-4-5-5-5-5-5-7-3-6-2-6-1-4z"/><path d="M488.5 584.5l-22 26-22 22-19 16-16 8-9-1-3-9 3-17 11-23 16-27 20-27 22-26 22-22 19-16 16-8 9 1 4 9-4 17-11 23-16 26zM546.5 144.5l-16 10-16 8-15 4h-11l-7-4-2-8 3-10 8-13 12-13 15-13 16-11 17-8 14-4h11l7 4 2 8-3 11-8 13-12 13zM476.5 347.5l-2 5-11 7-17 10-22 10-25 10-26 8-24 7-19 4-13 1-5-2 3-6 10-7 17-10 23-10 25-9 25-9 24-7 19-4 13-1z"/><path fill="#FFF" d="M251.5 511.5l6-4h8l12 2 12 6 13 7 12 10 9 10 6 9 3 9-2 6-6 4h-8l-12-2-12-6-13-7-12-10-9-10-6-9-3-9zM764.5 228.5l-13 8 9.95 5.886zM966.5 737.5l27 8 24 10 18 12 10 12 2 12-6 10-15 7-21 3h-26l-28-5-27-7-24-10-18-12-11-13-2-11 7-10 15-7 21-4 26 1zM548.5 278.5l7-14 8-12 10-9 10-4h8l7 6 5 9 2 13-2 15-4 15-7 15-8 12-10 9-10 4-8-1-7-5-5-9-2-13 2-15z"/><path d="M212.5 482.5l10-9 10-6 10-4 8-1 5 2 3 6-1 8-4 9-7 11-8 10-10 9-11 6-9 4-8 1-6-2-2-6 1-8 4-9 6-11z"/><path fill="#FFF" d="M578.5 318.5l4 4 5 12 7 19 7 25 8 27 6 27 6 25 3 20 1 14-1 4-3-3-5-12-7-20-8-24-7-27-7-28-5-25-4-20-1-13zM446.5 451.5l1-7 8-18 12-28 17-35 19-38 20-37 18-34 15-27 11-16 5-6-2 7-7 18-13 28-17 35-19 38-20 37-18 34-15 27-10 16z"/><path d="M483.5 453.5l-1 6-5 16-10 23-13 29-15 32-16 32-15 28-12 23-8 14-5 4 1-6 6-15 10-24 13-29 15-32 16-32 14-28 12-23 9-13zM652.5 367.5l-8 16-10 14-9 10-9 6h-7l-4-5-2-10 1-14 4-16 7-18 8-16 9-14 10-10 8-5h7l5 5 2 10-1 14-5 16zM547.5 607.5l1 12-8 14-15 16-20 15-25 14-26 10-25 6-22 1-16-3-8-8-1-12 7-15 15-16 21-15 25-13 26-11 25-6 21-1 16 4zM598.5 307.5l-1-3 2-7 4-9 6-10 8-12 8-11 9-9 7-7 5-4h4l1 4-2 6-5 9-6 11-8 11-8 11-8 9-8 7-5 4z"/><path fill="#FFF" d="M184.5 663.5l-8-2-8-2-6-5-3-4-1-5 2-5 4-3 7-3 8-2 8 1 9 1 7 3 6 4 3 5 1 5-2 4-4 4-6 3-8 1zM732.5 708.5l22 6 19 8 14 9 9 9 2 9-5 8-12 5-17 2h-21l-22-3-22-6-19-8-15-9-9-10-1-9 5-7 12-5 17-3 20 1z"/><path d="M656.5 557.5l-3-12v-12l3-11 6-8 8-5 9-1 10 3 9 6 7 10 6 11 2 12v12l-3 11-6 8-8 5-9 1-10-3-9-6-7-10zM184.5 321.5l15-7 19 2 23 9 24 16 22 22 19 24 13 26 7 23-1 20-8 14-15 6-19-1-23-10-24-16-22-21-19-25-13-26-7-23 1-20z"/><path fill="#FFF" d="M186.5 696.5l5-2 6 2 8 3 9 6 8 8 8 8 6 9 4 8 1 7-2 4-4 2-7-2-8-3-8-6-9-8-8-8-6-9-3-8-1-7z"/><path d="M826.5 653.5l-9 2-9-1-7-3-6-5-4-7-1-7 2-8 4-7 7-5 8-4 9-2 9 1 7 3 6 5 4 7 1 7-2 8-4 7-7 5zM397.5 483.5l4 12 1 12-2 11-4 8-7 5-8 1-8-3-9-6-8-9-6-12-4-12-1-12 2-11 4-8 7-5 8-1 8 3 9 6 8 9zM698.5 186.5l21-16 20-13 18-8 14-3 8 3 1 8-5 13-12 16-16 18-20 18-21 16-21 13-18 8-14 3-7-3-2-8 6-13 11-16 17-18z"/><path fill="#FFF" d="M734.5-8.5l1 4-2 7-4 8-8 10-9 10-10 8-10 7-9 4-7 1-5-2-2-4 2-7 5-9 7-10 9-9 11-9 10-6 9-4 7-1z"/><path d="M501.5 738.5l-41-12-36-14-28-13-17-12-5-9 9-6 21-1 31 2 38 7 41 10 41 13 36 13 28 14 17 12 5 9-9 5-21 2-31-3-38-7z"/><path fill="#FFF" d="M183.5 569.5l-7 6-8 5-7 2-7-1-5-2-3-5v-7l1-8 5-7 6-8 7-6 8-5 7-2 7 1 5 2 3 5v7l-2 8-4 8zM81.5 682.5l4 4 1 7-1 9-3 10-5 10-6 10-8 7-7 5-7 2-5-1-4-4-1-7 1-9 3-10 5-10 6-10 8-7 7-5 7-2z"/><path d="M580.5 325.5v3l-2 7-6 10-8 12-9 12-10 12-9 10-8 8-6 4-3 1-1-3 3-7 6-10 7-12 10-12 9-12 10-10 8-8 6-4zM760.5 467.5l27-10 29-1 26 6 21 14 15 19 6 24-2 25-11 25-18 21-24 16-28 9-28 2-26-6-22-14-14-19-7-24 2-25 11-25 19-21z"/><path fill="#FFF" d="M670.5 605.5l17.713-4.352-4.642 16.85z"/><path d="M.5.5h91v39l-91 1zM984.5 677.5l-2 4-5 3-8 3h-19l-10-3-8-3-7-5-4-4v-5l2-5 5-3 8-3h19l10 3 8 3 7 5 4 5zM459.5 172.5l6-5 9-3 9-1 9 3 9 5 7 7 5 9 2 9-2 9-3 7-7 6-8 3h-9l-10-2-8-6-7-7-5-8-2-9 1-9z"/><path fill="#FFF" d="M655.5 172.5l-14 13-13 10-11 7-9 3-6-1-2-6 3-9 6-12 10-13 12-14 14-13 13-10 11-7 9-3 6 1 2 6-3 9-6 12-10 14z"/><path d="M456.5 107.5l4 7-1 8-4 11-7 10-9 9-11 8-11 6-10 2h-9l-6-4-3-7v-9l4-10 7-10 9-10 11-8 11-5 10-3 9 1zM203.5 215.5l-36 20-35 12-31 4-25-4-16-13-5-20 5-24 17-27 25-28 32-24 35-20 36-12 31-4 25 4 16 13 5 20-6 24-16 27-26 28z"/><path fill="#FFF" d="M101.5 726.5l-8-3-7-4-5-4-3-4-1-4 3-3 4-2h15l8 2 8 3 7 4 5 4 3 4v4l-2 3-4 2-7 1-8-1z"/><path d="M169.5 365.5l-25-9-22-10-17-12-9-11-2-10 7-7 14-5 20-1 24 2 26 6 25 9 22 10 16 12 9 11 2 10-6 7-14 5-20 1-25-2z"/><path fill="#FFF" d="M196.5 528.5l3-4 9-6 15-6 19-7 22-5 22-4 20-3h16l11 1 4 3-2 5-10 6-15 6-19 6-22 6-22 4-20 3h-16l-11-1z"/><path d="M202.5 77.5l-9 3-9-1-9-3-7-6-4-7-2-9 2-8 4-9 6-6 9-5 9-2 10 1 8 3 7 5 4 8 2 8-1 9-5 8-6 7zM640.5 423.5l12-7 12-3 12-1 10 3 7 7 4 9v10l-4 11-7 11-10 9-11 7-13 3-11 1-10-3-8-7-3-9-1-10 4-11 7-11z"/><path fill="#FFF" d="M293.299 717.527l4.783 83.265-30.984-89.768z"/><path d="M-14.5 413.5l-3-40 1-37 7-30 10-21 15-9 16 4 17 17 15 26 13 35 9 40 3 40-1 37-7 30-11 21-15 8-16-4-17-16-16-27-11-34zM616.5 436.5l-4-6-1-10 2-14 5-16 8-17 10-16 10-13 11-9 9-5 7 1 5 5 1 11-2 13-6 17-8 16-9 16-11 13-11 10-9 4zM238.5 233.5l5-12 7-11 9-7 9-4h8l8 5 5 8 3 11v13l-3 13-5 12-7 11-8 8-9 3h-9l-7-4-6-8-3-11v-13zM559.5 399.5l-3-3-1-5 1-5 2-5 3-5 4-5 5-3 5-2h4l4 1 2 4 1 4v5l-2 5-3 6-5 4-4 3-5 2h-4zM917.5 29.5l-20 10-19 8-15 4-11 2-6-3 1-6 7-8 12-11 17-12 19-11 20-9 18-8 16-5 11-1 5 2-1 6-6 9-13 10-16 11zM596.5 252.5l-1-3v-6l2-8 4-10 5-10 6-10 6-8 6-6 5-3h3l2 3v6l-2 8-4 9-5 11-6 9-6 9-6 6-5 3z"/><path fill="#FFF" d="M816.5 642.5l23-14 22-11 17-8 12-4 5-1-2 5-10 8-16 11-20 13-23 14-24 13-21 12-18 8-11 4h-5l2-4 10-8 16-11 20-13z"/><path d="M157.5 72.5l-3 10-13 9-19 7-24 6-27 2h-27l-24-4-20-5-12-8-4-10 4-9 12-9 18-8 24-5 27-3 27 1 24 3 20 6 13 8zM592.5 406.5l2 6-3 11-7 15-11 18-13 19-15 17-15 15-13 11-10 5h-6l-2-6 3-11 7-16 11-17 13-19 15-18 14-14 13-11 11-5zM15.5 606.5l-7-6-5-9-2-12 2-13 4-13 7-13 8-10 10-7 10-3 9 2 7 5 4 9 2 12-1 13-4 14-7 12-9 10-9 7-10 3zM971.5 91.5l25-5 24-1 19 2 13 6 6 8-2 10-9 11-16 10-21 10-25 7-25 4-23 2-19-3-13-5-6-8 1-10 10-11 16-10 21-10z"/><path fill="#FFF" d="M491.5 822.5l-55-6-49-10-39-12-25-12-8-12 10-11 26-8 41-4 50-1 56 3 55 6 49 10 39 12 25 12 7 12-9 11-27 8-40 4-50 1zM183.5 649.5l2 3 2 7v25l-1 15-2 15-2 13-3 10-3 7-3 2-2-2-2-8v-24l1-15 2-15 3-13 2-11 3-7z"/><path d="M188.327 619.99l92.735 36.061-42.216-58.098zM645.5 408.5l10-7 32-12 50-14 63-16 71-16 71-14 65-11 51-7 34-2 12 2-10 8-32 11-50 15-63 16-71 15-71 14-65 12-51 7-34 2zM708.5 591.5l20-21 20-17 18-11 15-5 10 3 3 9-2 15-9 20-14 22-17 22-20 21-20 17-18 11-15 5-10-3-3-9 2-15 9-20 14-22z"/><path fill="#FFF" d="M69.5 659.5l3-3 8-2 12-1h15l16 1 16 3 15 3 11 3 7 4 2 4-3 3-7 2-12 1h-15l-16-1-16-2-15-4-11-3-7-4z"/><path d="M896.5 84.5l33-20 30-16 25-11 18-5 9 3-2 9-11 14-20 19-27 21-31 22-32 20-30 16-25 11-18 4-9-2 1-9 11-15 21-19 26-21z"/><path fill="#FFF" d="M110.5 646.5l-1-8 1-7 2-7 3-5 5-2h6l5 3 5 5 4 6 2 8 1 8v8l-3 6-3 5-5 2h-5l-6-3-5-4-4-7z"/><path d="M308.5 34.5v9l-5 11-10 10-14 9-16 6-17 4-16 1-14-3-10-5-5-8-1-10 5-10 10-10 14-9 16-7 17-4h16l14 2 10 6zM126.5 517.5l1-5 5-7 9-6 12-6 14-4 14-4 13-1 11 1 8 2 3 5v5l-6 7-9 6-11 6-14 4-14 4-14 1-11-1-7-3zM577.5 75.5l23 13-9 16-23-12z"/><path fill="#FFF" d="M358.5 708.5l22-62 7 3-21 62z"/><path d="M831.677 320.798l6.754 3.247 2.147-6.278z"/><path fill="#FFF" d="M898.5 639.5l10 6 8 6 7 6 3 5v3l-3 2h-6l-8-2-10-4-10-5-10-6-9-7-6-5-4-5v-3l3-2h6l8 2 10 4zM692.5 55.5l-18 48-26-9 17-49z"/><path d="M791.5 438.5l5 8-1 13-6 17-10 20-14 20-15 18-16 15-15 10-12 5-9-2-4-8 1-13 5-17 11-20 13-20 15-18 16-15 15-10 13-5z"/><path fill="#FFF" d="M407.5 557.5l-6 18-6 16-5 12-4 8-2 3v-3l2-9 3-13 6-17 6-18 6-18 6-16 6-12 3-8 2-3v3l-1 9-4 13-5 17zM607.5 95.5l2-3 4-2 6-1 7-1h8l8 1 8 2 5 2 4 3 1 2-1 3-4 2-6 1-8 1h-8l-8-1-7-2-6-2-4-3z"/><path d="M926.5-32.5l-3 8-15 17-24 23-31 30-35 33-36 32-33 28-27 22-18 12-8 3 4-7 14-17 24-25 31-30 35-33 36-32 33-28 27-20 19-13zM908.5 52.5v6l-6 8-10 9-13 9-16 8-16 6-16 5-13 2-9-1-5-4v-6l6-8 10-9 13-9 16-8 16-6 16-5 13-2 9 1z"/><path d="M706.5 152.5l11 8-16 24-11-7z"/><path fill="#FFF" d="M514.5 400.5l-21 38-21 33-17 26-13 16-7 4-1-9 5-19 12-29 17-36 19-38 21-38 21-34 17-26 13-15 8-4v8l-5 19-12 29-16 36z"/><path d="M107.5 11.5l-7-3-6-4-5-4-2-4v-4l2-3 5-2h13l8 2 7 3 6 4 4 4 2 4v4l-2 3-5 2h-13zM459.5 237.5l10 21 1 25-7 26-16 24-21 21-26 14-28 8-27-1-23-8-18-16-10-21-1-25 7-26 16-24 21-21 26-15 28-7 27 1 23 8z"/><path fill="#FFF" d="M1.5 713.5l11 1 10 3 8 3 5 4 1 3-2 4-5 2-9 2h-10l-11-1-11-1-10-3-8-3-5-4-1-3 2-3 5-3 9-1 10-1z"/><path d="M314.5 687.5l-5-6-3-9 1-11 3-13 6-12 8-12 9-9 10-6 9-2 7 2 6 5 2 9v11l-4 13-5 13-8 11-10 9-9 6-9 3zM131.5 555.5l-8 7-10 4h-11l-11-3-9-6-7-9-5-10-1-11 2-10 6-9 8-7 10-3 11-1 10 3 10 6 7 9 5 10 1 11-2 10zM347.5 454.5l3-5 5-4 8-2 10-1h11l10 3 9 4 7 4 4 6 1 5-3 5-5 4-8 3-10 1-11-1-10-3-9-3-7-5-4-6zM958.5 163.5v5l-3 6-6 8-10 9-10 9-12 7-11 6-10 4-7 1-4-1v-5l3-6 6-8 10-9 10-9 12-7 11-6 10-4 7-1zM645.5 439.5l2 7 1 7-1 7-2 4-4 3-5 1-5-1-5-4-5-5-4-6-2-8-1-7 1-6 3-5 3-3 5-1 6 2 5 3 4 6z"/><path fill="#FFF" d="M627.5 531.5l-7-37 12-2 7 37zM361.421 504.1l-184.94 104.31 127.74-24.205z"/><path d="M637.5 57.5l-10-9 39-46 11 9zM469.355-3.385l12.114 6.014-9.54 10.633zM665.5 287.5l2 4-1 7-4 9-5 9-8 10-9 9-8 7-8 4-7 2-5-2-2-4 1-7 4-8 5-10 8-10 9-8 8-7 8-5 7-1zM360.5 580.5l1 8-5 10-9 12-14 12-17 10-18 8-17 6-15 1-11-1-6-6-1-8 4-10 10-12 14-12 16-10 18-8 17-6 15-1 12 1zM522.5 511.5l5 5 2 10v15l-3 16-5 18-7 17-8 15-9 11-8 6-8 1-5-5-2-10v-14l2-17 6-18 7-17 8-15 9-11 8-6zM848.5.5l1 4-4 8-7 9-10 10-12 9-13 8-13 6-10 4-9 1-4-3-1-5 3-8 7-9 10-10 13-9 13-8 12-6 11-3 8-1zM162.5 288.5v-3l3-4 6-4 8-4 9-3 9-3 8-1 7-1 5 1 3 2-1 4-3 3-6 4-8 4-8 4-10 3-8 1h-7l-5-1zM262.5 308.5l8 13 5 14 3 11-1 9-4 5-6 2-8-4-10-7-10-10-9-13-8-13-5-14-2-11v-9l4-5 6-2 8 4 10 7 10 10zM888.5 452.5l-56 6-51 4-41 1-26-2-10-5 8-8 25-10 39-10 50-10 56-9 56-6 51-4 41-1 26 2 10 6-8 7-25 10-39 10-50 10zM548.5 599.5l3-8 8-8 13-6 16-4 18-2 19 2 16 3 13 6 8 8 3 8-3 9-8 8-13 6-16 4-18 1-18-1-17-4-13-6-8-7zM202.5 606.5l7 15-30 14-7-14zM285.5 19.5h5l1 13-5 1zM607.5 18.5l-8 3-9 2-7-1-6-2-4-4-1-6 2-6 4-5 6-6 8-5 8-3 8-1h8l6 3 3 4 1 5-1 5-4 6-6 6z"/><path fill="#FFF" d="M167.5 746.5l9-4 11-1 11 3 11 7 10 10 8 11 4 13 1 12-3 10-6 8-9 4-11 1-12-4-11-6-9-10-8-12-4-12-1-12 3-10z"/><path d="M95.5 639.5l-4 6-6 4-9 1h-10l-10-3-10-4-7-7-6-7-2-7 1-7 3-5 7-4 9-2h10l10 3 9 5 8 6 5 7 3 7z"/><path fill="#FFF" d="M727.5 8.5l9 7-26 30-8-7zM268.107 604.616l18.242-49.332-93.677 33.275z"/><path d="M192.5 483.5l-22 4-4-28 22-3zM289.5 494.5l10-4 7 14-10 4z"/><path fill="#FFF" d="M7.5 803.5l-10-5-8-6-6-7-3-6 1-6 3-5 7-3 9-2 10 2 10 3 10 5 9 6 6 7 3 6-1 6-4 5-6 3-9 2-11-2z"/><path d="M887.5 29.5l-4-8 3-2 5 8z"/><path fill="#FFF" d="M717.5 7.5l-28 38-7-5 27-38z"/><path d="M190.5 374.5l-1 5-4 5-6 5-9 3-9 1h-10l-9-1-7-4-4-4-2-5 1-5 4-5 6-5 9-3 9-1h10l8 1 8 4 4 4zM505.5 178.5l-15 3-12-69 15-3zM448.5 697.5l-22 1-20-1-17-4-11-6-4-7 2-8 10-9 15-7 20-6 22-4 22-1 20 1 17 4 11 6 4 7-2 8-10 9-15 7-20 6zM357.465 675.531l37.687-131.613-48.508 79.99zM40.5 293.5l-4-4-3-7-1-9 2-11 3-11 5-11 5-10 7-7 6-4h5l4 4 3 6v10l-1 11-3 11-5 11-6 10-6 7-6 3zM413.5 142.5l2-3 2-2 3-1h3l4 1 3 1 2 3 1 3 1 3-1 3-2 3-2 2-3 1h-4l-3-1-3-2-2-2-1-3-1-3zM897.5 535.5l5 7v11l-4 14-8 15-10 15-13 13-13 11-12 7-11 2-7-2-5-7v-11l4-14 8-15 10-15 13-13 13-11 12-7 11-2z"/><path fill="#FFF" d="M748.5 694.5l3-1 5 1 5 3 6 4 6 5 6 6 4 6 3 6 1 4v3l-3 1-5-1-5-3-6-4-6-5-6-6-4-6-3-6-1-4zM627.5 146.5l8-9 8-7 8-4 6-2 4 1 2 5v6l-4 8-5 9-7 10-8 8-8 7-8 4-6 2-5-1-2-4 1-7 3-8 6-9z"/><path d="M719.5 206.5l3-14 7 17zM915.5 42.5v-6l5-9 10-10 13-12 16-10 17-10 16-8 14-5 10-1 5 2v6l-5 9-10 11-13 10-16 12-17 10-16 7-14 5-10 1zM912.5 446.5l24-8 22-4 19-1 13 3 6 6-1 9-8 10-15 11-21 11-23 10-24 7-22 4-19 1-13-3-6-6 1-8 8-11 15-11 20-11zM972.5 198.5l31 11-11 33-31-11z"/><path fill="#FFF" d="M345.5 706.5l-1-4-1-4v-4l1-2v-1h2l1 2 2 3 1 4 2 5 1 4 1 4v4l-1 2v1h-2l-1-2-2-3-1-4z"/><path d="M740.5 651.5l7 5 4 8 2 10-1 12-4 11-6 11-8 8-9 5-9 2-8-1-6-5-5-8-2-11 1-11 4-11 6-11 8-8 9-5 9-2z"/><path fill="#FFF" d="M393.5 553.5v-4l3-10 5-15 7-19 9-21 9-21 8-18 8-15 5-9 3-2-1 3-2 10-6 16-7 19-9 21-9 20-8 19-7 14-6 9zM452.5 435.5l3 1-24 57-3-1zM767.5 607.5l7-1h12l4 2 2 3v3l-3 3-4 4-6 3-7 2-7 1h-12l-4-2-2-3v-3l3-3 4-4 6-3z"/><path d="M854.5 70.5l-30 5-26 5-21 2-14 1-4-1 4-3 13-4 20-5 26-6 29-6 29-5 27-4 21-3 13-1 5 1-4 3-13 4-21 5-26 6zM511.5 119.5l2-4 4-3 8-3 9-2 10-1h11l9 1 8 2 5 3 2 3-2 4-4 3-8 3-9 2-10 2h-11l-9-2-8-2-5-3zM468.5 253.5l-2-5 1-5 2-6 4-6 6-6 6-4 7-2 7-1 5 1 4 3 2 4-1 6-2 6-4 6-6 5-6 4-7 3-7 1-5-2z"/><path fill="#FFF" d="M139.483 641.916l61.738-14.156-53.47 52.649zM585.5 355.5l-2-14-1-12-1-9v-6l1-3 2 2 2 6 2 9 2 12 3 14 1 13 1 12 1 10v6l-1 2-2-2-2-6-2-9-2-12z"/><path d="M635.5 82.5l-1-3v-4l2-6 3-6 4-6 5-5 6-4 5-3 4-1 3 1 2 3-1 4-1 6-4 6-4 6-5 5-5 4-5 3-5 1zM608.5 81.5l1-3 3-7 6-11 8-14 10-15 10-14 9-13 8-9 5-6 3-2v3l-4 8-6 10-8 13-10 15-10 14-9 13-8 10-5 6zM551.5 588.5l-3-8 2-10 6-11 10-10 12-10 13-7 13-5 13-1 9 2 7 5 2 8-2 10-6 11-9 11-12 9-13 7-14 5-12 1-10-2zM667.5 530.5l-8 1-8-3-7-5-6-8-4-10-2-10v-10l4-8 5-7 7-4h8l8 2 8 5 6 8 4 10 2 10-1 10-3 8-6 7zM879.5 302.5l25-9 23-7 19-4h13l7 4-2 7-9 10-16 11-21 12-24 11-25 10-23 6-19 4h-14l-6-4 2-7 9-10 16-11 21-12zM868.5 74.5l-1 4-7 8-13 9-16 10-18 10-19 9-17 8-15 5-10 2-4-2 1-4 8-7 12-9 16-10 18-11 19-9 17-8 15-4 10-2zM320.5 59.5l14-4 14-2h11l7 1 4 4-1 5-5 6-9 7-12 6-14 5-14 4-13 2h-11l-8-2-4-4 1-5 5-6 9-6 12-6z"/><path fill="#FFF" d="M124.5 741.5l15-2h15l12 4 8 5 5 8-1 9-5 9-9 9-12 7-15 5-15 2h-14l-12-4-9-6-5-7 1-9 5-9 9-9 13-7zM168.5 699.5l17 11 14 11 11 9 7 7 1 5h-4l-9-3-14-6-16-8-17-11-16-11-15-11-11-9-6-7-1-4 4-1 9 3 13 6 16 9zM294.5 537.5l-4 6-5 4-5 3h-5l-5-1-3-3-1-5-1-6 2-6 3-6 4-6 5-4 5-2 5-1 4 1 3 3 2 5v6l-1 6z"/><path d="M39.5 569.5l-2-6v-6l2-6 3-4 3-2h5l4 2 4 3 4 5 2 6 1 6v6l-1 5-3 4-3 2-5 1-4-2-4-3-4-5z"/><path fill="#FFF" d="M9.5 610.5l-1 6-1 4-1 4-3 3-3 1-2-1-2-2-3-4-1-5-1-5 1-5 1-5 1-4 3-3 3-1 2 1 2 2 3 4 1 5zM140.5 756.5l-2-1-2-3-2-5-1-6-1-7-1-7v-12l1-3 1-1 2 1 2 3 2 5 1 6 1 7 1 7v12l-1 3z"/><path d="M320.5 728.5l-3 2-7-2-8-3-10-6-11-7-10-7-8-8-6-8-3-5 1-4 3-2 7 1 8 4 10 5 11 7 9 8 9 8 6 8 3 5zM392.5 646.5v-4l5-6 8-6 11-6 13-6 13-5 12-3 11-1 7 1 4 3-1 5-5 5-8 7-11 6-13 6-13 4-12 3-10 1-8-1zM98.5 561.5l-34-33 12-12 34 33zM222.5 255.5h-4l-5-2-5-4-5-7-5-7-3-8-2-8-1-7 2-6 2-3h5l5 2 5 4 5 7 5 7 3 8 2 8 1 7-2 6zM927.5 134.5l-26 15-24 13-19 10-13 5-6-1 2-5 10-10 18-13 22-15 25-16 26-16 24-13 19-9 13-5h6l-2 5-10 10-18 13-22 16zM293.5 200.5l-16 7-15 4-13 3-9-1-4-3v-5l6-7 9-8 14-9 15-8 16-7 15-4 13-3 9 1 4 3v5l-6 7-9 8-14 9zM109.5 495.5l57-2 3 53-58 3zM664.5 738.5l-14 1h-14l-11-3-7-3-3-5 1-6 6-6 10-6 12-4 15-3 14-2 14 1 11 2 7 4 3 5-1 6-6 6-10 5-12 5z"/><path fill="#FFF" d="M523.5 280.5l-5 9-6 8-4 6-4 4h-3v-7l3-7 4-9 5-10 5-9 6-8 5-6 3-4h3l1 2-1 5-3 8-4 8z"/><path d="M1015.5 597.782l-59.222-29.75-27.294 103.85z"/><path fill="#FFF" d="M214.5 750.5l4-1 5 1 6 4 6 5 6 6 4 8 4 7 1 6v6l-2 3-4 1-5-1-6-3-6-6-5-6-5-7-3-8-2-6v-5z"/><path d="M857.5 228.5l1 9-3 11-8 9-10 8-13 6-14 3h-14l-12-3-8-6-6-8-1-10 4-10 7-10 11-8 13-6 14-3h13l12 3 9 6zM978.5 484.5l13-3 12-1 10 1 7 3 3 4-1 5-4 6-9 5-10 5-13 4-13 3-11 1-10-1-7-3-3-4v-5l5-5 8-6 11-5zM125.5 309.5l8 13 2 17-4 20-10 21-14 20-18 17-20 12-20 6-17-1-13-6-9-13-2-17 4-20 10-21 15-20 18-17 20-12 19-6h17z"/></svg>