<svg xmlns="http://www.w3.org/2000/svg" width="1000" height="787"><path d="M.457 1.254c-.262.685-.36 133.63-.217 295.434L.5 590.875l3.381 3.019c1.86 1.66 3.885 2.926 4.5 2.812.636-.117.978.802.792 2.127-.181 1.29.377 2.856 1.246 3.5 1.372 1.018 1.396 1.506.185 3.823-1.321 2.528-2.533 9.123-2.777 15.106-.068 1.65-1.464 4.194-3.47 6.321C1.092 631.044 1 631.375 1 639.606c0 8.207.062 8.431 2.038 7.374 1.121-.6 2.857-.831 3.859-.513 2.132.677 3.669-.891 4.631-4.723.379-1.509 1.342-2.744 2.139-2.744.798 0 1.173.45.833 1-.34.55-.141 1 .441 1S16 640.55 16 640s.875-1 1.945-1c1.124 0 2.525-1.162 3.317-2.75.768-1.54 2.002-2.583 2.805-2.371 4.472 1.183 11.32 1.252 13.408.134 1.953-1.045 2.729-.984 4.657.367 1.272.891 3.113 1.62 4.091 1.62.977 0 1.777.512 1.777 1.138 0 .803 1.988.946 6.75.485 5.017-.486 6.365-.372 5.25.444-1.153.845-.638.979 2.232.582 2.052-.285 3.991-.097 4.309.417.317.514 1.528.934 2.689.934 1.162 0 2.958.765 3.991 1.7 1.56 1.412 2.387 1.509 4.874.57 1.646-.621 4.492-.887 6.322-.59 4.133.671 4.783-.29 5.114-7.557.319-7.002-.341-10.123-2.139-10.123-.766 0-1.392-.716-1.392-1.59 0-.875-2.169-3.688-4.82-6.25-2.651-2.563-5.238-5.381-5.75-6.262-.614-1.057-2.969-1.807-6.93-2.206-4.11-.414-5.291-.313-3.75.319 3.551 1.459 2.629 2.989-1.801 2.989-3.693 0-4.182.313-5.53 3.54-.856 2.048-1.933 3.26-2.556 2.875-.592-.366-.691-.946-.22-1.29 1.289-.94 1.03-3.515-.449-4.456-.999-.636-.686-1.45 1.334-3.469 2.879-2.88 2.991-6.274.491-14.847-1.024-3.508-.957-4.681.431-7.606 1.773-3.737 5.735-6.436 8.708-5.933 1.021.173 2.126-.39 2.456-1.25.359-.936 1.8-1.564 3.587-1.564 2.097 0 3.135-.568 3.485-1.908.274-1.049 1.357-2.132 2.406-2.406 1.05-.274 1.912-1.328 1.916-2.342.01-2.42 4.808-4.742 6.645-3.217.727.603 2.448.814 3.825.468 3.4-.854 11.01 1.182 13.115 3.508.945 1.043 2.222 1.897 2.84 1.897 1.9 0 4.698 4.032 5.278 7.605.303 1.867 1.057 3.395 1.677 3.395 1.712 0 7.612 6.83 7.612 8.813 0 1.978 6.603 9.187 8.414 9.187.652 0 1.687-.501 2.299-1.113 1.83-1.83 3.465.024 2.779 3.151-.514 2.338-.3 2.826 1.191 2.729 3.088-.203 9.317 1.275 9.317 2.211 0 .488.856 1.159 1.903 1.491 1.046.332 4.45 3.013 7.564 5.957 3.978 3.762 6.232 5.204 7.585 4.85 1.193-.312 2.159.11 2.543 1.111.901 2.348 2.313 1.978 1.681-.441-.778-2.973 2.944-6.18 6.218-5.358 3.437.862 2.557-1.26-2.825-6.821-5.431-5.611-8.173-7.069-9.74-5.181-1.533 1.847-5.047 1.884-4.341.045.499-1.3-2.171-2.769-5.506-3.029-.78-.061-1.615-.7-1.855-1.421-.24-.721-1.473-1.704-2.739-2.186-2.979-1.132-4.299-6.419-2.2-8.812 1.689-1.927 3.362-6.701 2.069-5.908-.837.514-1.2-1.648-1.64-9.775-.178-3.287.179-4.174 2.003-4.974 1.221-.536 2.348-1.639 2.504-2.451.292-1.517-3.614-6.075-5.207-6.075-.49 0-.867-1.8-.836-4 .062-4.554.89-4.968 3.496-1.749 2.446 3.021 6.204 2.576 5.585-.661-.333-1.744.102-2.452 1.778-2.89 1.445-.378 2.021-1.1 1.649-2.067-.699-1.823 1.814-4.246 2.781-2.682.356.577.284 1.052-.161 1.055-.445.004.511.695 2.125 1.536 3.282 1.712 5.566 1.297 5.566-1.011 0-1.7 1.554-2.062 2.473-.575.325.526 1.184.729 1.908.451 1.944-.746 1.757-6.101-.344-9.84-1.552-2.765-1.658-3.824-.69-6.916 1.239-3.96 1.8-4.309 3.859-2.401 2.586 2.398 7.349 5.474 9.563 6.177 1.684.534 2.231.309 2.231-.919 0-.894.412-1.371.916-1.06 1.319.815 6.195-1.23 7.721-3.237 2.256-2.97 1.572-5.097-2.137-6.647-4.224-1.764-4.594-4.549-.837-6.293 2.364-1.098 2.892-.965 4.944 1.25 2.801 3.022 3.14 3.023 6.83.006 2.713-2.217 2.857-2.661 1.891-5.811-.908-2.956-.789-3.572.891-4.621 1.369-.855 2.31-.901 3.208-.156.926.769 1.758.514 3.076-.943.994-1.098 2.601-1.996 3.572-1.996 1.229 0 2.268-1.516 3.425-5 .913-2.75 2.1-5 2.637-5 .555 0 .844-2.421.669-5.615-.259-4.756 0-5.788 1.694-6.75 1.1-.624 2.281-1.52 2.624-1.991 1.019-1.396 10.088-2.754 14.041-2.102 2.858.472 4.289 1.524 6.5 4.779 2.92 4.299 6.213 7.587 7.656 7.646 1.161.047 3.977 2.998 5.198 5.446 1.464 2.938 4.487 3.281 5.191.589.41-1.568.788-1.814 1.361-.887.437.707 2.4 1.285 4.362 1.285 1.962 0 3.567.435 3.567.967 0 .531.217.749.483.483.265-.265.078-1.896-.418-3.623-1.554-5.419-.445-7.247 4.302-7.091 2.321.077 3.14.327 1.868.572-1.245.239-1.998.867-1.672 1.394.326.528 2.099.677 3.939.332 3.028-.568 3.505-.321 5.016 2.6.918 1.776 3.315 4.897 5.326 6.936 2.011 2.039 4.913 5.355 6.449 7.369 1.536 2.013 3.621 3.661 4.633 3.661s2.076.9 2.364 2c.608 2.324 2.71 2.712 2.71.5 0-.825.458-1.5 1.017-1.5.559 0-.08-2.164-1.42-4.809-2.04-4.025-2.884-4.799-5.181-4.75-1.51.033-2.949-.551-3.199-1.296-.324-.967.129-1.17 1.584-.708 2.236.709 3.726-1.899 2.665-4.664-.386-1.006.612-2.211 2.993-3.616 7.852-4.633 14.5-4.27 19.757 1.079 1.494 1.52 3.27 2.764 3.946 2.764 1.637 0 6.838 5.041 6.838 6.628 0 1.977 1.32 2.315 5.427 1.389 4.338-.979 6.573-.438 6.573 1.59 0 .814 1.025 1.393 2.465 1.393 3.051 0 4.535 2.584 4.535 7.899 0 2.924-.517 4.307-1.884 5.039-1.056.565-2.19 2.644-2.582 4.734-.773 4.118-2.847 7.682-3.874 6.655-.363-.363-.66.09-.66 1.006 0 .917-.569 1.667-1.265 1.667-.695 0-2.833.832-4.75 1.849-1.917 1.018-4.012 1.667-4.656 1.443-.727-.252-.982.319-.673 1.502.549 2.097-1.976 5.206-4.227 5.206-1.823 0-1.809.762.045 2.616 2.194 2.195 3.799 9.272 3.235 14.271-.733 6.502-7.21 11.942-13.38 11.238-1.193-.136-4.206.68-6.695 1.814-2.488 1.133-4.999 2.061-5.579 2.061-.58 0-1.055 1.025-1.055 2.277 0 3.452-2.587 6.434-6.753 7.785-2.061.669-5.052 2.132-6.647 3.252-2.242 1.574-4.559 2.053-10.201 2.112-4.409.046-7.795.57-8.55 1.325-.999.999-.911 1.249.44 1.249 2.098 0 2.008 4.4-.161 7.84-1.178 1.867-2.062 2.223-4.373 1.761-1.633-.327-4.065.017-5.576.788-1.473.752-4.945 1.847-7.714 2.433-7.376 1.56-12.181.183-16.601-4.758-2-2.235-3.989-4.064-4.421-4.064-.432 0-1.536-.679-2.453-1.509-1.521-1.377-1.772-1.161-2.854 2.45-1.422 4.746-4.991 7.488-11.136 8.554-6.786 1.177-16.646.889-20.533-.599-1.651-.633-7.467 5.949-7.467 8.45 0 1.252.955 3.302 2.121 4.554 1.678 1.801 2.796 2.151 5.345 1.672 3.72-.698 8.534 2.339 8.534 5.384 0 .996.9 2.046 2 2.334 1.351.353 2 1.364 2 3.116 0 1.427.45 2.594 1 2.594s.993 1.913.985 4.25c-.012 3.112-.275 3.849-.985 2.75-.756-1.17-.973-.897-.985 1.239-.018 3.236 2.697 6.761 5.207 6.761.978 0 1.778.707 1.778 1.572 0 1.118-.774 1.478-2.682 1.25-2.322-.279-2.804.144-3.586 3.149-.617 2.369-.557 3.587.188 3.836.601.2.808.823.461 1.385-.399.645-.953.522-1.506-.335-.669-1.037-1.059-1.073-1.657-.15-.431.663-2.343 1.925-4.25 2.803l-3.468 1.596 3.25-.528c2.614-.425 3.25-.191 3.252 1.197.001.949 1.801 3.418 4 5.487s3.998 4.497 3.998 5.395c0 1.87 5.118 10.339 6.25 10.341.412.001.75.638.75 1.416 0 1.065 1.01 1.298 4.094.944 2.281-.262 3.848-.074 3.54.425-.305.493 1.022.955 2.947 1.028 1.926.072 3.332-.193 3.126-.59-2.526-4.851-4.72-10.652-4.374-11.568.239-.634.758-.253 1.154.847 2.027 5.632 5.332 11.034 6.939 11.344.996.191 1.556-.064 1.245-.567-.313-.507.743-.723 2.372-.484 1.615.237 2.69.831 2.388 1.319-.302.488-.121.888.403.888s1.211-.675 1.528-1.5c.77-2.007 3.095-1.896 5.261.25 1.681 1.667 1.734 1.667 1.102 0-.364-.962-.226-1.75.306-1.75.533 0 .969 1.125.969 2.5 0 3.585 1.73 3.081 3.436-1 1.375-3.292 4.435-5.211 3.207-2.012-.314.818-.169 1.381.322 1.25.492-.131 1.552.645 2.356 1.724 1.244 1.669 1.703 1.763 3.071.628 2.287-1.898 1.995-.477-.392 1.91-1.1 1.1-3.05 2-4.333 2-3.513 0-3.803.955-1.106 3.652 2.481 2.481 3.253 5.348 1.439 5.348-.55 0-1 .472-1 1.05 0 .697.575.728 1.712.091 1.273-.712 2.151-.452 3.424 1.016.942 1.086 2.084 1.956 2.538 1.934 1.647-.079 7.326 2.331 7.326 3.11 0 .439.702.799 1.559.799s1.312-.399 1.011-.887c-.301-.487.11-1.432.913-2.099 1.163-.965 1.788-.886 3.061.387.879.879 3.029 1.629 4.777 1.667 3.014.064 3.062.124.929 1.152-2.431 1.173-3.17 3.347-.833 2.45.78-.299 1.68.14 2 .975.882 2.299.7 3.545-.417 2.855-.55-.34-1-.141-1 .441s.395 1.059.879 1.059c.483 0 1.406 1.275 2.052 2.833.645 1.559 1.713 2.855 2.371 2.881.659.026 1.895.34 2.748.697 1.25.524 1.54-.105 1.5-3.25-.032-2.508-.46-3.743-1.199-3.462-.632.241-1.459-.065-1.839-.679-.496-.804-1.155-.753-2.349.181-.913.715-.4-.388 1.14-2.451 2.562-3.433 2.577-5.23.021-2.674-.768.768-.935.338-.583-1.5.365-1.909.073-2.576-1.124-2.576-1.045 0-1.576-.797-1.501-2.25.087-1.693.229-1.817.573-.5.252.962.875 1.75 1.384 1.75 1.384 0 1.12-1.664-.525-3.31-.799-.798-1.19-1.714-.87-2.035.321-.321-.398-3.002-1.598-5.959-1.2-2.957-2.302-6.46-2.449-7.786-.147-1.325-.799-3.393-1.449-4.594-.65-1.202-1.182-2.889-1.182-3.75 0-.861-.378-1.566-.839-1.566-.462 0-1.699-1.795-2.75-3.989-1.051-2.193-2.248-3.993-2.661-4-.413-.006-.75-1.309-.75-2.894 0-2.043-.583-3.036-2-3.407-2.667-.697-2.748-5.338-.108-6.176 2.243-.711 3.412-4.213 1.764-5.281-.636-.413-3.593-.751-6.572-.751-2.978-.001-5.555-.452-5.727-1.002-.172-.55 2.413-2.738 5.743-4.862 5.996-3.825 6.069-3.842 7.5-1.799 2.864 4.089 4.471 5.193 6.219 4.273 1.763-.927 15.598-2.642 18.181-2.254 1.313.197 1.316.102.028-.763-1.263-.847-1.223-1.083.28-1.66 1.164-.446 1.551-1.303 1.154-2.553-.328-1.035-.229-1.9.221-1.922.449-.022 3.1-.18 5.89-.353 6.832-.421 11.784 3.292 8.177 6.133-1.946 1.532-7.049 2.553-6.243 1.249.371-.601-1.054-.353-3.166.55a674.601 674.601 0 01-5.091 2.159c-2.064.852-1.44 1.841 2.284 3.617 4.54 2.165 5.466 2.122 5.466-.256 0-1.068.45-2.219 1-2.559.55-.34 1-.093 1 .548s.631.924 1.401.628c.822-.315 1.602.228 1.886 1.313.398 1.524 1.172 1.759 4.372 1.33 3.564-.478 3.905-.317 4.091 1.928.111 1.348.635 3.531 1.163 4.852.898 2.247.964 2.18 1.024-1.036l.063-3.437 2.75 2.58c2.056 1.929 3.555 2.485 5.937 2.202 2.47-.292 3.326.058 3.802 1.556.41 1.294 1.159 1.725 2.262 1.301 1.049-.402 1.212-.777.448-1.032-.659-.22-1.199-.839-1.199-1.375 0-.537.45-.698 1-.358.55.34 1 .115 1-.5s.481-.821 1.068-.458c.588.363.836 1.267.551 2.008-.333.868 0 1.15.932.792.797-.306 1.449-1.606 1.449-2.89 0-2.477-1.491-4.084-2.411-2.597-.587.95-12.295.773-13.268-.201-.32-.32-.68-2.324-.8-4.454-.21-3.71-3.886-10.2-5.779-10.2-.484 0-.737-1.013-.561-2.25.409-2.878 2.316-2.724 7.607.616 3.017 1.905 4.212 3.332 4.212 5.03 0 2.526 2.269 3.789 7.25 4.036 3.283.162 3.158 2.427 1.381-24.932-1.403-21.608-1.651-48.813-.456-50.008.371-.372.914 1.278 1.206 3.666 4.232 34.616 6.333 52.713 7.353 63.314l.766 7.971 3.302.164c1.817.09 3.091-.048 2.832-.306-.259-.259.003-1.831.583-3.493.665-1.909.7-3.26.096-3.665-.597-.401-.672-6.537-.199-16.272.654-13.477 1.111-16.467 3.322-21.719 1.41-3.351 2.571-6.893 2.579-7.872.013-1.532.164-1.571 1.083-.28.814 1.144.959.67.61-2-.252-1.925-.055-4.4.438-5.5.824-1.841.861-1.82.468.251-.235 1.239-.018 1.999.481 1.69.5-.309.615-2.403.255-4.654-.411-2.573-.291-3.869.323-3.489.558.345 1.95-3.339 3.247-8.597 3.067-12.434 3.975-14.679 5.673-14.027.988.379 1.407-.238 1.407-2.067 0-1.434.361-2.607.802-2.607.857 0 4.211-8.622 4.203-10.803-.003-.717 1.1-2.929 2.451-4.917 1.35-1.988 2.181-4.058 1.845-4.602-.342-.554-.101-.672.552-.269.677.419 1.406-.038 1.749-1.096 2.328-7.179 4.77-12.201 5.665-11.648.607.375.743.16.325-.516-.664-1.074.487-5.877 2.55-10.649.476-1.1 1.762-5.553 2.858-9.896 1.096-4.343 3.119-10.277 4.496-13.188 1.377-2.911 2.504-5.738 2.504-6.283 0-.544.564-1.585 1.252-2.312 1.17-1.234 3.077-4.912 5.609-10.821.589-1.375 2.212-5.143 3.605-8.374 1.394-3.231 2.534-6.462 2.534-7.179 0-.717.616-1.92 1.368-2.672.753-.753 1.714-2.472 2.138-3.822.423-1.349 1.607-3.526 2.632-4.838 1.024-1.312 1.862-3.169 1.862-4.127 0-.959.675-2.303 1.5-2.988s1.5-1.865 1.5-2.622c0-.758.576-1.378 1.281-1.378.704 0 1.838-1.238 2.52-2.75.682-1.512 2.336-4.775 3.675-7.25 1.339-2.475 2.74-6.204 3.113-8.286.386-2.153 1.483-4.218 2.545-4.786 1.026-.549 1.866-1.48 1.866-2.068 0-.588 1.088-3.235 2.417-5.881 1.329-2.647 2.154-5.075 1.833-5.396-.321-.32-.058-.583.583-.583.642 0 1.167-.675 1.167-1.5 0-1.803 1.957-2.036 2.1-.25.056.688.501-.55.989-2.75 1.953-8.79 3.198-12.411 4.198-12.21.577.115 1.462-1.449 1.966-3.476.636-2.562 1.348-3.521 2.331-3.143.953.365 1.416-.166 1.416-1.623 0-1.191.374-1.935.831-1.652.457.282 1.872-2.504 3.145-6.191 2.524-7.315 3.077-8.235 5.143-8.562 3.044-.481 7.881-3.209 7.881-4.446 0-.723-.45-1.037-1-.697-.55.34-1-.072-1-.916 0-1.171-.71-1.392-3-.934-3.387.677-3.77-.142-1.329-2.839 2.446-2.703 5.498-11.604 5.837-17.025.247-3.95-.023-4.815-1.665-5.336-1.305-.414-1.857-1.345-1.651-2.785.235-1.652 1.311-2.373 4.558-3.056 3.516-.739 4.25-1.292 4.25-3.204 0-3.447 2.102-7.405 3.932-7.405 1.165 0 2.705-3.25 5.568-11.75 2.176-6.462 3.974-11.975 3.994-12.25.02-.275.447-1.148.948-1.94.501-.792 1.044-2.817 1.208-4.5.615-6.339 1.599-10.56 2.459-10.56.49 0 .891-1.238.892-2.75.002-4.166 4.96-23.61 6.312-24.753 1.689-1.427 5.209-7.938 3.831-7.086-.668.413-1.144.071-1.144-.821 0-.84.568-1.309 1.262-1.043 1.502.577 6.34-7.763 5.393-9.296-.354-.573.029-1.299.851-1.615.822-.315 1.494-1.213 1.494-1.994 0-.782 1.549-3.158 3.443-5.282 2.204-2.471 4.093-6.142 5.25-10.204 1.02-3.58 2.569-6.754 3.557-7.285.962-.518 1.75-1.563 1.75-2.322 0-.76 1.35-1.979 3-2.709 1.65-.731 3-1.695 3-2.143 0-.448.461-.53 1.025-.182.563.349.921.263.794-.191-.325-1.164 2.756-6.726 4.551-8.216.826-.685 1.779-2.51 2.118-4.054.838-3.815 4.702-8.838 6.367-8.275.981.331 1.169-.128.683-1.661-.537-1.691-.256-2.118 1.395-2.118 1.137 0 2.067-.468 2.067-1.04 0-.573.953-2.33 2.118-3.905 1.165-1.576 1.832-3.327 1.483-3.891-.348-.564-.207-1.289.314-1.611.521-.322 1.229-.128 1.575.431.345.559.99 1.016 1.432 1.016 1.184 0 .386-5.397-.859-5.812-.585-.195-1.063-1.228-1.063-2.296 0-1.352.9-2.122 2.961-2.534 2.247-.45 3.23-1.406 4.075-3.968.613-1.856 1.868-3.8 2.789-4.32 3.866-2.182-.929-3.239-18.275-4.027-.523-.024-.41-.583.25-1.243 1.811-1.811 1.441-3.011-.719-2.326-1.33.423-2.02.082-2.25-1.111-.31-1.61-.438-1.613-2.01-.042-.923.924-2.105 1.679-2.627 1.679-1.82 0-3.348 2.919-4.028 7.692-.564 3.965-1.077 4.864-2.925 5.128-1.233.175-2.241.963-2.241 1.75 0 .786-.816 1.43-1.813 1.43-1.148 0-2.323 1.297-3.199 3.531-1.007 2.566-1.809 3.351-2.937 2.873-.853-.361-3.238-.582-5.301-.49-2.062.092-3.75-.025-3.75-.259 0-1.182 2.969-5.915 4.366-6.961.878-.657 1.717-2.318 1.865-3.691.213-1.98-.236-2.569-2.175-2.845-1.344-.191-2.921.304-3.504 1.102-1.7 2.324-5.106 2.983-6.533 1.263-.755-.91-.845-1.523-.225-1.523.572 0 1.266.563 1.544 1.25.301.747.536.545.583-.5.054-1.189-.669-1.75-2.254-1.75-3.342 0-4.018-1.14-1.439-2.426 4.354-2.171 1.71-8.916-2.814-7.179-1.573.603-1.632.856-.386 1.643.81.512 1 .938.422.947-.577.008-1.477-.375-2-.853-.522-.477-2.393-1.137-4.156-1.466-2.683-.501-3.103-.333-2.58 1.032.428 1.114.243 1.393-.585.882-.704-.435-.937-1.611-.556-2.811.531-1.672.297-1.968-1.239-1.567-1.041.273-2.418-.067-3.06-.754-.91-.973-.24-1.872 3.029-4.062 2.308-1.547 5.097-3.791 6.197-4.987 2.171-2.36 6.185-3.718 7.015-2.374.285.46.027 1.14-.572 1.51-1.58.976 1.8 3.043 6.337 3.874 3.618.663 3.842.543 5.25-2.826.808-1.935 1.47-4.466 1.47-5.623v-2.105l2.635 2.072c3.537 2.783 9.89 2.829 11.36.083.801-1.497 1.491-1.76 2.785-1.06.946.511 2.957 1.19 4.47 1.509 1.88.396 2.75 1.206 2.75 2.56 0 1.09-.562 2.01-1.25 2.044-.687.035-.179.492 1.129 1.016 1.597.639 2.815.59 3.704-.148 1.698-1.409 8.589-4.931 9.647-4.931.445 0 .54 1.069.212 2.376-.542 2.159-.338 2.328 2.231 1.851 1.555-.289 3.128-.987 3.495-1.553.368-.565 5.766-1.21 11.997-1.433 6.23-.223 11.892-.873 12.582-1.446.874-.725 1.673-.692 2.641.112 1.049.871 2.025.862 3.996-.036 2.184-.995 2.922-.904 4.54.56 2.355 2.132 6.379 1.257 5.823-1.266-.201-.916-.902-1.553-1.556-1.415-.742.156-1.191-1.07-1.191-3.25 0-3.333-.167-3.5-3.5-3.5-2.833 0-3.5-.381-3.5-2 0-1.1.45-2 1-2 1.784 0 1.056-3.847-.842-4.45-1.013-.321-2.925-1.763-4.25-3.203-2.101-2.284-2.153-2.504-.408-1.725 2.785 1.244 12.474 1.032 13.311-.291.379-.6 3.501-1.414 6.937-1.809 3.437-.395 5.998-1.124 5.691-1.62-.306-.496.418-.902 1.609-.902 1.564 0 1.997-.439 1.559-1.582-.334-.87-.607-1.995-.607-2.5 0-.505-.871-.918-1.935-.918s-3.098-.442-4.519-.983l-2.584-.982 4.269-4.259 4.269-4.258-2.75-.325c-1.899-.225-2.75-.902-2.75-2.188 0-2.245 2.566-5.005 4.654-5.005 2.236 0 11.437-9.553 11.626-12.073.09-1.195 1.154-2.623 2.363-3.174 1.209-.551 2.007-1.508 1.773-2.127-.595-1.572 4.241-6.956 5.532-6.158.581.359 1.489-.387 2.019-1.658 1.284-3.078 4.573-6.81 6.002-6.81.632 0 .89-.419.573-.931-.564-.913 2.288-5.902 6.45-11.282 1.154-1.492 2.062-2.97 2.017-3.285-.044-.316.615-1.269 1.464-2.118.85-.85 1.29-1.959.977-2.465-.312-.505.471-.951 1.741-.989 2.181-.067 2.198-.118.309-.93l-2-.859 2-.189c1.423-.134 1.134-.409-1-.952C672.207.162 475-.316 475 .514c0 .282.551 1.396 1.225 2.475 1.031 1.651.912 2.2-.75 3.469-2.418 1.845-4.405 1.606-5.861-.705-.814-1.293-.775-2.265.15-3.747 1.249-2 1.054-2.002-233.79-2C49.294.008.836.265.457 1.254M761.173.62c-.73.329-2.669 1.909-4.308 3.512-1.64 1.603-3.414 2.647-3.943 2.32-2.434-1.504-8.114 1.997-13.987 8.621-4.764 5.373-5.911 7.251-5.057 8.28 1.345 1.62.477 2.647-2.236 2.647-1.965 0-1.969.041-.14 1.378 1.607 1.175 2.096 1.166 3.32-.057.79-.79 1.959-1.235 2.599-.99 1.524.585 3.942-1.248 5.497-4.167.684-1.284 1.473-2.106 1.753-1.826.281.28 2.228-.097 4.329-.838 2.101-.741 4.055-1.112 4.343-.824.288.289 1.116.15 1.84-.307.725-.458 2.638-.904 4.252-.993 1.614-.088 3.419-.772 4.011-1.518 2.463-3.105 7.349-5.724 9.588-5.139 1.932.505 2.199.279 1.74-1.475-.399-1.527.019-2.219 1.592-2.632 1.174-.309 2.284-.122 2.467.414.184.535 1.175.974 2.203.974 2.673 0 6.998-2.135 6.374-3.146-.291-.47.431-.854 1.602-.854 1.172 0 2.806-.675 3.631-1.5 1.333-1.333 1.02-1.502-2.822-1.517C787.445.974 780.325.754 774 .494c-6.325-.259-12.097-.203-12.827.126M818 .679c-7.889.693-13.833 2.573-14.346 4.536-.418 1.597-.856 1.747-2.514.86-2.456-1.314-3.443-1.375-2.696-.165.92 1.487-.532 4.088-2.301 4.122-.904.017-2.497.678-3.54 1.468-1.044.79-2.351 1.156-2.905.813-.554-.342-.705-.134-.336.463 1.409 2.28-1.222 2.087-2.72-.2-1.096-1.672-2.196-2.244-3.609-1.874-2.397.627-2.642 1.85-.533 2.66 2.142.822 1.855 2.638-.417 2.638-1.054 0-2.09.522-2.303 1.16-.278.834-.911.866-2.257.113-4.498-2.518-10.681 3.503-9.009 8.772.694 2.186.688 2.187-2.368.382-2.882-1.702-3.177-1.709-4.934-.119-1.028.931-2.403 1.692-3.054 1.692-2.961 0-10.154 6.116-10.157 8.635 0 .624-2.427 1.438-5.392 1.808-4.394.549-5.31.987-4.955 2.365.296 1.146-.538 2.119-2.585 3.015-3.615 1.584-5.393.772-4.496-2.054.55-1.732.314-1.973-1.477-1.504-1.235.322-2.767-.079-3.643-.955-.994-.994-2.398-1.29-4.101-.862-1.423.357-2.314.924-1.979 1.259.335.335.108 1.213-.504 1.951-.613.738-.818 1.342-.456 1.342.361 0 .196.862-.368 1.916-.564 1.055-3.28 2.666-6.035 3.581-2.756.915-5.012 1.965-5.014 2.333-.006 1.186-8.963 4.397-10.558 3.785-.882-.339-1.28-.169-.931.396.336.544.134.989-.448.989-1.838 0-1.147 1.837.941 2.5 2.275.722 2.737 3.5.582 3.5-.78 0-2.198.299-3.15.664-1.461.561-1.627.248-1.063-2 .505-2.01.296-2.664-.85-2.664-.852 0-1.519.878-1.519 2 0 1.1-.63 2-1.4 2-.998 0-1.307 1.014-1.073 3.529.223 2.404-.24 4.077-1.455 5.25-.981.946-2.575 2.958-3.543 4.471-.967 1.513-2.382 2.75-3.144 2.75S678 78.723 678 79.606c0 .883-1.125 2.942-2.5 4.576-3.03 3.601-3.206 6.896-.461 8.61 2.234 1.396 1.781 3.46-.563 2.561-.816-.314-1.731.147-2.075 1.044-.575 1.498-8.4 5.603-10.682 5.603-1.523 0-8.622 7.993-10.37 11.677-1.885 3.972-1.42 6.935 1.022 6.51 1.453-.253 1.609.026.81 1.455-1.821 3.253 2.241 4.164 10.819 2.428 7.788-1.576 9.195-2.398 8.262-4.83-.304-.793.075-1.83.842-2.304.768-.475 1.452-1.779 1.521-2.9.069-1.12.181-2.712.25-3.539s1.895-2.27 4.059-3.207c4.31-1.867 6.814-5.684 5.09-7.761-.741-.893-.42-2.028 1.137-4.007 1.71-2.173 1.939-3.133 1.077-4.513-1.176-1.882.065-4.009 2.34-4.009.647 0 1.742-.681 2.432-1.512.99-1.193 1.561-1.259 2.699-.315.944.784 1.677.849 2.117.19.371-.555 1.468-1.302 2.439-1.66.971-.359 2.157-1.676 2.635-2.927.479-1.252 1.822-3.133 2.985-4.181 1.163-1.048 2.115-2.565 2.115-3.372 0-1.232.257-1.255 1.6-.14 1.858 1.542 8.458 1.303 11.688-.423 1.217-.65 2.319-2.19 2.45-3.421.205-1.927-.236-2.239-3.168-2.239-4.149 0-6.57-.848-6.57-2.302 0-1.34 5.03-6.698 6.287-6.698.502 0 2.492-1.579 4.421-3.508 1.93-1.93 4.584-3.778 5.898-4.108 2.628-.66 6.782.517 4.644 1.316-1.745.651-1.565 2.3.25 2.3.98 0 1.5.981 1.5 2.833 0 1.559.563 2.886 1.25 2.95.688.064 2.15.252 3.25.417 1.737.261 1.97-.206 1.768-3.55-.19-3.163.053-3.741 1.362-3.239 1.134.436 1.426.177 1.013-.9-.355-.925-.011-1.511.888-1.511.808 0 1.469-.73 1.469-1.622 0-1.262.305-1.37 1.372-.484 1.087.902 1.619.541 2.566-1.744 1.144-2.763 5.496-6.049 6.578-4.968.697.698 1.337 16.981.73 18.594-.377 1.003-.791 1.016-1.939.064-1.03-.855-1.658-.892-2.133-.127-.371.597-1.799 1.243-3.174 1.436-1.375.193-2.5.988-2.5 1.766 0 .851-1.797 1.849-4.498 2.5-4.053.978-4.981 1.801-9.364 8.318-2.676 3.978-4.619 7.873-4.319 8.656.3.782 1.921 1.724 3.602 2.094 3.755.824 4.489 1.883 3.102 4.473-1.476 2.759-4.204 4.036-9.593 4.491-2.525.214-5.377 1.1-6.339 1.971-.962.87-2.431 1.582-3.265 1.582-1.523 0-4.826 3.012-4.826 4.4 0 1.397-2.983 3.729-3.981 3.112-.575-.356-.745.04-.401.936.328.854.109 1.552-.486 1.552-.751 0-.781.792-.1 2.584 1.196 3.146.554 4.414-1.989 3.924-2.226-.428-4.535 1.887-3.52 3.529.382.619 1.662.882 2.844.586 1.182-.297 2.806-.134 3.608.361.922.571 2 .464 2.933-.291 1.157-.935 1.314-.923.725.057-.452.752-.216 1.25.591 1.25 1.333 0 1.736 4.373.516 5.593-.937.938-8.74 1.129-8.74.215 0-.444-1.155-.808-2.566-.808-1.411 0-3.396-.444-4.411-.988-1.564-.837-2.392-.163-5.434 4.42-1.974 2.974-3.589 6.051-3.589 6.838 0 .787-1.377 2.486-3.059 3.776-2.35 1.8-2.926 2.879-2.481 4.649.32 1.277.124 2.305-.441 2.305-.56 0-1.037-.787-1.059-1.75-.029-1.283-.42-1.05-1.466.875-.785 1.443-2.327 2.86-3.428 3.147-1.1.288-2.774 2.145-3.719 4.126-.944 1.981-2.309 3.602-3.032 3.602-.723 0-1.315.45-1.315 1s-.638 1-1.418 1c-.781 0-2.425 1.627-3.654 3.616-2.229 3.606-2.925 4.469-9.467 11.72-1.904 2.11-3.461 4.188-3.461 4.619 0 .923-7.12 10.218-11.192 14.61-2.645 2.853-5.493 9.499-3.981 9.291 1.85-.255 3.014.286 3.535 1.644.789 2.057-.28 4.5-1.969 4.5-1.504 0-1.504-.002-1.857 4.599-.131 1.704-.541 5.383-.912 8.175-1.141 8.603 1.723 7.702 8.815-2.774 1.303-1.925 4.408-5.075 6.9-7 2.493-1.925 4.684-4.4 4.87-5.5.186-1.1.826-1.909 1.421-1.798.596.111 1.674-.901 2.396-2.25.721-1.349 1.911-2.452 2.643-2.452.732 0 1.331-.371 1.331-.824 0-.454 1.834-2.591 4.076-4.75 2.242-2.159 4.604-4.533 5.25-5.275.646-.743 3.132-3.216 5.526-5.497 2.393-2.281 4.976-5.355 5.74-6.832.782-1.512 2.922-3.24 4.898-3.955 1.931-.698 3.51-1.52 3.51-1.828 0-1.179 5.16-6.058 5.914-5.592.437.27 1.3-.621 1.918-1.978.619-1.358 1.697-2.471 2.397-2.474.699-.002 3.071-1.614 5.271-3.582 4.6-4.115 9.28-8.148 12.36-10.653 1.177-.957 2.14-2.42 2.14-3.25 0-.831.804-1.51 1.788-1.51.983 0 3.336-1.293 5.228-2.872 2.829-2.362 3.224-3.134 2.221-4.342-.671-.809-.924-1.766-.562-2.128.362-.362.223-.658-.308-.658-.532 0-1.462.495-2.068 1.101-.801.801-1.282.527-1.768-1.003-.839-2.642 1.521-5.311 3.557-4.023.777.492 2.612.901 4.079.91 1.466.008 2.852.573 3.08 1.256.302.905.861.794 2.065-.411.909-.908 2.108-1.804 2.665-1.991 1.644-.551-3.059-9.612-5.384-10.372-1.151-.376-2.43-.635-2.843-.575-1.42.205-.246-2.346 1.885-4.1 1.175-.966 2.433-3.34 2.796-5.274.589-3.142 2.569-5.07 2.569-2.502 0 2.765-2.65 8.977-3.985 9.34-1.161.316-1.106.439.235.528.962.064 1.75.761 1.75 1.549 0 .788.959 1.737 2.132 2.109 1.61.511 1.806.878.802 1.499-.96.593-.591 1.007 1.327 1.488 4.127 1.036 4.703 2.386 3.403 7.971-1.552 6.668-2.383 7.787-5.246 7.069-1.834-.461-2.235-.254-1.784.919.325.848.036 1.512-.66 1.512-1.338 0-4.974 3.766-4.974 5.153 0 .466-.517.847-1.149.847-1.362 0-6.616 5.335-9.172 9.312-.993 1.547-2.34 2.626-2.993 2.398-.652-.228-1.878.981-2.724 2.688-.898 1.81-2.252 3.044-3.25 2.963-.942-.076-1.712.467-1.712 1.207 0 .741-1.575 2.603-3.5 4.139s-3.532 3.693-3.57 4.793l-.071 2-.859-2c-.473-1.1-.891-1.393-.93-.651-.148 2.838-3.382 8.245-4.642 7.762-.811-.312-1.539.617-1.95 2.489-.491 2.236-1.358 3.126-3.453 3.545-2.747.549-4.227 2.477-5.583 7.273-.757 2.677-12.945 16.189-15.57 17.261-.914.373-2.897 2.298-4.406 4.277-1.51 1.979-2.976 3.367-3.259 3.084-.283-.283-1.822.942-3.419 2.723-5.729 6.384-9.307 9.727-10.417 9.732-.62.003-1.688 1.355-2.371 3.005-.888 2.144-1.921 3-3.621 3-2.547 0-3.025.954-1.328 2.651.735.735.288 1.552-1.487 2.715-1.396.915-3.424 3.344-4.507 5.399-2.842 5.392-7.259 9.877-9.307 9.452-1.361-.283-1.75.309-1.75 2.66 0 1.663-.614 3.383-1.365 3.823-.75.44-2.153 2.343-3.117 4.228-.965 1.886-3.163 4.888-4.886 6.671-1.723 1.783-4.707 5.096-6.632 7.362-1.925 2.267-4.106 4.789-4.847 5.606-.741.816-1.101 2.125-.801 2.908.385 1.002.044 1.243-1.153.815-.934-.335-1.377-.253-.984.182s.265 1.632-.285 2.659c-.709 1.325-.663 1.869.157 1.869.868 0 .873.343.018 1.373-.627.756-.867 2.085-.533 2.954.333.869-.109 2.601-.983 3.849-.874 1.248-1.589 1.926-1.589 1.506 0-.42-1.189.339-2.642 1.687-1.579 1.464-2.406 3.063-2.056 3.976.322.839.145 1.673-.393 1.852-.825.275-1.069 5.147-.768 15.303.106 3.579 1.912 9.5 2.898 9.5.528 0 .961.675.961 1.5s.62 1.5 1.378 1.5c.758 0 2.099 1.013 2.979 2.25 1.045 1.468 1.398 1.642 1.015.5-.322-.963-.12-1.75.45-1.75 1.366 0 1.353 11.085-.016 12.734-.738.889-.728 1.266.036 1.266.598 0 1.608-.972 2.244-2.16 1.001-1.871 1.274-1.948 2.04-.579 1.272 2.273-.675 6.739-2.939 6.739-1.414 0-1.893.792-1.986 3.286-.068 1.807-.82 4.951-1.671 6.987-2.537 6.074-1.086 17.494 6.121 48.164 1.413 6.016 3.205 12.737 3.981 14.937.776 2.199 2.086 6.952 2.912 10.562 1.505 6.577 5.836 20.811 7.474 24.564.48 1.1 1.424 4.608 2.097 7.796.673 3.187 1.597 6.026 2.054 6.309.457.282.831 1.878.831 3.545 0 4.561 8.631 30.869 14.223 43.35 2.71 6.05 6.319 14.15 8.019 18 6.845 15.498 18.631 38.323 23.753 46 1.467 2.2 3.048 4.9 3.513 6 .788 1.868.871 1.836 1.253-.5.224-1.375.798-2.906 1.275-3.402 1.096-1.139 5.923 3.32 5.947 5.494.01.977 1.522 2.042 3.914 2.759 4.579 1.372 4.837 1.881 4.704 9.294-.108 6.038-1.74 8.845-6.599 11.35-4.944 2.55-10.416.36-17.156-6.866-3.959-4.245-5.704-9.467-3.608-10.797.957-.608.899-.809-.238-.832-1.327-.027-1.328-.139-.008-.974 1.188-.751 1.238-1.196.25-2.184-1.678-1.678-1.573-3.183.175-2.512a1.534 1.534 0 001.969-.893c.303-.79 1.235-1.437 2.072-1.437 1.218 0 .986-1.089-1.17-5.484-1.511-3.083-2.988-5.002-3.371-4.382-.374.606.166 1.949 1.201 2.984 1.035 1.035 1.882 2.557 1.882 3.382 0 1.385-.36 1.62-2.911 1.9-1.711.188-7.144-7.652-6.565-9.475.306-.966.089-2.046-.483-2.4-1.567-.968-1.25-4.525.402-4.525.794 0 2.144 1 3 2.223 2.175 3.105 1.954.478-.267-3.175-1.315-2.162-2.128-2.696-2.913-1.911-.599.599-1.524.82-2.056.491-1.363-.842-2.087-5.348-1.03-6.405.507-.507-2.567-8.055-7.252-17.802-10.233-21.293-14.149-30.334-18.589-42.921-1.94-5.5-4.384-11.888-5.431-14.195-1.048-2.307-1.905-4.697-1.905-5.309 0-.613-.337-.906-.75-.651s-.819-.678-.902-2.072c-.084-1.394-.534-2.813-1-3.154-.467-.34-.893-1.181-.948-1.869-.464-5.804-.49-5.877-1.329-3.75-.69 1.751-.877 1.598-1.504-1.226-.393-1.774-.387-3.756.013-4.404.486-.786.296-.911-.57-.376-.978.604-1.176.155-.799-1.815.275-1.44.147-2.401-.283-2.134-1.154.713-2.085-2.973-1.281-5.068.514-1.339.351-1.594-.632-.987-.868.537-1.085.432-.629-.306.383-.619.02-2.431-.805-4.028-.826-1.596-1.261-3.143-.967-3.436.293-.294-.157-1.869-1-3.5-.844-1.632-1.215-3.286-.824-3.677.39-.39.049-.56-.758-.376-.957.217-1.662-.712-2.026-2.667-.813-4.38-5.906-20.68-7.159-22.919-.591-1.055-1.293-3.305-1.56-5-.267-1.694-.875-3.809-1.351-4.7-.476-.89-.544-1.974-.151-2.41.393-.435.243-.524-.334-.197-.62.352-2.019-2.464-3.421-6.886-1.304-4.115-2.745-7.712-3.201-7.994-.456-.281-.832-1.273-.836-2.203-.004-.93-1.572-2.757-3.485-4.06-1.914-1.303-3.234-2.765-2.934-3.25 1.36-2.201-1.658-.57-3.921 2.119-1.388 1.65-3.254 3-4.147 3-.893 0-1.346.45-1.006 1 .34.55.115 1-.5 1s-.857.423-.537.939c.708 1.146-4.545 6.2-5.955 5.73-.555-.185-1.008-1.423-1.008-2.752 0-1.329-.544-2.766-1.208-3.193-.665-.427-.931-1.552-.591-2.5.356-.994.237-1.375-.281-.901-.494.452-.771 3.827-.615 7.5.18 4.207-.049 6.185-.619 5.346-.656-.966-1.078-.457-1.541 1.855-.612 3.062-1.685 4.574-8.041 11.34-1.593 1.695-3.219 4.219-3.614 5.609-.394 1.39-1.228 2.415-1.853 2.277-.626-.137-1.137.797-1.137 2.076 0 2.525-3.753 6.665-6.064 6.689-1.153.013-1.177.18-.12.85 1.375.872 1.24 1.052-9.339 12.464-2.462 2.656-4.477 5.42-4.477 6.143 0 .723-.675 1.573-1.5 1.89-.887.34-1.53 1.916-1.573 3.857-.04 1.804-.934 4.631-1.985 6.281-2.634 4.132-3.942 7.287-3.942 9.506 0 2.099-1.983 3.86-2.03 1.803-.017-.72-.526-.409-1.132.691-.606 1.1-2.333 3.35-3.839 5-1.506 1.65-3.54 4.872-4.521 7.16-1.066 2.487-2.289 3.966-3.04 3.678-.692-.266-1.555.456-1.92 1.604-.372 1.174-1.142 1.79-1.76 1.408-.694-.428-.874-.095-.49.905.338.883-.25 2.571-1.33 3.817-1.066 1.229-1.938 2.663-1.938 3.188 0 .525-.634.711-1.408.414-.917-.352-1.639.378-2.069 2.09-.488 1.945-.88 2.277-1.501 1.272-.578-.936-1.142.015-1.809 3.052l-.97 4.412-.762-3.331c-.816-3.559-2.436-2.609-2.466 1.445-.008 1.162-1.063 3.187-2.345 4.5-2.568 2.631-4.094 5.71-3.784 7.636.178 1.105-1.85 1.688-3.477 1-.749-.317-3.426 4.741-3.95 7.462-.218 1.132-.707 2.335-1.087 2.673-.38.338-.417-.149-.082-1.084.408-1.14-.03-1.901-1.332-2.314-2.469-.784-4.111.219-3.852 2.352.111.913-.08 2.336-.423 3.161-.344.825-.843 2.793-1.11 4.373-.658 3.897-1.477 4.479-3.127 2.222-1.246-1.704-1.446-1.73-1.918-.248a90.506 90.506 0 01-1.182 3.403c-.359.962-.562 2.5-.451 3.417.112.917-.607 1.924-1.597 2.238-.99.315-2.388 1.902-3.108 3.529-.843 1.904-1.823 2.76-2.75 2.405-.794-.305-1.502.056-1.578.804a283.27 283.27 0 00-.381 4.357 414.8 414.8 0 01-.363 4.25c-.065.688-1.018 1.25-2.118 1.25-1.732 0-2 .667-2 4.977 0 4.205-.388 5.231-2.5 6.615-1.446.947-2.5 2.591-2.5 3.898 0 3.738-1.192 8.51-2.125 8.51-.481 0-.875-.75-.875-1.667 0-.916-.337-1.326-.75-.909-.413.416-.75 1.72-.75 2.898 0 1.349-.74 2.28-2 2.517-3.049.574-4.5 2.15-4.5 4.89 0 1.774-.42 2.324-1.468 1.922-1.946-.747-2.507.35-2.7 5.274-.089 2.257-.735 4.58-1.437 5.162-.702.583-1.03 1.701-.729 2.486.302.785.102 1.427-.442 1.427-.545 0-1.269.787-1.608 1.75a56.06 56.06 0 01-1.279 3.25c-.556 1.26-.41 1.292.916.197 1.338-1.104 1.678-.989 2.23.75.359 1.129 1.296 2.053 2.084 2.053s1.433.45 1.433 1-.675 1-1.5 1-1.5-.471-1.5-1.047c0-1.71-4.592 2.276-4.729 4.106-.07.924.966 2.265 2.301 2.98 2.626 1.405 3.389 3.544.928 2.599-.825-.316-1.5-.16-1.5.348s1.688 1.242 3.75 1.631c2.063.389 3.188.897 2.5 1.129-.687.231-1.25.833-1.25 1.337 0 1.159 3.718 1.213 4.167.06.183-.471 2.021-1.166 4.083-1.545 3.335-.613 3.75-.463 3.75 1.357 0 1.719.637 2.045 4 2.045 2.2 0 4 .45 4 1s1.238 1.048 2.75 1.106l2.75.107-2.75 1.086c-3.894 1.539-3.408 2.701 1.128 2.701 4.235 0 5.721-1.175 6.325-5 .285-1.811.526-1.329.872 1.75.422 3.756.242 4.252-1.549 4.265-1.674.013-1.766.184-.526.985.825.533 4.538.976 8.25.985 5.627.012 6.75.292 6.75 1.682 0 .916.247 1.419.549 1.118.301-.302.243-1.766-.13-3.253-.629-2.507-.993-2.674-4.956-2.278-5.086.507-5.121-1.093-.079-3.497 3.534-1.686 5.81-1.043 6.221 1.755.33 2.254.902 2.709 3.805 3.028 1.362.149 2.971.578 3.577.952.605.374 1.756.136 2.557-.528 1.14-.947 1.781-.939 2.956.036 1.036.86 1.5.898 1.5.122 0-1.408 3.659-1.482 4.519-.091.369.596 2.072.761 4.043.391 2.987-.56 3.521-.334 4.347 1.839.954 2.508 5.618 4.314 6.684 2.589.642-1.039 2.407-.152 2.407 1.209 0 .518-.702.941-1.559.941s-1.297.423-.978.94c.32.518-.305 1.767-1.389 2.776-1.389 1.295-1.695 2.27-1.037 3.31.513.811.939 2.487.948 3.724.008 1.276.633 2.25 1.444 2.25.785 0 2.135.707 3 1.571 1.428 1.429 1.571 1.384 1.571-.5 0-1.139.48-2.071 1.067-2.071.613 0 .797-.853.433-2-.389-1.226-.18-2 .541-2 .755 0 .951-.895.548-2.5-.463-1.845-.229-2.5.892-2.5 1.686 0 2.093 3.527.519 4.5-1.511.934-1.198 2.5.5 2.5.825 0 1.5.45 1.5 1s.927 1 2.059 1c1.132 0 1.81.403 1.506.895-.64 1.036 1.697 2.105 4.6 2.105 1.15 0 1.826-.528 1.588-1.242-.228-.683.486-1.696 1.587-2.25 2.905-1.463 3.13-3.286.468-3.795-1.485-.283-.959-.489 1.473-.577 2.534-.091 3.972.359 4.357 1.364.317.825 1.187 1.5 1.934 1.5.747 0 1.839.9 2.428 2 1.201 2.244 3.563 2.651 4.352.75.36-.866 1.126-.559 2.494 1 1.086 1.237 2.675 2.25 3.53 2.25 1.931 0 8.624-3.13 8.624-4.033 0-.365-1.8-1.475-4-2.467s-4-2.462-4-3.267c0-1.243.371-1.22 2.465.152 3.209 2.103 5.835 2.046 7.84-.17.939-1.038 2.783-1.699 4.405-1.581 1.535.112 3.69.247 4.79.3 1.514.073 1.67.305.643.956-.946.6-1.021 1.067-.25 1.544.609.376 1.107 2.431 1.107 4.566s.45 4.16 1 4.5c1.726 1.066 1.091 2.5-1.107 2.5-1.462 0-1.931-.459-1.531-1.5.35-.914.001-1.5-.893-1.5-1.051 0-1.469-1.156-1.469-4.059 0-2.232-.409-3.806-.91-3.497-1.538.951-4.238-.617-3.659-2.125.322-.838.112-1.155-.511-.77-.581.359-.826 1.255-.544 1.99.282.734-.249 1.537-1.181 1.782-1.492.393-1.477.461.122.563 1.411.09 1.661.619 1.118 2.366-.385 1.237-1.09 2.4-1.567 2.583-.477.184-.868.971-.868 1.75 0 .986-1.216 1.417-4 1.417-3.263 0-4 .35-4 1.899 0 1.532.872 1.969 4.503 2.258 4.327.344 4.545.229 5.596-2.957.848-2.569 1.577-3.245 3.247-3.007 1.351.193 2.273 1.146 2.474 2.557.175 1.238.786 2.25 1.357 2.25.57 0 .791.642.489 1.427-.301.785.101 1.965.893 2.622 1.809 1.501 4.61-.445 3.775-2.622-.302-.785-.05-1.427.559-1.427.609 0 1.107.675 1.107 1.5 0 2.018 2.671 1.911 3.827-.154.557-.996 1.572-1.407 2.549-1.032.893.343 1.624.187 1.624-.345 0-.533 1.35-.969 3-.969s3 .395 3 .879c0 .483-1.35 1.438-3 2.121-4.169 1.727-3.745 3 1 3 2.549 0 4 .457 4 1.259 0 .693.9 1.822 2 2.509 1.53.955 2 2.332 2 5.857 0 4.461.086 4.592 2.687 4.095 4.391-.84 5.968.277 3.267 2.315-2.247 1.694-2.136 1.741 5.878 2.45 5.978.529 8.168 1.097 8.168 2.119 0 .768-.45 1.396-1 1.396s-1 .395-1 .877c0 .483 2.072.644 4.603.358 3.212-.362 4.852-.117 5.424.809.677 1.094 1.097 1.098 2.397.019.867-.719 1.576-1.924 1.576-2.677 0-.753.9-1.931 2-2.618 1.1-.687 2-2.041 2-3.009 0-1.386-.849-1.759-4-1.759h-4v-4c0-2.925.411-4 1.531-4 .843 0 1.796.688 2.118 1.528.942 2.456 4.437 3.944 5.463 2.325.598-.943.862-.521.873 1.397.008 1.513.465 2.75 1.015 2.75.55 0 1-1.377 1-3.059 0-3.769 1.967-2.948 2.079.868.043 1.48.279 2.21.523 1.623.281-.677 2.239-.837 5.353-.438l4.911.63 1.669-4.062c2.83-6.889 3.013-7.083 6.343-6.748 3.554.357 4.301-1.448.872-2.108-1.237-.239-.337-.495 2-.57 3.629-.116 4.25.156 4.25 1.864 0 1.66.667 2 3.917 2 2.197 0 4.138.549 4.421 1.25.277.688.54-.212.583-2 .071-2.927.377-3.25 3.079-3.25 1.65 0 3-.392 3-.871 0-.805 11.675-2.292 20.126-2.563 4.225-.135 6.874-1.985 6.874-4.798 0-1.674.54-1.924 3.43-1.586 1.886.22 3.21.044 2.941-.391-.728-1.178 4.452-.956 6.78.29 1.111.595 2.207.894 2.436.666.228-.229-1.818-1.503-4.547-2.831-6.022-2.932-6.409-4.159-1.04-3.3 2.426.388 4 .246 4-.36 0-.55-1.8-1.288-4-1.64-3.223-.515-4-1.056-4-2.783 0-2.08.059-2.089 2-.333 1.865 1.688 2.123 1.698 3.831.153 1.007-.912 2.099-1.39 2.425-1.063.954.953 7.744-1.87 7.744-3.221 0-.834 1.986-.422 6.177 1.281 5.059 2.056 6.618 2.309 8.615 1.399 2.94-1.339 6.208-.491 6.208 1.612 0 .839-.869 1.753-1.931 2.031-1.224.32-1.718 1.058-1.351 2.016.51 1.329.686 1.321 1.463-.067.571-1.021 2.131-1.531 4.418-1.445 3.115.117 3.47.394 2.984 2.328-.359 1.432.124 2.806 1.389 3.951 1.753 1.586 2.09 1.606 3.492.204.853-.853 1.136-1.808.629-2.121-.507-.314-1.1-.038-1.317.613-.231.694-.93.852-1.692.381-1.06-.655-1.057-.951.019-1.616 1.041-.643.907-1.27-.643-2.989-1.686-1.871-1.961-3.659-1.967-12.811-.004-6.412-.563-12.323-1.407-14.883-1.218-3.694-1.208-4.476.079-6 .815-.964 2.056-5.353 2.758-9.753.703-4.4 1.947-9.125 2.766-10.5 1.662-2.79 9.995-8.321 10.734-7.124.469.758-2.857 4.124-4.074 4.124-1.192 0-3.285 3.505-3.285 5.5 0 1.866.088 1.883 1.317.266.724-.954 1.584-1.468 1.91-1.141.327.326 1.927-.356 3.556-1.516 1.629-1.16 3.792-2.119 4.807-2.131 1.015-.012 3.808-.912 6.205-2 5.923-2.687 12.503-2.616 15.284.165 1.179 1.179 3.092 2.247 4.25 2.373 1.159.126 2.372.286 2.696.356.325.071 1.103 1.253 1.729 2.628.825 1.809 1.921 2.5 3.969 2.5 1.557 0 3.693.63 4.746 1.401 1.183.864 3.184 1.195 5.231.862 2.503-.406 3.665-.075 4.744 1.35 2.035 2.689 1.832 3.387-.989 3.387-2.575 0-2.979.828-3.794 7.769-.227 1.929.161 3.721.945 4.372.732.607 1.33 2.372 1.33 3.922 0 1.551.45 3.097 1 3.437.55.34 1 .152 1-.419 0-.57 2.446-3.521 5.435-6.559 4.995-5.075 5.799-5.522 9.941-5.522 2.478 0 4.799-.474 5.158-1.054.433-.701 1.446-.534 3.023.5 1.305.855 3.026 1.554 3.824 1.554.799 0 1.635.547 1.857 1.215.484 1.45 6.414-4.772 7.353-7.715.933-2.921 4.494-6.5 6.467-6.5.94 0 1.915-.787 2.168-1.75.252-.962 1.767-2.354 3.366-3.093 1.6-.738 4.226-2.001 5.837-2.806 2.609-1.304 3.025-1.291 3.813.116.794 1.419 1.157 1.392 3.571-.262 6.61-4.531 18.646-4.746 22.981-.411 1.213 1.213 2.797 2.206 3.519 2.206 2.028 0 6.504 5.167 7.82 9.028 1.404 4.117 6.574 11.972 7.88 11.972.505 0 2.396 1.296 4.202 2.881 1.807 1.584 4.169 3.049 5.25 3.256 1.187.228 2.321 1.622 2.867 3.524.789 2.753 1.453 3.23 5.294 3.806 3.374.506 4.771.279 6.028-.978 1.323-1.323 1.798-1.383 2.476-.313.633.999.843 1.017.855.074.008-.687.738-1.25 1.622-1.25 1.018 0 1.396-.55 1.031-1.5-.316-.825-.139-1.5.393-1.5.533 0 .976-.562.984-1.25.009-.687.459-1.925 1-2.75.84-1.279 1.119-1.292 1.893-.09.765 1.188 1.407 1.202 4.092.09 2.684-1.112 3.342-1.097 4.187.09.78 1.098.87 1.005.407-.422-.327-1.007-.594-2.245-.594-2.75 0-.505-.765-.918-1.7-.918-1.354 0-1.447-.253-.458-1.242.874-.874 1.451-.919 1.95-.154 1.129 1.733 8.208 2.544 8.208.94 0-.731.675-1.589 1.5-1.906.922-.354 1.5.002 1.5.925 0 .825-.675 1.759-1.5 2.075-.825.317-1.512 1.09-1.528 1.719-.015.629-1.58 2.268-3.477 3.643-1.897 1.375-3.294 2.95-3.104 3.5.636 1.838-1.307 5.5-2.918 5.5-.875 0-1.335.414-1.022.92.312.506-.622 1.856-2.076 3-1.455 1.144-2.289 2.08-1.854 2.08 1.709 0-5.217 5.068-8.338 6.101-1.824.604-3.081 1.334-2.793 1.623.289.288-.308 1.256-1.325 2.15-2.476 2.176-3.552 9.126-1.412 9.126.839 0 2.347-1.013 3.351-2.25 1.003-1.237 2.152-1.923 2.552-1.524.401.399.174 1.394-.504 2.211-.956 1.152-.972 2.276-.071 5.005.639 1.935.878 3.978.531 4.538-.346.561-.176 1.02.379 1.02.555 0 1.418-.73 1.917-1.622.821-1.466 1.042-1.442 2.3.25 1.553 2.089 3.892 2.913 3.892 1.372 0-.55.477-1 1.059-1s.8.419.484.931c-.317.512-.146 1.196.379 1.521.525.325 1.367-.146 1.87-1.045.734-1.312 1.325-1.415 2.996-.521 2.536 1.358 4.212 1.431 4.212.184 0-.512-1.013-1.098-2.25-1.303-1.741-.288-1.232-.682 2.25-1.742 2.475-.753 5.21-1.967 6.079-2.698.868-.73 2.304-1.327 3.191-1.327.886 0 1.906-.476 2.266-1.059.375-.607 1.893-.786 3.559-.42 2.555.561 2.907.358 2.92-1.692l.014-2.329 1.331 2.5c.74 1.391.955 2.921.485 3.45-.465.522-.845 1.553-.845 2.289 0 .905.709.679 2.189-.7 1.203-1.121 2.778-2.039 3.5-2.039.721 0 1.311-.477 1.311-1.059s.414-.803.919-.491c.506.313 1.599-.111 2.429-.941.83-.83 2.329-1.545 3.331-1.588 1.05-.045 1.292-.292.571-.583-.687-.278-1.25-.944-1.25-1.48 0-.537.45-.698 1-.358.55.34 1 .179 1-.358 0-.536-.562-1.202-1.25-1.48-1-.403-1-.52 0-.583.688-.043 1.25-.781 1.25-1.638 0-.981-.463-1.281-1.25-.808-.946.568-.936.363.041-.843 1.047-1.293 1.402-64.121 1.873-331.65l.582-330.056-89.373.144C861.718.307 819.925.51 818 .679M660 3.5c0 .825.45 1.5 1 1.5s1-.675 1-1.5-.45-1.5-1-1.5-1 .675-1 1.5m92 .5c-.901.582-1.025.975-.309.985.655.008 1.469-.435 1.809-.985.767-1.242.421-1.242-1.5 0M132 6c0 .55.45 1 1 1s1-.45 1-1-.45-1-1-1-1 .45-1 1m493 2c0 .55.45 1 1 1s1-.45 1-1-.45-1-1-1-1 .45-1 1m123.228.039c-2.279.916-3.959 3.563-2.92 4.602.694.695 5.428-2.703 6.118-4.391.589-1.441-.033-1.482-3.198-.211m-316.534 1.6c-.799.799.104 2.361 1.365 2.361.518 0 .941-.675.941-1.5 0-1.546-1.18-1.987-2.306-.861M936 15.5c0 .825.675 1.5 1.5 1.5s1.5-.675 1.5-1.5-.675-1.5-1.5-1.5-1.5.675-1.5 1.5M875 17c0 .55.423 1 .941 1s1.219-.45 1.559-1c.34-.55-.084-1-.941-1S875 16.45 875 17m-670 1c0 .55.423 1 .941 1s1.219-.45 1.559-1c.34-.55-.084-1-.941-1S205 17.45 205 18m150 1.059c0 .582.45.781 1 .441s1-.816 1-1.059-.45-.441-1-.441-1 .477-1 1.059M286 22.5c0 .825.637 1.5 1.417 1.5.779 0 1.617.563 1.863 1.25.245.688.769.951 1.164.586 1.074-.994-1.293-4.836-2.979-4.836-.806 0-1.465.675-1.465 1.5m317 .5c0 .55.45 1 1 1s1-.45 1-1-.45-1-1-1-1 .45-1 1m284 .417c0 .871.712 1.583 1.583 1.583 1.766 0 1.459-2.153-.395-2.771-.654-.218-1.188.317-1.188 1.188m-739 1.524c0 .518.45 1.219 1 1.559.55.34 1-.084 1-.941S149.55 24 149 24s-1 .423-1 .941M802 25c0 .55.45 1 1 1s1-.45 1-1-.45-1-1-1-1 .45-1 1m-515 3.5c0 .917.484 1.505 1.075 1.308.591-.197 1.075-.785 1.075-1.308s-.484-1.111-1.075-1.308c-.591-.197-1.075.391-1.075 1.308M635 30c0 .55.702 1 1.559 1s1.281-.45.941-1c-.34-.55-1.041-1-1.559-1s-.941.45-.941 1m290 .5c0 .825.675 1.5 1.5 1.5s1.5-.675 1.5-1.5-.675-1.5-1.5-1.5-1.5.675-1.5 1.5m-396 1c0 .825.45 1.5 1 1.5s1-.675 1-1.5-.45-1.5-1-1.5-1 .675-1 1.5M465.5 33c-.34.55-.141 1 .441 1S467 33.55 467 33s-.198-1-.441-1-.719.45-1.059 1m-217 5c.34.55.816 1 1.059 1s.441-.45.441-1-.477-1-1.059-1-.781.45-.441 1m512.515.972c-.925 1.729-.785 2.028.95 2.028 1.119 0 2.035-.648 2.035-1.441 0-2.391-1.827-2.75-2.985-.587M732 41.5c0 .825.45 1.5 1 1.5s1-.675 1-1.5-.45-1.5-1-1.5-1 .675-1 1.5m28 1.559c0 .582.45.781 1 .441s1-.816 1-1.059-.45-.441-1-.441-1 .477-1 1.059M588 46.5c0 .825.675 1.5 1.5 1.5s1.5-.675 1.5-1.5-.675-1.5-1.5-1.5-1.5.675-1.5 1.5m75.75 1.189c-.962.252-1.75 1.155-1.75 2.007 0 1.182.318 1.285 1.342.435.738-.612 1.638-.818 2-.456.362.362.658-.092.658-1.008 0-.917-.112-1.615-.25-1.551-.138.064-1.038.322-2 .573M943.5 48c-.34.55-.141 1 .441 1S945 48.55 945 48s-.198-1-.441-1-.719.45-1.059 1m-7.682 1.218c.533.533 1.805.793 2.826.576 1.375-.291 1.123-.543-.97-.969-1.825-.373-2.482-.233-1.856.393M735.5 51c.34.55.816 1 1.059 1s.441-.45.441-1-.477-1-1.059-1-.781.45-.441 1m-497.833 1.667c-1.088 1.088-.758 4.333.44 4.333.609 0 .869-.62.578-1.378-.291-.758-.024-1.883.593-2.5.715-.715.747-1.122.089-1.122-.569 0-1.334.3-1.7.667m528.513 4.505c.472 3.201 2.82 3.544 2.82.411 0-1.68-.549-2.583-1.57-2.583-1.042 0-1.462.729-1.25 2.172m25.09.302c-1.001 1.138-.892 1.373.583 1.262.998-.075 1.814-.721 1.814-1.436 0-1.659-.838-1.598-2.397.174M786.5 58c-.34.55.11 1 1 1s1.34-.45 1-1c-.34-.55-.79-1-1-1-.21 0-.66.45-1 1m18.111 2.877c-1.446 1.598-2.99 1.845-10.405 1.663-4.788-.117-9.49-.559-10.448-.98-1.203-.531-1.941-.246-2.389.92-.46 1.199-.86 1.343-1.383.497-.562-.908-.908-.912-1.462-.016-.444.718.089 1.387 1.375 1.723 1.156.302 2.101.925 2.101 1.384 0 .46 1.554 2.345 3.452 4.189 2.848 2.765 4.054 3.282 6.887 2.952 1.888-.221 4.497.191 5.797.914 1.32.735 4.461 1.178 7.114 1.004 3.459-.226 4.752.054 4.758 1.031.004.738 1.219 1.905 2.699 2.592 3.571 1.658 4.632 1.576 3.911-.302-.341-.89-.173-1.291.393-.941.922.569 1.441-.846 1.062-2.894-.21-1.134 3.967-5.613 5.234-5.613.527 0 1.686-.83 2.576-1.843.889-1.014 2.967-2.307 4.617-2.872l3-1.029-3.86-.76c-3.792-.746-6.303.622-5.002 2.727.278.45-1.345.078-3.608-.828-2.262-.905-4.379-1.38-4.703-1.055-.325.324-2.483-.519-4.797-1.875-5.038-2.952-4.797-2.932-6.919-.588M546 61c0 .55.675 1 1.5 1s1.5-.45 1.5-1-.675-1-1.5-1-1.5.45-1.5 1m198 0c0 .55.45 1 1 1s1-.45 1-1-.45-1-1-1-1 .45-1 1m-80.267 1.124c.679.684 1.486.991 1.793.683.308-.308-.247-.867-1.233-1.243-1.425-.542-1.54-.428-.56.56m-289.581 1.558c-2.471 2.646 1.55 7.016 4.105 4.461 1.892-1.892 1.641-3.869-.622-4.9-1.583-.721-2.508-.604-3.483.439m178.193 1.861c-.326.849-.341 1.794-.035 2.1.876.876 2.69-.609 2.69-2.202 0-1.919-1.908-1.845-2.655.102M625.5 65c-.34.55-.141 1 .441 1S627 65.55 627 65s-.198-1-.441-1-.719.45-1.059 1M167 66c0 .55.45 1 1 1s1-.45 1-1-.45-1-1-1-1 .45-1 1m481.164 2.75c-2.161 3.013-7.529 6.552-8.485 5.595-.331-.331-.098.735.519 2.368.977 2.588.835 3.254-1.101 5.19-2.124 2.124-2.509 4.426-.684 4.087.475-.089 1.217.411 1.649 1.11.627 1.015 1.088 1.021 2.283.028 1.189-.986 1.906-.988 3.473-.01 1.621 1.013 2.26.947 3.575-.368.881-.881 1.329-2.31.997-3.176-.395-1.03-.048-1.574 1.003-1.574.884 0 1.607-.459 1.607-1.019 0-.588-1.058-.753-2.5-.392-1.54.387-2.5.202-2.5-.481 0-.609 1.125-1.108 2.5-1.108 2 0 2.5-.5 2.5-2.5 0-1.556.567-2.5 1.5-2.5.825 0 1.5-.702 1.5-1.559s.45-1.281 1-.941c1.455.899 1.227-.223-.615-3.035-2.172-3.315-5.728-3.191-8.221.285M800 67.531c0 1.618 1.563 1.986 2.435.574.305-.493-.119-1.153-.941-1.469-.907-.348-1.494.003-1.494.895M421 68.5c0 .825.45 1.5 1 1.5s1-.675 1-1.5-.45-1.5-1-1.5-1 .675-1 1.5m51 .083c0 .871.534 1.406 1.188 1.188 1.854-.618 2.161-2.771.395-2.771-.871 0-1.583.713-1.583 1.583M934 68c0 .55.675 1 1.5 1s1.5-.45 1.5-1-.675-1-1.5-1-1.5.45-1.5 1m-299.559 1.468c-1.892 1.432-1.885 1.469.309 1.5 1.347.019 2.25-.57 2.25-1.468 0-1.853-.148-1.855-2.559-.032m57.719-.228c-1.564 1.564-1.463 2.76.233 2.76 1.585 0 2.932-2.681 1.723-3.428-.438-.271-1.318.03-1.956.668M521 72c0 .55.45 1 1 1s1-.45 1-1-.45-1-1-1-1 .45-1 1m-403 1c0 .55.45 1 1 1s1-.45 1-1-.45-1-1-1-1 .45-1 1m104 .583c0 1.766 2.153 1.459 2.771-.395.218-.654-.317-1.188-1.188-1.188-.87 0-1.583.713-1.583 1.583m593.25-.877c-2.616.504-2.942 1.815-.668 2.687 2.509.963 2.989.739 2.989-1.393 0-1.1-.016-1.939-.035-1.864-.02.075-1.049.331-2.286.57m-227 3c-2.628.506-3.069 3.766-.636 4.699 1.092.42 1.461 1.424 1.139 3.107-.43 2.251-.156 2.488 2.886 2.488 3.533 0 4.6-1.53 1.611-2.311-1.309-.342-1.18-.486.514-.573 1.245-.064 3.171.447 4.28 1.134 1.414.876 2.232.928 2.737.175.395-.592 2.162-1.915 3.925-2.94l3.206-1.864-3.706-2.279c-3.601-2.215-9.703-2.841-15.956-1.636m-76.839 2.393c-1.644 1.816-1.655 2.086-.144 3.596 1.347 1.348 1.903 1.409 3.183.347 1.933-1.605 2.015-4.649.144-5.368-.773-.296-2.206.345-3.183 1.425M573 81.41c0 .883-.578 1.305-1.371 1.001-.754-.289-1.996.099-2.759.862-.763.763-2.059 1.177-2.879.92-.82-.257-1.195-.146-.833.245.362.392 1.262.803 2 .915 2.224.337 3.911 1.726 3.299 2.716-.316.512-.371.931-.121.931 1.023 0 4.36-8.07 3.546-8.573-.485-.3-.882.142-.882.983m-122 1.507c0 1.228.646 2.083 1.573 2.083.932 0 1.442-.68 1.25-1.667-.486-2.509-2.823-2.853-2.823-.416m289.649.305c-.329 1.253-.159 2.428.377 2.611.535.184.974 1.046.974 1.917s.288 1.295.64.943c.352-.352 1.961.135 3.575 1.083 2.813 1.653 2.992 1.644 4.359-.217 1.737-2.364 1.817-3.559.24-3.559-.652 0-2.114-.848-3.25-1.885-3.473-3.172-6.223-3.527-6.915-.893m-565.011.278c-.316.825-.139 1.5.393 1.5.533 0 .969-.675.969-1.5s-.177-1.5-.393-1.5c-.216 0-.652.675-.969 1.5m595.111.189c-1.296.339-1.592 1.088-1.141 2.884.37 1.476.174 2.427-.5 2.427-.609 0-1.108.63-1.108 1.399 0 1.071-1.256 1.312-5.351 1.028-4.66-.324-5.652-.053-7.671 2.096-2.816 2.998-2.271 3.699 2.982 3.837 2.222.058 4.04.451 4.04.873s.45.767 1 .767 1-.698 1-1.552c0-1.463 5.502-4.178 7.355-3.631 2.033.601 3.503-2.187 3.366-6.384-.142-4.357-.464-4.66-3.972-3.744M469.15 84.95c.43 1.289 1.801 1.521 1.925.325.041-.399-.465-.905-1.125-1.125-.66-.22-1.02.14-.8.8m57.35.05c.34.55 1.041 1 1.559 1s.941-.45.941-1-.702-1-1.559-1-1.281.45-.941 1M931 85c0 .55.45 1 1 1s1-.45 1-1-.45-1-1-1-1 .45-1 1m-680 1c0 .55.477 1 1.059 1s.781-.45.441-1-.816-1-1.059-1-.441.45-.441 1m504.469.05c-.95 1.538.351 2.53 1.635 1.246.718-.718.735-1.277.052-1.699-.56-.346-1.319-.142-1.687.453M612 88.383c0 .211 1.111.596 2.47.856 1.358.26 2.232.087 1.941-.383-.512-.829-4.411-1.246-4.411-.473m66.25.279c-.687.278-1.25 1.305-1.25 2.283 0 1.36.591 1.665 2.515 1.297 3.091-.591 4.209-2.17 2.363-3.338-1.516-.961-1.799-.98-3.628-.242m104.25 1.115c-1.65.947-3.192 1.84-3.427 1.983-.235.144.353.831 1.306 1.528.953.697 1.86 2.136 2.016 3.199.464 3.161 5.79 3.954 10.307 1.533 2.072-1.111 4.563-2.02 5.533-2.02.971 0 1.765-.623 1.765-1.383 0-1.716-4.879-2.752-7.174-1.524-2.418 1.294-4.754 1.095-2.503-.214 1.73-1.006 1.735-1.158.095-2.97-2.119-2.341-4.018-2.373-7.918-.132M550.5 92c.34.55 2.391 1 4.559 1S559 92.55 559 92s-2.052-1-4.559-1c-2.785 0-4.319.389-3.941 1M282 95c0 .55.45 1 1 1s1-.45 1-1-.45-1-1-1-1 .45-1 1m258.348.25c-.635 1.022 4.675.819 7.152-.272 1.49-.657.893-.83-2.343-.68-2.388.111-4.552.54-4.809.952M942 95c0 .55.45 1 1 1s1-.45 1-1-.45-1-1-1-1 .45-1 1M96.5 97c.34.55.816 1 1.059 1s.441-.45.441-1-.477-1-1.059-1-.781.45-.441 1M964 98.059c0 .582.45.781 1 .441s1-.816 1-1.059-.45-.441-1-.441-1 .477-1 1.059m-741.403.785c-.346.56-.142 1.319.453 1.687 1.538.95 2.53-.351 1.246-1.635-.718-.718-1.277-.735-1.699-.052M183 101c0 .55.45 1 1 1s1-.45 1-1-.45-1-1-1-1 .45-1 1m94 3c0 .55.45 1 1 1s1-.45 1-1-.45-1-1-1-1 .45-1 1m321.51.016c.346.559 1.047.758 1.559.441 1.387-.857 1.129-1.457-.628-1.457-.857 0-1.276.457-.931 1.016M174.5 105c.34.55.816 1 1.059 1s.441-.45.441-1-.477-1-1.059-1-.781.45-.441 1m450.5 1c-1.375.44-2.062.845-1.527.9.534.055-.028.801-1.25 1.657-2.023 1.416-3.32 4.239-1.404 3.055.45-.278-.485 2.058-2.077 5.191-1.593 3.133-3.311 5.585-3.819 5.447-.508-.137-.923.577-.923 1.588 0 1.436.821 1.865 3.75 1.96 7.51.244 13.263 1.371 12.587 2.466-.427.69-.039.836 1.081.406.96-.369 2.159-.67 2.664-.67.505 0 .918-.675.918-1.5s.788-1.507 1.75-1.515c1.308-.012 1.421-.224.447-.842-.716-.454-1.166-1.433-1-2.175.167-.742-.485-1.521-1.447-1.732-1.163-.254-1.755.229-1.765 1.441-.012 1.426-.206 1.523-.889.445-.48-.758-1.342-1.088-1.915-.734a1.237 1.237 0 01-1.696-.412c-.359-.582-1.46-.801-2.445-.489-1.28.407-1.966-.081-2.402-1.709-.925-3.45-.804-3.778 1.387-3.778 1.305 0 2.371-.977 3-2.75.537-1.513 1.404-3.497 1.928-4.411.692-1.206.533-1.822-.582-2.25-.844-.324-1.61-.544-1.703-.489-.092.055-1.293.46-2.668.9m109 .978c-1.532.967-2.328 5.022-.986 5.022 1.216 0 2.716-2.375 2.683-4.25-.017-.963-.068-1.743-.114-1.735-.045.009-.758.442-1.583.963m76.639-.284c-1.126 1.126-.685 2.306.861 2.306.825 0 1.5-.423 1.5-.941 0-1.261-1.562-2.164-2.361-1.365m22.055.945c-.799.799.104 2.361 1.365 2.361.518 0 .941-.675.941-1.5 0-1.546-1.18-1.987-2.306-.861M588.5 110.153c-2.2.524-5.013.766-6.25.538-1.237-.227-2.25-.073-2.25.342 0 .416 3.825.739 8.5.717 8.044-.037 10.458-.785 6.918-2.143-1.817-.697-1.635-.711-6.918.546M270 111c0 .55.45 1 1 1s1-.45 1-1-.45-1-1-1-1 .45-1 1m440 1.5c0 .825.45 1.5 1 1.5s1-.675 1-1.5-.45-1.5-1-1.5-1 .675-1 1.5m-110 .559c0 .582.45.781 1 .441s1-.816 1-1.059-.45-.441-1-.441-1 .477-1 1.059m76.8 1.141c.933.933 1.467.933 2.4 0 .933-.933.667-1.2-1.2-1.2s-2.133.267-1.2 1.2M944 114c0 .55.675 1 1.5 1s1.5-.45 1.5-1-.675-1-1.5-1-1.5.45-1.5 1m-882 1c0 .55.675 1 1.5 1s1.5-.45 1.5-1-.675-1-1.5-1-1.5.45-1.5 1m317 1.059c0 .582.45.781 1 .441s1-.816 1-1.059-.45-.441-1-.441-1 .477-1 1.059m34 .5c0 .857.457 1.276 1.016.931.559-.346.758-1.047.441-1.559-.857-1.387-1.457-1.129-1.457.628m342 1.882c0 .857.45 1.559 1 1.559s1-.423 1-.941-.45-1.219-1-1.559c-.55-.34-1 .084-1 .941M384 119c0 .55.45 1 1 1s1-.45 1-1-.45-1-1-1-1 .45-1 1m173.754-.168c-1.643.65-1.637.76.089 1.838 1.031.644 2.415.789 3.156.331.726-.449 2.035-.602 2.91-.339.875.262.466-.214-.909-1.057-2.809-1.724-2.835-1.728-5.246-.773M452 121c0 .55.45 1 1 1s1-.45 1-1-.45-1-1-1-1 .45-1 1m25.583.866c-.431.697-.513 1.537-.183 1.867.895.895 1.871-.421 1.387-1.871-.338-1.016-.574-1.016-1.204.004M277 127c0 .55.477 1 1.059 1s.781-.45.441-1-.816-1-1.059-1-.441.45-.441 1m83.5 0c-.34.55-.141 1 .441 1s1.059-.45 1.059-1-.198-1-.441-1-.719.45-1.059 1m169.073.521c-2.27 1.718-1.233 3.385 1.165 1.872 1.824-1.15 2.897-3.411 1.595-3.361-.458.017-1.7.688-2.76 1.489m296.97 1.41c-.74 1.197 1.141 2.382 2.473 1.559 1.119-.691.384-2.49-1.016-2.49-.485 0-1.141.419-1.457.931M367.5 131c-.34.55-.141 1 .441 1s1.059-.45 1.059-1-.198-1-.441-1-.719.45-1.059 1m-43 1c-.34.55-.141 1 .441 1s1.059-.45 1.059-1-.198-1-.441-1-.719.45-1.059 1m18 0c-.34.55.11 1 1 1s1.34-.45 1-1c-.34-.55-.79-1-1-1-.21 0-.66.45-1 1m-24.5 1c0 .55.45 1 1 1s1-.45 1-1-.45-1-1-1-1 .45-1 1m37.5 4c.34.55.816 1 1.059 1s.441-.45.441-1-.477-1-1.059-1-.781.45-.441 1M183 141c0 .55.45 1 1 1s1-.45 1-1-.45-1-1-1-1 .45-1 1m253.5 0c-.34.55.11 1 1 1s1.34-.45 1-1c-.34-.55-.79-1-1-1-.21 0-.66.45-1 1m247.273.271c-.904.651-.765.754.477.355.962-.31 1.75-.127 1.75.405 0 .533-.41.969-.912.969-1.333 0-.628 3.32.807 3.798 1.466.489 5.105-2.605 5.105-4.339 0-1.531-5.497-2.435-7.227-1.188M274 142c0 .55.423 1 .941 1s1.219-.45 1.559-1c.34-.55-.084-1-.941-1s-1.559.45-1.559 1m117.507-.011c-.35.566.051.734.941.393 1.732-.665 2.049-1.382.611-1.382-.518 0-1.216.445-1.552.989m133.623.354c-1.734 2.09 3.448 4.222 5.434 2.236.79-.79 1.436-1.918 1.436-2.508 0-1.541-5.547-1.322-6.87.272M486 145c0 .55.45 1 1 1s1-.45 1-1-.45-1-1-1-1 .45-1 1m66.303.792c-1.671 1.062-.424 2.524 3.848 4.51 4.892 2.275 6.325 2.143 7.621-.7 1.034-2.271.86-2.457-3.283-3.5-5.121-1.29-6.559-1.344-8.186-.31M195 147c0 .55.45 1 1 1s1-.45 1-1-.45-1-1-1-1 .45-1 1m488.5 1c-.34.55.11 1 1 1s1.34-.45 1-1c-.34-.55-.79-1-1-1-.21 0-.66.45-1 1m-165.759 3.475c-4.684 1.614-6.979 3.463-6.346 5.112.267.697-.157 1.8-.943 2.453-1.129.937-1.558.847-2.047-.427-.341-.887-1.366-1.613-2.28-1.613-.913 0-3.241-1.074-5.173-2.386-2.668-1.813-4.459-2.282-7.452-1.953-4.187.462-6.493 2.464-3.889 3.378.845.296 1.391.895 1.213 1.331-.619 1.512 4.499 3.458 6.797 2.584 1.884-.716 2.444-.336 3.839 2.604 1.207 2.543 2.274 3.442 4.087 3.442 1.349 0 2.453.45 2.453 1 0 2.275 1.643.736 3.301-3.093 1.219-2.812 2.231-3.917 3.236-3.531.805.309 1.463.125 1.463-.407 0-.533.675-.969 1.5-.969s2.4-.9 3.5-2 2.563-2.014 3.25-2.032c.82-.021.7-.451-.349-1.25-.88-.67-1.63-1.593-1.667-2.051-.12-1.485-.674-1.509-4.493-.192m25.815-.565c-.781 1.264.417 4.065 1.801 4.208 4.89.507 6.559-1.593 2.808-3.533-3.569-1.845-3.86-1.888-4.609-.675m-83.406 4.84c-.144 2.166-1.399 2.743-5.302 2.438-.908-.071-2.21.543-2.892 1.365-1.075 1.295-.556 1.47 3.91 1.312 2.832-.101 5.446.114 5.808.476.363.363-.091.659-1.007.659-.917 0-1.667.45-1.667 1s1.784 1 3.965 1c2.941 0 4.241-.516 5.035-2 .846-1.58.76-2-.406-2-.812 0-1.754.45-2.094 1-.34.55-1.068 1-1.618 1s-.751-.403-.447-.895c.305-.493-.086-1.141-.869-1.441-.782-.3-1.612-1.81-1.844-3.355-.331-2.2-.455-2.321-.572-.559m14.85.75c0 .825.675 1.5 1.5 1.5s1.5-.675 1.5-1.5-.675-1.5-1.5-1.5-1.5.675-1.5 1.5m-65.988 1.477c-.863 1.614-.778 1.87.465 1.394.838-.322 1.523-1.212 1.523-1.978 0-1.953-.747-1.734-1.988.584m4.988.065c0 .573-.9 2.008-2 3.188-1.1 1.181-2 2.737-2 3.459 0 1.914 4.952 1.622 8.962-.529 3.427-1.838 5.169-4.16 3.121-4.16-.595 0-1.083.447-1.083.994 0 1.081-2.774.901-4.706-.305-.664-.414-.953-1.414-.643-2.221.309-.807.065-1.468-.544-1.468s-1.107.469-1.107 1.042m71-.659c0 .211.9.619 2 .907 1.1.287 2 .115 2-.384 0-.498-.9-.906-2-.906s-2 .173-2 .383m194 8.117c0 .825.675 1.5 1.5 1.5s1.5-.675 1.5-1.5-.675-1.5-1.5-1.5-1.5.675-1.5 1.5M215 168c0 .55 1.012.993 2.25.985 1.819-.013 1.963-.201.75-.985-1.939-1.253-3-1.253-3 0m285.046 1.086c.614 1.147 1.36 1.841 1.659 1.543.824-.824-.496-3.629-1.709-3.629-.739 0-.724.639.05 2.086m406.34.351c-.684 1.781.148 4.563 1.365 4.563 1.192 0 1.39-4.795.227-5.514-.546-.337-1.262.091-1.592.951m-492.822 1.856c.376.986.935 1.541 1.243 1.233.308-.307.001-1.114-.683-1.793-.988-.98-1.102-.865-.56.56M662 172c0 .55.477 1 1.059 1s.781-.45.441-1-.816-1-1.059-1-.441.45-.441 1m255.813-.317c.721.289 1.584.253 1.916-.079.332-.332-.258-.568-1.312-.525-1.165.048-1.402.285-.604.604M338 174c0 .55.45 1 1 1s1-.45 1-1-.45-1-1-1-1 .45-1 1m330 0c0 .55.45 1 1 1s1-.45 1-1-.45-1-1-1-1 .45-1 1m2 6c0 .55.45 1 1 1s1-.45 1-1-.45-1-1-1-1 .45-1 1m-590.827 1.659c.421 2.189 3.327 2.498 3.327.355 0-.818-.828-1.646-1.841-1.841-1.336-.257-1.743.15-1.486 1.486m84.577.733c-2.123 1.611-2.177 2.323-.321 4.179 1.767 1.768 2.557 1.754 4.99-.087 1.86-1.407 1.863-1.515.095-3.468-2.127-2.351-2.436-2.391-4.764-.624M432.5 182c.34.55 1.041 1 1.559 1s.941-.45.941-1-.702-1-1.559-1-1.281.45-.941 1M301 186.5c0 .825.45 1.5 1 1.5s1-.675 1-1.5-.45-1.5-1-1.5-1 .675-1 1.5m533.499-.498c-.386.624-1.287.91-2.003.635-.716-.275-2.133.13-3.149.9s-2.86 1.414-4.097 1.431c-1.237.018-2.25.454-2.25.969 0 1.162 7.267.107 8.112-1.177.336-.512 1.011-.933 1.5-.936 1.589-.008 3.888-1.657 3.23-2.316-.353-.352-.957-.13-1.343.494M331 191c0 .55.45 1 1 1s1-.45 1-1-.45-1-1-1-1 .45-1 1m10.5 1c.34.55.816 1 1.059 1s.441-.45.441-1-.477-1-1.059-1-.781.45-.441 1m10.5 1.059c0 .582.45.781 1 .441s1-.816 1-1.059-.45-.441-1-.441-1 .477-1 1.059m292 .441c0 .917.484 1.505 1.075 1.308.591-.197 1.075-.786 1.075-1.308s-.484-1.111-1.075-1.308c-.591-.197-1.075.391-1.075 1.308m286.5 1.5c-.34.55-.141 1 .441 1s1.059-.45 1.059-1-.198-1-.441-1-.719.45-1.059 1m-133.089 2.5c-.345 1.375-1.029 2.5-1.519 2.5-.491 0-.892.675-.892 1.5 0 2.172 1.522 1.848 4.566-.973 1.599-1.482 2.434-3.086 2.083-4-.918-2.392-3.545-1.789-4.238.973m-462.868-.569c-.317.512-.118 1.213.441 1.559.559.345 1.016-.074 1.016-.931 0-1.757-.6-2.015-1.457-.628m13.457.128c0 .582.45.781 1 .441s1-.816 1-1.059-.45-.441-1-.441-1 .477-1 1.059M687 198c0 .55.45 1 1 1s1-.45 1-1-.45-1-1-1-1 .45-1 1m-362 1c0 .55.675 1 1.5 1s1.5-.45 1.5-1-.675-1-1.5-1-1.5.45-1.5 1m14-.128c0 .444 1.165 1.338 2.59 1.987 1.977.901 2.497.902 2.198.006-.459-1.377-4.788-3.179-4.788-1.993m12.042.847c-1.077 1.212-1.142 1.748-.25 2.045 1.865.622 1.458 5.991-.542 7.156-2.274 1.324-.698 1.39 1.762.073 1.438-.769 2.1-.615 2.811.655 1.005 1.796 4.177 1.235 4.177-.739 0-.869-.342-.87-1.383-.006-1.071.889-1.523.785-2-.459-.982-2.558-.715-8.444.383-8.444.55 0 1-.45 1-1 0-1.604-4.363-1.078-5.958.719M403 199c0 .55.45 1 1 1s1-.45 1-1-.45-1-1-1-1 .45-1 1m543.655-.25c-.255.412.616.815 1.934.894 1.319.079 2.149-.259 1.845-.75-.671-1.086-3.139-1.18-3.779-.144m5.345.133c0 .486 1.229 1.119 2.731 1.406 2.554.488 2.607.431.809-.884-2.198-1.606-3.54-1.804-3.54-.522M430 200.5c0 .917.484 1.505 1.075 1.308.591-.197 1.075-.786 1.075-1.308s-.484-1.111-1.075-1.308c-.591-.197-1.075.391-1.075 1.308m218.543.431c-.317.512-.118 1.213.441 1.559.559.345 1.016-.074 1.016-.931 0-1.757-.6-2.015-1.457-.628m70.457.663c0 .876-.9 1.829-2 2.116-2.255.59-2.754 3.29-.607 3.29 1.694 0 2.607 2.158 2.607 6.165 0 4.411 2.393 3.021 3-1.743.418-3.282.842-3.875 2.597-3.635 1.153.158 2.671-.405 3.373-1.251 1.093-1.317.811-1.63-1.98-2.188-1.967-.393-3.448-1.383-3.74-2.5-.591-2.26-3.25-2.468-3.25-.254M910.5 201c.34.55 1.041 1 1.559 1s.941-.45.941-1-.702-1-1.559-1-1.281.45-.941 1m7.138 1.5c.317.825.978 1.5 1.469 1.5.491 0 .893-.675.893-1.5s-.661-1.5-1.469-1.5c-.894 0-1.243.586-.893 1.5m4.804-.406c-.308.498.592.906 1.999.906 3.064 0 3.312-.57.56-1.289-1.099-.288-2.251-.115-2.559.383M365 204c0 .55.45 1 1 1s1-.45 1-1-.45-1-1-1-1 .45-1 1m428.733.124c.679.684 1.486.991 1.793.683.308-.308-.247-.867-1.233-1.243-1.425-.542-1.54-.428-.56.56m-8.92.559c.721.289 1.584.253 1.916-.079.332-.332-.258-.568-1.312-.525-1.165.048-1.402.285-.604.604m111.8 2.752c.332.863 1.763 1.565 3.194 1.565 2.895 0 2.028-1.372-1.551-2.453-1.772-.535-2.117-.349-1.643.888m-551.106 1.554c-.35.566.051.734.941.393 1.732-.665 2.049-1.382.611-1.382-.518 0-1.216.445-1.552.989M881 209c0 .55.45 1 1 1s1-.45 1-1-.45-1-1-1-1 .45-1 1m80.306 1.645c-.387 1.009.091 2.172 1.236 3.009 1.584 1.159 2.084 1.149 3.299-.067.788-.787 1.16-2.142.827-3.009-.797-2.077-4.557-2.03-5.362.067M889 211c1.958 1.266 3.282 1.266 2.5 0-.34-.55-1.379-.993-2.309-.985-1.457.014-1.484.15-.191.985m-543.154 1.282c-.909.67-2.597 1.88-3.75 2.689-2.618 1.837-2.685 2.949-.165 2.759 1.062-.08 1.71-.502 1.441-.938-.27-.435.099-.796.819-.8.72-.004 1.829-1.129 2.465-2.5.636-1.371 1.086-2.478 1-2.46-.086.017-.9.58-1.81 1.25M366.5 212c-.34.55-.141 1 .441 1s1.059-.45 1.059-1-.198-1-.441-1-.719.45-1.059 1m11.5.5c0 .833.889 1.5 2 1.5s2-.667 2-1.5-.889-1.5-2-1.5-2 .667-2 1.5m258.682-.113c-.374.973.042 1.236 1.393.883 2.214-.579 2.61-2.27.532-2.27-.766 0-1.632.624-1.925 1.387m-288.81 1.363c-1.243 1.586-1.208 1.621.378.378 1.666-1.307 2.195-2.128 1.372-2.128-.207 0-.995.787-1.75 1.75m275.322 3c-.948 2.486-1 4.256-.339 11.5.418 4.571 2.158-.909 2.44-7.681.292-7.011-.403-8.273-2.101-3.819M520.5 218c-.34.55-.141 1 .441 1s1.059-.45 1.059-1-.198-1-.441-1-.719.45-1.059 1m201.5 1c-.825.533-1.05.969-.5.969s1.675-.436 2.5-.969c.825-.533 1.05-.969.5-.969s-1.675.436-2.5.969m-392.037 1c-1.168 5.8-.249 7.429 2.591 4.589.775-.776 1.981-1.614 2.678-1.863.697-.249.923-.821.501-1.272-.421-.452-1.283-.304-1.915.328-.865.865-1.47.725-2.451-.567-.717-.943-1.349-1.49-1.404-1.215m299.704.667c-.367.366-.667 1.661-.667 2.878 0 1.216-.681 3.841-1.513 5.833-.885 2.118-1.093 3.622-.5 3.622.557 0 1.013-.477 1.013-1.059s.398-.813.884-.513c1.277.79 3.127-4.444 2.726-7.711-.384-3.127-.961-4.032-1.943-3.05M497 223c0 .55.477 1 1.059 1s.781-.45.441-1-.816-1-1.059-1-.441.45-.441 1m214.57.886c-1.132 1.832.569 3.034 2.93 2.071 1.583-.646 1.653-.831.333-.887-.916-.038-1.846-.61-2.067-1.271-.3-.902-.597-.881-1.196.087m-266.027 1.045c-.683 1.105.894 2.299 1.818 1.375.95-.951.773-2.306-.302-2.306-.518 0-1.2.419-1.516.931m-133.464 1.652c.048 1.165.285 1.402.604.605.289-.722.253-1.585-.079-1.917-.332-.332-.568.258-.525 1.312M896 227c0 .55.45 1 1 1s1-.45 1-1-.45-1-1-1-1 .45-1 1m-192.493.989c-.35.566.051.734.941.393 1.732-.665 2.049-1.382.611-1.382-.518 0-1.216.445-1.552.989m14.306.694c.721.289 1.584.253 1.916-.079.332-.332-.258-.568-1.312-.525-1.165.048-1.402.285-.604.604m37.434 2.675c-.644 1.413-2.261 2.595-4.034 2.949-1.628.326-3.237 1.313-3.575 2.195-.338.881-.278 1.394.133 1.139 1.45-.896 7.046 2.207 7.701 4.271.93 2.929 3.039 2.606 7.577-1.162 4.685-3.889 4.883-5.217 1.072-7.187-1.583-.819-3.144-2.181-3.468-3.026-.897-2.336-4.196-1.835-5.406.821m-55.757 1.658c-.346.559-1.042.761-1.548.448-.505-.312-.651.13-.324.984.824 2.146 2.047 1.941 2.672-.448.566-2.164.204-2.609-.8-.984M702 233c0 .55.477 1 1.059 1s.781-.45.441-1-.816-1-1.059-1-.441.45-.441 1m-304.417.866c-.431.697-.513 1.537-.183 1.867.895.895 1.871-.421 1.387-1.871-.338-1.016-.574-1.016-1.204.004M636 235.906c0 .499.9.671 2 .384 1.1-.288 2-.696 2-.907 0-.21-.9-.383-2-.383s-2 .408-2 .906M392 237c0 .55.45 1 1 1s1-.45 1-1-.45-1-1-1-1 .45-1 1m71.583 3.866c-.431.697-.513 1.537-.183 1.867.895.895 1.871-.421 1.387-1.871-.338-1.016-.574-1.016-1.204.004m209.448 6.384c-.497 1.238-.933 1.688-.968 1-.034-.687-.851-1.214-1.813-1.171-1.056.048-1.252.28-.494.585.691.279 1.034.867.761 1.308-.272.441.089 1.286.803 1.878.963.8 1.731.571 2.979-.886.925-1.08 1.209-1.964.632-1.964-.577 0-.766-.457-.421-1.016.346-.559 1.047-.758 1.559-.441.512.316.931.098.931-.484 0-1.985-3.061-1.066-3.969 1.191m-13.393.25c-.316.825-.139 1.5.393 1.5.533 0 .969-.675.969-1.5s-.177-1.5-.393-1.5c-.216 0-.652.675-.969 1.5m-219.041 2.344c-.346.56-.142 1.319.453 1.687 1.538.95 2.53-.351 1.246-1.635-.718-.718-1.277-.735-1.699-.052M446.5 264c.34.55 1.041 1 1.559 1s.941-.45.941-1-.702-1-1.559-1-1.281.45-.941 1m533.5 6c0 .55.45 1 1 1s1-.45 1-1-.45-1-1-1-1 .45-1 1m-636 1c0 .55.45 1 1 1s1-.45 1-1-.45-1-1-1-1 .45-1 1m-132.5 1c.34.55.816 1 1.059 1s.441-.45.441-1-.477-1-1.059-1-.781.45-.441 1m259.667 1.623c-1.047 1.155-1.075 1.783-.128 2.924.663.799 1.553 1.453 1.976 1.453 1.483 0 2.047-3.366.772-4.601-1.029-.997-1.554-.952-2.62.224M421 276c0 .55.45 1 1 1s1-.45 1-1-.45-1-1-1-1 .45-1 1m211.688.646c-1.374 1.374-.662 3.496 1.062 3.164.962-.186 1.75-.969 1.75-1.74 0-1.579-1.764-2.472-2.812-1.424M863.5 279c-.837 1.354.292 3 2.059 3 .793 0 1.441-.9 1.441-2 0-2.07-2.413-2.76-3.5-1m75.125 12.798c-.791 1.279 1.043 3.525 2.263 2.771 1.606-.992 1.368-3.569-.329-3.569-.793 0-1.663.359-1.934.798M605 294c0 .55.45 1 1 1s1-.45 1-1-.45-1-1-1-1 .45-1 1m45 1c0 .55.477 1 1.059 1s.781-.45.441-1-.816-1-1.059-1-.441.45-.441 1m126 9c0 .55.45 1 1 1s1-.45 1-1-.45-1-1-1-1 .45-1 1m-102 1.441c0 .857.45 1.559 1 1.559s1-.423 1-.941-.45-1.219-1-1.559c-.55-.34-1 .084-1 .941m161.38 14.011c-.775 2.021.378 3.548 2.679 3.548 2.035 0 2.343-.789 1.334-3.418-.761-1.982-3.271-2.063-4.013-.13M595 325c0 .55.45 1 1 1s1-.45 1-1-.45-1-1-1-1 .45-1 1m-20.541 8.724c-.426.977-.717 2.451-.646 3.276.078.902-.085 1.024-.407.306-.794-1.77-3.406-.389-3.406 1.801 0 1.041-.477 1.893-1.059 1.893s-.781.45-.441 1 .164 1-.39 1c-1.603 0-6.805 6.028-8.793 10.188-.999 2.093-2.337 3.612-2.971 3.376-.711-.263-1.053.496-.891 1.976.269 2.452-1.533 4.651-4.75 5.794-.987.351-2.413 2.116-3.168 3.922-.754 1.807-2.298 4.123-3.431 5.148-1.132 1.025-1.818 2.253-1.523 2.73.294.476-.151.866-.989.866s-1.987.865-2.552 1.922c-.566 1.057-1.623 2.52-2.35 3.25-3.039 3.056-11.692 17.279-11.692 19.22 0 .64-.9 1.934-2 2.876s-2 2.637-2 3.766c0 1.383-.556 1.958-1.703 1.76-1.133-.196-2.539 1.211-4.205 4.206-1.376 2.475-3.242 5.3-4.147 6.278-.905.977-2.175 3.546-2.823 5.708-.838 2.797-1.601 3.767-2.65 3.365-1.479-.568-1.877.493-1.506 4.008.118 1.11-.239 1.59-.885 1.191-.605-.374-1.081.045-1.081.95 0 .89.45 1.34 1 1 .55-.34 1 .309 1 1.441 0 1.132.45 2.059 1 2.059s1-.626 1-1.392c0-.765 1.137-1.677 2.526-2.025 1.39-.349 3.977-2.141 5.75-3.982 1.773-1.841 4.237-3.871 5.474-4.51 1.237-.639 2.25-1.821 2.25-2.626 0-.806.337-1.412.75-1.347 2.193.347 3.057-.405 3.602-3.13.332-1.656 2.061-4.436 3.843-6.179 1.782-1.742 3.343-3.866 3.468-4.72.126-.854.721-1.717 1.324-1.918.768-.256.733-.803-.115-1.825-.699-.842-.767-1.329-.162-1.152 1.075.314 6.29-4.698 6.29-6.045 0-.411 1.575-1.317 3.5-2.013 2.358-.853 3.5-1.897 3.5-3.201 0-2.139 2.54-2.661 3.338-.685.277.688.575.125.662-1.25.087-1.375.385-1.937.662-1.25.944 2.338 3.086 1.261 3.711-1.867.492-2.458 1.031-3.011 2.551-2.613 1.454.38 1.786.102 1.354-1.133-.393-1.122.116-.928 1.613.613 2.378 2.447 3.653 2.796 4.602 1.261.336-.543-.015-.748-.781-.454-.765.294-1.94-.127-2.611-.935-.977-1.178-.806-2.28.86-5.546 1.144-2.242 2.521-4.076 3.059-4.076.539 0 .98-1.3.98-2.889 0-2.514.458-2.974 3.528-3.55 1.94-.364 3.289-1.049 2.997-1.521-.715-1.156.489-4.149 1.434-3.565.412.254 1.019-3.031 1.348-7.302.329-4.27.923-8.609 1.32-9.642.559-1.457.361-1.741-.88-1.264-2.019.775-3.982-1.49-3.157-3.64.73-1.905 1.587-2.05 3.111-.526.801.801 1.3.472 1.832-1.206.455-1.434.304-2.449-.4-2.684-.623-.208-1.133-1.185-1.133-2.172 0-.987-.622-2.311-1.383-2.942-1.077-.893-1.555-.754-2.158.627m25.932 3.452c-.339.549-.089 1.522.555 2.161.895.887.996.689.426-.837-.648-1.737-.536-1.829.852-.701 1.074.873 1.81.954 2.246.25.356-.577.509-1.083.339-1.126-2.599-.643-3.91-.568-4.418.253M784 337c0 .55.45 1 1 1s1-.45 1-1-.45-1-1-1-1 .45-1 1m-177 6c0 .55.45 1 1 1s1-.45 1-1-.45-1-1-1-1 .45-1 1m-124.5 2c-.34.55-.141 1 .441 1s1.059-.45 1.059-1-.198-1-.441-1-.719.45-1.059 1m-39.5 2c0 .55.675 1 1.5 1s1.5-.45 1.5-1-.675-1-1.5-1-1.5.45-1.5 1m167 1.893c0 .491.652 1.143 1.449 1.449.969.372 1.265.076.893-.893-.607-1.582-2.342-1.994-2.342-.556m-149.376 7.645c-.385 1.003.188 1.831 1.643 2.377 1.654.621 2.323.448 2.581-.668.192-.829-.258-1.892-1-2.362-1.924-1.219-2.555-1.092-3.224.653M570.5 372c.34.55.816 1 1.059 1s.441-.45.441-1-.477-1-1.059-1-.781.45-.441 1m-163.984 9.975c-.302.488-.009 1.221.651 1.628.841.52.621.987-.733 1.561-1.674.709-1.692.787-.131.578.991-.133 1.74-.642 1.664-1.13-.076-.489.388-1.214 1.031-1.611.83-.513.719-.896-.382-1.318-.854-.328-1.799-.196-2.1.292M426.5 386c.34.55 1.068 1 1.618 1s.722-.45.382-1c-.34-.55-1.068-1-1.618-1s-.722.45-.382 1m-51.5 2.894c0 .492 1.082.83 2.404.75 1.322-.079 2.196-.481 1.941-.894-.654-1.059-4.345-.936-4.345.144m35.5.106c.34.55 1.379.993 2.309.985 1.457-.014 1.484-.15.191-.985-1.958-1.266-3.282-1.266-2.5 0m5.5 0c0 .55.477 1 1.059 1s.781-.45.441-1-.816-1-1.059-1-.441.45-.441 1m-72.75 4.707c-.687 1.481-1.25 3.291-1.25 4.024 0 .732-.672 1.59-1.494 1.905-1.875.72-.96 2.369 1.303 2.349 1.469-.014 1.494-.155.191-1.079-1.188-.842-.97-.979 1.051-.661 2.341.369 2.514.149 2.1-2.668-.398-2.711-.265-2.916 1.135-1.754 1.275 1.058 2.04 1.073 3.9.077 1.273-.681 2.427-1.162 2.564-1.069.137.093.587.162 1 .154.413-.009.075-.448-.75-.977-.825-.53-2.224-.737-3.109-.463-.885.275-2.177-.185-2.872-1.022-1.745-2.103-2.327-1.92-3.769 1.184m27.355-.537c.483.782.182.962-.909.544-.898-.345-1.873-.237-2.167.239-.729 1.179.453 4.047 1.668 4.047 1.187 0 4.729-4.098 4.754-5.5.01-.55-.418-.325-.951.5-.646 1-.974 1.083-.985.25-.008-.687-.492-1.25-1.074-1.25-.582 0-.734.526-.336 1.17M369 396.059c0 .582.45.781 1 .441s1-.816 1-1.059-.45-.441-1-.441-1 .477-1 1.059m-25.921 1.524c.048 1.165.285 1.402.604.605.289-.722.253-1.585-.079-1.917-.332-.332-.568.258-.525 1.312m14.537-.77c-.659 1.066 1.873 4.187 3.398 4.187.479 0 .686-.961.46-2.135-.498-2.586-1.468-3.747-1.489-1.782-.013 1.176-.162 1.187-.875.06-.547-.862-1.091-.982-1.494-.33M383 399.11c-1.266.91-1.227.991.25.516.962-.31 1.75-.127 1.75.405 0 .533.477.969 1.059.969s.802-.416.488-.924c-.314-.509.222-1.131 1.191-1.384 1.2-.313.964-.492-.738-.561-1.375-.055-3.175.385-4 .979M582.5 406c-.34.55-.141 1 .441 1s1.059-.45 1.059-1-.198-1-.441-1-.719.45-1.059 1m6.854 4.48c.355.926.646 1.872.646 2.102 0 .23.708.418 1.573.418 2.225 0 1.359-3.389-.98-3.84-1.419-.273-1.725.054-1.239 1.32M565 413.441c0 .857.45 1.559 1 1.559s1-.423 1-.941-.45-1.219-1-1.559c-.55-.34-1 .084-1 .941m290.638 2.059c-.656 1.711.188 4.5 1.362 4.5.432 0 1.045-.675 1.362-1.5.656-1.711-.188-4.5-1.362-4.5-.432 0-1.045.675-1.362 1.5m-271.446 4.575c.197.591.785 1.075 1.308 1.075s1.111-.484 1.308-1.075c.197-.591-.391-1.075-1.308-1.075s-1.505.484-1.308 1.075m10.338.876c-.863 1.397.237 3.049 2.029 3.049 1.836 0 1.851-1.415.03-2.926-.965-.801-1.616-.839-2.059-.123M587 433.583c0 1.766 2.153 1.459 2.771-.395.218-.654-.317-1.188-1.188-1.188s-1.583.712-1.583 1.583M545 434c0 .55.477 1 1.059 1s.781-.45.441-1-.816-1-1.059-1-.441.45-.441 1m45.708 10.625c-.78.78.295 3.375 1.399 3.375 1.143 0 1.168-2.712.032-3.414-.473-.292-1.117-.275-1.431.039m6.292 1.816c0 2.395 1.595 4.298 2.687 3.206.851-.852-.597-5.647-1.706-5.647-.54 0-.981 1.098-.981 2.441m5.5.559c-.34.55-.141 1 .441 1s1.059-.45 1.059-1-.198-1-.441-1-.719.45-1.059 1m-19.485 5.68c.009 1.551.467 3.495 1.019 4.32.867 1.295 1.211 1.228 2.523-.493 2.105-2.763 1.45-5.935-1.307-6.327-1.88-.267-2.247.145-2.235 2.5m21.652 6.987C603.29 461.043 604.073 463 606 463c2.202 0 2.273-.124 1.393-2.418-.644-1.679-1.631-2.01-2.726-.915M596 465.893c0 1.104 2.595 2.179 3.375 1.399.314-.314.331-.958.039-1.431-.702-1.136-3.414-1.111-3.414.032m13.54 9.981c-.782 2.464.007 4.126 1.96 4.126 2.436 0 2.804-2.14.726-4.218l-2.017-2.017-.669 2.109M598 486.819c0 3.125 2.225 5.778 3.953 4.71.69-.426.538-1.612-.45-3.522-2.149-4.157-3.503-4.616-3.503-1.188m4.406-.667c-.391.633.032 1.695.941 2.36.909.665 1.653 1.92 1.653 2.789 0 1.744 1.787 3.245 2.735 2.298.331-.331.116-1.614-.476-2.851-.593-1.236-1.329-3.036-1.637-3.998-.64-2.003-2.172-2.288-3.216-.598m4.594 2.289c0 1.501 1.795 3.097 2.59 2.302.698-.697-.683-3.743-1.697-3.743-.491 0-.893.648-.893 1.441M96.5 490c-.787 1.273 1.53 1.273 3.5 0 1.219-.788 1.09-.972-.691-.985-1.205-.008-2.469.435-2.809.985m24.75.718c-1.718.616-1.578 2.282.191 2.282 1.656 0 2.967-1.649 1.825-2.296-.421-.239-1.328-.232-2.016.014m493.506.859c-1.012 1.013.342 3.423 1.924 3.423.832 0 1.327-.722 1.143-1.667-.347-1.79-2.055-2.768-3.067-1.756m-2.283 10.467c-.694 1.122 1.204 3.956 2.649 3.956.483 0 .878-1.125.878-2.5 0-2.539-2.277-3.479-3.527-1.456m8.531 4.206c.002.688.902 2.723 2 4.524 1.098 1.801 1.996 3.938 1.996 4.75 0 .812.45 1.476 1 1.476s1 .675 1 1.5c0 2.678 1.495 1.581 1.658-1.216.091-1.573-.826-3.884-2.181-5.494-1.286-1.529-2.625-3.682-2.975-4.785-.699-2.201-2.504-2.747-2.498-.755M623.5 521c-.78 1.262 2.151 8 3.48 8 1.812 0 2.361-2.994 1.012-5.514-1.42-2.655-3.631-3.879-4.492-2.486m289.829 3.584c-.397 1.035-.842 1.204-1.284.488-.921-1.49-7.064-.187-7.768 1.648-.952 2.481 2.18 4.647 5.388 3.726 1.559-.448 4.506-.694 6.547-.548 2.042.147 4.16-.01 4.707-.348 1.515-.936.103-3.55-1.919-3.55-.982 0-2.045-.675-2.362-1.5-.753-1.963-2.54-1.918-3.309.084m-12.775 2.329c-.37.598-1.545 1.087-2.613 1.087-1.274 0-1.941.687-1.941 2 0 1.41.667 2 2.259 2 2.622 0 5.429-3.712 3.936-5.205-.626-.626-1.207-.584-1.641.118m-269.887 1.754c-.916.915-.811 2.557.272 4.269 1.485 2.346 4.341-.544 3.005-3.041-1.053-1.967-2.133-2.372-3.277-1.228M668 557c0 1.1.45 2 1 2s1-.9 1-2-.45-2-1-2-1 .9-1 2m10 11.5c0 1.925.45 3.5 1 3.5s1-1.575 1-3.5-.45-3.5-1-3.5-1 1.575-1 3.5m-297.436-.793c-.542 1.425-.428 1.54.56.56.684-.679.991-1.486.683-1.793-.308-.308-.867.247-1.243 1.233M441.5 572c.34.55 1.068 1 1.618 1s.722-.45.382-1c-.34-.55-1.068-1-1.618-1s-.722.45-.382 1m200.5.845c0 .465.891 1.651 1.979 2.636 1.769 1.601 2.044 1.623 2.589.203.335-.874.318-2.06-.038-2.636-.771-1.248-4.53-1.416-4.53-.203m-209.921 12.738c.048 1.165.285 1.402.604.605.289-.722.253-1.585-.079-1.917-.332-.332-.568.258-.525 1.312m244.505-.72c-.818 1.324 1.107 6.137 2.455 6.137 1.448 0 .802-6.234-.697-6.726-.637-.209-1.428.056-1.758.589m-24.801 3.161c-.372 2.536-.057 3.12 1.96 3.626 3.373.847 4.626-.746 3.144-3.998-1.676-3.679-4.54-3.47-5.104.372M153 588c0 .55.675 1 1.5 1s1.5-.45 1.5-1-.675-1-1.5-1-1.5.45-1.5 1m5.417 9.134c-.294.476-.058.866.524.866.582 0 1.059.675 1.059 1.5s.477 1.5 1.059 1.5.798-.422.479-.939c-.319-.516.161-1.353 1.066-1.859 1.379-.772 1.217-1.003-1.003-1.427-1.457-.279-2.89-.117-3.184.359m211.662 4.449c.048 1.165.285 1.402.604.605.289-.722.253-1.585-.079-1.917-.332-.332-.568.258-.525 1.312m447.524 4.965c-1.044.763-2.281 1.151-2.75.861-.469-.29-.853-.05-.853.532 0 .582.45 1.059 1 1.059s1 .9 1 2c0 1.333.667 2 2 2 1.1 0 2 .45 2 1 0 2.007 1.87.935 2.18-1.25.204-1.432.915-2.153 1.956-1.982.9.147 1.879-.365 2.175-1.137.373-.971-.019-1.259-1.267-.932-1.017.266-2.624-.405-3.675-1.533-1.638-1.758-2.103-1.834-3.766-.618m-770.156 5.367c.311.503 0 1.121-.691 1.375-.903.33-.953.784-.179 1.612.797.853 1.377.495 2.229-1.375.959-2.106.895-2.527-.386-2.527-.846 0-1.284.412-.973.915M809 613c-1.169.755-.893.973 1.25.985 1.513.008 2.75-.435 2.75-.985 0-1.264-2.043-1.264-4 0M6.624 615.539c-.965 2.514-.681 3.163.498 1.136.584-1.004.851-2.036.593-2.293-.257-.258-.749.263-1.091 1.157M224.5 615c-.34.55-.141 1 .441 1s1.059-.45 1.059-1-.198-1-.441-1-.719.45-1.059 1m-51.5 4c0 .55.675 1 1.5 1s1.5-.45 1.5-1-.675-1-1.5-1-1.5.45-1.5 1m-1.677 4.601c-.338.88.014 1.999.781 2.485 1.723 1.09 2.872 1.154 2.973.164.042-.413.227-1.538.411-2.5.434-2.266-3.301-2.4-4.165-.149m167.392.381c-.35 1.337-.932 2.134-1.294 1.772-1.198-1.198-3.421 2.053-3.421 5.001 0 2.703.219 2.866 3.25 2.414 1.788-.267 2.74-.659 2.116-.872-.801-.273-.864-1.586-.213-4.482.996-4.431.607-7.83-.438-3.833m76.941 4.563c.304.794.956 1.195 1.449.89 1.24-.766 1.126-1.132-.554-1.777-.967-.371-1.265-.076-.895.887M972 627.787c0 .433.9.855 2 .938 1.1.083 2-.271 2-.787s-.9-.938-2-.938-2 .354-2 .787M419 629c0 .55.45 1 1 1s1-.45 1-1-.45-1-1-1-1 .45-1 1m13 1.531c0 .808-.858 1.469-1.906 1.469-1.414 0-1.772.517-1.384 2 .528 2.017 3.29 2.857 3.29 1 0-.55.647-1 1.438-1 1.773 0 1.647-3.753-.149-4.443-.709-.272-1.289.167-1.289.974M962 634c0 .55.423 1 .941 1s1.219-.45 1.559-1c.34-.55-.084-1-.941-1s-1.559.45-1.559 1m-716.125 2.5c-.069.275-.181 1.063-.25 1.75-.069.688-1.363 1.392-2.875 1.566-1.512.174-2.75.812-2.75 1.417s-.293.807-.651.449c-.358-.358-1.25.13-1.981 1.084-1.139 1.485-1.467 1.525-2.283.282-.524-.799-.731-1.811-.46-2.25.271-.439-.165-.798-.968-.798-.804 0-1.955 1.417-2.559 3.149-1.468 4.212-1.393 4.851.573 4.851.919 0 2.524.772 3.567 1.715 1.043.944 3.29 1.731 4.995 1.75 1.704.019 3.287.598 3.516 1.285.386 1.155-4.544 1.865-9.939 1.431-.929-.075-1.972.754-2.317 1.841-.437 1.378-1.517 1.978-3.56 1.978-1.94 0-2.933.508-2.933 1.5 0 1 1 1.5 3 1.5s3 .5 3 1.5c0 1.474-1.141 1.927-3.886 1.543-.966-.134-1.161.36-.646 1.632.407 1.004 1.094 3 1.526 4.436 1.272 4.223 3.036 6.988 4.056 6.358 1.245-.769 1.227-4.208-.024-4.636-1.479-.505-.001-4.833 1.65-4.833.793 0 1.193-.403.889-.895-.634-1.025 1.689-2.105 4.525-2.105 1.06 0 3.287 1.212 4.95 2.693 2.512 2.238 2.764 2.837 1.495 3.548-1.304.729-1.176 1.234.881 3.452 1.986 2.142 3.017 2.498 5.878 2.034 1.966-.319 3.948-.085 4.571.538.606.606 1.375.828 1.71.494.937-.938-.596-4.864-1.647-4.215-.51.316-.928-.75-.928-2.368 0-2.165-.595-3.139-2.25-3.686l-2.25-.744 2.25-.443c1.403-.276 2.25-1.168 2.25-2.373 0-1.584-.761-1.952-4.25-2.055-4.221-.124-4.214-.13 1.131-.906 6.52-.948 14.007-2.978 14.616-3.964.245-.397-1.147-1.572-3.094-2.613-3.046-1.628-3.464-2.276-2.997-4.642.448-2.267.192-2.75-1.462-2.75-1.104 0-2.266-.675-2.582-1.5-.317-.825-1.203-1.5-1.969-1.5s-1.393-.502-1.393-1.117c0-.669-1.064-.913-2.658-.608-3.138.6-5.227-.997-4.574-3.495.256-.979.188-1.78-.151-1.78-.34 0-.673.225-.742.5M440 638.441c0 .857.45 1.559 1 1.559s1-.423 1-.941-.45-1.219-1-1.559c-.55-.34-1 .084-1 .941m12.574-.561c-.337.545.563 2.166 1.999 3.602 2.068 2.068 2.903 2.368 4.019 1.442 1.999-1.66 1.743-2.924-.592-2.924-1.1 0-1.887-.536-1.75-1.191.312-1.483-2.841-2.28-3.676-.929M474 639c0 .55.45 1 1 1s1-.45 1-1-.45-1-1-1-1 .45-1 1m8.813.683c.721.289 1.584.253 1.916-.079.332-.332-.258-.568-1.312-.525-1.165.048-1.402.285-.604.604m-255 1c.721.289 1.584.253 1.916-.079.332-.332-.258-.568-1.312-.525-1.165.048-1.402.285-.604.604M408 643.107c0 2.229.39 2.958 1.378 2.578.758-.291 1.883-.024 2.5.593 1.521 1.521 3.396-.401 2.548-2.611-.695-1.811-2.426-2.287-2.426-.667 0 .55-.727 1-1.617 1-1.124 0-1.457-.609-1.093-2 .287-1.1.115-2-.384-2-.498 0-.906 1.398-.906 3.107m138.638-1.607c.317.825.978 1.5 1.469 1.5.491 0 .893-.675.893-1.5s-.661-1.5-1.469-1.5c-.894 0-1.243.586-.893 1.5m-129.238 3c0 2.057.495 3.5 1.201 3.5.725 0 1.162-1.388 1.102-3.5-.055-1.925-.595-3.5-1.201-3.5-.606 0-1.102 1.575-1.102 3.5m5.1-2.5c-.34.55-.141 1 .441 1s1.059-.45 1.059-1-.198-1-.441-1-.719.45-1.059 1m517.5-.617c0 .211 1.125.599 2.5.862s2.5.09 2.5-.384c0-.473-1.125-.861-2.5-.861s-2.5.173-2.5.383M467 643.5c0 .825.177 1.5.393 1.5.216 0 .652-.675.969-1.5.316-.825.139-1.5-.393-1.5-.533 0-.969.675-.969 1.5m21.598-.764c-.329.328-.598 1.68-.598 3.004 0 3.069 3.357 2.74 3.803-.373.29-2.025-1.962-3.875-3.205-2.631m46.871.314c-.95 1.538.351 2.53 1.635 1.246.718-.718.735-1.277.052-1.699-.56-.346-1.319-.142-1.687.453m-112.39 2.7c-.059 1.686.485 2.253 2.171 2.264 1.238.007 3.262.285 4.5.616 1.654.444 2.25.175 2.25-1.013 0-1.214-.976-1.617-3.917-1.617-2.197 0-4.138-.549-4.421-1.25-.277-.687-.54-.237-.583 1m518.941 2.774c.696.838 1.471 1.318 1.723 1.067.693-.694-.716-2.591-1.924-2.591-.664 0-.588.574.201 1.524m-695.604.726c.321.688.86 2.038 1.2 3 .339.962 1.015 1.75 1.501 1.75 1.389 0 1.032-2.994-.546-4.571-1.762-1.762-2.939-1.86-2.155-.179m89.663.333c.048 1.165.285 1.402.604.605.289-.722.253-1.585-.079-1.917-.332-.332-.568.258-.525 1.312m73.417-.576c-.343.554.1 1.285.984 1.624 1.914.734 2.981-.075 2.061-1.564-.83-1.344-2.235-1.371-3.045-.06m106.504.339c0 .978-.558 1.377-1.448 1.035-.797-.305-2.457.384-3.689 1.532-1.869 1.741-1.96 2.087-.552 2.087.929 0 1.696.563 1.704 1.25.011.836.342.753 1-.25.876-1.333 1.094-1.333 1.97 0 .82 1.249.992 1.166 1.031-.5.042-1.779.182-1.824 1.266-.406.67.876 2.957 1.919 5.082 2.316 3.155.591 4.202.36 5.711-1.26 1.156-1.241 2.61-1.784 3.886-1.45 1.578.413 2.039.054 2.039-1.583 0-1.572-.622-2.117-2.417-2.117-1.329 0-2.62-.562-2.869-1.25-.361-.996-.89-.992-2.606.023-1.666.984-2.648 1.008-4.333.106-1.668-.892-2.272-.888-2.574.019-.301.903-.729.908-1.798.021-1.104-.916-1.403-.825-1.403.427M414.5 650c-.34.55-.141 1 .441 1s1.059-.45 1.059-1-.198-1-.441-1-.719.45-1.059 1m-116.75 1.706c1.238.238 3.262.238 4.5 0 1.238-.239.225-.434-2.25-.434s-3.488.195-2.25.434m207.5.956c-1.96.791-1.463 2.338.75 2.338 1.111 0 2-.667 2-1.5 0-1.541-.574-1.716-2.75-.838m-291.18 2.656c.066 2.028.124 2.046.825.255.676-1.724.823-1.75 1.399-.25.354.922 1.134 1.677 1.734 1.677.599 0 .812-.45.472-1-.34-.55-.066-1 .608-1 2.148 0-.005-1.32-2.606-1.597-2.003-.213-2.488.168-2.432 1.915M403 655c0 .55.702 1 1.559 1s1.281-.45.941-1c-.34-.55-1.041-1-1.559-1s-.941.45-.941 1m59.5 0c-.34.55-.141 1 .441 1s1.059-.45 1.059-1-.198-1-.441-1-.719.45-1.059 1m261.5 0c0 .55.45 1 1 1s1-.45 1-1-.45-1-1-1-1 .45-1 1m-501.924 1.727a90.828 90.828 0 011.641 2.19c.156.229.283-.286.283-1.143 0-.858-.739-1.843-1.641-2.19-1.429-.548-1.466-.4-.283 1.143M360.71 657c-.287 1.1-.115 2 .384 2 .498 0 .906-.9.906-2s-.173-2-.383-2c-.211 0-.619.9-.907 2m190.04-1.338c.688.278 1.813.278 2.5 0 .688-.277.125-.504-1.25-.504s-1.937.227-1.25.504M728 657.5c0 .825.45 1.5 1 1.5s1-.675 1-1.5-.45-1.5-1-1.5-1 .675-1 1.5M3.272 663c0 2.475.195 3.487.434 2.25.238-1.237.238-3.263 0-4.5-.239-1.237-.434-.225-.434 2.25m441.841-2.636c-.894 1.077-.913 1.641-.074 2.16 1.55.958 3.065-.738 2.081-2.33-.637-1.031-1.038-.997-2.007.17M1.232 664c0 1.925.206 2.712.457 1.75.252-.962.252-2.538 0-3.5-.251-.962-.457-.175-.457 1.75m501.406 1.5c.317.825.753 1.5.969 1.5.216 0 .393-.675.393-1.5s-.436-1.5-.969-1.5c-.532 0-.709.675-.393 1.5m229.612-.25c.63 1.892 3.75 2.161 3.75.323 0-.927-.855-1.573-2.083-1.573-1.222 0-1.912.517-1.667 1.25m-542.25.491c0 .628.45 1.419 1 1.759.55.34 1 2.421 1 4.625 0 2.203.492 4.925 1.093 6.048.79 1.477.79 2.344 0 3.134-.601.601-1.093 1.733-1.093 2.515 0 1.108.31 1.165 1.404.257 1.17-.971 1.349-.56 1.068 2.459-.262 2.819-.019 3.502 1.096 3.074.787-.302 1.432-.065 1.432.526 0 .592.675.817 1.5.5.825-.316 1.5-.189 1.5.282 0 .678 3.704 1.836 8 2.502 1.382.215 11.194 9.6 12.651 12.102 1.051 1.805 1.211 1.828 1.843.261.429-1.061-.129-2.867-1.464-4.743-1.186-1.665-1.833-3.551-1.439-4.19.469-.758.279-.89-.548-.378-.738.456-1.631.207-2.139-.596-.505-.797-.88-.902-.889-.25-.008.62.66 1.687 1.485 2.372.825.685 1.5 1.68 1.5 2.211 0 .532-1.385-.198-3.077-1.622-1.692-1.424-3.492-2.589-4-2.589s-.923-.9-.923-2c0-2.26 1.036-2.564 2.783-.817.651.651 1.488.879 1.861.506.887-.887-2.573-4.689-4.268-4.689-.722 0-1.087-.589-.811-1.308.782-2.039-2.973-5.884-4.376-4.481-.851.851-1.036.335-.735-2.048.358-2.829-.035-3.436-3.518-5.424-2.156-1.232-3.924-2.603-3.928-3.048-.005-.445.555-.491 1.242-.103.934.527.924.355-.042-.683-1.1-1.182-1.445-1.167-2.331.103-.786 1.129-.893.823-.439-1.258.377-1.727.181-2.75-.526-2.75-.619 0-.867-.675-.55-1.5.356-.93-.005-1.5-.952-1.5-.841 0-1.25.45-.91 1 .865 1.4-.849 1.251-2.3-.2-.864-.864-1.2-.881-1.2-.059M556 667c0 .55.675 1 1.5 1s1.5-.45 1.5-1-.675-1-1.5-1-1.5.45-1.5 1m-292 4.441c0 3.541 1.214 4.639 2.618 2.368.405-.655.232-1.359-.385-1.565-.616-.205-.89-.974-.609-1.707.282-.734.032-1.632-.556-1.995-.681-.421-1.068.63-1.068 2.899m304.18-1.293c.345 2.314 3.288 4.717 4.407 3.598.861-.86-2.269-5.746-3.68-5.746-.575 0-.902.967-.727 2.148M987 672c0 .55.45 1 1 1s1-.45 1-1-.45-1-1-1-1 .45-1 1m-703.5 1c.34.55.816 1 1.059 1s.441-.45.441-1-.477-1-1.059-1-.781.45-.441 1m232 0c.34.55.816 1 1.059 1s.441-.45.441-1-.477-1-1.059-1-.781.45-.441 1m418.5 1c0 .55.45 1 1 1s1-.45 1-1-.45-1-1-1-1 .45-1 1m7.5 1.378c-1.881 1.391-1.894 1.52-.207 2.174 2.16.837 3.001.169 2.545-2.024-.301-1.452-.554-1.468-2.338-.15M704 677.864c0 2.358.086 2.401 1.348.674.742-1.014 1.836-1.542 2.431-1.174.596.368 1.334.262 1.642-.236.307-.497-.787-1.101-2.431-1.343-2.645-.388-2.99-.148-2.99 2.079m-466 1.077c0 .518.445 1.216.989 1.552.566.35.734-.051.393-.941-.665-1.732-1.382-2.049-1.382-.611m11.488 1.078c-.392.635-.213 1.656.399 2.268.817.817 1.113.794 1.113-.087 0-.66.45-1.2 1-1.2s1 1.575 1 3.5.45 3.5 1 3.5 1-1.8 1-4-.413-4-.918-4c-.505 0-1.585-.256-2.399-.568-.814-.313-1.802-.048-2.195.587m10.037.941c-.848 1.372-.097 2.402 1.38 1.894.606-.208.683-.914.188-1.711-.625-1.006-1.03-1.053-1.568-.183m423.683.677c.9.9 2.347 1.364 3.214 1.031 2.719-1.043 1.722-2.668-1.636-2.668-2.977 0-3.093.121-1.578 1.637m62.792.946c0 1.766 2.153 1.459 2.771-.395.218-.654-.317-1.188-1.188-1.188s-1.583.712-1.583 1.583m-183.972 1.379c-1.261.797-1.225 1.025.25 1.591.947.364 2.497.364 3.444 0 1.475-.566 1.511-.794.25-1.591-.81-.512-1.697-.931-1.972-.931-.275 0-1.162.419-1.972.931m179.298-.266c-1.196.233-2.894 1.521-3.773 2.864-1.563 2.384-1.536 2.44 1.174 2.45 2.093.007 3.264.846 4.773 3.421 1.813 3.093 2.137 3.261 3.467 1.8 1.299-1.427 1.28-1.54-.167-.984-.968.371-1.859.041-2.186-.81-.312-.814.037-1.437.804-1.437.745 0 1.556-1.369 1.802-3.043.329-2.246.097-2.909-.887-2.531-.738.283-1.333-.145-1.333-.957 0-.808-.337-1.408-.75-1.333-.413.075-1.728.327-2.924.56m-501.311 3.054c.012 2.143.23 2.419.985 1.25 1.264-1.957 1.264-4 0-4-.55 0-.993 1.237-.985 2.75M683 685c0 .55.423 1 .941 1s1.219-.45 1.559-1c.34-.55-.084-1-.941-1s-1.559.45-1.559 1m-467.921 2.583c.048 1.165.285 1.402.604.605.289-.722.253-1.585-.079-1.917-.332-.332-.568.258-.525 1.312m360.181-.098c-.782.888-.874 1.635-.25 2.021.544.337.99.135.99-.447 0-1.833 3.462-1.149 4.768.941 1.808 2.896 3.232 2.455 3.232-1 0-2.807-.242-2.998-3.75-2.962-2.062.021-4.308.672-4.99 1.447M220 688c-.901.582-1.025.975-.309.985.655.008 1.469-.435 1.809-.985.767-1.242.421-1.242-1.5 0m541 0c.825.533 2.175.969 3 .969 1.333 0 1.333-.107 0-.969-.825-.533-2.175-.969-3-.969-1.333 0-1.333.107 0 .969m-34 1c1.976 1.277 5.289 1.277 4.5 0-.34-.55-1.829-.993-3.309-.985-2.105.012-2.364.227-1.191.985m-511 1.794c0 .529.727 1.564 1.615 2.302 1.398 1.16 1.566 1.086 1.25-.545-.376-1.944-2.865-3.469-2.865-1.757M234.5 692c.34.55.816 1 1.059 1s.441-.45.441-1-.477-1-1.059-1-.781.45-.441 1m19 2c-.34.55-.141 1 .441 1s1.059-.45 1.059-1-.198-1-.441-1-.719.45-1.059 1m-22.181 4.033c.975 2.585 1.32 2.813 2.276 1.507.619-.847 1.413-1.54 1.765-1.54 1.178 0 .656 2.827-.61 3.306-.687.26.325.45 2.25.421 1.925-.029 2.938-.242 2.25-.473-2.618-.881-1.107-2.175 1.849-1.584 3.32.664 3.311.888.175-4.563-.124-.215-.849.125-1.611.757-1.413 1.173-6.353 1.064-8.374-.185-.814-.503-.806.141.03 2.354M247.5 696c.34.55.816 1 1.059 1s.441-.45.441-1-.477-1-1.059-1-.781.45-.441 1m352.415.315c.452.452 2.568.669 4.703.482l3.882-.339-4.704-.483c-2.586-.265-4.333-.112-3.881.34M1.272 700c0 2.475.195 3.487.434 2.25.238-1.237.238-3.263 0-4.5-.239-1.237-.434-.225-.434 2.25m266.121-2.418c.334.87.607 1.77.607 2 0 .23.45.418 1 .418s1-.9 1-2c0-1.17-.667-2-1.607-2-1.055 0-1.398.544-1 1.582m-8.393.288c0 .504.704 1.186 1.563 1.516.86.33 1.287 1.048.948 1.595-.355.575.041.744.937.401 2.022-.776 1.993-.863-.948-2.79-1.375-.901-2.5-1.226-2.5-.722m-36.333.797c-.367.366-.667 1.131-.667 1.7 0 .626.466.567 1.183-.15.651-.651.951-1.416.667-1.7-.284-.285-.817-.217-1.183.15m21.412 4.989c.869.234 2.19 1.982 2.937 3.884 1.56 3.977 2.555 4.452 2.555 1.221 0-2.968-2.521-5.789-5.043-5.645-1.423.081-1.557.243-.449.54M235 705.059c0 .479.913 1.359 2.028 1.956s1.783 1.482 1.484 1.966c-.3.484-.087 1.163.472 1.509.577.357 1.013-.37 1.008-1.681-.005-1.481-.902-2.724-2.5-3.465-1.371-.636-2.492-.764-2.492-.285m35.441.473c1.068.807 2.391 1.468 2.941 1.468.55 0 .127-.661-.941-1.468-1.067-.808-2.391-1.468-2.941-1.468-.55 0-.126.66.941 1.468m329.746.218c.186.977 1.432 1.905 2.82 2.102 2.467.349 2.472.335.585-1.75-2.315-2.558-3.856-2.717-3.405-.352M299 729.259c0 .693.9 1.822 2 2.509 1.1.687 2 .843 2 .347 0-.495-.775-1.198-1.722-1.562-1.475-.566-1.511-.794-.25-1.591 1.235-.782 1.191-.934-.278-.947-.962-.008-1.75.552-1.75 1.244" fill-rule="evenodd"/></svg>