<svg xmlns="http://www.w3.org/2000/svg" width="612.782" height="481.989" viewBox="-0.782 0 612 481.989" preserveAspectRatio="xMidYMid"><path d="M.782 481.989h612V234.741c-1.021 0-1.224.204-1.224 1.224v34.272c0 1.271-.366.716-1.049 1.399-.354.354-.175 1.229-.175 1.661 0 2.133-2.901-1.836-4.896-1.836-.91 0-2.223-.243-3.06.175-.551.276-1.506 2.254-2.273 1.486-1.276-1.275 1.116-5.945-2.011-5.945-3.625 0-10.354 3.972-11.453 5.071-.832.832 3.131 2.596.612 4.896-1.007.92-2.629.234-3.847.437-2.193.366-4.247 2.062-5.683 3.497-2.666 2.667-9.989-1.551-12.502.962-.521.521.355 2.273-.787 2.273-1.435 0-.061-3.995-.787-4.721-.665-.664-9.39-.664-10.054 0-.647.647 4.825 4.355 2.448 6.732-2.01 2.009-1.555-2.393-3.847-2.011-1.165.194-.354 2.742-1.399 3.439-.718.479-2.459-.723-3.497-.204-.716.358-1.761 2.611-2.885 1.486-1.1-1.099 1.259-6.388-1.399-5.945-.834.139-4.137 1.566-4.284 2.448-.059.35-.204.612-.612.612-1.195 0-2.194-3.576-4.109-1.661-.845.845.76 6.557-.787 6.557-.696 0-.776-1.315-1.399-1.661-.75-.417-2.107.254-2.71-.35-1.788-1.787 1.022-7.358-1.516-9.442-4.155-3.413-4.14 2.433-7.227 1.661-1.218-.304-.12-1.606-.787-2.273-.718-.718-3.158-.016-4.109-.175-.107-.018-3.736-2.794-4.109-3.147-.443-.418-.739-.635-1.399-.525-1.443.241-.017 2.727-.787 3.497-1.878 1.878-7.217-1.875-9.442.35-5.105 5.105-6.696.575-9.792 3.672-.769.769.419 2.554-.35 3.322-.111.111-.283.149-.437.175-3.668.611-6.311 2.48-9.792 3.06-3.899.65-3.87-2.481-7.344-3.06-3.467-.578-6.521 3.606-9.792 3.06-1.279-.213-2.83-3.703-3.847-4.721-1.577-1.576-14.094-.245-14.338 0-.111.111-.15.282-.175.437-.327 1.959.612 3.82.612 5.508 0 .712-1.224 1.607-1.224 3.06 0 .281-.076.799.175 1.049 1.179 1.18 5.859.077 5.333 3.235-.191 1.143-1.683.917-1.836 1.836-.197 1.18.694 4.464-.175 5.333-3.225 3.225-8.161 4.292-9.005 9.355-.645 3.869 5.445-.849 4.896 2.448-.224 1.341-2.183.085-2.885.787-.454.454.81 8.417 1.224 8.83 1.584 1.585 3.667-2.364 4.546-1.486.958.958-3.433 3.824-1.486 5.77 1.582 1.583 6.284-4.71 7.344-5.77 1.573-1.573 5.074 1.57 6.382.262 1.488-1.488 7.122-7.827 9.18-5.77.108.108-2.867 3.995-3.497 4.415-4.781 3.188-10.465 7.273-14.601 11.41-1.04 1.04-1.258 3.181-2.098 4.021-2.614 2.614-4.873 4.649-6.863 8.131-.696 1.217-.189 5.041-.481 5.333-2.205 2.205-5.273 4.749-7.606 7.082-1.507 1.506-4.01 5.564-6.295 5.945-2.926.488-4.786-4.073-6.295-3.235-.383.213-1.126.361-1.486 0-.984-.983.235-4.209-1.399-5.027-3.211-1.605-2.339 3.18-4.896 2.754-1.754-.292-4.28-7.585-5.428-9.166-4.021-5.542-3.989-10.003-4.976-15.926-.026-.155-.064-.326-.175-.437-1.895-1.895-3.069-5.604-5.158-7.694-1.228-1.227-.445-5.858-1.246-7.781-.726-1.741-2.711-3.367-3.563-5.071-.941-1.882-1.057-6.516-1.945-9.005-1.478-4.136-4.006-8.192-5.151-11.628-.909-2.727-.828-5.83-1.787-8.568-1.335-3.815-4.843-9.369-4.843-13.464 0-1.147 1.438-1.161 1.224-2.448-.171-1.023-2.278-2.649-2.448-3.672-.563-3.378-.243-7.055-1.29-10.404-1.719-5.501-4.125-10.012-4.83-15.3-.302-2.261 1.632-3.606 1.836-5.508.381-3.558-2.81-6.161-1.749-10.404 1.141-4.563 3.355-5.442 1.399-9.355-1.114-2.227 2.688-2.098 2.492-2.885-.862-3.449-7.337-9.133-7.65-11.016-1.589-9.533 6.664-17.418 12.677-23.431 2.174-2.174 2.737-6.934 4.634-8.83.66-.661 2.049.311 2.71-.35 1.999-1.999 3.183-6.156 5.246-8.218 1.949-1.949 2.936 2.02 4.721 1.574 2.29-.573 9.184-1.25 10.899-2.536 1.001-.75.137-3.296 1.341-3.497 2.138-.356 6.641 1.77 7.344-2.448.106-.64.302-3.02-.175-3.497-1.651-1.651-3.61 1.476-4.721 1.661-3.239.54-6.135-1.833-9.792-1.224-.149.025-4.439 6.415-4.896 3.672-.631-3.787.683-4.41 3.672-5.406 1.606-.535 1.038-2.447 3.06-2.55 3.958-.202 7.457 3.041 11.016 2.448 1.372-.229 8.628-6.29 5.945-7.781-4.456-2.476-6.005 7.372-10.054 3.322-1.929-1.928 2.273-4.255 2.273-4.721 0-1.147-1.439-1.161-1.224-2.448.07-.419.192-.542.612-.612 2.265-.377 2.593-4.167 4.109-5.683.103-.103.222-.191.35-.262 3.539-1.966 5.726-6.804 7.956-10.52.834-1.39 2.487-1.234 3.322-2.07 1.732-1.732 2.685-5.654 4.546-7.781 5.874-6.713 10.876-13.335 18.142-19.147 3.938-3.151 9.311-9.596 9.311-14.513 0-1.89-8.354-4.76-5.333-7.781 2.02-2.021 10.443-8.179 13.114-5.508 1.586 1.586-4.375 8.132 1.399 7.169 2.132-.355-1.164-7.581 1.399-9.005 2.388-1.327 1.681 1.461 2.885 1.661 1.737.29 1.873-2.85 4.284-2.448 1.34.224.084 2.183.787 2.885 1.758 1.759 4.053.229 6.12 1.836.274.214.737.223 1.049.175 1.547-.238 1.707-2.374 3.235-2.827.863-.256 1.924.539 2.885.379 3.995-.666 9.87-7.772 12.065-9.967 1.813-1.813-2.343-4.703-.874-6.382 1.639-1.874 5.13-2.07 6.732-3.672.089-.09 4.181 4.837 5.945 4.585 1.585-.226 4.103-1.664 5.508-1.547 1.859.155 2.807 1.37 4.896 1.071 2.912-.416 5.937-3.233 8.568-3.672.72-.12 2.32.39 2.885-.175 1.348-1.348 2.937-3.397 4.546-4.546 3.348-2.391 7.406-.302 10.317-.787 5.894-.982 13.815-1.588 18.972-2.448 1.997-.333 9.678-1.909 9.18-4.896-.202-1.208-1.65-.163-2.273-.787-.853-.852-.292-2.652-.962-3.322-.627-.627-5.866.707-6.382 1.224-2.935 2.934-4.88-.689-6.12 0-1.293.718-2.358 2.825-4.022 3.934-1.298.866-2.371-.825-3.497-.262-.657.328-1.081 1.661-1.836 1.661-2.094 0-4.13-1.508-6.12-1.224-1.14.163-1.509 1.836-2.448 1.836-.91 0-1.001-1.14-1.836-1.071-1.848.154-11.823 2.738-12.328 3.344-.66.792.606 1.706-.087 2.448-.297.318-4.355 2.011-4.721 2.011-1.158 0-.125-2.775-1.836-3.06-3.988-.664-10.84 2.887-14.513-.787-.496-.495 4.398-1.634 1.486-4.546-2.439-2.439-6.497 4.432-10.054.874-.5-.499.029-.886.437-1.049 4.502-1.801 4.243-12.852-.612-12.852a.662.662 0 00-.437.175c-.94.877-3.05 8.506-3.235 9.617-.081.484-.613.873-1.049.437-1.176-1.175-.787-11.98-.787-13.289v-3.06c0-4.449-3.267-3.658-3.06-4.896.175-1.05 5.819-3.023 7.169-2.273.372.207 1.443 5.156 2.36 3.322.882-1.763-.116-5.054 2.274-6.382.465-.258 3.758 2.185 4.284 2.71.11.111.28.175.437.175.833 0 .816-2.302 1.399-2.885 1.545-1.546 3.283.912 4.109 1.049 1.74.29 3.665-1.493 5.945.787.619.619.175 3.264.175 4.109 0 3.728-1.617 8.829.437 12.415.281.491-.081 1.661.787 1.661 2.417 0 .446-4.38 1.399-5.333.546-.546 1.552.197 2.098-.35.67-.67.109-2.469.962-3.322 1.613-1.614 2.865-3.805 4.546-5.246.482-.412 2.488-.25 3.235-.437.752-.188.443-1.224 1.224-1.224.684 0 .771 1.94 1.661 1.049.718-.718 2.142-5.253 2.623-5.333 2.197-.366 12.852 1.265 12.852-1.224H411.434c0 2.819 5.406-.073 5.406 1.836 0 3.377-3.778 6.065-5.843 8.131-.746.746-1.517 4.344-2.123 5.556-1.598 3.197-3.774 5.761-6.183 8.17-.448.448-3.095-2.325-4.546-.874-.928.928.991 1.981.262 2.71-.77.771-3.257-.655-3.497.787-.288 1.726 3.211 2.253 1.093 4.109-2.25 1.971-9.019 3.554-10.098 4.634-4.88 4.88 7.116 4.688-.787 8.865-.731.387-5.129 2.588-5.508 2.588-1.239 0-1.427-2.822-3.672-2.448-2.388.398-5.265 1.342-8.568 1.224-3.014-.107-6.631-1.831-9.355 1.049-1.551 1.64.963 3.15 1.836 4.022.769.769-.419 2.554.35 3.322 2.716 2.716 7.585-1.759 10.841-.131 1.167.584 6.308 3.44 4.721 5.027-.574.574-2.664.287-3.497.634-1.356.565-.66 1.687-1.399 2.426-.998.998-6.69-.08-7.781-.743-1.195-.725-.533-3.978-2.448-3.978-.984 0-.342 1.216-.787 1.661-1.15 1.151-5.836 2.947-7.781 2.623-1.158-.193-.234-2.237-1.399-2.885-1.013-.563-3.125.46-3.934-.35-2.039-2.039-3.26-2.873-6.295-3.986-.836-.307-1.149-1.959-1.836-1.959-.843 0-2.2 2.305-3.06 2.448-2.321.387-6.067.297-7.781 2.011-.746.746-1.306 4.109-3.235 4.109-3.062 0 1.272-7.371-3.497-4.721-1.941 1.078.129 5.345-.175 7.169-.191 1.141-1.805 1.455-2.623 2.273-2.313 2.313-8.321-2.591-10.229-2.273-.209.035-4.926 3.624-5.683 4.066-1.314.766-4.5-1.535-5.945-1.618-2.901-.165-4.295 2.177-6.732 2.448-3.503.39-2.166-4.97-4.896-4.743-3.507.293-5.041 8.21-5.071 8.24-.61.61-2.656.356-3.497.665-2.195.805-4.214 3.374-5.683 4.843-1.668 1.669-2.268-2.17-2.885-2.273-2.751-.458-6.256 1.425-6.732 4.284-.517 3.103 3.944.352 5.508.612 1.143.191.916 1.683 1.836 1.836 3.973.663 7.129 1.198 10.579 3.497 1.133.756 3.593-.603 4.546.35 1.228 1.228-1.969.998-2.273 1.049-1.143.191-.917 1.683-1.836 1.836-1.454.243-2.212-.825-3.672-.408-.985.281-7.956 4.985-7.956 5.916 0 4.098 3.705.995 5.333 2.623 1.11 1.111 1.885 2.989 2.798 3.934 1.461 1.515 9.443 1.814 11.453 1.312 1.212-.303 2.045-2.259 3.06-2.259 2.476 0 6.036.7 8.568 1.122.845.141 2.65 2.509 1.661 3.497-1.031 1.031-3.44 1.167-3.497 2.623-.076 1.938 5.023 5.349 6.732 4.78 3.64-1.214 4.76-2.459 6.907-4.605.853-.854 4.342 1.719 5.07.262.446-.89-1.774-2.334-.786-3.322 2.354-2.354 5.566-4.634 7.606-7.694.921-1.382-1.666-2.53-.874-3.322.252-.253 4.23 3.171 5.945 2.885 1.027-.171.256-1.13.787-1.661.603-.603 1.96.067 2.71-.35 1.854-1.03 2.201-2.923 4.022-3.934.355-.197.633-.244 1.049-.175 1.668.278 6.274 7.215 9.005 4.721.559-.51.418-1.648.903-2.273 3.174-4.08-4.578-1.751-6.673-3.847-.111-.111-.15-.282-.175-.437-.441-2.646 2.448-3.541 2.448-6.12 0-.862-.791-1.375-.612-2.448.025-.155.098-.3.175-.437 2.273-4.092 5.87 3.281 7.169 3.497.171.029 7.047-3.598 7.344-1.224.604 4.833-4.844 5.194-4.896 5.508-.503 3.018.097 8.733-2.623 11.453-.894.894-5.03 1.529-5.486 2.623-1.102 2.644-4.002 9.925-4.918 10.841-.989.989-3.699.115-4.546.962-.547.547.178 1.533-.35 2.098-1.261 1.351-3.135 1.595-4.546 3.41-.704.905.006 3.023-.175 4.109-.172 1.028-1.131.256-1.661.787-.406.406-.67 3.403-.787 4.109-.026.155-.064.326-.175.437-2.392 2.393-2.056 6.952-4.284 9.18-5.312 5.312-8.346 15.192-9.617 22.819-.172 1.028-1.131.256-1.661.787-1.218 1.217-2.93 7.788-3.235 9.617-.431 2.585.868 6.225-.117 9.18-1.134 3.402-5.595 12.095-6.79 13.289-.873.873-4.423.221-4.721 2.011-.528 3.168.806 2.381 2.273 3.847.136.137-.357 3.628-.437 4.109-.17 1.021-1.124.268-1.661.787-.822.793-.437 3.625-.711 4.721-.362 1.449-2.482 2.122-2.371 3.672.149 2.092 4.692 3.985 4.568 4.109-.603.603-2.683.098-3.497.234-1.706.284-2.815 2.144-4.284 2.389-2.465.411-4.346-.612-6.732-.612-.281 0-.799-.075-1.049.175-1.446 1.446 4.269 6.795 3.322 9.005-1.969 4.594-7.762 19.531-8.568 19.934-.616.308-1.444-.829-2.098-.175-.997.996-.863 6.711-1.452 8.393-.875 2.5-8.207 11.058-8.952 11.803-2.177 2.177-3.265 11.133-4.634 12.502-6.434 6.435-14.437 19.459-15.125 27.715-.091 1.093-1.554.182-1.88 1.224-1.614 5.164-.446 11.244-4.677 15.475-.705.705-.401 4.186-.831 5.333-1.402 3.74-7.486 13.801-9.136 14.076-3.846.641-.907-2.393-2.011-3.497-.874-.874-3.061.524-3.934-.35-2.733-2.732 5.397-2.47 2.098-5.77-2.544-2.544-4.759 3.797-5.508 4.546-.546.547-1.552-.196-2.098.35-.294.294-.119.713-.175 1.049-.081.484-.613.873-1.049.437-.906-.905.435-4.122.301-5.333-.27-2.428-1.45-5.785-1.088-7.956.098-.588 1.771-1.107 2.273-2.011 1.234-2.222 2.412-12.338 1.836-13.201-2.411-3.617-10.255-2.911-10.666-3.323-3.67-3.669-8.787-10.051-14.863-9.617-2.186.156-9.273 1.952-9.18 3.06.084 1.013 1.461.414 1.224 1.836-.092.553-3.728 2.537-4.241 2.317-4.208-1.804-5.272-7.808-8.174-10.71-2.932-2.931-5.303 1.454-7.169 1.661-2.865.319-3.095-3.371-4.896-3.672-2.614-.435-5.041 1.608-7.344 1.224-1.191-.198-2.393-2.655-3.235-3.497-1.551-1.551-6.61-2.818-7.781-2.623-.969.162-.797 1.548-1.836 1.895-10.23 3.409-4.617 14.612-8.131 18.126-1.359 1.359-5.852.87-7.781 2.317-1.636 1.227-1.381 5.009-2.623 6.251-1.366 1.366-2.563-1.505-3.497-1.661-1.006-.167-4.046 1.335-4.721 2.011-2.825 2.825 7.177 4.363 3.322 8.218-4.552 4.552-11.447-4.288-13.814-2.71-3.853 2.569 1.899 8.896.35 10.666-3.129 3.577-4.963-.804-7.169-.437-1.623.271-1.839 2.713-2.623 3.497-1.269 1.27-4.824 1.376-6.557 1.909-1.231.379-2.516 2.76-3.235 3.599-.204.238-.229.494-.131.787 1.515 4.547 2.401 9.458 1.53 14.688-.153.916-6.12 1.394-6.12 4.284 0 1.129 2.353.887 3.06 1.122 2.194.732 8.366 4.85 5.333 7.883-2.932 2.932-2.303-3.789-2.448-3.934-.642-.642-2.661-.035-3.497-.175-1.559-.26-3.046-1.56-4.109-2.623-1.275-1.274-1.629-5.213-2.798-6.382-.919-.919-3.153-.012-4.284-1.224-1.285-1.376 1.505-2.167.612-3.06-3.818-3.818-13.829-7.735-18.797-6.907-2.652.442-4.833 4.483-6.295 5.945-.579.58-2.674.144-3.497.379-2.26.646-5.564 2.038-7.169 3.643-3.46 3.459.251 8.606-1.574 11.89-.383.689-1.488 3.937-1.836 4.284-1.97 1.97-4.718 1.419-4.109 5.683.843 5.905 6.31-1.545 5.508 3.672-.27 1.755-9.953 2.876-11.803 4.109-.376.251-.606.175-1.049.175-.204 0-.41.029-.612 0-1.277-.182-2.912-2.448-3.672-2.448-1.194 0-5.79 4.006-7.811 2.273-1.058-.907-1.357-9.781-.582-10.666.66-.755 2.059-.727 2.273-2.011.331-1.987-.534-5.155-.612-7.344-.072-2.017 1.836-1.433 1.836-2.448 0-.758-.781-.538-1.224-.612-2.766-.461-5.064.095-7.781-2.623-1.569-1.568 1.502-8.089-.787-9.005v130.968" fill="#FFF" fill-rule="evenodd"/><path d="M412.046.345h-2.448c-.311.776-.914.776-1.224 0H290.87c0 1.714 2.448 1.429 2.448 3.06 0 1.019-2.01 1.005-2.623 1.661-2.445 2.619.203 2.921-2.39-.262-.39-.479-1.719-.793-1.719-1.399 0-1.379 1.836-1.202 1.836-3.06H.782v360.468c2.261 0 2.167 1.206 3.235 2.273 5.589 5.59 4.204 5.593 2.863 11.191-.318 1.328-.067 6.472-.765 7.169-2.167 2.167.787.27.787 2.011 0 6.112 5.423 1.568 9.18 1.836 1.657.119 2.153 1.945 3.672 1.836 2.196-.157 13.085-2.621 13.464-4.896.127-.764 0-1.671 0-2.448 0-5.526-4.663 2.621-5.508-2.448-.708-4.248 3.431-2.612 4.663-4.459.345-.517-.499-2.166-.379-2.885.153-.919 1.645-.693 1.836-1.836.404-2.425-1.31-5.948-.306-7.956 3.248-6.497 6.486-3.47 8.087-5.071.829-.829-.053-2.445 2.011-2.273.92.077.463 1.715 1.661 1.049 1.231-.684.214-1.962.962-2.71.546-.546 1.552.197 2.098-.35 1.067-1.067 1.119-3.144 3.235-3.497 1.653-.275 1.486 1.224 2.448 1.224.846 0 .385-1.119 1.224-1.224 1.71-.214 3.917.612 5.508.612 5.766 0 6.035 6.495 8.101 8.393.945.868 2.958.568 3.964 1.574 2.016 2.017 3.102 6.687 5.246 8.83.987.988 3.508-.565 4.575.35.867.743.05 2.562.903 3.322 1.072.957 6.585 1.663 7.636.612 1.017-1.017-.469-1.43-.874-1.836-1.738-1.737-3.288-4.423-5.246-6.382-.738-.737-3.114-.141-3.934-.962-3.131-3.131 4.022-3.589 4.109-4.109.397-2.382-.397-4.962 0-7.344.175-1.049 1.836-1.021 1.836-1.836 0-.557-1.862-1.393-2.273-2.011-.597-.894-.045-5.61.592-6.469 1.596-2.154 7.184-1.045 8.85-2.711.833-.833-.22-3.869 2.011-3.497 1.129.188.255 2.448 1.836 2.448.684 0 1.833-1.836 3.06-1.836.926 0 1.797 2.137 2.885 1.049 2.617-2.617-5.044-10.185-.874-12.502 1.723-.957 1.633 1.302 2.885 1.72 3.539 1.179 7.148 4.683 10.841.99 4.759-4.759-4.845-5.778-2.71-8.218 2.863-3.272 4.192.831 6.557.437 1.39-.231 1.516-4.973 2.579-5.945 2.172-1.985 8.322-1.781 9.355-3.847 2.031-4.063-1.066-12.437 3.453-15.737.959-.7 2.517-.661 3.585-1.195.71-.355 1.216-2.04 1.836-2.04 1.168 0 .055 1.836 1.224 1.836 1.27 0 1.419-1.836 2.448-1.836 1.866 0 4.836 5.192 6.732 5.508 2.78.464 5.267-1.224 7.344-1.224.815 0 3.278 3.403 4.896 3.672 2.093.349 4.633-4.197 7.169-1.661 4.062 4.062 5.813 10.185 10.054 14.426 1.642 1.642 3.788 1.864 5.246 3.322.445.446-.197 1.661.787 1.661 1.436 0 1.758-3.4 1.049-4.109-1.205-1.205-5.487-2.002-5.333-3.847.121-1.45 2.448.272 2.448-1.836 0-.824-1.252-4.519-1.049-4.721.965-.965 2.107 1.309 3.497.962 5.766-1.442 7.447-2.607 11.803 1.748.808.809 2.969.609 3.934 1.574 1.146 1.147 1.224 3.672 2.798 4.546 1.643.913 4.061-2.369 5.77-.874 1.362 1.192 3.81 2.044 4.896 3.672 3.091 4.636-4.918 13.549-4.415 17.573.278 2.228-.312 10.333 1.705 11.453 2.351 1.307.974-2.056 2.273-2.273 2.606-.434 4.294.818 6.732 1.224 1.928.322-.229 4.424 4.284 3.672 1.593-.265 2.87-3.7 3.468-4.896.959-1.919 4.111-3.246 4.488-5.508.322-1.932.68-7.674 2.011-9.005 2.985-2.985 3.564-14.58 4.284-15.3 2.864-2.865 2.156-6.499 3.905-10.579 1.028-2.398 2.939-3.181 4.313-4.983 3.703-4.86 4.97-9.342 9.18-13.552.664-.664.107-3.158.379-4.109.637-2.229 2.746-6.885 4.255-8.393 2.923-2.923 7.122-8.285 8.597-12.415.272-.763 1.653-7.005 1.807-7.081.616-.308 1.444.829 2.098.174 1.568-1.568 1.847-5.518 3.672-7.344.564-.564.055-2.165.175-2.885.257-1.543 1.935-3.509 2.273-3.847 1.614-1.614 2.166-9.146 2.798-10.229.258-.443 1.572-.963.874-1.661-1.018-1.018-1.548.145-2.448-1.399-.347-.594-1.815-1.332-.874-2.273 1.313-1.313 3.078.878 4.109 1.049 1.398.233 12.02-2.964 12.24-4.284.83-4.98-5.623-.076-6.12-3.06-.302-1.813.738-2.049 1.661-3.235.76-.977-.521-3.064.35-3.934.952-.952 3.497-4.333 3.497-6.295 0-1.447-3.52-.914-3.06-3.672.212-1.273 5.526-.98 6.557-2.011.712-.712.02-3.14.262-4.109.546-2.182 1.963-4.418 3.439-5.683.127-.109.195-.278.248-.437 1.852-5.556.842-11.178 2.244-17.136.437-1.857 2.855-3.488 3.181-4.896 1.49-6.434 2.622-13.908 6.407-19.584.943-1.414 2.329-.537 3.191-1.399.657-.656.397-3.126.918-4.109 2.494-4.707 4.507-8.738 6.907-12.852.874-1.498-1.048-2.713-.131-4.284 1.139-1.954 3.441-2.946 4.896-4.765.108-.135.276-.217.437-.284.964-.402 3.464.012 4.109-.634.676-.676-.035-2.599.35-3.497.752-1.756 2.17-2.083 3.322-3.235.696-.695-.062-2.566.481-3.497 1.704-2.922 3.606.722 4.765-.437 1.077-1.077-1.01-2.051 0-3.06.546-.546 1.552.197 2.098-.35.564-.564.055-2.165.175-2.885.103-.619 1.963-4.104 2.229-4.459.729-.972-1.33-3.434-.218-4.546.873-.874 3.06.524 3.934-.35.629-.629.057-2.672.175-3.497.162-1.139 1.836-1.509 1.836-2.448 0-1.078-3.548-.612-4.284-.612-1.508 0-2.431-1.431-3.672-1.224-1.126.188-.082 1.787-1.224 1.836-2.136.093-4.374-5.233-7.169-2.885-2.543 2.136.3 5.12-1.574 6.994-1.501 1.501-3.898 1.538-5.158 2.798-1.459 1.458-2.005 3.841-3.672 5.508-.144.144-.572.437-.787.437-1.398 0 .054-2.419-2.448-1.377-1.728.72.169 2.981-1.224 3.213-1.914.319-2.458-3.588-2.938-4.896-.499-1.361-3.182-2.017-3.182-3.672 0-.895 1.372-.887 1.224-2.448-.129-1.355-1.467-2.218-1.224-3.672.135-.814 1.224-.396 1.224-1.224a.801.801 0 00-.175-.481c-2.552-3.189-6.57.564-9.005-.247-1.391-.464-6.892-1.909-8.131-.671-2.063 2.063 2.26 3.972 2.535 5.071 1.128 4.513 6.875 4.077 7.869 5.071 1.663 1.663 6.674 5.77 6.907 7.169.369 2.217-3.899 2.089-4.663 3.235-.529.793 1.105 2.421.204 3.322-.911.911-3.157-.645-3.497 1.399-.12.718.847 2.475.437 2.885-1.119 1.12-2.981-.792-3.934-.262-1.635.908-4.802 6.823-8.073 5.188-.567-.284-3.118-2.933-3.118-3.527 0-1.018 2.01-1.004 2.623-1.661 1.801-1.93-.741-5.737-2.623-6.207-1.053-.264-8.876-.983-9.792-.525-.995.497-1.966 2.091-3.06 2.273-2.766.461-4.591-1.836-6.12-1.836-.828 0-.41 1.089-1.224 1.224-2.203.367-3.995-3.194-5.071-4.808-.728-1.091-3.497.643-3.497-.7 0-5.132 8.02-6.019 11.191-7.781 1.012-.562 4.505 1.792 4.109-.787-.277-1.799-5.272-1.94-6.732-2.295-2.886-.7-2.862-1.811-5.071-3.038-2.471-1.372-10.349-.678-9.617-5.071.143-.861 2.968-.965 3.497-.437.786.786 3.193 5.025 5.508 2.71 1.077-1.076-1.831-1.754-.874-2.71 1.557-1.558 8.169-2.137 8.83-2.798 1.345-1.344-.92-7.7 3.235-8.393 1.007-.168 3.575 4.624 6.12 4.896 2.566.275 3.974-2.958 4.896-2.958 2.599 0 4.794 2.098 7.344 1.734 2.604-.372 4.057-2.448 6.732-2.448 1.867 0 9.28 1.577 10.229 1.049 2.687-1.493.595-5.403 2.186-6.994 1.949-1.95 1.004 3.702 3.409 2.098 1.977-1.317 2.101-3.324 3.323-4.546 2.378-2.378 6.103-.595 8.568-3.06.111-.111.282-.149.437-.175 2.234-.372 6.161 1.221 7.344 3.06.538.838-.562 2.865.612 3.06 1.004.168 2.255-1.679 2.885-1.049.824.824 2.491 3.536 3.847 3.497 1.164-.033 6.082-.924 6.557-1.399.695-.694-.266-1.938 1.399-1.661.834.139 2.825 2.298 3.847 2.827.764.396 3.631.052 4.721.233 1.274.213-.019 2.145 1.836 1.836 1.028-.171 1.321-3.419 2.011-4.109 1.1-1.101 4.788.099 5.537-1.399 1.788-3.577-1.242-2.499-3.264-3.366-1.36-.582-2.945-2.531-4.284-2.754-3.143-.524-6.022.527-9.18 0-.038-.006-2.866-5.352-2.273-5.945 2.886-2.886 11.375-.698 14.513-.175 2.428.405 1.993-1.836 3.06-1.836 2.241 0 1.2 4.319 3.016 3.541 1.727-.74 9.525-4.122 9.836-5.989.603-3.622-6.399-3.043-2.885-6.557 1.936-1.937 7.168-1.31 9.442-3.963 1.486-1.734.285-5.152.35-5.217 1.327-1.328 5.485-.59 6.732-1.836 3.874-3.874 5.85-10.746 8.568-13.464 2.003-2.004 6.557-6.569 6.557-9.967 0-1.569-5.518.283-6.12-1.224M612.782 235.353v-128.52c-1.077-.43-1.077-6.301 0-6.732v-1.224c-1.101-.44-1.101-7.515 0-7.956V46.857c-.776-.31-.776-.913 0-1.224V24.825c-1.183-.473-1.183-11.767 0-12.24v-6.12c-1.018-.407-1.018-3.877 0-4.284V.957c-.583-.233-.379-.029-.612-.612h-14.076c-.388.971-2.672.971-3.06 0h-42.228c-.762 1.905-10.756.263-12.852.612-.999.167-.607 2.706-1.399 3.497-1.993 1.993-1.368-3.441-2.71-2.098-.821.82-.225 3.197-.962 3.934-1.265 1.265-1.751-3.058-3.322-1.486-1.334 1.334-1.035 4.007-2.186 5.158-.978.978-3.569-.627-4.546.35-.366.366-2.623 10.563-2.623 6.557V2.181c0-1.02-.204-1.224-1.224-1.224h-15.3c-2.727 0-2.321 2.835-3.672 3.06-4.814.802-13.084 2.003-14.076 7.956-.49 2.94.786 5.33 1.224 7.956.434 2.604-.818 4.872-.612 7.344.047.573.749 3.672 1.224 3.672 1.915 0-.725-10.079 1.224-10.404 3.34-.556-1.237 7.956 2.448 7.956 2.025 0 .215-7.956 1.836-7.956.653 0 1.042 12.072 3.497 9.617.67-.67 2.623-9.31 2.623-9.617 0-.45-.091-1.224.612-1.224.727 0 .434.697.787 1.049 6.465 6.466-2.188 6.938-1.399 11.803.21 1.297 3.738 1.028 4.721 2.011.668.668-1.322 2.875-.262 3.934 2.115 2.116 4.292-1.522 5.333-1.661 2.888-.385 5.558 1.836 7.956 1.836 1.427 0 4.758-2.236 5.945-1.049.449.449-1.237 2.202-1.661 2.273-2.27.379-3.142 2.017-1.049 4.109 1.124 1.125 2.084-2.346 2.448-2.71 1.257-1.257 5.59-.481 6.994-2.142.941-1.113-.053-3.809 2.011-4.153 2.139-.356 4.817.67 7.344.068 2.566-.611 4.636-2.064 7.344-2.516 2.253-.375 4.235 1.224 6.12 1.224 1.154 0 1.186-1.253 2.011-1.573 1.042-.406 2.728.283 4.109-.292 1.391-.58 2.159-2.231 3.235-2.768 1.532-.767 6.307 1.474 6.994.786.417-.417-.068-1.068.35-1.486 2.55-2.55 7.169.899 7.169 2.273 0 1.488-7.714 3.53-8.568 3.672-3.924.654-10.351 1.741-15.3 2.448-4.556.651-7.981-2.182-12.852-.153-1.38.575-2.377 3.376-3.672 4.131-1.513.882-13.405 5.192-13.464 5.202-.202.034-.408 0-.612 0-1.919 0-2.886-1.224-4.896-1.224-1.655 0-2.397 1.224-4.284 1.224-.433 0-1.307.179-1.661-.175-1.034-1.033-3.318-6.375-5.508-5.158-.984.546-.358 1.494-.962 2.098-1.813 1.814-4.649.921-5.829 4.459-.438 1.315 2.559 3.707 1.545 4.721-4.227 4.227-7.612 6.953-14.513 9.253-1.401.467-1.791 2.339-3.06 2.55-1.736.289-1.773-1.621-3.06-1.836-1.237-.206-1.955 1.98-3.497.437-1.238-1.237.832-5.333-2.623-5.333-1.001 0-.374 2.316-1.399 2.885-1.653.919-1.4-1.261-2.885-1.049-1.84.263-2.5 2.865-3.672 3.06-2.465.411-6.858-1.36-9.005.787-1.639 1.639-4.071 3.459-5.508 4.896-.462.461-.462 4.697 0 5.158 3.043 3.044 6.182 3.278 3.65 9.355-.587 1.407-5.028 3.687-6.186 4.459-1.16.774-.76 2.458-1.486 3.366-1.266 1.582-4.396 2.775-5.8 3.978-.945.811-.195 2.718-1.194 3.672-1.419 1.354-1.475-1.585-2.448-.612-.696.696.062 2.566-.481 3.497-1.197 2.051-2.874.721-3.366 3.672-.026.155-.064.326-.175.437-2.305 2.306-13.192 14.26-13.493 14.863-1.923 3.846-5.126 9.264-7.927 12.065-.986.986-1.596 2.821-2.448 3.672-1.443 1.444-8.873 1.248-6.382 4.984.656.985 3.013 1.044 3.234 1.486 1.012 2.024-.305 1.699 2.274 3.322.687.433 3.497-.394 3.497.787 0 2.612-13.373-.627-13.464-.612-.991.165-.316 1.101-.787 1.661-.969 1.153-3.121.761-3.934 1.574-.736.736-1.454 5.541-.612 6.382.39.391 1.735.347 2.273.481 5.555 1.389-.723-3.857 3.672-4.59 3.549-.591 6.372 1.713 9.792 1.224 1.265-.18 1.782-1.836 3.06-1.836.913 0 .695 1.892.612 2.448-.535 3.567-5.432 2.146-7.344 2.448-1.869.295-.401 3.433-1.836 3.672-1.633.272-10.279 1.857-10.404 1.836-.875-.146-3.113-2.657-4.721-1.049-1.996 1.996-3.154 5.514-5.246 7.606-.661.661-2.05-.311-2.71.35-.604.604.067 1.96-.35 2.71-1.004 1.807-2.645 5.093-4.284 6.732-6.033 6.033-13.901 14.737-13.901 24.043 0 1.916 3.964 3.15 4.437 4.284 1.376 3.304 2.431 8.16 2.907 11.016.68 4.081-2.425 7.816-3.06 11.628-.475 2.849 1.917 4.505 1.836 7.344-.054 1.882-2.061 4.16-1.836 5.508.441 2.645 1.564 6.532 1.836 9.792.13 1.565 3.358 4.241 3.672 6.12.349 2.099-.984 4.284-.525 6.12.439 1.758 2.774 3.702 2.973 4.896 1.72 10.32 3.65 20.023 7.387 29.988 1.637 4.365 5.324 9.563 6.077 14.076 1.223 7.342 4.887 14.672 8.393 20.983.836 1.505-.098 4.309.175 5.945.19 1.143 1.619.087 1.836 1.224 1.195 6.274 6.609 21.263 12.24 23.14 3.749 1.249.366-3.923 1.836-4.168 3.377-.563 1.29 3.389 2.623 4.721 1.198 1.199 7.264 3.484 9.005 3.235 2.423-.346 4.731-4.381 6.295-5.945 2.347-2.347 5.407-4.883 7.606-7.082 1.176-1.176-1.186-4.067.306-5.857 3.897-4.677 6.848-9.165 11.06-13.377 3.746-3.746 10.54-6.717 13.464-11.103.847-1.272 3.853-1.623 3.497-3.76-.049-.293-1.86-3.06-2.448-3.06-1.142 0-.267 1.753-.787 2.273-1.107 1.108-3.868.895-4.546 1.574-1.315 1.315-1.932 3.068-3.41 4.546-.77.77-5.086-1.559-6.382-.262-.779.779-5.905 5.985-6.12 5.77-2.172-2.171 3.445-3.899 1.836-5.508-1.82-1.819-3.647 1.862-4.896.612-1.832-1.831 2.273-2.701 2.273-4.109 0-2.146-3.425-.352-3.672-1.836-.46-2.757 2.796.356 3.06-1.224.88-5.281-5.977-1.773-3.497-6.732 1.668-3.336 7.517-4.37 8.83-5.683.429-.428-1.287-3.907-1.049-5.333.177-1.065 2.448-1.434 2.448-3.06 0-2.089-4.494-2.396-5.333-3.235-1.703-1.702 1.871-2.849 1.661-4.109-.112-.671-3.799-2.584-1.661-4.721 1.34-1.34 12.653-.461 13.114 0 .795.795 2.458 3.924 3.235 4.144 6.209 1.76 5.96-2.7 10.404-2.33 4.096.342 4.164 4.074 9.18 2.82 3.448-.862 4.697-2.973 8.568-2.973.28 0 .798.076 1.049-.175.769-.768-.419-2.553.35-3.322 2.534-2.535 4.436.281 7.169-.175.852-.142 1.672-3.44 3.06-3.672 2.977-.496 5.465.517 8.568 0 1.503-.25-.28-2.809 1.224-3.06 2.122-.353 2.971 2.01 3.847 2.885.977.978 3.568-.627 4.546.35 1.012 1.012-.218 2.514 2.011 2.885 2.121.354 3.499-4.56 5.333-2.885 2.343 2.14.442 8.31 2.186 10.054.603.604 1.96-.067 2.71.35.711.395.619 1.531 1.399 1.661 2.144.358 1.083-.734 2.011-1.661.25-.25.768-.175 1.049-.175 3.016 0-1.224-2.465-1.224-3.672 0-.556-.083-1.108.612-1.224 1.615-.269 1.486 2.201 3.672 1.836.671-.112 2.584-3.798 4.721-1.661.887.888-.81 4.455.787 4.721 3.312.552 7.161-3.06 8.568-3.06 2.084 0 5.631 1.586 7.519-.437 2.341-2.509-6.463-3.942-4.284-6.12.537-.537 6.456-.537 6.994 0 .556.556.175 2.751.175 3.497 0 .557-.083 1.108.612 1.224 3.783.631.37-2.3 3.06-2.972 2.938-.735 7.625.477 11.016-.088.939-.156.812-2.175 2.448-2.448 1.847-.308 5.806 3.024 7.781 1.049 1.204-1.203-2.273-.789-2.273-1.661 0-1.383 4.464.041 5.202-1.224 1.153-1.976-2.578-2.063-2.142-4.896.028-.182.072-.371.175-.524 1.338-2.009 3.134-.075 3.934-.875.661-.66-.311-2.049.35-2.71 4.765-4.765 6.346 5.996 6.732 6.382.415.416 4.591-5.112 6.994-2.71.516.516 5.071 9.222 5.071 5.333v-41.004c0-.695-.055-.957.612-1.224M362.649 353.906c1.026 1.027 2.776-1.662 3.672-2.01.769-.3 1.977 1.037 2.885.961 2.796-.233 4.545-2.448 7.344-2.448 1.451 0-.214 2.821 1.224 3.06 1.944.324 2.551-6.101 5.071-7.781.663-.442 3.695.51 4.721.437 3.591-.256 5.878-4.5 7.081-6.907 1.086-2.171-3.108-2.933-3.846-3.672-.835-.834-.785-4.598-1.53-5.945-.733-1.323-2.825-4.442-3.716-5.333-.546-.546-1.552.197-2.098-.35-3.292-3.291 1.309-7.783-2.186-11.278-1.003-1.003-5.667-1.566-5.945-3.235-.588-3.524 3.926-.117 3.672-3.672-.124-1.732-1.361-2.061-2.273-3.235-.375-.481.523-3.092.233-4.109-.558-1.951-3.216-3.995-3.468-5.508-.297-1.782 1.224-2.117 1.224-3.06 0-1.571-3.346-4.626-3.692-6.12-2.373-10.254-4.087-23.121-9.597-31.387-.682-1.022.437-1.414.437-2.273 0-1.428-2.433-8.203-3.847-9.617-4.737-4.737-5.819 4.308-8.568 5.683-.616.308-1.444-.829-2.098-.175-.711.711.545 2.984-.962 3.235-.9.15-2.525-.361-3.322.437-1.113 1.113-.856 3.828-2.186 5.158-.445.445-2.829 2.288-2.885 2.623-.238 1.427.287 2.862-.729 4.109-1.664 2.043-4.935 3.555-5.391 6.295-.12.72.389 2.321-.175 2.885-.547.547-1.536-.135-2.142.35-.836.669-.935 4.161-1.53 4.459-.89.445-2.335-1.774-3.322-.787-1.842 1.842.511 7.357-1.574 9.442-1.739 1.739-1.527-2.67-2.71-1.486-1.141 1.141.232 5.188-.962 6.382-.418.418-1.069-.067-1.486.35-1.208 1.208.436 4.985-.35 6.557-1.784 3.569-3.913 1.99-4.546 2.623-.87.869.021 4.154-.175 5.333-.39 2.338-6.979 5.524-3.497 9.005.609.61 2.653-1.425 3.234-.262.99 1.98-.887 7.506 1.05 9.442.977.978 3.568-.627 4.546.35 1.044 1.045 1.186 6.557 3.847 6.557 1.622 0 2.44-2.143 4.284-1.836 1.184.198 1.628 1.7 2.448 1.836 2.428.405 1.993-1.836 3.06-1.836 1.694 0 3.157 1.616 5.508 1.224 2.313-.385.192-4.01 1.836-4.284 1.969-.328.015 1.502.787 2.273.516.517 6.436 2.133 7.169 2.011 3.094-.516-.184-4.362.175-4.721.982-.982 3.231 1.35 4.59.262 1.22-.976.907-3.924 2.142-5.158 2.298-2.299 8.721.893 11.453.437.154-.026.326-.064.437-.175.718-.717.016-3.158.175-4.109.146-.876 5.316-1.065 5.945-.437.435.436.449 2.885-.437 2.885-.72 0-1.052-2.271-2.273-1.049-3.012 3.012 3.638 3.093 1.224 5.508-1.502 1.502-6.211.091-7.956 1.836-1.276 1.275 2.461.975 2.71 1.224.816.817-.437 1.559-.437 2.273 0 .828 1.088.41 1.224 1.224.46 2.765-2.622.347-3.366 1.836-.631 1.262.784 4.068-.481 5.333-.661.661-2.05-.311-2.71.35-1.196 1.196 2.704 5.777 1.486 6.994-.831.832-1.827-2.14-2.885-2.273-1.198-.149-3.894 1.877-4.721 1.049-1.111-1.111-.818-6.45-3.847-5.945-1.123.187-.13 1.561-1.224 1.871-5.008 1.419-5.749 5.252-4.896 10.369.322 1.935 7.205-.401 8.393.787.726.726-.648 4.721.787 4.721 1.434 0 .06-3.995.787-4.721.401-.402 1.342 2.273 2.885 2.273 1.561 0 3.82-3.785 5.945-1.661.977.978-.628 3.569.35 4.546" fill="#000" fill-rule="evenodd"/><path d="M225.823 102.112c-1.324-1.324-2.518 3.649-2.798 4.109-1.042 1.717-3.27.955-4.196 2.623-.78 1.403 2.713 2.588 1.049 2.885-5.492.981-10.142.277-15.3 2.856-3.825 1.912 1.068 5.126-2.448 5.712-2.557.426-.145-2.242-.787-2.885-1.944-1.944-7.169.793-7.169 2.885 0 .875 1.224.35 1.224 1.224 0 3.87 2.891 3.032 6.732 3.672 1.487.248 1.177 2.252 3.672 1.836 1.274-.212-.019-2.145 1.836-1.836.508.085 3.507 4.099 2.885 4.721-3.523 3.523-4.51.551-7.781 2.186-.515.257-2.981 1.797-3.06 2.273-.082.493.346 2.537-.175 2.798-.577.289-3.211.112-4.109.262-.814.136-.396 1.224-1.224 1.224-2.389 0-4.551-1.836-7.344-1.836-.589 0-5.249.475-4.109 1.661.983 1.024 4.542.594 5.945 1.195 12.305 5.274 15.254-.592 23.431-5.741 3.02-1.902 9.923-1.443 12.502-4.022 1.571-1.571-2.751-2.057-1.486-3.322.546-.546 1.552.197 2.098-.35.274-.274 3.235-6.552 3.235-6.557 0-1.044-2.078-1.034-1.049-2.885 1.055-1.901 5.124-3.673 4.721-6.295-.028-.182-.073-.371-.175-.524-.533-.799-1.539-.315-2.098-.875-1.891-1.89-1.92-4.891-4.022-6.994M589.963 115.838c1.491-2.684-4.094-1.244-5.158-1.836-1.563-.868-2.972-4.109-5.071-4.109-.752 0-1.323 3.421-2.011 4.109-.645.645-4.427.305-5.333.175-4.373-.624-9.126-6.2-12.415-8.393-.361-.24-1.144-.342-1.486 0-.723.723 1.148 1.761.262 2.71-1.527 1.637-8.56 3.219-6.382 6.849 2.001 3.335 10.449-.705 9.442 1.107-2.864 5.155-15.849 5.741-16.349 8.743-.548 3.286-4.092-.578-5.683-.961-2.056-.495-1.69 1.252-2.448 2.01-.352.353-1.049.06-1.049.787 0 4.836 11.523 5.09 13.289 4.109 2.586-1.436 7.15-5.814 8.131-5.945 2.622-.349 4.899 2.696 6.732 2.39 4.983-.831 4.746-4.95 7.519-7.723 1.64-1.641 4.854-1.183 6.732-3.06 1.083-1.084 3.109.437 4.109.437.874 0 .349-1.224 1.224-1.224.842 0 4.671 6.857 5.508 1.836.142-.857.006-1.236.437-2.011" fill="#FFF" fill-rule="evenodd"/><path d="M509.179 355.742c.638-1.148-1.9-1.936-2.71-1.486-1.4.777-1.895 4.461-3.847 3.322-.52-.302-.573-.94-1.224-1.049-.601-.1-1.789.31-2.273-.175-1.165-1.164.933-1.58 1.049-2.273.399-2.397-2.959-2.898-.175-5.683.298-.298.298-1.188 0-1.486-.454-.454-8.214.691-8.918 1.207-5.533 4.057-19.108 13.491-21.245 17.765-.241.482.402 2.18.962 2.273 2.452.409 9.27-1.326 10.404 1.224.186.419.106.433.612.306.21-.052.402-.166.612-.218.435-.109.812-.153 1.224.087.443.259.963 1.573 1.661.874.874-.873-.524-3.06.35-3.934.712-.712 1.233 1.223 2.273 1.049.941-.157 2.017-3.06 3.06-3.06 1.71 0 .464 4.655 2.448 3.497 3.643-2.125 3.951-7.099 4.459-7.606 1.471-1.471 1.293 3.2 3.497 2.885 3.223-.46 6.537-5.279 7.781-7.519" fill="#000" fill-rule="evenodd"/><path d="M253.975 80.692c-1.003-1.003-2.227.12-2.426 1.049-.594 2.77-5.097 6.281-7.803 6.732-2.212.369-2.768-1.332-4.284-1.224-4.929.352-9.569 2.287-14.688 2.856-.962.107-5.838 1.972-5.333 2.477.66.661 2.049-.311 2.71.35 1.595 1.595 6.241 3.813 8.568 1.486.759-.758 1.542-3.167 3.235-2.885 1.329.222 1.667 3.95 3.672 4.284 1.032.172 4.121-1.037 4.721-.437.729.729.015 2.515.874 3.497 1.732 1.98 7.656 6.732 10.317 6.732 1.442 0 1.964-2.121 3.06-3.06.709-.608 3.555-1.748 3.672-2.448.617-3.701-6.366-4.267-7.781-5.683-.526-.525.554-1.571.437-2.273-.191-1.144-1.646-.079-1.836-1.224-.374-2.242 5.651-7.463 2.885-10.229" fill="#FFF" fill-rule="evenodd"/><path d="M479.803 18.268c-1.828-1.828-1.478 2.753-2.273 2.885-1.653.276-1.487-1.224-2.448-1.224-.562 0-4.154 6.562-4.284 7.344-.637 3.818 2 6.95 1.136 10.404-.787 3.151-3.224-.01-4.633 1.399-.3.3-.167.575 0 .874 1.237 2.228-.683 3.186-.787 5.071-.063 1.134 1.116 1.93 1.224 3.06.207 2.175-1.224 4.276-1.224 6.12 0 1.437 3.4 1.759 4.109 1.049.773-.773-.588-3.99.35-4.458.942-.472 4.503 1.044 4.721-.263.313-1.881 2.071-.299 3.672-.699 3.712-.928 8.932 1.209 10.841-.7 1.344-1.343-2.665-3.103-3.497-3.38-1.599-.533-3.648.805-5.508.495-2.229-.371-.999-1.873-2.011-2.885-.737-.737-2.37.026-3.322-.874-.201-.189-.474-.451-.612-.7a1.354 1.354 0 01-.175-.437c-.495-2.967 2.097-3.405 2.448-5.508.496-2.977-.497-6.202 0-9.18.201-1.208 1.649-.163 2.273-.787.888-.888.958-6.648 0-7.606" fill="#000" fill-rule="evenodd"/><path d="M441.859 119.248c-2.602-1.446-1.2 4.14-2.404 5.158-1.114.942-3.809-.052-4.153 2.011-.328 1.966 3.006.908 4.109 2.011 1.201 1.202-.446 7.441-1.224 8.218-.851.851-.933-.966-1.661-.845-2.251.375-4.109 1.262-6.12 2.375-1.185.656-5.397 5.751-4.109 7.038 1.95 1.951 3.811-.273 5.455-1.294 1.894-1.175 7.331-3.392 9.67-2.028 4.112 2.399.203-3.7 2.011-5.508.414-.414 5.107-1.887 3.322-3.672-.67-.67-2.47-.109-3.322-.962-3.807-3.806 6.18-3.074 6.557-5.333.342-2.054-2.567-.703-3.497-1.923-1.299-1.704-2.549-1.412-3.672-2.536-.748-.747.269-2.026-.962-2.71M519.583 2.968c-1.297-.72-1.587 4.909-2.448 5.77-1.457 1.457-2.555-1.642-3.322-.874-1.122 1.122-.132 3.716-1.574 5.158-1.077 1.077-1.754-1.83-2.71-.874-1.166 1.166-1.213 10.95-1.399 12.065-.04.24-.045.83.175 1.049.848.849 3.051-.267 4.109.35 8.813 5.141 8.568-8.975 8.568-14.863 0-2.196.899-6.504-1.399-7.781M201.081 247.768c-.996.996 1.161 1.043 1.486 1.224 1.786.993 2.649-1.226 4.459-1.399 1.961-.186 2.706 2.099 4.284 1.836.154-.026.326-.064.437-.175.545-.545-.159-1.517.35-2.098.64-.732 4.015-3.183 4.896-3.672.358-.199 2.518 3.232 4.109 3.497 4.845.808 6.146-3.765 9.267-5.945 1.038-.725 3.149.03 4.022-.932.29-.321 1.399-3.705 1.399-4.139 0-.916-1.891-.691-2.448-.612-3.118.446-5.413 5.32-7.956 4.896-1.108-.184-.1-1.836-1.224-1.836-3.736 0-5.624 3.369-9.792 1.959-2.186-.74-1.208-4.715-3.06-4.407-.63.105-2.038 6.835-2.754 7.956-1.678 2.626-5.378 1.75-7.475 3.847M252.751 231.856c-1.074-1.074-6.872 1.102-7.606 1.836-.853.853-.292 2.652-.962 3.322-1.633 1.633-4.276 3.052-6.12 4.896-.711.711-3.504-1.423-5.246-.262-1.353.902-.61 3.407.35 4.284 4.994 4.56 4.873-1.464 6.47-3.06.523-.523 3.008.905 4.109.262.927-.541 1.885-2.791 2.448-2.885 1.659-.276 1.821 1.018 3.06 1.224 2.581.43 4.02-.874 6.12-1.224 1.296-.216 3.222 1.936 4.109 1.049.957-.956-.569-5.727-1.224-6.382-1.562-1.562-2.885 2.466-3.934 1.486-.981-.915-.652-3.624-1.574-4.546" fill="#FFF" fill-rule="evenodd"/><path d="M33.393 380.572c-.272.489-.44 2.271 0 2.71 1.59 1.591 7.472.216 9.442 2.186.923.923 5.739 5.4 7.344 3.934 2.597-2.371.99-7.315-.874-9.18-1.328-1.328-2.674.669-3.789 0-1.237-.742-1.043-2.493-2.011-3.322-3.444-2.952-8.261.339-10.112 3.672" fill="#000" fill-rule="evenodd"/><path d="M470.623 95.38c-.618-.617-3.497 4.766-3.497 5.945 0 .281.075.799-.175 1.049-1.071 1.072-4.423.839-5.158 1.574-2.252 2.252-3.896 10.53-1.574 12.852 2.434 2.434 2.952-2.603 3.41-3.06.66-.661 2.049.311 2.71-.35.938-.938-.236-3.348.962-4.546 1.29-1.29 2.433 1.764 3.322.874 1.682-1.681.175-11.133.175-13.289 0-.28.075-.798-.175-1.049M558.139 106.658c.748-1.346-.778-3.575-1.486-4.284-.821-.82-.225-3.196-.962-3.934-1.004-1.004-6.774-1.129-8.393-1.399-1.122-.187-4.183-3.408-5.814-.612-2.73 4.68 11.233 7.605 11.759 8.131.549.549.299 2.048.962 2.71.726.727 3.441.276 3.934-.612M465.727 139.444c-.111-.111-.283-.149-.437-.175-2.299-.383-2.115 1.901-3.191 2.885-.789.722-8.308 1.689-5.814 4.284.737.768 3.111.391 4.109.7.898.278 1.573 2.389 2.142 3.147 2.196 2.929 4.698-1.151 6.476-2.41.878-.623 3.622-1.013 3.622-2.486 0-.892-2.978-1.745-3.672-2.142-1.818-1.038-1.953-2.521-3.235-3.803" fill="#FFF" fill-rule="evenodd"/><path d="M443.695 59.884c-1.283-1.282-2.747 2.666-2.885 3.497-.296 1.777.612 3.388.612 4.896 0 1.453-2.811-.341-2.448 1.836.184 1.106 2.315.434 2.797 1.399.308.616-.829 1.444-.174 2.098.775.776 4.091.185 4.896-.262.612-.34 1.603.145 2.098-.35.3-.299.166-.574 0-.874-1.837-3.306 2.373-6.807 0-9.18-1.508-1.508-1.489 3.32-2.71 2.098-.642-.641-.036-2.661-.175-3.497-.057-.342-1.64-1.289-2.011-1.661M441.859 77.02c-4.899-2.721-9.858 12.087-8.218 13.726 3.005 3.006 3.16-1.587 4.284-2.71.669-.67 2.469-.109 3.322-.962.596-.596.54-3.024.962-3.234.616-.308 1.444.829 2.098.174 1.839-1.838-1.604-3.178-2.098-3.672-.788-.787 1.451-2.321-.35-3.322M351.283 214.108c-3.075-1.708-1.694 2.278-2.448 3.41-2.072 3.107-8.715 6.76-5.158 10.316 3.504 3.505 2.848-2.498 3.672-3.322.849-.849 3.048.078 3.934-.927 2.373-2.693 3.035-7.791 0-9.477M205.365 340.442c.576.576 4.574.443 4.721-.437.378-2.27.731-10.547-.787-12.065-.109-.109-3.752.429-3.934.612-.859.859.373 2.686-.612 3.672-.618.618-2.013.046-2.39.612-.821 1.231 2.149 6.754 3.002 7.606" fill="#000" fill-rule="evenodd"/><path d="M526.927 123.794c1.19-1.189-3.386-2.273-4.109-2.273-5.589 0-11.521 1.224-17.136 1.224-.636 0-1.691-.26-1.836.612-.321 1.925 4.174 1.676 5.508 1.989 4.544 1.067 7.66.61 12.24-.153.814-.135.396-1.224 1.224-1.224 1.388 0 2.679 1.255 4.109-.175" fill="#FFF" fill-rule="evenodd"/><path d="M484.699 14.596c-1.013-1.013-3.972 3.287-4.109 4.109-.455 2.727-.871 12.913 2.011 14.513 3.167 1.76 2.273-9.999 2.273-11.453 0-1.835 1.17-5.824-.175-7.169M458.995 41.524c-.704-.704-7.43-.276-5.77 2.71.206.371.715.771.262 1.224-.661.661-2.006-.267-2.71.35-.265.232-.345.776-.481 1.049-.461.923-3.666 3.022-2.579 4.109.071.072 2.718 2.011 2.885 2.011.503 0 1.234-2.367 2.011-2.885.879-.586 2.58.393 3.322-.35 1.258-1.258 5.461-5.816 3.06-8.218" fill="#000" fill-rule="evenodd"/><path d="M490.207 119.292c-2.629-.95-1.963 2.316-3.016 3.278-1.681 1.537-5.64.787-7.038 2.186-1.398 1.398 1.049 2.16 1.049 2.885 0 .822-1.308 3.352.612 3.672 1.41.235 2.446-3.321 3.235-4.109.481-.481 3.277-.842 4.109-1.195 3.472-1.473 4.432-5.496 1.049-6.717M57.873 300.4c-2.304 4.146 6.779 2.032 9.005 1.661.667-.111.989.026 1.224.612.163.408.549.937 1.049.437 2.879-2.879-1.389-4.798-2.098-5.508-1.123-1.122.929-5.925-2.623-5.333-2.575.429 1.724 5.882.437 7.169-1.57 1.57-5.186-2.294-6.994.962M514.687 115.838c.982-.982-2.761-3.374-3.497-3.497-2.088-.348-2.96 1.616-4.284 1.836-1.767.295-6.12-1.267-6.12.612 0 6.619 11.263 3.687 13.901 1.049M86.637 283.264c-1.849 3.327 3.784 2.324 3.846 2.448.308.616-.829 1.444-.174 2.098 1.157 1.158 6.616 3.438 8.218 1.836.853-.853-3.995-1.896-4.546-2.448-1.379-1.378 1.661-1.771 1.661-2.885 0-1.121-1.555-.992-1.836-1.836-1.749-5.247-5.405-2.389-7.169.787" fill="#FFF" fill-rule="evenodd"/><path d="M305.733 330.038c1.375 1.376 5.949-.179 6.994-1.224 2.221-2.221 1.485-6.732-.612-8.83-.3-.3-.738-.155-1.049 0-2.881 1.44-1.099 3.635-2.623 5.158-.624.625-5.384 2.223-2.71 4.896" fill="#000" fill-rule="evenodd"/><path d="M587.515 122.57c1.987-3.576-8.337-2.591-9.442-1.486-1.239 1.239-2.026 6.147.437 6.557 1.413.236.82-1.054 1.836-1.224 4.982-.83 4.825.373 7.169-3.847M162.175 137.608c-.557-.556-2.751-.175-3.497-.175-2.943 0-12.943 3.232-8.393 7.781 1.946 1.947 5.265-2.354 6.12-3.351 1.305-1.523 4.441-.377 5.77-2.769.213-.383.36-1.125 0-1.486M465.115 66.092c-3.903-.651-7.215 8.121-5.508 10.316.369.474-.143 1.661.787 1.661 1.019 0 .916-1.178 1.399-1.661.546-.546 1.527.172 2.098-.35 2.063-1.883 2.011-5.166 2.011-7.781 0-.652.173-2.025-.787-2.185" fill="#FFF" fill-rule="evenodd"/></svg>